<svg width="32" height="32" viewBox="0 0 32 32" fill="none" xmlns="http://www.w3.org/2000/svg">
<rect width="32" height="32" rx="16" fill="#020617"/>
<path d="M18.5388 12.9241C18.1878 12.8112 17.8284 12.7235 17.4606 12.6608C16.9842 12.5772 16.4952 12.5354 15.9895 12.5354C15.4839 12.5354 15.0033 12.5772 14.5352 12.6566C14.1632 12.7193 13.7997 12.8112 13.4486 12.9241C12.9179 13.0996 12.408 13.3253 11.9232 13.6053C12.0778 13.785 12.2158 13.9897 12.3328 14.2112C12.479 14.4829 12.5835 14.7754 12.6504 15.093C12.9555 14.9593 13.2606 14.8423 13.5656 14.742C14.1424 14.5581 14.7358 14.4369 15.3418 14.3909C15.5549 14.3701 15.7722 14.3617 15.9895 14.3617C16.2069 14.3617 16.4367 14.3701 16.6582 14.3909C17.5651 14.4662 18.4594 14.7002 19.3454 15.0972C19.4123 14.7796 19.5168 14.4829 19.663 14.2112C19.78 13.9897 19.9179 13.785 20.0768 13.6053C19.5878 13.3253 19.0738 13.0996 18.5388 12.9241Z" fill="#FDAD00"/>
<path d="M15.3418 14.3952C15.2791 14.1528 15.1997 13.9187 15.1036 13.6889C14.9489 13.3211 14.7609 12.9784 14.5352 12.6608C14.3346 12.3725 14.1089 12.105 13.8498 11.8626C13.3107 11.3486 12.6713 10.9474 11.94 10.659C11.2086 10.3665 10.4062 10.2244 9.52858 10.2244C8.65096 10.2244 7.84856 10.3665 7.1172 10.659C6.38585 10.9474 5.74644 11.3486 5.20733 11.8626C4.66404 12.3766 4.24612 12.9868 3.95358 13.6889C3.66104 14.3868 3.51477 15.1558 3.51477 15.9916C3.51477 16.8274 3.66104 17.5964 3.95358 18.3027C4.24612 19.009 4.66404 19.6191 5.20733 20.1373C5.74644 20.6514 6.38585 21.0526 7.1172 21.3409C7.84856 21.6293 8.65096 21.7756 9.52858 21.7756C10.4062 21.7756 11.2086 21.6293 11.94 21.3409C12.6713 21.0526 13.3107 20.6514 13.8498 20.1373C14.3931 19.6191 14.8069 19.009 15.1036 18.3027C15.3961 17.5964 15.5424 16.8274 15.5424 15.9916C15.5424 15.4274 15.4755 14.8967 15.3418 14.3952ZM12.3328 17.7761C12.0611 18.2985 11.685 18.7039 11.2044 19.0006C10.728 19.2931 10.168 19.4394 9.52858 19.4394C8.88917 19.4394 8.3417 19.2931 7.85692 19.0006C7.37213 18.7039 6.99601 18.2985 6.72019 17.7761C6.44854 17.2579 6.31063 16.6603 6.31063 15.9916C6.31063 15.3229 6.44854 14.7295 6.72019 14.2155C6.99601 13.6972 7.37213 13.2919 7.85692 12.9993C8.3417 12.7068 8.89753 12.5605 9.52858 12.5605C10.1596 12.5605 10.728 12.7068 11.2044 12.9993C11.4761 13.1665 11.7185 13.3671 11.9232 13.6095C12.0779 13.7892 12.2158 13.994 12.3328 14.2155C12.4791 14.4871 12.5835 14.7796 12.6504 15.0973C12.7131 15.3773 12.7424 15.6782 12.7424 15.9916C12.7424 16.6603 12.6086 17.2579 12.3328 17.7761Z" fill="#FDAD00"/>
<path d="M28.0465 13.6889C27.7498 12.9868 27.3318 12.3766 26.7927 11.8626C26.2494 11.3486 25.6142 10.9474 24.8829 10.659C24.1515 10.3665 23.3449 10.2244 22.4715 10.2244C21.598 10.2244 20.7915 10.3665 20.0601 10.659C19.3246 10.9474 18.6893 11.3486 18.1502 11.8626C17.8911 12.1092 17.6613 12.3766 17.4607 12.665C17.235 12.9784 17.0511 13.3211 16.8965 13.6889C16.8004 13.9187 16.721 14.1528 16.6583 14.3952C16.5204 14.8967 16.4535 15.4274 16.4535 15.9916C16.4535 16.8274 16.6039 17.5964 16.8965 18.3027C17.189 19.009 17.6069 19.6191 18.1502 20.1373C18.6893 20.6514 19.3246 21.0526 20.0601 21.3409C20.7915 21.6293 21.5939 21.7756 22.4715 21.7756C23.3491 21.7756 24.1515 21.6293 24.8829 21.3409C25.6142 21.0526 26.2494 20.6514 26.7927 20.1373C27.3318 19.6191 27.7498 19.009 28.0465 18.3027C28.339 17.5964 28.4853 16.8274 28.4853 15.9916C28.4853 15.1558 28.339 14.3868 28.0465 13.6889ZM25.2757 17.7761C25.0041 18.2985 24.6279 18.7039 24.1473 19.0006C23.6667 19.2931 23.1109 19.4394 22.4715 19.4394C21.8321 19.4394 21.2846 19.2931 20.7998 19.0006C20.315 18.7039 19.9347 18.2985 19.6631 17.7761C19.3914 17.2579 19.2535 16.6603 19.2535 15.9916C19.2535 15.6782 19.2828 15.3814 19.3455 15.1014C19.4123 14.7838 19.5168 14.4871 19.6631 14.2155C19.7801 13.994 19.918 13.7892 20.0768 13.6095C20.2816 13.3671 20.524 13.1665 20.7998 12.9993C21.2846 12.7068 21.8404 12.5605 22.4715 12.5605C23.1025 12.5605 23.6667 12.7068 24.1473 12.9993C24.6279 13.2919 25.0041 13.6972 25.2757 14.2155C25.5515 14.7295 25.6853 15.3229 25.6853 15.9916C25.6853 16.6603 25.5515 17.2579 25.2757 17.7761Z" fill="#FDAD00"/>
</svg>
