<?xml version="1.0" encoding="UTF-8"?>
<svg xmlns="http://www.w3.org/2000/svg" width="121" height="48" viewBox="0 0 121 48">
  <g fill="none" fill-rule="evenodd">
    <path d="M0 17.91v15.502a7.739 7.739 0 0 0 7.739 7.739h27.693c2.299 0 3.64 1.14 4.882 3.78l1.716 2.935V31.173l-6.501-9.79v-.144h3.795l4.303 6.985 6.59-10.314H0zm2.989 11.91c-.024-4.423 2.852-8.921 8.97-8.921 2.296 0 4.472.87 6.211 2.587l-2.126 2.056c-1.113-1.088-2.612-1.597-4.085-1.597-4.087 0-5.852 3.046-5.827 5.876.024 2.804 1.643 5.729 5.827 5.729 1.473 0 3.141-.604 4.254-1.717l2.176 2.2c-1.742 1.717-3.99 2.514-6.43 2.514-6.287 0-8.946-4.327-8.97-8.726zM20.2 21.214c2.685 0 5.368.026 8.052.026 3.988.023 6.091 2.682 6.091 5.608 0 2.32-1.062 4.666-4.277 5.317l5.124 5.779v.218h-3.796l-4.93-5.657H23.39v5.657h-3.19V21.213zm3.192 2.998v5.416h4.86c2.03 0 2.9-1.354 2.9-2.708s-.894-2.708-2.9-2.708h-4.86z" fill="#001943"></path>
    <path d="M48.813 43.903c-.18-.298-.672-.582-1.24-.582-.73 0-1.082.306-1.082.694 0 .455.538.582 1.165.657 1.09.135 2.104.418 2.104 1.664C49.76 47.5 48.73 48 47.566 48c-1.067 0-1.888-.328-2.276-1.283l.821-.426c.231.575.836.829 1.47.829.62 0 1.201-.217 1.201-.784 0-.492-.515-.694-1.208-.769-1.068-.127-2.052-.41-2.052-1.582 0-1.074 1.059-1.515 2.022-1.522.813 0 1.656.231 2.052 1.038l-.783.402zm6.118 3.963h.978v-5.224h-.978v5.224zm10.185-3.948a2.001 2.001 0 0 0-1.328-.522c-1.12 0-1.799.85-1.799 1.925 0 .858.5 1.746 1.799 1.746.41 0 .768-.09 1.179-.418v-.925H63.63v-.88h2.239v2.201c-.515.59-1.164.94-2.082.94-1.963 0-2.761-1.29-2.761-2.664 0-1.47.918-2.828 2.76-2.828a2.76 2.76 0 0 1 1.941.798l-.612.627zm9.394-1.283h.985v5.23h-.612v.008l-2.746-3.53v3.523h-.985v-5.224h.798l2.56 3.24v-3.247zm9.998 4.246h-2.73l-.449.985h-1.067l2.343-5.224h1.074l2.344 5.224H84.95l-.44-.985zm-1.365-3.142-.97 2.224h1.94l-.97-2.224zm8.79-1.097v4.314h2.686v.91h-3.671v-5.224h.984zm11.005 1.261c-.179-.298-.671-.582-1.238-.582-.732 0-1.083.306-1.083.694 0 .455.537.582 1.165.657 1.09.135 2.104.418 2.104 1.664 0 1.164-1.03 1.664-2.194 1.664-1.067 0-1.888-.328-2.276-1.283l.821-.426c.23.575.836.829 1.47.829.62 0 1.202-.217 1.202-.784 0-.492-.516-.694-1.21-.769-1.067-.127-2.052-.41-2.052-1.582 0-1.074 1.06-1.515 2.023-1.522.813 0 1.657.231 2.052 1.038l-.784.402zM58.133 11.86l-.91 5.085c-.125.509.161.965.66.965H93.12c6.12 0 11.08 4.96 11.08 11.08v12.16H45.224v-9.976l4.537-6.8v-.001l4.313-6.463h.012l4.048-6.05zm34.4 9.039c-5.85 0-8.704 4.472-8.704 8.922 0 4.448 2.757 8.726 8.704 8.726 5.947 0 8.63-4.375 8.678-8.751.049-4.425-2.852-8.897-8.678-8.897zm-31.185.314c-2.65 0-5.297.025-7.944.026l-.035.029v16.893h3.191v-4.98h4.788c8.29 0 8.267-11.968 0-11.968zm21.297.026H68.72v2.9h5.367v14.022h3.191V24.14h5.367v-2.9zm9.888 2.562c3.988 0 5.584 3.19 5.536 6.044-.049 2.78-1.548 5.777-5.536 5.777-3.99 0-5.488-2.974-5.561-5.753-.072-2.853 1.572-6.068 5.56-6.068zm-31.186.459c3.991 0 4.084 5.79.208 5.99l-.208.005H56.56V24.26h4.787zM94.469 0c14.564 0 26.411 11.848 26.411 26.411a1.12 1.12 0 1 1-2.241 0c0-13.326-10.843-24.169-24.17-24.169a1.121 1.121 0 1 1 0-2.242zm0 11.49c8.228 0 14.921 6.694 14.921 14.921a1.12 1.12 0 1 1-2.241 0c0-6.991-5.688-12.679-12.68-12.679a1.121 1.121 0 1 1 0-2.242zm.12-5.653c11.28 0 20.455 9.175 20.455 20.454a1.12 1.12 0 1 1-2.242 0c0-10.042-8.17-18.212-18.213-18.212a1.121 1.121 0 0 1 0-2.242z" fill="#7EA0D6"></path>
  </g>
</svg>
