<svg width="1014" height="277" viewBox="0 0 1014 277" fill="none" xmlns="http://www.w3.org/2000/svg">
<path d="M221.549 81.9492V197.318H196.202V81.9492H221.549Z" fill="#34E834"/>
<path d="M106.347 159.258V197.278H81V159.258H106.347Z" fill="black"/>
<path d="M144.339 114.898V197.276H118.992V114.898H144.339Z" fill="black"/>
<path d="M182.332 140.246V197.277H156.985V140.246H182.332Z" fill="black"/>
<path d="M338.309 153.564C335.727 181.758 318.296 200.878 286.822 200.878C253.413 200.878 231.301 176.735 231.301 140.277C231.301 106.736 252.606 80 287.791 80C315.39 80 335.565 97.4997 337.502 121.319H312.808C310.225 108.68 300.864 101.227 287.307 101.227C265.195 101.227 256.641 121.157 256.641 140.439C256.641 164.258 268.423 179.489 286.984 179.489C302.155 179.489 311.194 170.415 313.292 153.564H338.309Z" fill="#34E834"/>
<path d="M361.791 196.806V81.4375H397.783L424.575 160.672L450.722 81.4375H485.907V196.806H462.181V114.817L433.936 196.806H414.407L385.839 115.627V196.806H361.791Z" fill="black"/>
<path d="M573.661 197.216C573.661 188.223 573.661 181.426 573.66 176.825L573.661 138.398C573.661 115.298 554.52 111.256 537.85 111.177L537.346 111.176C513.297 111.176 500.062 120.736 498.771 139.37H520.238C521.852 129.81 526.209 126.569 536.7 126.569C546.869 126.569 551.711 130.134 551.711 137.749C551.711 144.464 546.368 145.816 531.963 147.718L528.379 148.184C512.601 150.283 495.059 153.807 495.059 174.369C495.059 190.087 506.357 199.647 524.757 199.647C534.764 199.647 544.609 196.244 551.711 189.114V197.216H573.661ZM551.549 156.545V165.944C551.549 177.934 543.156 184.577 531.213 184.577C523.304 184.577 518.624 180.365 518.624 173.397C518.624 163.189 527.501 162.217 535.409 160.92C541.22 159.948 546.223 159.624 551.549 156.545Z" fill="black"/>
<path d="M604.16 197.215V145.053C604.16 139.648 608.524 135.267 613.908 135.267H635.09V112.684H613.908C596.101 112.684 581.665 127.176 581.665 145.053V197.215H604.16Z" fill="black"/>
<path d="M826.859 81.4922V112.681L852.166 112.682V135.265L826.859 135.264V164.811C826.859 170.216 831.223 174.598 836.607 174.598H852.166V197.181H836.607C818.8 197.181 804.364 182.689 804.364 164.811V81.4922H826.859Z" fill="black"/>
<path d="M719.041 113.196L687.73 144.145L722.753 196.806H694.993L672.074 159.7L662.712 168.45V196.806H640.278V81.4375H662.712V143.173L692.087 113.196H719.041Z" fill="black"/>
<path d="M796.691 170.88H774.741C771.352 179.306 766.187 183.033 757.794 183.033C745.528 183.033 738.587 175.255 738.265 160.834H797.983V158.566C797.983 129.238 782.004 110.766 756.826 110.766C732.616 110.766 715.023 129.562 715.023 155.487C715.023 181.737 731.97 199.237 757.633 199.237C776.516 199.237 791.527 189.028 796.691 170.88ZM774.741 146.251H738.265C739.556 134.585 746.657 127.455 756.826 127.455C768.285 127.455 773.773 136.043 774.741 146.251Z" fill="black"/>
<path d="M931.256 137.501H909.951C908.66 128.751 903.334 125.997 894.134 125.997C886.064 125.997 881.222 129.076 881.222 134.261C881.222 140.278 886.519 141.824 896.489 143.908L904.282 145.521C918.598 148.555 934 153.06 934 170.88C934 188.38 919.635 199.237 895.909 199.237C875.089 199.237 857.173 190.973 856.851 169.584H878.64C879.447 179.63 885.903 183.519 896.394 183.519C905.755 183.519 911.565 179.468 911.565 173.149C911.565 166.242 905.204 164.81 893.947 162.223L891.947 161.766C877.227 158.468 858.626 155.899 858.626 136.367C858.626 120.002 871.861 110.766 895.102 110.766C914.148 110.766 930.611 118.057 931.256 137.501Z" fill="black"/>
</svg>
