<?xml version="1.0" encoding="UTF-8"?>
<svg version="1.1" xmlns="http://www.w3.org/2000/svg" width="384" height="384">
<path d="M0 0 C126.72 0 253.44 0 384 0 C384 126.72 384 253.44 384 384 C257.28 384 130.56 384 0 384 C0 257.28 0 130.56 0 0 Z " fill="#0000CD" transform="translate(0,0)"/>
<path d="M0 0 C1.15822266 0.94552734 1.15822266 0.94552734 2.33984375 1.91015625 C25.93093818 21.78825693 41.75715284 53.41995128 45 84 C46.45920493 109.16322958 43.1844591 132.31038047 32 155 C31.22462891 156.59714844 31.22462891 156.59714844 30.43359375 158.2265625 C23.82905411 171.00373728 14.38357696 182.12293899 4 192 C3.35289062 192.64195312 2.70578125 193.28390625 2.0390625 193.9453125 C-12.23960489 207.55985582 -30.94359916 217.17375935 -50 222 C-50.6909375 222.18191895 -51.381875 222.36383789 -52.09375 222.55126953 C-71.73529722 227.59379348 -92.30926387 227.94427475 -112 223 C-113.175625 222.75636719 -114.35125 222.51273438 -115.5625 222.26171875 C-137.313562 217.31616478 -156.05994666 205.26566646 -172 190 C-172.845625 189.195625 -173.69125 188.39125 -174.5625 187.5625 C-175.366875 186.716875 -176.17125 185.87125 -177 185 C-177.64195312 184.35289062 -178.28390625 183.70578125 -178.9453125 183.0390625 C-196.40068063 164.732213 -205.15768017 141.42749874 -210 117 C-210.26127686 115.83585571 -210.26127686 115.83585571 -210.52783203 114.64819336 C-212.86440086 101.54335258 -211.8034762 85.97905646 -209 73 C-208.85997559 72.31373535 -208.71995117 71.6274707 -208.57568359 70.92041016 C-201.6034157 37.63742415 -181.69439062 10.22668126 -154 -9 C-105.80676335 -39.56018183 -44.25538143 -36.66874462 0 0 Z " fill="#FBFBFE" transform="translate(275,94)"/>
<path d="M0 0 C0.98097656 0.50789063 1.96195313 1.01578125 2.97265625 1.5390625 C12.13699805 6.230986 21.37481793 10.34906887 31 14 C30.56133022 15.31775239 30.12249172 16.6354486 29.68359375 17.953125 C29.4088623 18.78005859 29.13413086 19.60699219 28.85107422 20.45898438 C28.32644369 22.02535115 27.79554862 23.58965544 27.25439453 25.15039062 C21.93142193 40.57364049 19.98482919 55.81600812 18 72 C2.16 72 -13.68 72 -30 72 C-30 46.36396865 -19.08232654 19.72419323 -1.23828125 1.16796875 C-0.82964844 0.78253906 -0.42101562 0.39710937 0 0 Z " fill="#0303CD" transform="translate(107,114)"/>
<path d="M0 0 C15.84 0 31.68 0 48 0 C48.4125 3.650625 48.825 7.30125 49.25 11.0625 C50.92833891 24.87744902 54.27612914 37.48941352 59.06958008 50.54467773 C61 55.80906396 61 55.80906396 61 58 C60.1028125 58.3403125 59.205625 58.680625 58.28125 59.03125 C48.5438238 62.79131148 39.26622142 67.20250823 30 72 C11.68852748 53.15281951 0 26.33154696 0 0 Z " fill="#0303CD" transform="translate(77,198)"/>
<path d="M0 0 C14.12549255 13.3236087 22.09130433 33.93692917 26.375 52.4375 C26.54306152 53.1586499 26.71112305 53.8797998 26.88427734 54.62280273 C28.03226955 60.0196072 28 64.26183509 28 70 C12.16 70 -3.68 70 -20 70 C-20.53625 65.6275 -21.0725 61.255 -21.625 56.75 C-23.25129499 44.36872466 -25.90970951 32.79675136 -30 21 C-30.56323026 19.31838767 -31.1244592 17.63610358 -31.68359375 15.953125 C-31.9355249 15.19676758 -32.18745605 14.44041016 -32.44702148 13.66113281 C-32.62950439 13.11295898 -32.8119873 12.56478516 -33 12 C-32.21520264 11.6757605 -32.21520264 11.6757605 -31.41455078 11.3449707 C-28.98312508 10.33789504 -26.55376624 9.3259729 -24.125 8.3125 C-23.25544678 7.950354 -22.38589355 7.58820801 -21.48999023 7.21508789 C-16.14345042 4.96699163 -10.95906579 2.58291759 -5.91015625 -0.28515625 C-3.43528313 -1.21133576 -2.41152814 -1.06489263 0 0 Z " fill="#0303CD" transform="translate(279,116)"/>
<path d="M0 0 C15.84 0 31.68 0 48 0 C46.82789855 14.06521739 46.82789855 14.06521739 45.25 20.4375 C45.0737207 21.15921387 44.89744141 21.88092773 44.71582031 22.62451172 C40.87530272 37.77545415 34.15322132 51.89546995 24.75 64.375 C24.33790283 64.92865234 23.92580566 65.48230469 23.5012207 66.05273438 C21.90586172 68.08372047 20.58294863 69.74641813 18.18212891 70.79077148 C15.15650415 71.0808767 13.4946051 70.11786414 10.7890625 68.76171875 C9.79132813 68.27123047 8.79359375 67.78074219 7.765625 67.27539062 C6.72921875 66.75138672 5.6928125 66.22738281 4.625 65.6875 C2.57709883 64.66739885 0.52766179 63.65037413 -1.5234375 62.63671875 C-2.43013184 62.17998779 -3.33682617 61.72325684 -4.27099609 61.25268555 C-7.12898126 59.94079416 -10.00190724 58.94217117 -13 58 C-11.72098078 53.58062466 -10.44439286 49.18504763 -8.828125 44.875 C-3.51311124 30.43916015 -1.89950015 15.19600119 0 0 Z " fill="#0303CD" transform="translate(259,198)"/>
<path d="M0 0 C4.03495036 8.10297408 6.75300596 16.24088436 9 25 C9.2165625 25.83789062 9.433125 26.67578125 9.65625 27.5390625 C11.70230145 36.05424722 12 44.23630277 12 53 C-3.84 53 -19.68 53 -36 53 C-36 36.83 -36 20.66 -36 4 C-23.3125 2.5625 -23.3125 2.5625 -19.3371582 2.11547852 C-18.29390381 1.99615967 -17.25064941 1.87684082 -16.17578125 1.75390625 C-15.11270752 1.63345947 -14.04963379 1.5130127 -12.9543457 1.38891602 C-11.05713683 1.13916362 -9.16605558 0.83285052 -7.28979492 0.45678711 C-4.8102753 -0.03784784 -2.5218159 -0.07205188 0 0 Z " fill="#0606CE" transform="translate(234,133)"/>
<path d="M0 0 C15.84 0 31.68 0 48 0 C48 18.92477641 43.34511502 35.73897971 36 53 C28.11329235 52.24378668 20.24447308 51.35422002 12.375 50.4375 C8.29125 49.963125 4.2075 49.48875 0 49 C0 32.83 0 16.66 0 0 Z " fill="#0505CE" transform="translate(198,198)"/>
<path d="M0 0 C4.19380274 0.36153472 8.34157951 0.90991577 12.51171875 1.48046875 C14.39310547 1.73763672 14.39310547 1.73763672 16.3125 2 C17.48425781 2.165 18.65601563 2.33 19.86328125 2.5 C25.22634332 3.14822658 30.61656495 3.55138041 36 4 C36 20.17 36 36.34 36 53 C20.16 53 4.32 53 -12 53 C-12 39.76184332 -10.40712483 10.40712483 0 0 Z " fill="#0505CE" transform="translate(150,133)"/>
<path d="M0 0 C15.84 0 31.68 0 48 0 C48 16.17 48 32.34 48 49 C40.74 49.66 33.48 50.32 26 51 C23.36 51.66 20.72 52.32 18 53 C14.5 53.125 14.5 53.125 12 53 C4.30169286 35.48950629 0 19.13952327 0 0 Z " fill="#0505CE" transform="translate(138,198)"/>
<path d="M0 0 C-0.49886719 0.44085938 -0.99773437 0.88171875 -1.51171875 1.3359375 C-12.24124459 11.39125615 -20.92662927 24.1451984 -28 37 C-37.36320984 34.83925927 -45.54651892 30.41552796 -54 26 C-54 25.01 -54 24.02 -54 23 C-52.03596484 21.27226282 -50.13880518 19.79686493 -48 18.3125 C-47.37351562 17.87333252 -46.74703125 17.43416504 -46.1015625 16.98168945 C-35.3138804 9.6197893 -13.2330098 -4.58065724 0 0 Z " fill="#0505CE" transform="translate(172,80)"/>
<path d="M0 0 C1.5078125 2.30078125 1.5078125 2.30078125 3.125 5.3125 C8.67117677 15.13482567 15.47856916 23.69920392 23.15234375 31.94140625 C25 34 25 34 27 37 C8.66930684 36.91187167 -13.49480494 25.202503 -26.3046875 12.76171875 C-26.86414063 12.18035156 -27.42359375 11.59898437 -28 11 C-22.68387256 7.26739988 -17.15601338 4.62703201 -11.1875 2.125 C-10.43412354 1.80265381 -9.68074707 1.48030762 -8.90454102 1.14819336 C-3.36342828 -1.12114276 -3.36342828 -1.12114276 0 0 Z " fill="#0505CE" transform="translate(145,268)"/>
<path d="M0 0 C7.26031083 0.37982675 13.43625662 1.84066877 20.1875 4.5 C21.09661133 4.85312256 22.00572266 5.20624512 22.94238281 5.57006836 C34.75195709 10.31324098 45.25827495 16.7894946 55 25 C51.36689999 29.49091528 46.70924782 31.09358666 41.5 33.1875 C40.64535156 33.54263672 39.79070312 33.89777344 38.91015625 34.26367188 C35.29725785 35.7488493 31.81565245 37.12981086 28 38 C27.10861328 36.51113281 27.10861328 36.51113281 26.19921875 34.9921875 C18.6663363 22.578846 10.5393104 11.0708966 0 1 C0 0.67 0 0.34 0 0 Z " fill="#0404CD" transform="translate(212,79)"/>
<path d="M0 0 C9.29202841 3.13686806 18.3932699 6.22083292 27 11 C25.48960481 15.4393372 22.00941142 17.38731567 18.25 19.8125 C17.57606201 20.25045898 16.90212402 20.68841797 16.20776367 21.13964844 C6.35065014 27.436576 -3.46576417 32.06885853 -14.625 35.5 C-15.49084717 35.76780273 -16.35669434 36.03560547 -17.2487793 36.31152344 C-18.47528198 36.66778809 -18.47528198 36.66778809 -19.7265625 37.03125 C-20.81831787 37.34932617 -20.81831787 37.34932617 -21.93212891 37.67382812 C-24.25126094 38.03963219 -25.78348159 37.71698032 -28 37 C-27.47792969 36.52433594 -26.95585937 36.04867187 -26.41796875 35.55859375 C-15.59739469 25.26862577 -7.53785975 12.80788204 0 0 Z " fill="#0404CD" transform="translate(240,267)"/>
<path d="M0 0 C0 13.53 0 27.06 0 41 C-7.58401158 34.49941865 -13.81811931 28.46767455 -19.6875 20.5 C-20.15124023 19.87101807 -20.61498047 19.24203613 -21.09277344 18.59399414 C-29 7.66249536 -29 7.66249536 -29 4 C-24.16794935 2.51800508 -19.52904896 1.52960761 -14.5 0.875 C-12.62828125 0.62363281 -12.62828125 0.62363281 -10.71875 0.3671875 C-7 0 -7 0 0 0 Z " fill="#0909CF" transform="translate(186,259)"/>
<path d="M0 0 C16.875 1.125 16.875 1.125 22.9375 2.5625 C24.68353516 2.96662109 24.68353516 2.96662109 26.46484375 3.37890625 C27.71974609 3.68634766 27.71974609 3.68634766 29 4 C27.65049879 8.81031884 25.54466137 12.56226234 22.625 16.5625 C22.1916333 17.16239746 21.7582666 17.76229492 21.31176758 18.38037109 C15.11336692 26.7715452 8.14946967 34.48042427 0 41 C0 27.47 0 13.94 0 0 Z " fill="#0909CE" transform="translate(198,259)"/>
<path d="M0 0 C7.58401158 6.50058135 13.81811931 12.53232545 19.6875 20.5 C20.15124023 21.12898193 20.61498047 21.75796387 21.09277344 22.40600586 C29 33.33750464 29 33.33750464 29 37 C26.98279062 37.49420076 24.96087639 37.96918808 22.9375 38.4375 C21.81214844 38.70433594 20.68679687 38.97117188 19.52734375 39.24609375 C13.08079628 40.3195913 6.52084253 40.56527716 0 41 C0 27.47 0 13.94 0 0 Z " fill="#0909CE" transform="translate(198,84)"/>
<path d="M0 0 C0 13.53 0 27.06 0 41 C-4.65124579 41 -8.09891925 40.95760109 -12.49609375 40.125 C-13.46611328 39.94453125 -14.43613281 39.7640625 -15.43554688 39.578125 C-16.42619141 39.38734375 -17.41683594 39.1965625 -18.4375 39 C-19.96407227 38.71382812 -19.96407227 38.71382812 -21.52148438 38.421875 C-24.01544 37.95352653 -26.50815593 37.47943373 -29 37 C-27.64648043 32.15659485 -25.50485073 28.39679974 -22.5625 24.375 C-22.12655518 23.77179932 -21.69061035 23.16859863 -21.24145508 22.54711914 C-4.61395165 0 -4.61395165 0 0 0 Z " fill="#0909CE" transform="translate(186,84)"/>
</svg>
