<svg width="48" height="48" viewBox="0 0 48 48" fill="none" xmlns="http://www.w3.org/2000/svg">
<g clip-path="url(#clip0_8_2755)">
<path d="M0 0H48V48H0V0Z" fill="#EEEEEE"/>
<path d="M0 11.475V5.22192H48V11.475H0ZM0 24V17.7375H48V24H0ZM0 36.525V30.2625H48V36.525H0ZM0 48H48V42.7782H0V48Z" fill="#D80027"/>
<path d="M0 0H24V24H0V0Z" fill="#0052B4"/>
<path fill-rule="evenodd" clip-rule="evenodd" d="M4.20005 0.600098L5.0063 3.08447H7.6313L5.4938 4.62197L6.3188 7.1251L4.20005 5.57822L2.0813 7.11572L2.9063 4.62197L0.778174 3.09385H3.3938L4.20005 0.609473V0.600098ZM12.0001 0.600098L12.8063 3.08447H15.4313L13.3032 4.62197L14.1188 7.11572L12.0001 5.57822L9.8813 7.11572L10.6875 4.62197L8.57817 3.09385H11.1938L12.0001 0.600098ZM20.6063 3.08447L19.8001 0.600098L18.9938 3.08447H16.3688L18.4969 4.62197L17.6813 7.11572L19.8001 5.57822L21.9188 7.11572L21.1032 4.62197L23.2313 3.09385H20.6157L20.6063 3.08447ZM4.20005 8.4001L5.0063 10.8845H7.6313L5.50317 12.422L6.3188 14.9157L4.20005 13.3782L2.0813 14.9063L2.89692 12.4126L0.778174 10.8751H3.3938L4.20005 8.39072V8.4001ZM12.8063 10.8845L12.0001 8.4001L11.1938 10.8845H8.5688L10.6875 12.422L9.8813 14.9157L12.0001 13.3782L14.1188 14.9157L13.3032 12.422L15.4219 10.8845H12.8063ZM19.8001 8.4001L20.6063 10.8845H23.2313L21.0938 12.422L21.9094 14.9157L19.7907 13.3782L17.6719 14.9157L18.4876 12.422L16.3688 10.8845H18.9844L19.7907 8.4001H19.8001ZM5.0063 18.6845L4.20005 16.2001L3.3938 18.6845H0.768799L2.9063 20.222L2.09067 22.7157L4.20942 21.1782L6.32817 22.7157L5.51255 20.222L7.6313 18.6845H5.0063ZM12.0001 16.2001L12.8063 18.6845H15.4313L13.3032 20.222L14.1188 22.7157L12.0001 21.1782L9.8813 22.7157L10.6875 20.222L8.57817 18.6845H11.1938L12.0001 16.2001ZM20.6063 18.6845L19.8001 16.2001L18.9938 18.6845H16.3688L18.4969 20.222L17.6813 22.7157L19.8001 21.1782L21.9188 22.7157L21.1032 20.222L23.2219 18.6845H20.6063Z" fill="#EEEEEE"/>
</g>
<defs>
<clipPath id="clip0_8_2755">
<rect width="48" height="48" fill="white"/>
</clipPath>
</defs>
</svg>
