<?xml version="1.0" encoding="UTF-8"?>
<svg id="a" xmlns="http://www.w3.org/2000/svg" version="1.1" viewBox="0 0 204 70">
  <g id="c">
    <path d="M74.149,22.738c-7.588,0-13.761,6.241-13.761,13.911s6.173,13.95,13.761,13.95,13.722-6.257,13.722-13.95-6.156-13.911-13.722-13.911ZM74.109,44.537c-4.199,0-7.246-3.318-7.246-7.889s3.047-7.849,7.246-7.849,7.287,3.374,7.287,7.849-3.132,7.889-7.287,7.889h0Z" fill="#00214a" stroke-width="0"/>
    <polygon points="138.013 23.192 138.013 36.444 128.241 23.192 122.095 23.192 122.095 50.146 128.965 50.146 128.965 36.695 138.965 50.146 144.884 50.146 144.884 23.192 138.013 23.192" fill="#00214a" stroke-width="0"/>
    <path d="M161.976,23.192h-11.284v26.954h11.284c7.372,0,12.325-5.394,12.325-13.42s-4.953-13.534-12.325-13.534h0ZM157.563,29.307h4.413c3.722,0,5.417,3.845,5.417,7.417s-1.695,7.304-5.417,7.304h-4.413v-14.724h0v.002Z" fill="#00214a" stroke-width="0"/>
    <path d="M110.677,50.146h7.364l-10.995-26.954-3.417.011-3.417-.011-10.995,26.954h7.364l2.209-6.101h9.68l2.209,6.101h-.002ZM100.966,38.028l2.663-7.356,2.663,7.356h-5.325,0Z" fill="#00214a" stroke-width="0"/>
    <path d="M196.636,50.146h7.364l-10.995-26.954-3.419.011-3.417-.011-10.995,26.954h7.364l2.209-6.101h9.68l2.209,6.101h0ZM186.925,38.028l2.663-7.356,2.663,7.356h-5.325Z" fill="#00214a" stroke-width="0"/>
  </g>
  <polygon points="11.647 45.958 3.947 45.958 0 30.958 7.7 30.958 11.647 45.958" fill="#00214a" stroke-width="0"/>
  <polygon points="44.404 33.075 36.704 33.075 42.893 9.974 50.594 9.974 44.404 33.075" fill="#00d37e" stroke-width="0"/>
  <polygon points="28.944 21.524 22.432 45.824 18.627 60.026 26.237 60.026 26.326 60.026 36.644 21.524 28.944 21.524" fill="#00d37e" stroke-width="0"/>
  <polygon points="19.953 36.65 12.253 36.65 18.461 60.026 18.551 60.026 26.237 60.026 19.953 36.65" fill="#00214a" stroke-width="0"/>
</svg>