<svg width="177" height="23" viewBox="0 0 337 44" fill="none" xmlns="http://www.w3.org/2000/svg">
<path d="M0 28.05V1.59H11.69C13.47 1.59 15.02 1.87 16.35 2.44C17.68 3.01 18.72 3.8 19.46 4.83C20.2 5.85 20.57 7.06 20.57 8.44C20.57 9.75 20.2 10.91 19.46 11.92C18.72 12.93 17.68 13.72 16.35 14.29C15.02 14.86 13.46 15.14 11.69 15.14H6.73V13.18H11.69C13.69 13.18 15.43 13.47 16.93 14.05C18.42 14.63 19.59 15.45 20.43 16.51C21.27 17.57 21.69 18.83 21.69 20.28C21.69 21.83 21.27 23.2 20.43 24.37C19.59 25.54 18.43 26.45 16.93 27.09C15.44 27.73 13.69 28.05 11.69 28.05H0ZM6.36 22.83H11.72C12.8 22.83 13.66 22.57 14.29 22.03C14.92 21.5 15.23 20.77 15.23 19.83C15.23 18.97 14.92 18.29 14.29 17.79C13.66 17.3 12.8 17.05 11.72 17.05H5.99V11.98H11.24C12.15 11.98 12.86 11.74 13.37 11.26C13.88 10.78 14.13 10.12 14.13 9.28C14.13 8.49 13.88 7.88 13.37 7.45C12.86 7.02 12.15 6.8 11.24 6.8H6.36V22.82V22.83Z" fill="black"/>
<path d="M30.23 28.05H23.87V1.59H34.93C36.9 1.59 38.64 1.95 40.15 2.66C41.65 3.38 42.83 4.37 43.66 5.64C44.5 6.91 44.92 8.4 44.92 10.1C44.92 11.8 44.5 13.26 43.66 14.54C42.82 15.82 41.65 16.82 40.15 17.54C38.65 18.26 36.91 18.61 34.93 18.61H29.86V13.32H34.93C36.02 13.32 36.88 13.03 37.52 12.45C38.16 11.87 38.48 11.09 38.48 10.1C38.48 9.11 38.16 8.33 37.52 7.75C36.88 7.17 36.02 6.88 34.93 6.88H30.23V28.04V28.05ZM47.73 28.05H40.03L31.19 15.73H38.44L47.73 28.05Z" fill="black"/>
<path d="M60.9 28.64C58.8 28.64 56.88 28.29 55.13 27.6C53.38 26.91 51.86 25.95 50.56 24.71C49.26 23.47 48.27 22.02 47.56 20.33C46.86 18.64 46.51 16.8 46.51 14.8C46.51 12.8 46.86 10.97 47.56 9.29C48.26 7.61 49.26 6.16 50.56 4.92C51.86 3.68 53.38 2.72 55.13 2.03C56.88 1.34 58.81 0.99 60.9 0.99C62.99 0.99 64.92 1.34 66.67 2.03C68.42 2.72 69.94 3.68 71.24 4.92C72.54 6.16 73.53 7.61 74.24 9.29C74.94 10.97 75.29 12.8 75.29 14.8C75.29 16.8 74.94 18.64 74.24 20.33C73.54 22.02 72.54 23.48 71.24 24.71C69.94 25.94 68.42 26.91 66.67 27.6C64.92 28.29 62.99 28.64 60.9 28.64ZM60.9 23.05C62.43 23.05 63.77 22.7 64.91 22C66.05 21.3 66.96 20.32 67.61 19.08C68.26 17.83 68.59 16.41 68.59 14.81C68.59 13.21 68.26 11.79 67.61 10.56C66.96 9.33 66.06 8.36 64.91 7.66C63.76 6.96 62.42 6.61 60.9 6.61C59.38 6.61 58.06 6.96 56.9 7.66C55.74 8.36 54.83 9.33 54.18 10.56C53.53 11.79 53.2 13.21 53.2 14.81C53.2 16.41 53.53 17.84 54.18 19.08C54.83 20.33 55.74 21.3 56.9 22C58.06 22.7 59.39 23.05 60.9 23.05Z" fill="black"/>
<path d="M84.4 28.05H78.04V1.59H84.4V28.05ZM103.9 28.05H95.61L83.47 14.32H84.06L94.65 1.59H102.35L90.95 14.87V13.76L103.9 28.04V28.05Z" fill="black"/>
<path d="M124.58 28.05H105.27V1.59H124.58V6.88H111.63V22.75H124.58V28.04V28.05ZM123.88 17.39H111.26V12.1H123.88V17.39Z" fill="black"/>
<path d="M133.61 28.05H127.25V1.59H138.31C140.28 1.59 142.02 1.95 143.53 2.66C145.03 3.38 146.21 4.37 147.04 5.64C147.88 6.91 148.3 8.4 148.3 10.1C148.3 11.8 147.88 13.26 147.04 14.54C146.2 15.82 145.03 16.82 143.53 17.54C142.03 18.26 140.29 18.61 138.31 18.61H133.24V13.32H138.31C139.4 13.32 140.26 13.03 140.9 12.45C141.54 11.87 141.86 11.09 141.86 10.1C141.86 9.11 141.54 8.33 140.9 7.75C140.26 7.17 139.4 6.88 138.31 6.88H133.61V28.04V28.05ZM151.11 28.05H143.41L134.57 15.73H141.82L151.11 28.05Z" fill="black"/>
<path d="M240.75 7.45C239.91 7.18 239.05 6.97 238.17 6.82C237.03 6.62 235.86 6.52 234.65 6.52C233.44 6.52 232.29 6.62 231.17 6.81C230.28 6.96 229.41 7.18 228.57 7.45C227.3 7.87 226.08 8.41 224.92 9.08C225.29 9.51 225.62 10 225.9 10.53C226.25 11.18 226.5 11.88 226.66 12.64C227.39 12.32 228.12 12.04 228.85 11.8C230.23 11.36 231.65 11.07 233.1 10.96C233.61 10.91 234.13 10.89 234.65 10.89C235.17 10.89 235.72 10.91 236.25 10.96C238.42 11.14 240.56 11.7 242.68 12.65C242.84 11.89 243.09 11.18 243.44 10.53C243.72 10 244.05 9.51 244.43 9.08C243.26 8.41 242.03 7.87 240.75 7.45Z" fill="#FDAD00"/>
<path d="M172.35 19.53L176.42 23.71C175.24 25.17 173.69 26.35 171.78 27.26C169.87 28.17 167.77 28.63 165.47 28.63C163.32 28.63 161.37 28.29 159.62 27.61C157.87 26.93 156.36 25.98 155.09 24.74C153.82 23.5 152.84 22.05 152.15 20.36C151.46 18.67 151.11 16.82 151.11 14.79C151.11 12.76 151.47 10.95 152.18 9.26C152.9 7.57 153.9 6.11 155.2 4.88C156.5 3.65 158.02 2.69 159.79 2.01C161.55 1.33 163.5 0.99 165.62 0.99C167.91 0.99 169.99 1.45 171.85 2.36C173.71 3.27 175.24 4.46 176.42 5.91L172.35 10.09C171.59 9.01 170.62 8.15 169.45 7.52C168.28 6.89 167 6.58 165.62 6.58C164.14 6.58 162.81 6.93 161.64 7.63C160.47 8.33 159.55 9.3 158.88 10.53C158.21 11.76 157.88 13.18 157.88 14.78C157.88 16.38 158.21 17.81 158.88 19.05C159.55 20.3 160.46 21.27 161.64 21.97C162.81 22.67 164.14 23.02 165.62 23.02C167 23.02 168.28 22.7 169.45 22.06C170.62 21.42 171.59 20.57 172.35 19.51V19.53Z" fill="#FDAD00"/>
<path d="M184.89 28.04H178.53V1.58H184.89V28.04ZM184.52 17.2V11.87H196.06V17.2H184.52ZM195.69 28.04V1.58H202.05V28.04H195.69Z" fill="#FDAD00"/>
<path d="M233.1 10.97C232.95 10.39 232.76 9.83 232.53 9.28C232.16 8.4 231.71 7.58 231.17 6.82C230.69 6.13 230.15 5.49 229.53 4.91C228.24 3.68 226.71 2.72 224.96 2.03C223.21 1.33 221.29 0.99 219.19 0.99C217.09 0.99 215.17 1.33 213.42 2.03C211.67 2.72 210.14 3.68 208.85 4.91C207.55 6.14 206.55 7.6 205.85 9.28C205.15 10.95 204.8 12.79 204.8 14.79C204.8 16.79 205.15 18.63 205.85 20.32C206.55 22.01 207.55 23.47 208.85 24.71C210.14 25.94 211.67 26.9 213.42 27.59C215.17 28.28 217.09 28.63 219.19 28.63C221.29 28.63 223.21 28.28 224.96 27.59C226.71 26.9 228.24 25.94 229.53 24.71C230.83 23.47 231.82 22.01 232.53 20.32C233.23 18.63 233.58 16.79 233.58 14.79C233.58 13.44 233.42 12.17 233.1 10.97ZM225.9 19.06C225.25 20.31 224.35 21.28 223.2 21.99C222.06 22.69 220.72 23.04 219.19 23.04C217.66 23.04 216.35 22.69 215.19 21.99C214.03 21.28 213.13 20.31 212.47 19.06C211.82 17.82 211.49 16.39 211.49 14.79C211.49 13.19 211.82 11.77 212.47 10.54C213.13 9.3 214.03 8.33 215.19 7.63C216.35 6.93 217.68 6.58 219.19 6.58C220.7 6.58 222.06 6.93 223.2 7.63C223.85 8.03 224.43 8.51 224.92 9.09C225.29 9.52 225.62 10.01 225.9 10.54C226.25 11.19 226.5 11.89 226.66 12.65C226.81 13.32 226.88 14.04 226.88 14.79C226.88 16.39 226.56 17.82 225.9 19.06Z" fill="#FDAD00"/>
<path d="M263.5 9.28C262.79 7.6 261.79 6.14 260.5 4.91C259.2 3.68 257.68 2.72 255.93 2.03C254.18 1.33 252.25 0.99 250.16 0.99C248.07 0.99 246.14 1.33 244.39 2.03C242.63 2.72 241.11 3.68 239.82 4.91C239.2 5.5 238.65 6.14 238.17 6.83C237.63 7.58 237.19 8.4 236.82 9.28C236.59 9.83 236.4 10.39 236.25 10.97C235.92 12.17 235.76 13.44 235.76 14.79C235.76 16.79 236.12 18.63 236.82 20.32C237.52 22.01 238.52 23.47 239.82 24.71C241.11 25.94 242.63 26.9 244.39 27.59C246.14 28.28 248.06 28.63 250.16 28.63C252.26 28.63 254.18 28.28 255.93 27.59C257.68 26.9 259.2 25.94 260.5 24.71C261.79 23.47 262.79 22.01 263.5 20.32C264.2 18.63 264.55 16.79 264.55 14.79C264.55 12.79 264.2 10.95 263.5 9.28ZM256.87 19.06C256.22 20.31 255.32 21.28 254.17 21.99C253.02 22.69 251.69 23.04 250.16 23.04C248.63 23.04 247.32 22.69 246.16 21.99C245 21.28 244.09 20.31 243.44 19.06C242.79 17.82 242.46 16.39 242.46 14.79C242.46 14.04 242.53 13.33 242.68 12.66C242.84 11.9 243.09 11.19 243.44 10.54C243.72 10.01 244.05 9.52 244.43 9.09C244.92 8.51 245.5 8.03 246.16 7.63C247.32 6.93 248.65 6.58 250.16 6.58C251.67 6.58 253.02 6.93 254.17 7.63C255.32 8.33 256.22 9.3 256.87 10.54C257.53 11.77 257.85 13.19 257.85 14.79C257.85 16.39 257.53 17.82 256.87 19.06Z" fill="#FDAD00"/>
<path d="M264.47 23.67L268.65 19.45C269.22 20.21 269.95 20.88 270.85 21.45C271.75 22.02 272.72 22.45 273.75 22.74C274.78 23.03 275.81 23.18 276.82 23.18C277.83 23.18 278.77 23.08 279.5 22.87C280.23 22.66 280.78 22.36 281.15 21.98C281.52 21.6 281.7 21.15 281.7 20.63C281.7 19.89 281.29 19.27 280.48 18.76C279.67 18.26 278.15 17.84 275.93 17.52C273.56 17.17 271.61 16.65 270.08 15.95C268.55 15.25 267.42 14.36 266.68 13.29C265.94 12.22 265.57 10.95 265.57 9.5C265.57 7.85 266.04 6.38 266.98 5.1C267.92 3.82 269.21 2.81 270.85 2.09C272.49 1.36 274.36 1 276.46 1C278.95 1 281.16 1.46 283.1 2.37C285.04 3.28 286.64 4.47 287.93 5.92L283.79 10.14C282.95 8.98 281.87 8.07 280.55 7.4C279.23 6.73 277.89 6.4 276.54 6.4C275.19 6.4 274.12 6.65 273.28 7.14C272.44 7.63 272.02 8.27 272.02 9.06C272.02 9.5 272.19 9.89 272.52 10.21C272.85 10.53 273.44 10.81 274.28 11.04C275.12 11.28 276.28 11.52 277.76 11.76C280.05 12.11 281.97 12.65 283.51 13.39C285.05 14.13 286.21 15.07 286.99 16.2C287.77 17.33 288.16 18.68 288.16 20.23C288.16 21.96 287.67 23.45 286.68 24.71C285.69 25.97 284.34 26.94 282.63 27.61C280.92 28.29 278.94 28.63 276.69 28.63C274.03 28.63 271.65 28.17 269.57 27.24C267.49 26.32 265.79 25.13 264.48 23.67H264.47Z" fill="#FDAD00"/>
<path d="M310.13 28.04H290.82V1.58H310.13V6.87H297.18V22.74H310.13V28.03V28.04ZM309.43 17.38H296.81V12.09H309.43V17.38Z" fill="#FDAD00"/>
<path d="M319.16 28.04H312.8V1.58H323.86C325.83 1.58 327.57 1.94 329.08 2.65C330.58 3.37 331.76 4.36 332.59 5.63C333.42 6.9 333.85 8.39 333.85 10.09C333.85 11.79 333.43 13.25 332.59 14.53C331.75 15.81 330.58 16.81 329.08 17.53C327.58 18.25 325.84 18.6 323.86 18.6H318.79V13.31H323.86C324.94 13.31 325.81 13.02 326.45 12.44C327.09 11.86 327.41 11.08 327.41 10.09C327.41 9.1 327.09 8.32 326.45 7.74C325.81 7.16 324.95 6.87 323.86 6.87H319.16V28.03V28.04ZM336.66 28.04H328.96L320.12 15.72H327.37L336.66 28.04Z" fill="#FDAD00"/>
<path d="M234.64 37.15C232.05 37.15 229.54 36.73 227.1 35.89C226.5 35.69 225.9 35.46 225.3 35.2C223.58 34.47 221.71 35.83 221.71 37.81C221.71 38.87 222.26 39.84 223.15 40.32C224.31 40.95 225.51 41.48 226.74 41.91C229.21 42.78 231.84 43.21 234.64 43.21C237.44 43.21 240.08 42.78 242.57 41.91C243.8 41.49 244.99 40.96 246.14 40.34C247.03 39.86 247.59 38.88 247.59 37.82V37.8C247.59 35.8 245.7 34.47 243.95 35.2C240.89 36.49 237.78 37.13 234.64 37.13V37.15Z" fill="black"/>
</svg>
