<?xml version="1.0" encoding="UTF-8" standalone="no"?><svg width="97" height="22" viewBox="0 0 97 22" fill="none" xmlns="http://www.w3.org/2000/svg">
<rect width="97" height="22" rx="11" fill="#EFEFEF"/>
<rect x="3" y="3" width="37" height="16" rx="8" fill="#34E834"/>
<path d="M17.2031 6.89062V14H15.7383L12.8818 9.23438V14H11.417V6.89062H12.8818L15.7432 11.6611V6.89062H17.2031ZM23.248 12.8574V14H19.4639V12.8574H23.248ZM19.9424 6.89062V14H18.4775V6.89062H19.9424ZM22.7549 9.78613V10.8994H19.4639V9.78613H22.7549ZM23.2432 6.89062V8.03809H19.4639V6.89062H23.2432ZM25.8164 12.8721L27.2324 6.89062H28.0234L28.2041 7.88672L26.6953 14H25.8457L25.8164 12.8721ZM25.0889 6.89062L26.2607 12.8721L26.1631 14H25.2158L23.6387 6.89062H25.0889ZM29.4492 12.8477L30.6064 6.89062H32.0566L30.4844 14H29.5371L29.4492 12.8477ZM28.4678 6.89062L29.8936 12.8965L29.8545 14H29.0049L27.4863 7.88184L27.6816 6.89062H28.4678Z" fill="black"/>
<path d="M45.32 15C45.232 15 45.164 14.976 45.116 14.928C45.068 14.872 45.044 14.804 45.044 14.724V6.876C45.044 6.796 45.068 6.732 45.116 6.684C45.164 6.628 45.232 6.6 45.32 6.6H45.956C46.036 6.6 46.1 6.628 46.148 6.684C46.204 6.732 46.232 6.796 46.232 6.876V14.724C46.232 14.804 46.204 14.872 46.148 14.928C46.1 14.976 46.036 15 45.956 15H45.32ZM51.3493 15.12C50.6133 15.12 50.0013 14.984 49.5133 14.712C49.0333 14.44 48.6693 14.06 48.4213 13.572C48.1733 13.084 48.0373 12.516 48.0133 11.868C48.0053 11.54 48.0013 11.188 48.0013 10.812C48.0013 10.436 48.0053 10.076 48.0133 9.732C48.0373 9.084 48.1733 8.516 48.4213 8.028C48.6693 7.54 49.0333 7.16 49.5133 6.888C50.0013 6.616 50.6133 6.48 51.3493 6.48C51.9013 6.48 52.3853 6.556 52.8013 6.708C53.2173 6.86 53.5613 7.064 53.8333 7.32C54.1133 7.576 54.3253 7.864 54.4693 8.184C54.6133 8.496 54.6933 8.82 54.7093 9.156C54.7173 9.228 54.6933 9.288 54.6373 9.336C54.5893 9.384 54.5293 9.408 54.4573 9.408H53.7973C53.7253 9.408 53.6613 9.388 53.6053 9.348C53.5573 9.308 53.5213 9.236 53.4973 9.132C53.3613 8.508 53.1053 8.08 52.7293 7.848C52.3613 7.616 51.8973 7.5 51.3373 7.5C50.6973 7.5 50.1893 7.684 49.8133 8.052C49.4373 8.412 49.2333 8.992 49.2013 9.792C49.1773 10.448 49.1773 11.12 49.2013 11.808C49.2333 12.608 49.4373 13.192 49.8133 13.56C50.1893 13.92 50.6973 14.1 51.3373 14.1C51.8973 14.1 52.3613 13.984 52.7293 13.752C53.1053 13.52 53.3613 13.092 53.4973 12.468C53.5213 12.364 53.5573 12.292 53.6053 12.252C53.6613 12.212 53.7253 12.192 53.7973 12.192H54.4573C54.5293 12.192 54.5893 12.216 54.6373 12.264C54.6933 12.312 54.7173 12.372 54.7093 12.444C54.6933 12.78 54.6133 13.108 54.4693 13.428C54.3253 13.74 54.1133 14.024 53.8333 14.28C53.5613 14.536 53.2173 14.74 52.8013 14.892C52.3853 15.044 51.9013 15.12 51.3493 15.12ZM61.9588 15.12C61.2628 15.12 60.6788 15.016 60.2068 14.808C59.7348 14.592 59.3708 14.316 59.1148 13.98C58.8668 13.636 58.7348 13.272 58.7188 12.888C58.7188 12.824 58.7428 12.768 58.7908 12.72C58.8468 12.664 58.9108 12.636 58.9828 12.636H59.5948C59.6908 12.636 59.7628 12.66 59.8108 12.708C59.8588 12.756 59.8908 12.812 59.9068 12.876C59.9468 13.068 60.0428 13.26 60.1948 13.452C60.3548 13.636 60.5748 13.792 60.8548 13.92C61.1428 14.04 61.5108 14.1 61.9588 14.1C62.6468 14.1 63.1508 13.98 63.4708 13.74C63.7988 13.492 63.9628 13.164 63.9628 12.756C63.9628 12.476 63.8748 12.252 63.6988 12.084C63.5308 11.908 63.2708 11.752 62.9188 11.616C62.5668 11.48 62.1108 11.332 61.5508 11.172C60.9668 11.004 60.4828 10.82 60.0988 10.62C59.7148 10.42 59.4268 10.172 59.2348 9.876C59.0508 9.58 58.9588 9.204 58.9588 8.748C58.9588 8.316 59.0748 7.932 59.3068 7.596C59.5388 7.252 59.8708 6.98 60.3028 6.78C60.7428 6.58 61.2748 6.48 61.8988 6.48C62.3948 6.48 62.8268 6.548 63.1948 6.684C63.5708 6.812 63.8828 6.988 64.1308 7.212C64.3788 7.428 64.5668 7.664 64.6948 7.92C64.8228 8.168 64.8908 8.412 64.8988 8.652C64.8988 8.708 64.8788 8.764 64.8388 8.82C64.7988 8.868 64.7348 8.892 64.6468 8.892H64.0108C63.9548 8.892 63.8948 8.876 63.8308 8.844C63.7748 8.812 63.7308 8.752 63.6988 8.664C63.6508 8.336 63.4668 8.06 63.1468 7.836C62.8268 7.612 62.4108 7.5 61.8988 7.5C61.3788 7.5 60.9548 7.6 60.6268 7.8C60.3068 8 60.1468 8.312 60.1468 8.736C60.1468 9.008 60.2228 9.236 60.3748 9.42C60.5268 9.596 60.7668 9.752 61.0948 9.888C61.4228 10.024 61.8508 10.168 62.3788 10.32C63.0188 10.496 63.5428 10.684 63.9508 10.884C64.3588 11.076 64.6588 11.32 64.8508 11.616C65.0508 11.904 65.1508 12.276 65.1508 12.732C65.1508 13.236 65.0188 13.668 64.7548 14.028C64.4908 14.38 64.1188 14.652 63.6388 14.844C63.1668 15.028 62.6068 15.12 61.9588 15.12ZM69.1237 15.12C68.5157 15.12 68.0077 15.004 67.5997 14.772C67.1917 14.54 66.8797 14.22 66.6637 13.812C66.4477 13.396 66.3277 12.924 66.3037 12.396C66.2957 12.26 66.2917 12.088 66.2917 11.88C66.2917 11.664 66.2957 11.492 66.3037 11.364C66.3277 10.828 66.4477 10.356 66.6637 9.948C66.8877 9.54 67.2037 9.22 67.6117 8.988C68.0197 8.756 68.5237 8.64 69.1237 8.64C69.7237 8.64 70.2277 8.756 70.6357 8.988C71.0437 9.22 71.3557 9.54 71.5717 9.948C71.7957 10.356 71.9197 10.828 71.9437 11.364C71.9517 11.492 71.9557 11.664 71.9557 11.88C71.9557 12.088 71.9517 12.26 71.9437 12.396C71.9197 12.924 71.7997 13.396 71.5837 13.812C71.3677 14.22 71.0557 14.54 70.6477 14.772C70.2397 15.004 69.7317 15.12 69.1237 15.12ZM69.1237 14.196C69.6197 14.196 70.0157 14.04 70.3117 13.728C70.6077 13.408 70.7677 12.944 70.7917 12.336C70.7997 12.216 70.8037 12.064 70.8037 11.88C70.8037 11.696 70.7997 11.544 70.7917 11.424C70.7677 10.816 70.6077 10.356 70.3117 10.044C70.0157 9.724 69.6197 9.564 69.1237 9.564C68.6277 9.564 68.2277 9.724 67.9237 10.044C67.6277 10.356 67.4717 10.816 67.4557 11.424C67.4477 11.544 67.4437 11.696 67.4437 11.88C67.4437 12.064 67.4477 12.216 67.4557 12.336C67.4717 12.944 67.6277 13.408 67.9237 13.728C68.2277 14.04 68.6277 14.196 69.1237 14.196ZM75.9783 15.12C75.4103 15.12 74.9183 15.012 74.5023 14.796C74.0943 14.572 73.7783 14.256 73.5543 13.848C73.3303 13.432 73.2103 12.936 73.1943 12.36C73.1863 12.24 73.1823 12.08 73.1823 11.88C73.1823 11.68 73.1863 11.52 73.1943 11.4C73.2103 10.824 73.3303 10.332 73.5543 9.924C73.7783 9.508 74.0943 9.192 74.5023 8.976C74.9183 8.752 75.4103 8.64 75.9783 8.64C76.4423 8.64 76.8383 8.704 77.1663 8.832C77.5023 8.96 77.7783 9.124 77.9943 9.324C78.2103 9.524 78.3703 9.74 78.4743 9.972C78.5863 10.204 78.6463 10.424 78.6543 10.632C78.6623 10.712 78.6383 10.776 78.5823 10.824C78.5263 10.872 78.4583 10.896 78.3783 10.896H77.8023C77.7223 10.896 77.6623 10.88 77.6223 10.848C77.5823 10.808 77.5423 10.744 77.5023 10.656C77.3583 10.264 77.1623 9.988 76.9143 9.828C76.6663 9.668 76.3583 9.588 75.9903 9.588C75.5103 9.588 75.1183 9.736 74.8143 10.032C74.5183 10.328 74.3583 10.804 74.3343 11.46C74.3263 11.748 74.3263 12.028 74.3343 12.3C74.3583 12.964 74.5183 13.444 74.8143 13.74C75.1183 14.028 75.5103 14.172 75.9903 14.172C76.3583 14.172 76.6663 14.092 76.9143 13.932C77.1623 13.772 77.3583 13.496 77.5023 13.104C77.5423 13.016 77.5823 12.956 77.6223 12.924C77.6623 12.884 77.7223 12.864 77.8023 12.864H78.3783C78.4583 12.864 78.5263 12.888 78.5823 12.936C78.6383 12.984 78.6623 13.048 78.6543 13.128C78.6463 13.296 78.6103 13.468 78.5463 13.644C78.4823 13.82 78.3783 14 78.2343 14.184C78.0983 14.36 77.9263 14.52 77.7183 14.664C77.5103 14.8 77.2583 14.912 76.9623 15C76.6743 15.08 76.3463 15.12 75.9783 15.12ZM80.3554 15C80.2754 15 80.2074 14.976 80.1514 14.928C80.1034 14.872 80.0794 14.804 80.0794 14.724V9.036C80.0794 8.956 80.1034 8.892 80.1514 8.844C80.2074 8.788 80.2754 8.76 80.3554 8.76H80.9314C81.0114 8.76 81.0754 8.788 81.1234 8.844C81.1714 8.892 81.1954 8.956 81.1954 9.036V14.724C81.1954 14.804 81.1714 14.872 81.1234 14.928C81.0754 14.976 81.0114 15 80.9314 15H80.3554ZM80.2594 7.596C80.1794 7.596 80.1114 7.572 80.0554 7.524C80.0074 7.468 79.9834 7.4 79.9834 7.32V6.672C79.9834 6.592 80.0074 6.528 80.0554 6.48C80.1114 6.424 80.1794 6.396 80.2594 6.396H81.0154C81.0954 6.396 81.1594 6.424 81.2074 6.48C81.2634 6.528 81.2914 6.592 81.2914 6.672V7.32C81.2914 7.4 81.2634 7.468 81.2074 7.524C81.1594 7.572 81.0954 7.596 81.0154 7.596H80.2594ZM84.7257 15.12C84.3257 15.12 83.9617 15.04 83.6337 14.88C83.3057 14.72 83.0417 14.504 82.8417 14.232C82.6417 13.96 82.5417 13.652 82.5417 13.308C82.5417 12.756 82.7657 12.316 83.2137 11.988C83.6617 11.66 84.2457 11.444 84.9657 11.34L86.7537 11.088V10.74C86.7537 10.356 86.6417 10.056 86.4177 9.84C86.2017 9.624 85.8457 9.516 85.3497 9.516C84.9897 9.516 84.6977 9.588 84.4737 9.732C84.2577 9.876 84.1057 10.06 84.0177 10.284C83.9697 10.404 83.8857 10.464 83.7657 10.464H83.2257C83.1377 10.464 83.0697 10.44 83.0217 10.392C82.9817 10.336 82.9617 10.272 82.9617 10.2C82.9617 10.08 83.0057 9.932 83.0937 9.756C83.1897 9.58 83.3337 9.408 83.5257 9.24C83.7177 9.072 83.9617 8.932 84.2577 8.82C84.5617 8.7 84.9297 8.64 85.3617 8.64C85.8417 8.64 86.2457 8.704 86.5737 8.832C86.9017 8.952 87.1577 9.116 87.3417 9.324C87.5337 9.532 87.6697 9.768 87.7497 10.032C87.8377 10.296 87.8817 10.564 87.8817 10.836V14.724C87.8817 14.804 87.8537 14.872 87.7977 14.928C87.7497 14.976 87.6857 15 87.6057 15H87.0537C86.9657 15 86.8977 14.976 86.8497 14.928C86.8017 14.872 86.7777 14.804 86.7777 14.724V14.208C86.6737 14.352 86.5337 14.496 86.3577 14.64C86.1817 14.776 85.9617 14.892 85.6977 14.988C85.4337 15.076 85.1097 15.12 84.7257 15.12ZM84.9777 14.22C85.3057 14.22 85.6057 14.152 85.8777 14.016C86.1497 13.872 86.3617 13.652 86.5137 13.356C86.6737 13.06 86.7537 12.688 86.7537 12.24V11.904L85.3617 12.108C84.7937 12.188 84.3657 12.324 84.0777 12.516C83.7897 12.7 83.6457 12.936 83.6457 13.224C83.6457 13.448 83.7097 13.636 83.8377 13.788C83.9737 13.932 84.1417 14.04 84.3417 14.112C84.5497 14.184 84.7617 14.22 84.9777 14.22ZM89.8948 15C89.8148 15 89.7468 14.976 89.6908 14.928C89.6428 14.872 89.6188 14.804 89.6188 14.724V6.756C89.6188 6.676 89.6428 6.612 89.6908 6.564C89.7468 6.508 89.8148 6.48 89.8948 6.48H90.4588C90.5468 6.48 90.6148 6.508 90.6628 6.564C90.7108 6.612 90.7348 6.676 90.7348 6.756V14.724C90.7348 14.804 90.7108 14.872 90.6628 14.928C90.6148 14.976 90.5468 15 90.4588 15H89.8948Z" fill="black"/>
</svg>
