<?xml version="1.0" encoding="UTF-8" standalone="no"?><svg width="112" height="22" viewBox="0 0 112 22" fill="none" xmlns="http://www.w3.org/2000/svg">
<rect width="112" height="22" rx="11" fill="#EFEFEF"/>
<g clip-path="url(#clip0_6319_15635)">
<g clip-path="url(#clip1_6319_15635)">
<path d="M14.0002 13.916V14.75C14.0002 15.4395 15.6799 16 17.7502 16C19.8206 16 21.5002 15.4395 21.5002 14.75V13.916C20.6936 14.4844 19.219 14.75 17.7502 14.75C16.2815 14.75 14.8069 14.4844 14.0002 13.916ZM14.0002 11.8672V12.875C14.0002 13.5645 15.6799 14.125 17.7502 14.125C19.8206 14.125 21.5002 13.5645 21.5002 12.875V11.8672C20.6936 12.5312 19.217 12.875 17.7502 12.875C16.2834 12.875 14.8069 12.5312 14.0002 11.8672ZM17.7502 9.125C15.6799 9.125 14.0002 9.82422 14.0002 10.6875C14.0002 11.5508 15.6799 12.25 17.7502 12.25C19.8206 12.25 21.5002 11.5508 21.5002 10.6875C21.5002 9.82422 19.8206 9.125 17.7502 9.125Z" fill="black"/>
<path d="M20.2502 8.5C22.3206 8.5 24.0002 7.93945 24.0002 7.25C24.0002 6.56055 22.3206 6 20.2502 6C18.1799 6 16.5002 6.56055 16.5002 7.25C16.5002 7.93945 18.1799 8.5 20.2502 8.5ZM22.1252 12.082C23.2444 11.8652 24.0002 11.4629 24.0002 11V10.166C23.5471 10.4863 22.8811 10.7051 22.1252 10.8398V12.082ZM22.0334 10.2246C23.2053 10.0137 24.0002 9.59961 24.0002 9.125V8.29102C23.3069 8.78125 22.1155 9.04492 20.8616 9.10742C21.4377 9.38672 21.8616 9.76172 22.0334 10.2246Z" fill="#34E834"/>
</g>
</g>
<path d="M35.156 15C35.076 15 35.008 14.976 34.952 14.928C34.904 14.872 34.88 14.804 34.88 14.724V7.668H32.576C32.496 7.668 32.428 7.644 32.372 7.596C32.324 7.54 32.3 7.472 32.3 7.392V6.888C32.3 6.8 32.324 6.732 32.372 6.684C32.428 6.628 32.496 6.6 32.576 6.6H38.36C38.448 6.6 38.516 6.628 38.564 6.684C38.62 6.732 38.648 6.8 38.648 6.888V7.392C38.648 7.472 38.62 7.54 38.564 7.596C38.516 7.644 38.448 7.668 38.36 7.668H36.068V14.724C36.068 14.804 36.04 14.872 35.984 14.928C35.936 14.976 35.868 15 35.78 15H35.156ZM39.1406 15C39.0606 15 38.9926 14.976 38.9366 14.928C38.8886 14.872 38.8646 14.804 38.8646 14.724V9.048C38.8646 8.968 38.8886 8.9 38.9366 8.844C38.9926 8.788 39.0606 8.76 39.1406 8.76H39.6926C39.7726 8.76 39.8406 8.788 39.8966 8.844C39.9526 8.9 39.9806 8.968 39.9806 9.048V9.576C40.1406 9.304 40.3606 9.1 40.6406 8.964C40.9206 8.828 41.2566 8.76 41.6486 8.76H42.1286C42.2086 8.76 42.2726 8.788 42.3206 8.844C42.3686 8.892 42.3926 8.956 42.3926 9.036V9.528C42.3926 9.608 42.3686 9.672 42.3206 9.72C42.2726 9.768 42.2086 9.792 42.1286 9.792H41.4086C40.9766 9.792 40.6366 9.92 40.3886 10.176C40.1406 10.424 40.0166 10.764 40.0166 11.196V14.724C40.0166 14.804 39.9886 14.872 39.9326 14.928C39.8766 14.976 39.8086 15 39.7286 15H39.1406ZM45.0694 15.12C44.6694 15.12 44.3054 15.04 43.9774 14.88C43.6494 14.72 43.3854 14.504 43.1854 14.232C42.9854 13.96 42.8854 13.652 42.8854 13.308C42.8854 12.756 43.1094 12.316 43.5574 11.988C44.0054 11.66 44.5894 11.444 45.3094 11.34L47.0974 11.088V10.74C47.0974 10.356 46.9854 10.056 46.7614 9.84C46.5454 9.624 46.1894 9.516 45.6934 9.516C45.3334 9.516 45.0414 9.588 44.8174 9.732C44.6014 9.876 44.4494 10.06 44.3614 10.284C44.3134 10.404 44.2294 10.464 44.1094 10.464H43.5694C43.4814 10.464 43.4134 10.44 43.3654 10.392C43.3254 10.336 43.3054 10.272 43.3054 10.2C43.3054 10.08 43.3494 9.932 43.4374 9.756C43.5334 9.58 43.6774 9.408 43.8694 9.24C44.0614 9.072 44.3054 8.932 44.6014 8.82C44.9054 8.7 45.2734 8.64 45.7054 8.64C46.1854 8.64 46.5894 8.704 46.9174 8.832C47.2454 8.952 47.5014 9.116 47.6854 9.324C47.8774 9.532 48.0134 9.768 48.0934 10.032C48.1814 10.296 48.2254 10.564 48.2254 10.836V14.724C48.2254 14.804 48.1974 14.872 48.1414 14.928C48.0934 14.976 48.0294 15 47.9494 15H47.3974C47.3094 15 47.2414 14.976 47.1934 14.928C47.1454 14.872 47.1214 14.804 47.1214 14.724V14.208C47.0174 14.352 46.8774 14.496 46.7014 14.64C46.5254 14.776 46.3054 14.892 46.0414 14.988C45.7774 15.076 45.4534 15.12 45.0694 15.12ZM45.3214 14.22C45.6494 14.22 45.9494 14.152 46.2214 14.016C46.4934 13.872 46.7054 13.652 46.8574 13.356C47.0174 13.06 47.0974 12.688 47.0974 12.24V11.904L45.7054 12.108C45.1374 12.188 44.7094 12.324 44.4214 12.516C44.1334 12.7 43.9894 12.936 43.9894 13.224C43.9894 13.448 44.0534 13.636 44.1814 13.788C44.3174 13.932 44.4854 14.04 44.6854 14.112C44.8934 14.184 45.1054 14.22 45.3214 14.22ZM52.2305 15.12C51.7905 15.12 51.4105 15.044 51.0905 14.892C50.7705 14.732 50.5065 14.52 50.2985 14.256C50.0985 13.984 49.9465 13.676 49.8425 13.332C49.7465 12.988 49.6905 12.624 49.6745 12.24C49.6665 12.112 49.6625 11.992 49.6625 11.88C49.6625 11.768 49.6665 11.648 49.6745 11.52C49.6905 11.144 49.7465 10.784 49.8425 10.44C49.9465 10.096 50.0985 9.788 50.2985 9.516C50.5065 9.244 50.7705 9.032 51.0905 8.88C51.4105 8.72 51.7905 8.64 52.2305 8.64C52.7025 8.64 53.0945 8.724 53.4065 8.892C53.7185 9.06 53.9745 9.268 54.1745 9.516V6.756C54.1745 6.676 54.1985 6.612 54.2465 6.564C54.3025 6.508 54.3705 6.48 54.4505 6.48H55.0265C55.1065 6.48 55.1705 6.508 55.2185 6.564C55.2745 6.612 55.3025 6.676 55.3025 6.756V14.724C55.3025 14.804 55.2745 14.872 55.2185 14.928C55.1705 14.976 55.1065 15 55.0265 15H54.4865C54.3985 15 54.3305 14.976 54.2825 14.928C54.2345 14.872 54.2105 14.804 54.2105 14.724V14.22C54.0105 14.476 53.7505 14.692 53.4305 14.868C53.1105 15.036 52.7105 15.12 52.2305 15.12ZM52.4825 14.148C52.8825 14.148 53.2025 14.056 53.4425 13.872C53.6825 13.688 53.8625 13.456 53.9825 13.176C54.1025 12.888 54.1665 12.596 54.1745 12.3C54.1825 12.172 54.1865 12.02 54.1865 11.844C54.1865 11.66 54.1825 11.504 54.1745 11.376C54.1665 11.096 54.0985 10.82 53.9705 10.548C53.8505 10.276 53.6665 10.052 53.4185 9.876C53.1785 9.7 52.8665 9.612 52.4825 9.612C52.0745 9.612 51.7505 9.704 51.5105 9.888C51.2705 10.064 51.0985 10.3 50.9945 10.596C50.8905 10.884 50.8305 11.196 50.8145 11.532C50.8065 11.764 50.8065 11.996 50.8145 12.228C50.8305 12.564 50.8905 12.88 50.9945 13.176C51.0985 13.464 51.2705 13.7 51.5105 13.884C51.7505 14.06 52.0745 14.148 52.4825 14.148ZM59.5712 15.12C58.7472 15.12 58.0912 14.868 57.6032 14.364C57.1152 13.852 56.8472 13.156 56.7992 12.276C56.7912 12.172 56.7872 12.04 56.7872 11.88C56.7872 11.712 56.7912 11.576 56.7992 11.472C56.8312 10.904 56.9632 10.408 57.1952 9.984C57.4272 9.552 57.7432 9.22 58.1432 8.988C58.5512 8.756 59.0272 8.64 59.5712 8.64C60.1792 8.64 60.6872 8.768 61.0952 9.024C61.5112 9.28 61.8272 9.644 62.0432 10.116C62.2592 10.588 62.3672 11.14 62.3672 11.772V11.976C62.3672 12.064 62.3392 12.132 62.2832 12.18C62.2352 12.228 62.1712 12.252 62.0912 12.252H57.9392C57.9392 12.26 57.9392 12.276 57.9392 12.3C57.9392 12.324 57.9392 12.344 57.9392 12.36C57.9552 12.688 58.0272 12.996 58.1552 13.284C58.2832 13.564 58.4672 13.792 58.7072 13.968C58.9472 14.144 59.2352 14.232 59.5712 14.232C59.8592 14.232 60.0992 14.188 60.2912 14.1C60.4832 14.012 60.6392 13.916 60.7592 13.812C60.8792 13.7 60.9592 13.616 60.9992 13.56C61.0712 13.456 61.1272 13.396 61.1672 13.38C61.2072 13.356 61.2712 13.344 61.3592 13.344H61.9352C62.0152 13.344 62.0792 13.368 62.1272 13.416C62.1832 13.456 62.2072 13.516 62.1992 13.596C62.1912 13.716 62.1272 13.864 62.0072 14.04C61.8872 14.208 61.7152 14.376 61.4912 14.544C61.2672 14.712 60.9952 14.852 60.6752 14.964C60.3552 15.068 59.9872 15.12 59.5712 15.12ZM57.9392 11.424H61.2272V11.388C61.2272 11.028 61.1592 10.708 61.0232 10.428C60.8952 10.148 60.7072 9.928 60.4592 9.768C60.2112 9.6 59.9152 9.516 59.5712 9.516C59.2272 9.516 58.9312 9.6 58.6832 9.768C58.4432 9.928 58.2592 10.148 58.1312 10.428C58.0032 10.708 57.9392 11.028 57.9392 11.388V11.424ZM67.1755 15C67.0875 15 67.0195 14.976 66.9715 14.928C66.9235 14.872 66.8995 14.804 66.8995 14.724V6.888C66.8995 6.8 66.9235 6.732 66.9715 6.684C67.0195 6.628 67.0875 6.6 67.1755 6.6H72.0715C72.1595 6.6 72.2275 6.628 72.2755 6.684C72.3235 6.732 72.3475 6.8 72.3475 6.888V7.368C72.3475 7.456 72.3235 7.524 72.2755 7.572C72.2275 7.62 72.1595 7.644 72.0715 7.644H68.0635V10.44H71.8315C71.9195 10.44 71.9875 10.468 72.0355 10.524C72.0835 10.572 72.1075 10.64 72.1075 10.728V11.208C72.1075 11.288 72.0835 11.356 72.0355 11.412C71.9875 11.46 71.9195 11.484 71.8315 11.484H68.0635V14.724C68.0635 14.804 68.0355 14.872 67.9795 14.928C67.9315 14.976 67.8635 15 67.7755 15H67.1755ZM76.1784 15.12C75.5704 15.12 75.0624 15.004 74.6544 14.772C74.2464 14.54 73.9344 14.22 73.7184 13.812C73.5024 13.396 73.3824 12.924 73.3584 12.396C73.3504 12.26 73.3464 12.088 73.3464 11.88C73.3464 11.664 73.3504 11.492 73.3584 11.364C73.3824 10.828 73.5024 10.356 73.7184 9.948C73.9424 9.54 74.2584 9.22 74.6664 8.988C75.0744 8.756 75.5784 8.64 76.1784 8.64C76.7784 8.64 77.2824 8.756 77.6904 8.988C78.0984 9.22 78.4104 9.54 78.6264 9.948C78.8504 10.356 78.9744 10.828 78.9984 11.364C79.0064 11.492 79.0104 11.664 79.0104 11.88C79.0104 12.088 79.0064 12.26 78.9984 12.396C78.9744 12.924 78.8544 13.396 78.6384 13.812C78.4224 14.22 78.1104 14.54 77.7024 14.772C77.2944 15.004 76.7864 15.12 76.1784 15.12ZM76.1784 14.196C76.6744 14.196 77.0704 14.04 77.3664 13.728C77.6624 13.408 77.8224 12.944 77.8464 12.336C77.8544 12.216 77.8584 12.064 77.8584 11.88C77.8584 11.696 77.8544 11.544 77.8464 11.424C77.8224 10.816 77.6624 10.356 77.3664 10.044C77.0704 9.724 76.6744 9.564 76.1784 9.564C75.6824 9.564 75.2824 9.724 74.9784 10.044C74.6824 10.356 74.5264 10.816 74.5104 11.424C74.5024 11.544 74.4984 11.696 74.4984 11.88C74.4984 12.064 74.5024 12.216 74.5104 12.336C74.5264 12.944 74.6824 13.408 74.9784 13.728C75.2824 14.04 75.6824 14.196 76.1784 14.196ZM80.789 15C80.709 15 80.641 14.976 80.585 14.928C80.537 14.872 80.513 14.804 80.513 14.724V9.048C80.513 8.968 80.537 8.9 80.585 8.844C80.641 8.788 80.709 8.76 80.789 8.76H81.341C81.421 8.76 81.489 8.788 81.545 8.844C81.601 8.9 81.629 8.968 81.629 9.048V9.576C81.789 9.304 82.009 9.1 82.289 8.964C82.569 8.828 82.905 8.76 83.297 8.76H83.777C83.857 8.76 83.921 8.788 83.969 8.844C84.017 8.892 84.041 8.956 84.041 9.036V9.528C84.041 9.608 84.017 9.672 83.969 9.72C83.921 9.768 83.857 9.792 83.777 9.792H83.057C82.625 9.792 82.285 9.92 82.037 10.176C81.789 10.424 81.665 10.764 81.665 11.196V14.724C81.665 14.804 81.637 14.872 81.581 14.928C81.525 14.976 81.457 15 81.377 15H80.789ZM87.4384 15.12C86.6144 15.12 85.9584 14.868 85.4704 14.364C84.9824 13.852 84.7144 13.156 84.6664 12.276C84.6584 12.172 84.6544 12.04 84.6544 11.88C84.6544 11.712 84.6584 11.576 84.6664 11.472C84.6984 10.904 84.8304 10.408 85.0624 9.984C85.2944 9.552 85.6104 9.22 86.0104 8.988C86.4184 8.756 86.8944 8.64 87.4384 8.64C88.0464 8.64 88.5544 8.768 88.9624 9.024C89.3784 9.28 89.6944 9.644 89.9104 10.116C90.1264 10.588 90.2344 11.14 90.2344 11.772V11.976C90.2344 12.064 90.2064 12.132 90.1504 12.18C90.1024 12.228 90.0384 12.252 89.9584 12.252H85.8064C85.8064 12.26 85.8064 12.276 85.8064 12.3C85.8064 12.324 85.8064 12.344 85.8064 12.36C85.8224 12.688 85.8944 12.996 86.0224 13.284C86.1504 13.564 86.3344 13.792 86.5744 13.968C86.8144 14.144 87.1024 14.232 87.4384 14.232C87.7264 14.232 87.9664 14.188 88.1584 14.1C88.3504 14.012 88.5064 13.916 88.6264 13.812C88.7464 13.7 88.8264 13.616 88.8664 13.56C88.9384 13.456 88.9944 13.396 89.0344 13.38C89.0744 13.356 89.1384 13.344 89.2264 13.344H89.8024C89.8824 13.344 89.9464 13.368 89.9944 13.416C90.0504 13.456 90.0744 13.516 90.0664 13.596C90.0584 13.716 89.9944 13.864 89.8744 14.04C89.7544 14.208 89.5824 14.376 89.3584 14.544C89.1344 14.712 88.8624 14.852 88.5424 14.964C88.2224 15.068 87.8544 15.12 87.4384 15.12ZM85.8064 11.424H89.0944V11.388C89.0944 11.028 89.0264 10.708 88.8904 10.428C88.7624 10.148 88.5744 9.928 88.3264 9.768C88.0784 9.6 87.7824 9.516 87.4384 9.516C87.0944 9.516 86.7984 9.6 86.5504 9.768C86.3104 9.928 86.1264 10.148 85.9984 10.428C85.8704 10.708 85.8064 11.028 85.8064 11.388V11.424ZM91.2523 15C91.1883 15 91.1283 14.976 91.0723 14.928C91.0243 14.88 91.0003 14.82 91.0003 14.748C91.0003 14.724 91.0043 14.696 91.0123 14.664C91.0283 14.624 91.0523 14.58 91.0843 14.532L93.1723 11.808L91.2163 9.228C91.1843 9.18 91.1603 9.14 91.1443 9.108C91.1363 9.076 91.1323 9.044 91.1323 9.012C91.1323 8.94 91.1563 8.88 91.2043 8.832C91.2523 8.784 91.3123 8.76 91.3843 8.76H91.9963C92.0843 8.76 92.1483 8.784 92.1883 8.832C92.2363 8.872 92.2763 8.912 92.3083 8.952L93.9043 11.028L95.5003 8.964C95.5323 8.924 95.5683 8.88 95.6083 8.832C95.6563 8.784 95.7243 8.76 95.8123 8.76H96.4003C96.4723 8.76 96.5323 8.784 96.5803 8.832C96.6283 8.88 96.6523 8.94 96.6523 9.012C96.6523 9.044 96.6443 9.076 96.6283 9.108C96.6203 9.14 96.6003 9.18 96.5683 9.228L94.5883 11.832L96.6763 14.532C96.7083 14.58 96.7283 14.62 96.7363 14.652C96.7523 14.684 96.7603 14.716 96.7603 14.748C96.7603 14.82 96.7363 14.88 96.6883 14.928C96.6403 14.976 96.5803 15 96.5083 15H95.8723C95.7923 15 95.7283 14.98 95.6803 14.94C95.6323 14.9 95.5923 14.86 95.5603 14.82L93.8683 12.624L92.1763 14.82C92.1443 14.852 92.1043 14.892 92.0563 14.94C92.0163 14.98 91.9523 15 91.8643 15H91.2523Z" fill="black"/>
<defs>
<clipPath id="clip0_6319_15635">
<rect width="10" height="10" fill="white" transform="translate(14 6)"/>
</clipPath>
<clipPath id="clip1_6319_15635">
<rect width="10" height="10" fill="white" transform="translate(14.0002 6)"/>
</clipPath>
</defs>
</svg>
