<?xml version="1.0" encoding="UTF-8" standalone="no"?><svg width="89" height="22" viewBox="0 0 89 22" fill="none" xmlns="http://www.w3.org/2000/svg">
<path d="M14.599 5.20222V16.731H11.9639V5.20222H14.599Z" fill="#34E834"/>
<path d="M2.63516 12.8881V16.6299H0V12.8881C0 12.8881 2.63516 12.8881 2.63516 12.8881Z" fill="black"/>
<path d="M6.5866 8.43822V16.6297H3.95145V8.43822H6.5866Z" fill="black"/>
<path d="M10.4885 11.0171V16.7309H7.8533V11.0171H10.4885Z" fill="black"/>
<path d="M26.6677 12.3319C26.4041 15.1635 24.6122 17.0344 21.3446 17.0344C17.8662 17.0344 15.5473 14.6073 15.5473 11.0172C15.5473 7.67993 17.7608 5 21.3973 5C24.296 5 26.3514 6.7192 26.5623 9.14631H24.0325C23.769 7.88219 22.7676 7.17429 21.3446 7.17429C19.0784 7.17429 18.1825 9.14631 18.1825 11.1183C18.1825 13.4949 19.3946 15.0118 21.3446 15.0118C22.9257 15.0118 23.8744 14.1017 24.0852 12.433H26.6677V12.3319Z" fill="#34E834"/>
<path d="M29.1447 16.6298V5.10104H32.8339L35.6272 12.9892L38.3678 5.10104H42.0043V16.6298H39.5272V8.43832L36.5759 16.5793H34.5731L31.6218 8.53945V16.5793L29.1447 16.6298Z" fill="black"/>
<path d="M51.1237 16.6805C51.1237 15.7703 51.1237 15.113 51.1237 14.6579V10.815C51.1237 8.48901 49.1736 8.08449 47.4344 8.08449H47.3817C44.852 8.08449 43.5344 9.04522 43.3763 10.9161H45.5898C45.7479 9.95539 46.1696 9.652 47.2763 9.652C48.3304 9.652 48.8574 10.006 48.8574 10.7644C48.8574 11.4218 48.3304 11.5735 46.802 11.7757L46.4331 11.8263C44.7993 12.0285 43.0074 12.3825 43.0074 14.4557C43.0074 16.0232 44.1669 16.9839 46.1169 16.9839C47.1709 16.9839 48.1723 16.6805 48.9101 15.922V16.7311H51.1237V16.6805ZM48.8047 12.6353V13.5961C48.8047 14.8096 47.9088 15.4164 46.6966 15.4164C45.8534 15.4164 45.379 15.0119 45.379 14.304C45.379 13.2927 46.3277 13.1915 47.1182 13.0398C47.7507 12.9387 48.2777 12.9387 48.8047 12.6353Z" fill="black"/>
<path d="M54.284 16.6805V11.4723C54.284 10.9666 54.7056 10.461 55.338 10.461H57.4989V8.23615H55.2853C53.4407 8.23615 51.965 9.70252 51.965 11.4723V16.6299C51.965 16.6805 54.284 16.6805 54.284 16.6805Z" fill="black"/>
<path d="M77.3679 5.15181V8.23626H80.003V10.4611H77.3679V13.3939C77.3679 13.8995 77.7895 14.4052 78.4219 14.4052H80.0557V16.63H78.4219C76.5773 16.63 75.1016 15.1636 75.1016 13.3939V5.15181H77.3679Z" fill="black"/>
<path d="M66.195 8.28663L62.9274 11.3711L66.5639 16.5793H63.718L61.2936 12.888L60.2923 13.7982V16.6298H57.9733V5.10104H60.2923V11.2699L63.349 8.28663H66.195Z" fill="black"/>
<path d="M74.2066 14.0512H71.9403C71.6241 14.9108 71.0444 15.2647 70.2011 15.2647C68.9363 15.2647 68.1984 14.4557 68.1984 13.0905H74.4174V12.8882C74.4174 9.95543 72.7836 8.1351 70.1484 8.1351C67.6187 8.1351 65.7741 10.006 65.7741 12.5848C65.7741 15.2142 67.5133 16.9334 70.2011 16.9334C72.1512 16.8828 73.6795 15.821 74.2066 14.0512ZM71.9403 11.5735H68.1984C68.3038 10.4105 69.0944 9.70261 70.0957 9.70261C71.3079 9.70261 71.8876 10.6128 71.9403 11.5735Z" fill="black"/>
<path d="M88.172 10.714H85.9585C85.8531 9.80384 85.2733 9.55102 84.3247 9.55102C83.4814 9.55102 82.9544 9.85441 82.9544 10.4106C82.9544 10.9668 83.4814 11.1185 84.5355 11.3714L85.3788 11.523C86.8544 11.8264 88.4882 12.231 88.4882 14.0513C88.4882 15.7705 87.0125 16.8829 84.5882 16.8829C82.4274 16.8829 80.5301 16.0233 80.5301 13.9502H82.7436C82.849 14.9615 83.4814 15.366 84.5882 15.366C85.5896 15.366 86.1693 14.9615 86.1693 14.3041C86.1693 13.6468 85.5369 13.4445 84.3247 13.1917L84.1139 13.1411C82.5855 12.8377 80.6882 12.5849 80.6882 10.6129C80.6882 8.9948 82.0585 8.03407 84.4301 8.03407C86.4328 8.08464 88.1193 8.79254 88.172 10.714Z" fill="black"/>
</svg>
