<?xml version="1.0" encoding="UTF-8"?>
<svg id="Layer_1" data-name="Layer 1" xmlns="http://www.w3.org/2000/svg" version="1.1" viewBox="0 0 204 70">
  <defs>
    <style>
      .cls-1 {
        fill: #e35728;
      }

      .cls-1, .cls-2 {
        stroke-width: 0px;
      }

      .cls-2 {
        fill: #034854;
      }
    </style>
  </defs>
  <g>
    <path class="cls-2" d="M75.209,21.919h-3.491c-.252,0-.504.18-.576.396l-5.542,15.15-5.578-15.15c-.108-.252-.324-.396-.576-.396h-3.491c-.432,0-.756.432-.576.864l7.521,19.252c.108.252.324.396.576.396h4.282c.252,0,.504-.144.576-.396l7.521-19.252c.144-.396-.144-.864-.576-.864h-.072Z"/>
    <g>
      <path class="cls-2" d="M111.41,21.38c-2.771,0-5.002,1.008-6.369,3.167v-2.015c0-.36-.288-.612-.612-.612h-3.167c-.36,0-.612.288-.612.612v19.252c0,.36.288.612.612.612h3.167c.36,0,.612-.288.612-.612v-10.364c0-4.174,2.303-5.902,5.218-5.902s4.606,1.655,4.606,4.75v11.515c0,.36.288.612.612.612h3.167c.36,0,.612-.288.612-.612v-11.947c0-5.326-3.275-8.457-7.881-8.457h.036Z"/>
      <path class="cls-2" d="M193.708,21.38c-6.441,0-10.832,4.714-10.832,10.796s4.39,10.796,11.155,10.796,6.657-1.439,8.564-3.886c.216-.288.144-.72-.18-.9l-2.591-1.511c-.252-.144-.612-.108-.792.144-1.044,1.223-2.771,2.123-4.966,2.123-3.275,0-5.866-1.655-6.549-4.822h15.762c.324,0,.576-.252.612-.54,0-.432.108-.864.108-1.295,0-5.902-4.174-10.832-10.292-10.832v-.072h0ZM187.483,30.412c.612-3.059,2.879-5.038,6.189-5.038s5.254,1.511,5.866,5.038h-12.055Z"/>
      <path class="cls-2" d="M96.332,21.919h-3.167c-.36,0-.612.288-.612.612v.468c-1.655-1.044-3.67-1.619-5.794-1.619-5.974,0-10.832,4.678-10.832,10.796s4.822,10.796,10.832,10.796,4.138-.612,5.794-1.655v.468c0,.36.288.612.612.612h3.167c.36,0,.612-.288.612-.612v-19.252c0-.36-.288-.612-.612-.612h0ZM92.518,34.982c-1.008,2.231-3.203,3.67-5.794,3.67s-6.405-2.735-6.405-6.477,2.771-6.477,6.405-6.477,4.786,1.439,5.794,3.67v5.614h0Z"/>
      <path class="cls-2" d="M155.528,21.919h-3.167c-.36,0-.612.288-.612.612v.468h0c-1.655-1.044-3.67-1.619-5.794-1.619-5.974,0-10.832,4.678-10.832,10.796s4.822,10.796,10.832,10.796,4.138-.612,5.794-1.655h0v.468c0,.36.288.612.612.612h3.167c.36,0,.612-.288.612-.612v-19.252c0-.36-.288-.612-.612-.612h0ZM151.714,34.982c-1.008,2.231-3.203,3.67-5.794,3.67s-6.405-2.735-6.405-6.477,2.771-6.477,6.405-6.477,4.786,1.439,5.794,3.67h0v5.614h0Z"/>
      <path class="cls-2" d="M179.422,21.919h-3.167c-.36,0-.612.288-.612.612v.468c-1.655-1.044-3.67-1.619-5.794-1.619-5.974,0-10.832,4.678-10.832,10.796s4.822,10.796,10.832,10.796,4.138-.612,5.794-1.655v.216c0,3.635-2.339,5.758-6.225,5.758s-4.858-1.152-5.794-2.699c-.18-.288-.54-.396-.828-.216l-2.807,1.619c-.324.18-.396.576-.216.864,1.835,2.987,5.254,4.498,9.572,4.498s10.724-3.131,10.724-9.86v-18.964c0-.36-.288-.612-.612-.612h-.036ZM175.608,34.982c-1.008,2.195-3.203,3.67-5.794,3.67s-6.405-2.735-6.405-6.477,2.771-6.477,6.405-6.477,4.786,1.439,5.794,3.67v5.65h0v-.036Z"/>
      <path class="cls-2" d="M133.901,38.724c-.108-.18-.324-.324-.576-.288-3.203.144-5.938.108-5.938-2.411v-7.593l8.708-6.513h-8.708v-4.426c0-.36-.288-.612-.612-.612h-3.167c-.36,0-.612.288-.612.612v18.532c0,5.326,3.706,7.197,10.508,6.405.468-.036,1.008-.144,1.511-.252.432-.072.648-.576.396-.936l-1.511-2.519h0Z"/>
    </g>
  </g>
  <g>
    <polygon class="cls-2" points="0 11.448 12.595 11.448 31.739 46.929 25.442 58.552 0 11.448"/>
    <polygon class="cls-1" points="17.309 11.448 50.919 11.448 34.186 42.395 34.186 21.919 17.309 11.448"/>
  </g>
</svg>