<svg width="14" height="14" viewBox="0 0 14 14" fill="none" xmlns="http://www.w3.org/2000/svg">
<path d="M11.9003 13.7596H2.29909C1.54158 13.7596 0.92749 13.1626 0.92749 12.4263V3.09294C0.92749 2.35656 1.54158 1.7596 2.29909 1.7596H3.67069V0.42627H5.04228V1.7596H9.15708V0.42627H10.5287V1.7596H11.9003C12.6578 1.7596 13.2719 2.35656 13.2719 3.09294V12.4263C13.2719 13.1626 12.6578 13.7596 11.9003 13.7596ZM2.29909 5.7596V12.4263H11.9003V5.7596H2.29909ZM2.29909 3.09294V4.42627H11.9003V3.09294H2.29909ZM10.5287 11.0929H9.15708V9.7596H10.5287V11.0929ZM7.78548 11.0929H6.41388V9.7596H7.78548V11.0929ZM5.04228 11.0929H3.67069V9.7596H5.04228V11.0929ZM10.5287 8.42627H9.15708V7.09294H10.5287V8.42627ZM7.78548 8.42627H6.41388V7.09294H7.78548V8.42627ZM5.04228 8.42627H3.67069V7.09294H5.04228V8.42627Z" fill="#4D4E64"/>
</svg>
