<?xml version="1.0" encoding="UTF-8"?>
<svg id="Layer_1" data-name="Layer 1" xmlns="http://www.w3.org/2000/svg" version="1.1" viewBox="0 0 204 70">
  <defs>
    <style>
      .cls-1 {
        fill: #2fb56a;
        stroke-width: 0px;
      }
    </style>
  </defs>
  <path class="cls-1" d="M85.86,23.449l.01.01c-3.105.005-5.718,1.018-7.844,3.029V9.657l-7.052,7.002v34.176h7.052v-14.404c0-2.076.522-3.742,1.585-4.975,1.063-1.234,2.488-1.836,4.233-1.836,1.585,0,2.738.492,3.441,1.444.732.953,1.093,2.438,1.093,4.404v15.367h7.052v-16.511c0-3.31-.843-5.958-2.568-7.924-1.695-1.966-4.042-2.949-7.002-2.949h0Z"/>
  <path class="cls-1" d="M109.072,43.581l.03-.03.01.01c-.682-.682-1.043-1.665-1.043-2.929v-10.884h7.052v-5.657h-7.192v-6.811h-.652l-10.994,10.964v1.505h4.725v11.806c0,1.936.381,3.581,1.123,5.005.732,1.394,1.806,2.458,3.2,3.2,1.394.732,3.059,1.123,4.945,1.123h4.975v-6.259h-3.2c-1.284,0-2.267-.351-2.979-1.043h0Z"/>
  <path class="cls-1" d="M133.267,43.2l.025-.04c-1.088.752-2.337,1.113-3.757,1.113-1.856,0-3.441-.682-4.735-2.076-1.284-1.394-1.936-3.09-1.936-5.116s.632-3.721,1.916-5.056,2.839-2.026,4.755-2.026c1.424,0,2.678.361,3.802,1.093,1.123.712,1.966,1.725,2.538,2.979h7.002c-.652-3.23-2.157-5.798-4.594-7.734-2.407-1.936-5.306-2.929-8.697-2.929-3.962,0-7.272,1.314-9.901,3.912-2.648,2.598-3.962,5.848-3.962,9.76,0,2.568.602,4.925,1.806,7.052,1.204,2.137,2.869,3.802,4.975,5.005s4.454,1.806,7.022,1.806c3.421,0,6.34-1.013,8.777-3.009,2.438-2.026,3.992-4.674,4.644-7.985h-7.112c-.602,1.424-1.444,2.488-2.568,3.25h0Z"/>
  <path class="cls-1" d="M133.297,43.15v.01s0-.005.01-.01h-.01Z"/>
  <path class="cls-1" d="M165.697,26.579v-.03h0c-2.377-2.137-5.226-3.17-8.556-3.17-3.932,0-7.192,1.314-9.79,3.912s-3.882,5.878-3.882,9.81,1.284,7.242,3.882,9.87,5.848,3.932,9.79,3.932c3.25,0,6.069-1.043,8.446-3.09l.572,3.059h5.547v-27.465h-5.246l-.762,3.17h0ZM162.808,42.187l-.01.01v-.005c-1.364,1.359-3.054,2.021-5.081,2.021s-3.742-.682-5.056-2.026c-1.334-1.344-1.996-3.059-1.996-5.116,0-1.364.301-2.568.903-3.631.602-1.063,1.444-1.936,2.538-2.568,1.063-.632,2.297-.933,3.631-.933,2.026,0,3.721.682,5.056,2.026,1.334,1.364,2.026,3.059,2.026,5.116s-.682,3.767-2.021,5.111h.005l.005-.005Z"/>
  <path class="cls-1" d="M60.973,26.739l-.03-.03-.01.01c-2.407-2.217-5.306-3.34-8.697-3.34-3.631,0-6.701,1.254-9.188,3.832-2.488,2.538-3.742,5.627-3.742,9.269,0,2.407.572,4.624,1.695,6.62s2.678,3.551,4.674,4.705c1.996,1.144,4.183,1.725,6.56,1.725,2.789,0,5.276-.762,7.433-2.327v.953c0,1.856-.632,3.36-1.856,4.454-1.234,1.123-2.789,1.665-4.644,1.665-1.394,0-2.648-.301-3.802-.933-1.123-.602-1.886-1.444-2.267-2.488h-7.022c.602,2.929,2.046,5.226,4.404,6.921,2.377,1.695,5.306,2.568,8.857,2.568,2.738,0,5.116-.522,7.112-1.585,1.996-1.063,3.531-2.598,4.624-4.564,1.063-1.966,1.615-4.323,1.615-7.032v-23.021h-3.12l-2.598,2.598h0ZM57.854,41.314h-.01c-1.254,1.254-2.839,1.916-4.785,1.916s-3.531-.632-4.755-1.916-1.856-2.899-1.856-4.865.632-3.531,1.886-4.815,2.839-1.916,4.735-1.916,3.551.632,4.815,1.916c1.234,1.254,1.856,2.869,1.856,4.815s-.632,3.581-1.886,4.865h0Z"/>
  <path class="cls-1" d="M200.123,27.291h-.03c-2.598-2.598-5.848-3.912-9.79-3.912-3.25,0-6.039,1.043-8.336,3.09l-1.204-3.09h-4.674v36.904h7.052v-11.506c2.137,1.454,4.514,2.157,7.192,2.157,3.882,0,7.132-1.314,9.76-3.932,2.598-2.628,3.912-5.908,3.912-9.87s-1.284-7.242-3.882-9.84ZM194.832,42.247h-.05c-1.334,1.334-3.059,2.026-5.086,2.026s-3.742-.682-5.056-2.026c-1.334-1.344-1.996-3.059-1.996-5.116,0-1.364.301-2.568.903-3.661.602-1.093,1.444-1.936,2.538-2.538s2.327-.933,3.661-.933,2.568.301,3.631.933c1.063.602,1.916,1.475,2.548,2.538.602,1.093.933,2.327.933,3.661,0,2.046-.682,3.772-2.026,5.116h0Z"/>
  <path class="cls-1" d="M20.518,25.225h.05l-.01-.01c-2.076-1.234-4.434-1.836-7.022-1.836-1.535,0-3.009.221-4.404.682s-2.628,1.093-3.721,1.916-2.046,1.806-2.869,2.929-1.444,2.407-1.886,3.832C.216,34.162.005,35.637.005,37.172c0,3.882,1.284,7.162,3.852,9.79,2.568,2.648,5.798,3.962,9.65,3.962,3.039,0,5.688-.853,8.015-2.518s3.962-3.932,4.925-6.751h-7.433c-.542.933-1.314,1.665-2.267,2.187-.953.522-2.046.792-3.23.792-1.745,0-3.17-.461-4.263-1.424-1.123-.953-1.806-2.297-2.107-4.073h19.681c.11-.712.14-1.394.14-2.076,0-2.488-.552-4.755-1.665-6.861-1.123-2.076-2.708-3.742-4.785-4.975h0ZM7.388,34.283l-.01.01c.381-1.555,1.123-2.759,2.187-3.611,1.063-.873,2.407-1.314,3.992-1.314,1.033,0,1.966.191,2.819.572.843.381,1.585.933,2.187,1.665.602.712,1.063,1.615,1.394,2.678H7.388Z"/>
  <rect class="cls-1" x="29.606" y="23.379" width="7.052" height="27.475"/>
  <polygon class="cls-1" points="36.658 20.621 36.658 13.679 29.606 20.621 36.658 20.621"/>
</svg>