<?xml version="1.0" encoding="utf-8"?>
<!-- Generator: Adobe Illustrator 23.0.0, SVG Export Plug-In . SVG Version: 6.00 Build 0)  -->
<svg version="1.1" id="Слой_1" xmlns="http://www.w3.org/2000/svg" xmlns:xlink="http://www.w3.org/1999/xlink" x="0px" y="0px"
	 width="2226.7px" height="321.3px" viewBox="0 0 2226.7 321.3" enable-background="new 0 0 2226.7 321.3" xml:space="preserve">
<path d="M552.4,132.7H524c-1.2-13.6-9.8-20.3-25.9-20.3c-6.9,0-12.3,1.4-16.2,4.1c-3.9,2.8-5.9,6.6-5.9,11.4c0,1.7,0.3,3.1,0.8,4.4
	c0.5,1.3,1.5,2.5,2.9,3.5c1.4,1.1,2.8,2,4.2,2.7c1.4,0.7,3.5,1.5,6.2,2.3c2.7,0.8,5.2,1.6,7.5,2.2c2.2,0.6,5.4,1.5,9.5,2.5
	c4.1,1,7.7,2,10.7,2.9c13.4,3.8,23.4,8.6,30,14.4c6.6,5.8,9.9,14,9.9,24.7c0,7.8-1.6,14.6-4.8,20.4c-3.2,5.8-7.5,10.4-12.9,13.8
	c-5.4,3.4-11.4,5.9-17.8,7.5c-6.5,1.6-13.3,2.4-20.6,2.4c-18.5,0-33-4.2-43.4-12.8c-10.4-8.5-15.7-20.5-15.8-36H472
	c0.5,17.1,10.8,25.7,30.9,25.7c7.8,0,14-1.6,18.5-4.9c4.5-3.3,6.8-7.7,6.8-13.3c0-4.7-2.1-8.2-6.2-10.4c-4.2-2.2-12.9-5.2-26.2-9
	c-2.2-0.5-3.8-1-5-1.3c-4.6-1.3-7.8-2.2-9.6-2.8c-1.8-0.6-4.6-1.6-8.5-3c-3.9-1.4-6.7-2.7-8.5-3.8c-1.8-1.1-4-2.7-6.6-4.8
	c-2.6-2-4.5-4.2-5.7-6.4s-2.2-5-3.2-8.3c-1-3.3-1.4-6.8-1.4-10.6c0-12.4,4.8-22.3,14.4-29.7c9.6-7.4,22.3-11.1,38.2-11.1
	c15.3,0,27.9,3.6,37.6,10.8C547.2,107.2,552.2,118.1,552.4,132.7z"/>
<path d="M667,88.7c20,0,36.1,6.6,48.4,19.9c12.3,13.2,18.5,30.5,18.5,51.9c0,21.4-6.2,38.6-18.5,51.7
	c-12.3,13.1-28.6,19.7-48.6,19.7c-20.2,0-36.5-6.6-48.9-19.7c-12.4-13.1-18.6-30.3-18.6-51.7c0-21.6,6.2-39,18.5-52.1
	C630.2,95.3,646.6,88.7,667,88.7z M666.7,113.3c-11.3,0-20.2,4.2-27,12.7c-6.7,8.4-10.1,19.8-10.1,34c0,14.7,3.3,26.2,10,34.5
	c6.6,8.3,15.8,12.5,27.4,12.7c11.4,0,20.3-4.2,26.9-12.7c6.5-8.4,9.8-20,9.8-34.5c0-14.3-3.3-25.7-10-34
	C687.1,117.5,678,113.3,666.7,113.3z"/>
<path d="M878.9,202.9v25.7h-96.7V92h29.9v110.9H878.9z"/>
<path d="M996.9,91.8l52,136.8h-31.5l-10.7-30.5h-50.8l-11.1,30.5H914l52-136.8H996.9z M999.4,176.2l-18-50.8l-18.2,50.8H999.4z"/>
<path d="M1191.8,159.9c2.9-2.4,5.5-5.1,7.4-8.3c0.6-1.1,1.2-2.2,1.8-3.4c0.1-0.2,0.2-0.4,0.3-0.7c0.2-0.3,0.3-0.7,0.5-1
	c0.3-0.6,0.5-1.3,0.8-1.9c0-0.1,0.1-0.2,0.1-0.3c0.3-0.8,0.6-1.6,0.8-2.4c0-0.1,0.1-0.3,0.1-0.4c0.1-0.5,0.3-1,0.4-1.6
	c0.7-2.9,1-5.9,1-9.1c0-13-4.3-22.8-12.9-29.2c-8.6-6.4-19.6-9.6-33.2-9.6H1091v136.6h29.7v-53.5h14.1c0.6,0,12.9,0,12.9,0l0,0.1
	l25.6,53.5h31.5l-30.1-59C1182,167,1187.6,163.6,1191.8,159.9z M1120.7,115.6h29.7c7.7,0,13.8,1.3,18.3,3.8
	c4.5,2.6,6.8,7.4,6.8,14.6c0,7.7-2.3,12.8-7,15.4c-4.7,2.6-11.2,3.9-19.5,3.9h-28.4V115.6z"/>
<g>
	<g>
		<path d="M1317.9,91.9h55.3c42.4,0,66.2,24.2,66.2,68.3c0,43.9-23.8,68.3-66.2,68.3h-55.3V91.9z M1369.5,203.6
			c27.4,0,39.7-15.9,39.7-43.4c0-27.4-12.7-43.4-39.7-43.4h-21.9v86.7H1369.5z"/>
		<path d="M1519.5,228.5h-30.1V91.9h30.1V228.5z"/>
		<path d="M1697.1,228.5h-19l-2.9-15.5c-10.6,12.9-23.4,18.8-41.1,18.8c-38,0-64.3-29-64.3-71c0-42.2,27.6-71.8,67.2-71.8
			c31.1,0,54.7,19,58.3,47.8h-29c-2.9-14.4-13.8-22.6-29.7-22.6c-22.8,0-36.7,17.5-36.7,46.6c0,29.7,13.8,47,37.6,47
			c18.8,0,31.9-12.5,32.6-30.9h-30.5v-22.3h57.4V228.5z"/>
		<path d="M1780.7,228.5h-30.1V91.9h30.1V228.5z"/>
		<path d="M1938.1,117.4H1897v111.1h-30.1V117.4h-41.1V91.9h112.3V117.4z"/>
		<path d="M2089,228.5h-31.5l-10.7-30.5H1996l-11.1,30.5h-30.7l52-136.8h30.9L2089,228.5z M2021.5,125.3l-18.2,50.8h36.3
			L2021.5,125.3z"/>
		<path d="M2226.7,228.5H2130V91.9h29.9v110.9h66.8V228.5z"/>
	</g>
</g>
<ellipse fill="#FFFFFF" cx="160.7" cy="164.9" rx="100" ry="129.9"/>
<path fill="#F50D03" d="M160.6,0C71.9,0,0,71.9,0,160.6s71.9,160.6,160.6,160.6c88.7,0,160.6-71.9,160.6-160.6S249.4,0,160.6,0z
	 M194.8,192.9c-0.3,0.5-0.7,0.9-1.1,1.3l-55.6,55.5c-0.1,0.1-0.2,0.2-0.4,0.3c-1.4,1.3-3.3,2.1-5.3,2.1c-4.3,0-7.9-3.5-7.9-7.9
	c0-2.1,0.8-4,2.1-5.4c0.1-0.1,0.2-0.2,0.3-0.3l55.5-55.5c0.2-0.2,0.4-0.4,0.6-0.5c1.4-1.1,3.1-1.8,5-1.8c4.4,0,7.9,3.5,7.9,7.9
	C196.1,190.2,195.6,191.7,194.8,192.9z M141,169l27.6-27.6c3.1-3.1,8.1-3.1,11.2,0c3,3.1,3,8.1-0.3,11.2L152,180.2
	c-1.6,1.6-3.5,2.3-5.5,2.3c-2,0-3.9-0.8-5.5-2.3C137.9,177,137.9,172.1,141,169z M194.8,81.7c-0.3,0.5-0.7,0.9-1.1,1.3l-55.6,55.5
	c-0.1,0.1-0.2,0.2-0.4,0.3c-1.4,1.3-3.3,2.1-5.3,2.1c-4.3,0-7.9-3.5-7.9-7.9c0-2.1,0.8-4,2.1-5.4c0.1-0.1,0.2-0.2,0.3-0.3l55.5-55.5
	c0.2-0.2,0.4-0.4,0.6-0.5c1.4-1.1,3.1-1.8,5-1.8c4.4,0,7.9,3.5,7.9,7.9C196.1,78.9,195.6,80.4,194.8,81.7z"/>
</svg>
