<svg xmlns="http://www.w3.org/2000/svg" width="312" height="30">
    <path fill="#2233dc" fill-rule="evenodd" d="M0 29.506V.514h19.775v3.421H3.879v8.979h13.756v3.42H3.88v13.172H0zm23.634-14.12c0-4.813 1.306-8.58 3.919-11.302C30.166 1.36 33.538 0 37.67 0c2.706 0 5.146.64 7.318 1.918 2.173 1.28 3.83 3.062 4.97 5.35 1.139 2.287 1.709 4.881 1.709 7.781 0 2.94-.6 5.57-1.8 7.891-1.2 2.32-2.899 4.077-5.098 5.27-2.2 1.193-4.573 1.79-7.119 1.79-2.759 0-5.225-.66-7.398-1.978a12.777 12.777 0 0 1-4.938-5.398 16.214 16.214 0 0 1-1.68-7.238zm3.999.059c0 3.494.95 6.246 2.85 8.256 1.899 2.01 4.281 3.016 7.147 3.016 2.92 0 5.322-1.015 7.209-3.045 1.886-2.03 2.829-4.911 2.829-8.642 0-2.36-.403-4.42-1.21-6.18-.806-1.76-1.986-3.125-3.539-4.094-1.553-.969-3.296-1.453-5.229-1.453-2.746 0-5.108.932-7.088 2.798-1.98 1.865-2.97 4.98-2.97 9.344zm29.092 14.06V.516h12.997c2.613 0 4.599.26 5.959.78 1.36.521 2.446 1.44 3.259 2.76.813 1.317 1.22 2.774 1.22 4.37 0 2.056-.674 3.79-2.02 5.2-1.346 1.411-3.426 2.308-6.238 2.69 1.026.488 1.806.97 2.339 1.444 1.133 1.028 2.206 2.314 3.22 3.856l5.098 7.89H77.68l-3.879-6.031c-1.133-1.74-2.066-3.072-2.8-3.995-.732-.923-1.389-1.569-1.969-1.938a5.855 5.855 0 0 0-1.77-.771c-.44-.092-1.159-.138-2.159-.138h-4.499v12.874h-3.879zm3.88-16.196h8.337c1.773 0 3.16-.181 4.16-.544.999-.362 1.759-.942 2.279-1.74a4.67 4.67 0 0 0 .78-2.6c0-1.372-.504-2.499-1.51-3.382-1.007-.883-2.596-1.325-4.769-1.325h-9.278v9.591zm25.713 16.197V.514h21.194v3.421H90.197v8.88h16.216v3.401H90.197v9.868h17.995v3.422H86.318zm24.254 0l11.337-15.11L111.91.515h4.62l5.318 7.436c1.106 1.542 1.893 2.729 2.36 3.56a37.848 37.848 0 0 1 2.319-3.303l5.898-7.693h4.219L126.348 14.18l11.097 15.327h-4.799l-7.378-10.343c-.413-.593-.84-1.24-1.28-1.938-.653 1.055-1.12 1.78-1.4 2.175l-7.358 10.106h-4.658zm48.867-10.66l5.739 1.8c-.88 3.164-2.343 5.514-4.39 7.05-2.045 1.536-4.641 2.304-7.787 2.304-3.893 0-7.092-1.315-9.598-3.945-2.506-2.63-3.759-6.226-3.759-10.788 0-4.825 1.26-8.573 3.78-11.243 2.519-2.67 5.831-4.004 9.937-4.004 3.585 0 6.498 1.048 8.737 3.144 1.333 1.24 2.333 3.02 3 5.34l-5.859 1.384c-.346-1.503-1.07-2.69-2.17-3.56-1.099-.87-2.435-1.305-4.008-1.305-2.173 0-3.936.771-5.289 2.314-1.353 1.542-2.03 4.04-2.03 7.495 0 3.665.667 6.275 2 7.831s3.066 2.334 5.199 2.334c1.573 0 2.926-.495 4.059-1.483 1.133-.99 1.946-2.545 2.44-4.668zm10.837 10.66V.514h5.919v11.41h11.597V.515h5.918v28.992h-5.918V16.829h-11.597v12.677h-5.919zM199.79.514h5.918v15.702c0 2.492.074 4.107.22 4.845.253 1.187.857 2.14 1.81 2.858.953.718 2.256 1.078 3.909 1.078 1.68 0 2.946-.34 3.799-1.019.853-.679 1.366-1.513 1.54-2.501.173-.99.26-2.63.26-4.925V.514h5.918v15.228c0 3.48-.16 5.939-.48 7.376-.32 1.437-.91 2.65-1.77 3.639-.86.989-2.01 1.776-3.449 2.363-1.44.587-3.319.88-5.638.88-2.8 0-4.922-.32-6.369-.96-1.446-.639-2.589-1.47-3.429-2.49-.84-1.023-1.393-2.094-1.66-3.214-.386-1.662-.58-4.114-.58-7.357V.514zm29.632 28.992V.514h12.457c3.133 0 5.409.26 6.828.781 1.42.521 2.556 1.447 3.41 2.779.852 1.331 1.279 2.854 1.279 4.568 0 2.175-.646 3.972-1.94 5.389-1.292 1.417-3.225 2.31-5.798 2.68 1.28.738 2.336 1.549 3.17 2.432.832.883 1.955 2.452 3.368 4.707l3.58 5.656h-7.079l-4.279-6.309c-1.52-2.254-2.559-3.675-3.119-4.262-.56-.586-1.153-.988-1.78-1.206-.626-.217-1.619-.326-2.979-.326h-1.2v12.103h-5.918zm5.919-16.73h4.379c2.839 0 4.612-.12 5.318-.357.707-.237 1.26-.646 1.66-1.226.4-.58.6-1.305.6-2.175 0-.976-.264-1.764-.79-2.363-.527-.6-1.27-.98-2.23-1.138-.48-.065-1.92-.098-4.319-.098h-4.618v7.356zm42.389 6.07l5.738 1.8c-.88 3.164-2.342 5.514-4.389 7.05-2.046 1.536-4.642 2.304-7.788 2.304-3.892 0-7.091-1.315-9.597-3.945-2.506-2.63-3.76-6.226-3.76-10.788 0-4.825 1.26-8.573 3.78-11.243 2.52-2.67 5.832-4.004 9.937-4.004 3.586 0 6.499 1.048 8.738 3.144 1.333 1.24 2.333 3.02 3 5.34l-5.86 1.384c-.346-1.503-1.069-2.69-2.169-3.56-1.1-.87-2.436-1.305-4.009-1.305-2.172 0-3.935.771-5.288 2.314-1.353 1.542-2.03 4.04-2.03 7.495 0 3.665.667 6.275 2 7.831s3.066 2.334 5.198 2.334c1.573 0 2.926-.495 4.06-1.483 1.132-.99 1.946-2.545 2.439-4.668zm10.837 10.66V.514h5.918v11.41h11.598V.515H312v28.992h-5.918V16.829h-11.598v12.677h-5.918z"/>
</svg>
