<?xml version="1.0" encoding="UTF-8"?>
<svg width="313px" height="31px" viewBox="0 0 313 31" version="1.1" xmlns="http://www.w3.org/2000/svg" xmlns:xlink="http://www.w3.org/1999/xlink">
    <!-- Generator: Sketch 52.5 (67469) - http://www.bohemiancoding.com/sketch -->
    <title>logo@1x</title>
    <desc>Created with Sketch.</desc>
    <g id="Page-1" stroke="none" stroke-width="1" fill="none" fill-rule="evenodd">
        <path d="M0.921875,29.7946657 L0.921875,0.803235209 L20.6968045,0.803235209 L20.6968045,4.22446131 L4.80088038,4.22446131 L4.80088038,13.2027079 L18.5573531,13.2027079 L18.5573531,16.623934 L4.80088038,16.623934 L4.80088038,29.7946657 L0.921875,29.7946657 Z M24.555815,15.674692 C24.555815,10.8625388 25.8621337,7.09527255 28.4748101,4.37278036 C31.0874866,1.65028818 34.4599215,0.2890625 38.5922159,0.2890625 C41.2982023,0.2890625 43.7375524,0.928476014 45.9103395,2.20732222 C48.0831266,3.48616843 49.739352,5.26927519 50.8790655,7.55669599 C52.0187789,9.84411678 52.5886271,12.4380262 52.5886271,15.3385022 C52.5886271,18.2785301 51.9887869,20.9086949 50.7890885,23.2290757 C49.5893901,25.5494564 47.8898429,27.3061956 45.6903959,28.499346 C43.4909489,29.6924963 41.1182476,30.2890625 38.5722211,30.2890625 C35.8129148,30.2890625 33.3469051,29.6298733 31.174118,28.3114752 C29.0013309,26.993077 27.3551028,25.1934905 26.2353844,22.9126617 C25.1156659,20.6318329 24.555815,18.2192005 24.555815,15.674692 Z M28.5547896,15.7340197 C28.5547896,19.2277748 29.5045366,21.9798896 31.4040591,23.9904468 C33.3035815,26.001004 35.68628,27.0062675 38.5522262,27.0062675 C41.4714923,27.0062675 43.8741855,25.9911162 45.7603779,23.960783 C47.6465704,21.9304498 48.5896525,19.0497931 48.5896525,15.3187263 C48.5896525,12.9587936 48.1864266,10.8988274 47.3799627,9.13876586 C46.5734988,7.37870433 45.393813,6.0141827 43.8408701,5.04516006 C42.2879272,4.07613742 40.5450582,3.59163336 38.6122108,3.59163336 C35.8662345,3.59163336 33.5035306,4.52438607 31.5240283,6.38991945 C29.544526,8.25545284 28.5547896,11.3701218 28.5547896,15.7340197 Z M57.64733,29.7946657 L57.64733,0.803235209 L70.6439975,0.803235209 C73.256674,0.803235209 75.2428115,1.06361494 76.6024697,1.58438221 C77.9621279,2.10514948 79.0485051,3.0247184 79.861634,4.34311655 C80.6747629,5.66151471 81.0813213,7.11832282 81.0813213,8.71358458 C81.0813213,10.7702857 80.4081673,12.5039533 79.0618391,13.9146393 C77.7155109,15.3253253 75.6360649,16.2218226 72.8234387,16.6041581 C73.8498473,17.0919654 74.6296396,17.5731735 75.1628389,18.0477968 C76.2958873,19.0761474 77.3689348,20.3615663 78.3820134,21.9040922 L83.4807061,29.7946657 L78.601957,29.7946657 L74.7229516,23.7630243 C73.5899032,22.0227387 72.6568184,20.6911765 71.9236694,19.7682978 C71.1905204,18.8454191 70.5340286,18.1994137 69.9541744,17.8302622 C69.3743202,17.4611108 68.7844773,17.204027 68.1846281,17.0590032 C67.7447387,16.9667153 67.0249305,16.9205721 66.0251818,16.9205721 L61.5263354,16.9205721 L61.5263354,29.7946657 L57.64733,29.7946657 Z M61.5263354,13.5982253 L69.8641975,13.5982253 C71.6370851,13.5982253 73.0233824,13.4169483 74.0231311,13.0543888 C75.0228797,12.6918293 75.7826773,12.1117428 76.3025466,11.3141119 C76.8224159,10.5164811 77.0823467,9.64964727 77.0823467,8.71358458 C77.0823467,7.3424505 76.5791474,6.21523699 75.5727338,5.33191023 C74.5663201,4.44858346 72.9767436,4.00692671 70.8039565,4.00692671 L61.5263354,4.00692671 L61.5263354,13.5982253 Z M87.2397422,29.7946657 L87.2397422,0.803235209 L108.434308,0.803235209 L108.434308,4.22446131 L91.1187476,4.22446131 L91.1187476,13.1038285 L107.33459,13.1038285 L107.33459,16.5052787 L91.1187476,16.5052787 L91.1187476,26.3734396 L109.114133,26.3734396 L109.114133,29.7946657 L87.2397422,29.7946657 Z M111.493523,29.7946657 L122.830616,14.6858984 L112.83318,0.803235209 L117.451995,0.803235209 L122.770632,8.23896362 C123.87702,9.78148946 124.663477,10.96803 125.130027,11.7986208 C125.783196,10.7439023 126.556323,9.64305637 127.449432,8.49604998 L133.34792,0.803235209 L137.566838,0.803235209 L127.269478,14.4683638 L138.366633,29.7946657 L133.567863,29.7946657 L126.189755,19.4518839 C125.776526,18.8586047 125.349973,18.2125993 124.910083,17.5138483 C124.256914,18.5685668 123.790372,19.2936749 123.510442,19.6891943 L116.152329,29.7946657 L111.493523,29.7946657 Z M160.360993,19.1354699 L166.099522,20.9350744 C165.219743,24.0992299 163.756799,26.4492394 161.710647,27.9851732 C159.664495,29.5211071 157.06852,30.2890625 153.922644,30.2890625 C150.030289,30.2890625 146.831142,28.9739801 144.325105,26.3437757 C141.819068,23.7135714 140.566069,20.1176944 140.566069,15.5560368 C140.566069,10.7306995 141.825733,6.98320901 144.3451,4.31345274 C146.864466,1.64369648 150.176917,0.308838373 154.282552,0.308838373 C157.868317,0.308838373 160.780874,1.35694918 163.020311,3.45320225 C164.35331,4.69249651 165.353043,6.47230733 166.019542,8.79268808 L160.161044,10.1769992 C159.814465,8.67402532 159.091324,7.48748478 157.991601,6.617342 C156.891877,5.74719922 155.555567,5.31213435 153.982629,5.31213435 C151.809842,5.31213435 150.046978,6.0833857 148.693985,7.62591154 C147.340992,9.16843738 146.664505,11.6667644 146.664505,15.1209676 C146.664505,18.7861144 147.330994,21.3965036 148.663992,22.9522135 C149.996991,24.5079233 151.729862,25.2857665 153.862659,25.2857665 C155.435597,25.2857665 156.78857,24.7913746 157.921619,23.802576 C159.054667,22.8137774 159.867784,21.2580909 160.360993,19.1354699 Z M171.198214,29.7946657 L171.198214,0.803235209 L177.116697,0.803235209 L177.116697,12.2139142 L188.713723,12.2139142 L188.713723,0.803235209 L194.632206,0.803235209 L194.632206,29.7946657 L188.713723,29.7946657 L188.713723,17.1183308 L177.116697,17.1183308 L177.116697,29.7946657 L171.198214,29.7946657 Z M200.710647,0.803235209 L206.62913,0.803235209 L206.62913,16.5052787 C206.62913,18.9970512 206.702443,20.6120647 206.849073,21.3503677 C207.102343,22.536926 207.705515,23.4894544 208.658609,24.2079814 C209.611703,24.9265084 210.914689,25.2857665 212.567607,25.2857665 C214.247185,25.2857665 215.513514,24.9462841 216.366633,24.267309 C217.219752,23.588334 217.732948,22.7544597 217.906238,21.765661 C218.079528,20.7768624 218.166171,19.1354814 218.166171,16.8414686 L218.166171,0.803235209 L224.084654,0.803235209 L224.084654,16.0306578 C224.084654,19.5112289 223.924696,21.9700046 223.604777,23.4070585 C223.284857,24.8441125 222.695014,26.0570206 221.835231,27.0458193 C220.975447,28.0346179 219.825753,28.822349 218.386115,29.4090361 C216.946477,29.9957233 215.066978,30.2890625 212.747561,30.2890625 C209.948264,30.2890625 207.825497,29.9693557 206.379194,29.3299326 C204.932891,28.6905095 203.789862,27.8599312 202.950073,26.8381726 C202.110284,25.816414 201.557098,24.7452316 201.290498,23.6245932 C200.903929,21.9634115 200.710647,19.5112277 200.710647,16.2679682 L200.710647,0.803235209 Z M230.343049,29.7946657 L230.343049,0.803235209 L242.799855,0.803235209 C245.932401,0.803235209 248.208461,1.06361494 249.628104,1.58438221 C251.047747,2.10514948 252.184111,3.03131029 253.03723,4.36289243 C253.890349,5.69447456 254.316902,7.21720159 254.316902,8.93111919 C254.316902,11.1064761 253.670407,12.9027667 252.377399,14.3200447 C251.084391,15.7373227 249.151573,16.6305241 246.578886,16.9996756 C247.858564,17.7379785 248.91495,18.5487812 249.748073,19.432108 C250.581197,20.3154347 251.704231,21.884305 253.11721,24.1387659 L256.696292,29.7946657 L249.618107,29.7946657 L245.339204,23.486162 C243.819586,21.2317012 242.779863,19.8111485 242.220004,19.2244613 C241.660144,18.6377741 241.066969,18.2356687 240.44046,18.018133 C239.813951,17.8005973 238.820882,17.6918311 237.461224,17.6918311 L236.261531,17.6918311 L236.261531,29.7946657 L230.343049,29.7946657 Z M236.261531,13.0642767 L240.640409,13.0642767 C243.479695,13.0642767 245.252556,12.9456227 245.959045,12.708311 C246.665534,12.4709993 247.21872,12.0623021 247.618619,11.4822069 C248.018519,10.9021117 248.218466,10.1770036 248.218466,9.30686079 C248.218466,8.33124615 247.955202,7.54351507 247.428668,6.94364391 C246.902134,6.34377275 246.158998,5.96473897 245.19924,5.80653119 C244.71936,5.74061128 243.279744,5.70765182 240.880347,5.70765182 L236.261531,5.70765182 L236.261531,13.0642767 Z M278.650662,19.1354699 L284.389191,20.9350744 C283.509412,24.0992299 282.046469,26.4492394 280.000316,27.9851732 C277.954164,29.5211071 275.358189,30.2890625 272.212313,30.2890625 C268.319959,30.2890625 265.120811,28.9739801 262.614774,26.3437757 C260.108738,23.7135714 258.855738,20.1176944 258.855738,15.5560368 C258.855738,10.7306995 260.115403,6.98320901 262.634769,4.31345274 C265.154136,1.64369648 268.466587,0.308838373 272.572221,0.308838373 C276.157986,0.308838373 279.070544,1.35694918 281.309981,3.45320225 C282.642979,4.69249651 283.642712,6.47230733 284.309212,8.79268808 L278.450714,10.1769992 C278.104134,8.67402532 277.380994,7.48748478 276.28127,6.617342 C275.181547,5.74719922 273.845236,5.31213435 272.272298,5.31213435 C270.099511,5.31213435 268.336647,6.0833857 266.983654,7.62591154 C265.630661,9.16843738 264.954174,11.6667644 264.954174,15.1209676 C264.954174,18.7861144 265.620664,21.3965036 266.953662,22.9522135 C268.28666,24.5079233 270.019532,25.2857665 272.152329,25.2857665 C273.725267,25.2857665 275.078239,24.7913746 276.211288,23.802576 C277.344336,22.8137774 278.157453,21.2580909 278.650662,19.1354699 Z M289.487884,29.7946657 L289.487884,0.803235209 L295.406366,0.803235209 L295.406366,12.2139142 L307.003393,12.2139142 L307.003393,0.803235209 L312.921875,0.803235209 L312.921875,29.7946657 L307.003393,29.7946657 L307.003393,17.1183308 L295.406366,17.1183308 L295.406366,29.7946657 L289.487884,29.7946657 Z" id="logo" fill="#1720DD"></path>
    </g>
</svg>