<?xml version="1.0" encoding="UTF-8"?>
<svg id="Layer_1" data-name="Layer 1" xmlns="http://www.w3.org/2000/svg" version="1.1" viewBox="0 0 204 70">
  <defs>
    <style>
      .cls-1 {
        fill: #0063fa;
      }

      .cls-1, .cls-2, .cls-3 {
        stroke-width: 0px;
      }

      .cls-2 {
        fill: #000;
      }

      .cls-3 {
        fill: #fff;
      }
    </style>
  </defs>
  <path class="cls-1" d="M29.852,25.538c-5.571-3.203-17.172-5.718-23.315-5.882C.394,19.492-.292,21.683.083,26.664c.376,4.983,1.813,12.76,4.983,17.727,3.17,4.967,8.071,7.125,13.267,5.343,5.194-1.782,10.684-7.5,13.657-12.304,2.973-4.803,3.431-8.692-2.14-11.894"/>
  <path class="cls-3" d="M18.945,39.223h-3.908v6.499h-3.979v-14.455h3.979v3.979h3.908v-.011c1.64-.028,2.96-1.363,2.96-3.009s-1.321-2.981-2.96-3.009v-.003H6.085l1.454-3.979h11.405c3.871,0,7.01,3.138,7.01,7.009s-3.138,6.98-7.01,6.98"/>
  <path class="cls-2" d="M51.101,36.656c.634-.386,1.133-.923,1.501-1.612.368-.689.551-1.464.551-2.327s-.183-1.634-.551-2.314c-.368-.679-.868-1.216-1.501-1.612-.634-.395-1.364-.593-2.19-.593s-1.501.192-2.135.578c-.634.386-1.129.919-1.488,1.599-.358.68-.538,1.46-.538,2.342s.179,1.662.538,2.342c.358.68.854,1.212,1.488,1.599.634.386,1.346.579,2.135.579s1.556-.192,2.19-.579M41.14,25.221h3.388v1.763c.532-.662,1.213-1.176,2.039-1.543.826-.368,1.754-.551,2.783-.551,1.433,0,2.719.344,3.858,1.033,1.139.689,2.039,1.625,2.7,2.81.662,1.185.992,2.512.992,3.981s-.331,2.797-.992,3.981c-.662,1.185-1.562,2.122-2.7,2.81-1.139.689-2.434,1.033-3.885,1.033-.919,0-1.773-.152-2.562-.455-.789-.303-1.46-.739-2.011-1.309v6.943h-3.61v-20.497ZM63.043,28.68c-.653.542-1.079,1.309-1.281,2.301h7.053c-.074-.919-.427-1.667-1.061-2.246s-1.429-.867-2.382-.867c-.9,0-1.676.272-2.329.813M61.597,39.494c-1.157-.698-2.058-1.643-2.701-2.837-.643-1.194-.965-2.517-.965-3.968s.326-2.843.978-4.009c.652-1.166,1.543-2.089,2.672-2.769,1.13-.68,2.392-1.02,3.789-1.02,1.56,0,2.883.335,3.967,1.006,1.083.671,1.911,1.556,2.48,2.66.57,1.102.854,2.323.854,3.665,0,.275-.013.547-.041.813-.027.266-.079.501-.151.702h-10.8c.11,1.102.533,1.983,1.268,2.645.733.662,1.643.992,2.728.992.826,0,1.529-.179,2.108-.538.579-.358,1.033-.822,1.364-1.392l2.921,1.433c-.461,1.066-1.264,1.943-2.41,2.632-1.148.689-2.485,1.033-4.01,1.033s-2.892-.349-4.049-1.048M84.361,36.656c.634-.386,1.133-.923,1.501-1.612.368-.689.551-1.464.551-2.327s-.184-1.634-.551-2.314c-.368-.679-.869-1.216-1.501-1.612-.634-.395-1.364-.593-2.19-.593s-1.503.192-2.136.578c-.634.386-1.129.919-1.488,1.599-.358.68-.538,1.46-.538,2.342s.179,1.662.538,2.342c.359.68.854,1.212,1.488,1.599.634.386,1.345.579,2.136.579s1.556-.192,2.19-.579M74.401,25.221h3.388v1.763c.532-.662,1.212-1.176,2.039-1.543.826-.368,1.754-.551,2.784-.551,1.432,0,2.719.344,3.858,1.033,1.139.689,2.039,1.625,2.7,2.81.661,1.185.992,2.512.992,3.981s-.331,2.797-.992,3.981c-.662,1.185-1.562,2.122-2.7,2.81-1.14.689-2.434,1.033-3.886,1.033-.918,0-1.773-.152-2.562-.455-.789-.303-1.46-.739-2.011-1.309v6.943h-3.609v-20.497ZM101.86,36.656c.634-.386,1.134-.923,1.502-1.612.368-.689.551-1.464.551-2.327s-.185-1.634-.551-2.314c-.368-.679-.869-1.216-1.502-1.612s-1.364-.593-2.19-.593-1.502.192-2.135.578c-.634.386-1.13.919-1.488,1.599-.359.68-.538,1.46-.538,2.342s.179,1.662.538,2.342c.358.68.854,1.212,1.488,1.599.634.386,1.345.579,2.135.579s1.556-.192,2.19-.579M91.9,25.221h3.388v1.763c.533-.662,1.212-1.176,2.039-1.543.827-.368,1.755-.551,2.784-.551,1.433,0,2.719.344,3.858,1.033,1.139.689,2.039,1.625,2.7,2.81.662,1.185.993,2.512.993,3.981s-.331,2.797-.993,3.981c-.662,1.185-1.562,2.122-2.7,2.81-1.14.689-2.434,1.033-3.885,1.033-.919,0-1.773-.152-2.563-.455-.789-.303-1.46-.739-2.011-1.309v6.943h-3.61v-20.497ZM113.802,28.68c-.652.542-1.079,1.309-1.281,2.301h7.054c-.074-.919-.427-1.667-1.061-2.246s-1.429-.867-2.383-.867c-.9,0-1.676.272-2.329.813M112.356,39.494c-1.157-.698-2.057-1.643-2.7-2.837-.643-1.194-.965-2.517-.965-3.968s.325-2.843.978-4.009c.653-1.166,1.543-2.089,2.673-2.769,1.129-.68,2.392-1.02,3.789-1.02,1.56,0,2.884.335,3.967,1.006,1.083.671,1.91,1.556,2.481,2.66.569,1.102.854,2.323.854,3.665,0,.275-.014.547-.041.813-.028.266-.079.501-.151.702h-10.802c.109,1.102.532,1.983,1.268,2.645.734.662,1.644.992,2.728.992.827,0,1.529-.179,2.108-.538.579-.358,1.034-.822,1.364-1.392l2.921,1.433c-.46,1.066-1.264,1.943-2.41,2.632-1.148.689-2.484,1.033-4.009,1.033s-2.893-.349-4.05-1.048ZM125.16,25.221h3.388v2.122c.386-.863.928-1.46,1.627-1.791.699-.331,1.506-.496,2.425-.496h.882v3.196h-1.295c-1.01,0-1.832.316-2.466.95-.634.634-.95,1.521-.95,2.66v8.349h-3.61v-14.99ZM135.969,39.384c-1.184-.771-1.998-1.8-2.438-3.087l2.7-1.296c.403.845.946,1.506,1.624,1.984.68.478,1.442.717,2.287.717.643,0,1.161-.142,1.556-.427.394-.285.592-.675.592-1.172,0-.422-.17-.758-.51-1.006-.34-.248-.748-.436-1.227-.565l-2.452-.689c-1.268-.368-2.228-.928-2.88-1.68-.652-.753-.978-1.643-.978-2.673,0-.919.235-1.723.702-2.41.468-.689,1.12-1.226,1.956-1.612.836-.386,1.795-.579,2.88-.579,1.414,0,2.663.345,3.746,1.033,1.083.689,1.856,1.64,2.314,2.852l-2.756,1.296c-.239-.68-.665-1.222-1.281-1.626-.616-.405-1.3-.606-2.052-.606-.607,0-1.085.137-1.433.414-.349.275-.523.634-.523,1.074s.165.754.496.991c.331.239.754.432,1.268.579l2.398.716c1.249.349,2.203.9,2.865,1.654.662.753.993,1.653.993,2.7,0,.9-.239,1.695-.717,2.383-.478.689-1.139,1.226-1.983,1.612-.845.386-1.837.579-2.976.579-1.599,0-2.989-.386-4.174-1.157M150.589,38.97c-.928-.937-1.392-2.24-1.392-3.913v-6.613h-2.589v-3.224h.275c.734,0,1.305-.192,1.708-.579.403-.386.606-.946.606-1.68v-2.221h3.61v4.481h3.443v3.224h-3.443v6.42c0,.752.202,1.331.607,1.736.403.405,1.047.606,1.929.606.294,0,.616-.028.965-.083v3.087c-.257.037-.551.074-.882.111-.331.037-.634.055-.909.055-1.691,0-2.999-.469-3.926-1.405M166.915,36.656c.615-.386,1.102-.924,1.461-1.612.358-.688.538-1.464.538-2.329s-.179-1.634-.538-2.314c-.359-.68-.845-1.216-1.461-1.612-.615-.395-1.327-.593-2.135-.593s-1.529.198-2.163.593c-.634.395-1.129.933-1.488,1.612-.358.68-.538,1.451-.538,2.314s.179,1.64.538,2.329c.359.689.854,1.227,1.488,1.612.634.386,1.355.579,2.163.579s1.519-.192,2.135-.579ZM160.77,39.522c-1.204-.68-2.159-1.607-2.865-2.783-.708-1.176-1.061-2.517-1.061-4.022s.353-2.847,1.061-4.022c.706-1.176,1.658-2.103,2.852-2.783,1.194-.68,2.534-1.02,4.023-1.02s2.801.34,3.996,1.02c1.194.68,2.144,1.608,2.852,2.783.706,1.176,1.061,2.517,1.061,4.022s-.359,2.852-1.074,4.037c-.717,1.185-1.672,2.113-2.866,2.783-1.194.671-2.517,1.006-3.968,1.006s-2.806-.34-4.009-1.02M174.414,25.221h3.389v1.846c.403-.717.978-1.259,1.722-1.625.744-.368,1.584-.551,2.522-.551,1.101,0,2.081.239,2.934.716.854.478,1.52,1.144,1.998,1.998.477.854.716,1.842.716,2.963v9.643h-3.609v-8.789c0-.992-.281-1.778-.841-2.356-.56-.579-1.29-.868-2.19-.868s-1.63.294-2.19.882c-.56.588-.841,1.368-.841,2.342v8.789h-3.61v-14.989ZM194.371,28.68c-.652.542-1.079,1.309-1.281,2.301h7.053c-.074-.919-.427-1.667-1.061-2.246s-1.429-.867-2.383-.867c-.901,0-1.677.272-2.329.813M192.924,39.494c-1.157-.698-2.057-1.643-2.7-2.837-.643-1.194-.965-2.517-.965-3.968s.326-2.843.978-4.009c.652-1.166,1.543-2.089,2.672-2.769,1.13-.68,2.392-1.02,3.789-1.02,1.56,0,2.883.335,3.967,1.006,1.083.671,1.911,1.556,2.48,2.66.57,1.102.854,2.323.854,3.665,0,.275-.013.547-.041.813-.028.266-.079.501-.151.702h-10.802c.111,1.102.532,1.983,1.268,2.645.734.662,1.644.992,2.728.992.826,0,1.529-.179,2.108-.538.579-.358,1.033-.822,1.364-1.392l2.92,1.433c-.46,1.066-1.264,1.943-2.412,2.632-1.148.689-2.484,1.033-4.009,1.033s-2.893-.349-4.05-1.048"/>
</svg>