<svg width="25" height="21" viewBox="0 0 25 21" fill="none" xmlns="http://www.w3.org/2000/svg">
<path id="Vector" d="M15.6954 5.9484H20.7143C22.5296 5.9484 24 7.34111 24 9.06061V15.285C24 17.0045 22.5296 18.3972 20.7143 18.3972H12.4343M12.4014 3.61425H4.28571C2.47036 3.61425 1 5.00696 1 6.72645V12.9509C1 14.6704 2.47036 16.0631 4.28571 16.0631H9.14857M7.21821 7.32555C7.21821 7.32555 7.21821 10.002 6.18321 11.1769C5.14821 12.3518 4.6225 12.3518 4.6225 12.3518M9.74821 12.3518C9.74821 12.3518 9.20607 12.3206 8.1875 11.1769C7.16893 10.0332 7.1525 7.32555 7.1525 7.32555M4.63071 9.07617H9.96179M14.8739 1L10.1179 20M19.5232 14.6781V13.1532H18.9646V9.65971H16.9604C16.9604 9.65971 17.0754 9.8231 16.9604 11.3481C16.8454 12.8731 16.0157 13.5733 16.0157 13.5733M16.0157 13.5733V14.6781M16.0157 13.5733H19.5314" stroke="white" stroke-linecap="round" stroke-linejoin="round"/>
</svg>
