<?xml version="1.0" encoding="UTF-8"?>
<svg id="Layer_1" data-name="Layer 1" xmlns="http://www.w3.org/2000/svg" xmlns:xlink="http://www.w3.org/1999/xlink" version="1.1" viewBox="0 0 204 70">
  <defs>
    <style>
      .cls-1 {
        clip-path: url(#clippath);
      }

      .cls-2 {
        fill: none;
      }

      .cls-2, .cls-3, .cls-4 {
        stroke-width: 0px;
      }

      .cls-3 {
        fill: #c00000;
      }

      .cls-5 {
        clip-path: url(#clippath-1);
      }

      .cls-6 {
        clip-path: url(#clippath-4);
      }

      .cls-7 {
        clip-path: url(#clippath-3);
      }

      .cls-8 {
        clip-path: url(#clippath-2);
      }

      .cls-9 {
        clip-path: url(#clippath-7);
      }

      .cls-10 {
        clip-path: url(#clippath-8);
      }

      .cls-11 {
        clip-path: url(#clippath-6);
      }

      .cls-12 {
        clip-path: url(#clippath-5);
      }

      .cls-13 {
        clip-path: url(#clippath-9);
      }

      .cls-14 {
        clip-path: url(#clippath-10);
      }

      .cls-4 {
        fill: #303030;
      }
    </style>
    <clipPath id="clippath">
      <rect class="cls-2" x="9.5" y="15.6" width="185.1" height="39.7"/>
    </clipPath>
    <clipPath id="clippath-1">
      <rect class="cls-2" x="9.5" y="15.6" width="185.1" height="39.7"/>
    </clipPath>
    <clipPath id="clippath-2">
      <rect class="cls-2" x="9.5" y="15.6" width="185.1" height="39.7"/>
    </clipPath>
    <clipPath id="clippath-3">
      <rect class="cls-2" x="9.5" y="15.6" width="185.1" height="39.7"/>
    </clipPath>
    <clipPath id="clippath-4">
      <rect class="cls-2" x="9.5" y="15.6" width="185.1" height="39.7"/>
    </clipPath>
    <clipPath id="clippath-5">
      <rect class="cls-2" x="9.5" y="15.6" width="185.1" height="39.7"/>
    </clipPath>
    <clipPath id="clippath-6">
      <rect class="cls-2" x="9.5" y="15.6" width="185.1" height="39.7"/>
    </clipPath>
    <clipPath id="clippath-7">
      <rect class="cls-2" x="9.5" y="15.6" width="185.1" height="39.7"/>
    </clipPath>
    <clipPath id="clippath-8">
      <rect class="cls-2" x="9.5" y="15.6" width="185.1" height="39.7"/>
    </clipPath>
    <clipPath id="clippath-9">
      <rect class="cls-2" x="9.5" y="15.6" width="185.1" height="39.7"/>
    </clipPath>
    <clipPath id="clippath-10">
      <rect class="cls-2" x="9.5" y="15.6" width="185.1" height="39.7"/>
    </clipPath>
  </defs>
  <g class="cls-1">
    <polygon class="cls-4" points="63.2 29.1 63.2 45.8 58.5 45.8 58.5 29.1 52.6 29.1 52.6 25.1 69 25.1 69 29.1 63.2 29.1"/>
  </g>
  <g class="cls-5">
    <rect class="cls-4" x="72.4" y="25.1" width="4.7" height="20.7"/>
  </g>
  <g class="cls-8">
    <g>
      <g class="cls-7">
        <path class="cls-4" d="M91.6,41.7c2.2,0,4.1-.9,5.5-2.7l3,3.1c-2.3,2.7-5.1,4-8.3,4s-5.8-1-7.9-3-3.1-4.5-3.1-7.7,1-5.7,3.1-7.7c2.1-2.1,4.7-3.1,7.8-3.1s6.2,1.3,8.5,3.9l-2.9,3.2c-1.4-1.8-3.3-2.8-5.4-2.8s-3.2.6-4.4,1.7-1.9,2.7-1.9,4.5.6,3.4,1.8,4.7c1.2,1.2,2.7,1.8,4.2,1.8"/>
      </g>
      <g class="cls-6">
        <path class="cls-4" d="M103.8,25.1h4.7v8.5l7.9-8.5h5.8l-8.2,9.2c.7,1,2,2.9,4,5.5,1.9,2.7,3.3,4.7,4.3,6h-5.4l-6.1-8.2-2.1,2.3v5.9h-4.7v-20.7h-.1Z"/>
      </g>
      <g class="cls-12">
        <polygon class="cls-4" points="143.4 32.8 137.8 44.2 135.1 44.2 129.5 32.8 129.5 45.8 124.9 45.8 124.9 25.1 131.2 25.1 136.5 36.5 141.8 25.1 148 25.1 148 45.8 143.4 45.8 143.4 32.8"/>
      </g>
      <g class="cls-11">
        <rect class="cls-4" x="153.1" y="25.1" width="4.7" height="20.7"/>
      </g>
      <g class="cls-9">
        <polygon class="cls-4" points="162.9 45.8 162.9 25.1 167.6 25.1 167.6 41.7 176.3 41.7 176.3 45.8 162.9 45.8"/>
      </g>
      <g class="cls-10">
        <polygon class="cls-4" points="179.8 45.8 179.8 25.1 184.3 25.1 184.3 41.7 193.2 41.7 193.2 45.8 179.8 45.8"/>
      </g>
      <g class="cls-13">
        <path class="cls-3" d="M19,31.5c0-.4.3-.9.7-1.1l6.9-4c.3-.2.9-.2,1.2,0l6,3.4,8.4-4.9c-.1,0-.1-.1-.2-.1l-13.3-7.9c-.9-.4-2.2-.4-3,0l-13.3,7.9c-.9.4-1.6,1.8-1.6,2.8v15.4l8.3-4.8v-6.8h-.1Z"/>
      </g>
      <g class="cls-14">
        <path class="cls-3" d="M35.2,32.6v6.9c0,.4-.3.9-.7,1.1l-6.9,4c-.3.2-.9.2-1.2,0l-5.9-3.6-8.4,4.9c.1,0,.1.1.2.1l13.3,7.9c.9.4,2.2.4,3,0l13.3-7.9c.9-.4,1.6-1.8,1.6-2.8v-15.4l-8.3,4.8Z"/>
      </g>
    </g>
  </g>
</svg>