<svg width="17" height="15" viewBox="0 0 17 15" fill="none" xmlns="http://www.w3.org/2000/svg">
<g clip-path="url(#clip0_1_457)">
<path d="M14.061 1.74707H16.374L11.561 6.36007C9.81798 8.03007 6.99298 8.03007 5.24898 6.36007L0.433975 1.74707H2.74898L6.40498 5.25207C6.93798 5.76007 7.65598 6.04507 8.40398 6.04507C9.15198 6.04507 9.86897 5.76007 10.402 5.25207L14.061 1.74707Z" fill="#23292F"/>
<path d="M2.71897 14.5761H0.404968L5.24897 9.93414C6.99197 8.26414 9.81697 8.26414 11.561 9.93414L16.405 14.5761H14.093L10.405 11.0431C9.87197 10.5341 9.15397 10.2501 8.40597 10.2501C7.65797 10.2501 6.94097 10.5341 6.40797 11.0431L2.71897 14.5761Z" fill="#23292F"/>
</g>
<defs>
<clipPath id="clip0_1_457">
<rect width="16" height="14" fill="white" transform="translate(0.404968 0.800049)"/>
</clipPath>
</defs>
</svg>
