<svg width="25" height="25" viewBox="0 0 25 25" fill="none" xmlns="http://www.w3.org/2000/svg">
<path fill-rule="evenodd" clip-rule="evenodd" d="M12.5 4.5498C12.6989 4.5498 12.8897 4.62882 13.0303 4.76947C13.171 4.91013 13.25 5.10089 13.25 5.2998V12.0498H20C20.1989 12.0498 20.3897 12.1288 20.5303 12.2695C20.671 12.4101 20.75 12.6009 20.75 12.7998C20.75 12.9987 20.671 13.1895 20.5303 13.3301C20.3897 13.4708 20.1989 13.5498 20 13.5498H13.25V20.2998C13.25 20.4987 13.171 20.6895 13.0303 20.8301C12.8897 20.9708 12.6989 21.0498 12.5 21.0498C12.3011 21.0498 12.1103 20.9708 11.9697 20.8301C11.829 20.6895 11.75 20.4987 11.75 20.2998V13.5498H5C4.80109 13.5498 4.61032 13.4708 4.46967 13.3301C4.32902 13.1895 4.25 12.9987 4.25 12.7998C4.25 12.6009 4.32902 12.4101 4.46967 12.2695C4.61032 12.1288 4.80109 12.0498 5 12.0498H11.75V5.2998C11.75 5.10089 11.829 4.91013 11.9697 4.76947C12.1103 4.62882 12.3011 4.5498 12.5 4.5498Z" fill="#00FFB2"/>
</svg>
