<svg width="24" height="25" viewBox="0 0 24 25" fill="none" xmlns="http://www.w3.org/2000/svg">
<path fill-rule="evenodd" clip-rule="evenodd" d="M12 4.5498C12.1989 4.5498 12.3897 4.62882 12.5303 4.76947C12.671 4.91013 12.75 5.10089 12.75 5.2998V12.0498H19.5C19.6989 12.0498 19.8897 12.1288 20.0303 12.2695C20.171 12.4101 20.25 12.6009 20.25 12.7998C20.25 12.9987 20.171 13.1895 20.0303 13.3301C19.8897 13.4708 19.6989 13.5498 19.5 13.5498H12.75V20.2998C12.75 20.4987 12.671 20.6895 12.5303 20.8301C12.3897 20.9708 12.1989 21.0498 12 21.0498C11.8011 21.0498 11.6103 20.9708 11.4697 20.8301C11.329 20.6895 11.25 20.4987 11.25 20.2998V13.5498H4.5C4.30109 13.5498 4.11032 13.4708 3.96967 13.3301C3.82902 13.1895 3.75 12.9987 3.75 12.7998C3.75 12.6009 3.82902 12.4101 3.96967 12.2695C4.11032 12.1288 4.30109 12.0498 4.5 12.0498H11.25V5.2998C11.25 5.10089 11.329 4.91013 11.4697 4.76947C11.6103 4.62882 11.8011 4.5498 12 4.5498Z" fill="#00FFB2"/>
</svg>
