<svg width="17" height="15" viewBox="0 0 17 15" fill="none" xmlns="http://www.w3.org/2000/svg">
<g clip-path="url(#clip0_1_920)">
<path d="M13.891 1.74707H16.204L11.391 6.36007C9.64799 8.03007 6.82299 8.03007 5.07899 6.36007L0.263992 1.74707H2.57899L6.23499 5.25207C6.76799 5.76007 7.48599 6.04507 8.23399 6.04507C8.98199 6.04507 9.69899 5.76007 10.232 5.25207L13.891 1.74707Z" fill="#23292F"/>
<path d="M2.54899 14.5761H0.234985L5.07899 9.93414C6.82199 8.26414 9.64699 8.26414 11.391 9.93414L16.235 14.5761H13.923L10.235 11.0431C9.70199 10.5341 8.98399 10.2501 8.23599 10.2501C7.48799 10.2501 6.77099 10.5341 6.23799 11.0431L2.54899 14.5761Z" fill="#23292F"/>
</g>
<defs>
<clipPath id="clip0_1_920">
<rect width="16" height="14" fill="white" transform="translate(0.234985 0.800049)"/>
</clipPath>
</defs>
</svg>
