<svg width="15" height="19" viewBox="0 0 15 19" fill="none" xmlns="http://www.w3.org/2000/svg">
<g clip-path="url(#clip0_1_805)">
<path d="M3.78303 3.46609C4.25803 3.59309 4.73203 3.67809 5.20703 3.80509C5.68103 3.93209 6.15603 4.01709 6.63003 4.14409C6.76003 4.18709 6.80303 4.14409 6.84603 4.01709C7.01903 3.29609 7.19103 2.61709 7.36403 1.89609C7.40703 1.76909 7.45003 1.72609 7.58003 1.76909C8.01103 1.89609 8.39903 1.98109 8.83103 2.06609C8.96003 2.10809 8.96003 2.15109 8.91703 2.23509C8.74503 2.91409 8.57203 3.63509 8.39903 4.31409C8.39903 4.35609 8.39903 4.39909 8.35603 4.48409C8.70103 4.56909 9.09003 4.65309 9.43503 4.73809C9.47803 4.73809 9.52103 4.65309 9.56403 4.61109C9.69403 4.06009 9.82303 3.55009 9.99603 2.99909C10.039 2.82909 10.082 2.66009 10.125 2.49009C10.125 2.40509 10.168 2.36309 10.255 2.40509C10.686 2.53209 11.117 2.61709 11.592 2.74509C11.635 2.74509 11.635 2.78709 11.678 2.78709C11.549 3.33809 11.42 3.84709 11.29 4.35609C11.247 4.56909 11.204 4.78109 11.117 4.99309C11.074 5.12009 11.117 5.16209 11.247 5.20509C11.721 5.41709 12.196 5.62909 12.671 5.84109C13.102 6.09609 13.49 6.43509 13.792 6.85909C14.181 7.49509 14.224 8.17409 14.051 8.85309C13.922 9.32009 13.749 9.74409 13.404 10.0831C13.145 10.3381 12.8 10.5071 12.455 10.6341C12.412 10.6341 12.369 10.6771 12.282 10.6771C12.455 10.8041 12.627 10.8891 12.8 11.0161C13.318 11.3981 13.663 11.8651 13.836 12.4581C13.922 12.9251 13.879 13.4341 13.749 13.9011C13.577 14.4951 13.361 15.0041 12.973 15.4701C12.498 16.0221 11.894 16.3191 11.204 16.4031C10.298 16.5311 9.43503 16.4461 8.57203 16.3191C8.44303 16.2761 8.35603 16.3191 8.31303 16.4461C8.14003 17.1251 7.96803 17.8461 7.79503 18.5241C7.75203 18.6941 7.75203 18.7371 7.53703 18.6521C7.14803 18.5671 6.71703 18.4401 6.32803 18.3551C6.19903 18.3121 6.19903 18.2701 6.24203 18.1851C6.41503 17.4641 6.58703 16.7431 6.80303 16.0641C6.80303 15.9791 6.84603 15.9371 6.76003 15.8941C6.41503 15.8101 6.07003 15.7251 5.68103 15.6401C5.59503 16.0221 5.46603 16.4031 5.37903 16.7851C5.29303 17.1671 5.16403 17.5491 5.07703 17.9311C5.03403 18.0151 5.03403 18.0581 4.90503 18.0151C4.47303 17.8881 4.04203 17.8031 3.61003 17.7191C3.48103 17.6761 3.48103 17.6341 3.52403 17.5491C3.69703 16.8281 3.86903 16.1071 4.08503 15.4281C4.08503 15.3851 4.12803 15.3431 4.12803 15.2581C3.13603 15.0041 2.14303 14.7491 1.10803 14.4951C1.19403 14.3251 1.23703 14.1981 1.32403 14.0281C1.49603 13.6461 1.66903 13.2641 1.79803 12.9251C1.84103 12.7981 1.88503 12.7981 2.01403 12.7981C2.31603 12.8831 2.66103 12.9681 2.96303 13.0101C3.30803 13.0951 3.56703 12.9251 3.61003 12.6281C4.17103 10.4651 4.73203 8.30109 5.25003 6.09609C5.33603 5.75609 5.12003 5.37509 4.73203 5.24709C4.34403 5.12009 3.95603 5.03509 3.61003 4.95009C3.52403 4.95009 3.48103 4.90809 3.52403 4.82309C3.65403 4.35609 3.78303 3.84709 3.91203 3.38109C3.74003 3.50809 3.74003 3.50809 3.78303 3.46609ZM5.98303 13.9431C6.02603 13.9431 6.07003 13.9861 6.07003 13.9861C6.76003 14.1551 7.49303 14.3671 8.22703 14.4101C8.74503 14.4521 9.21903 14.4521 9.69403 14.2831C10.513 14.0281 10.859 12.9681 10.384 12.2891C10.168 11.9501 9.82303 11.7371 9.47803 11.5251C8.70103 11.1011 7.79503 10.9311 6.93303 10.7621C6.80303 10.7191 6.80303 10.7621 6.76003 10.8891C6.67403 11.3131 6.54403 11.6951 6.45803 12.1191C6.28503 12.7131 6.15603 13.3071 5.98303 13.9431ZM9.60703 9.61609C9.69403 9.61609 9.90903 9.57409 10.082 9.53209C10.902 9.36209 11.333 8.42909 10.902 7.70809C10.686 7.32609 10.298 7.07109 9.90903 6.90209C9.30503 6.64709 8.70103 6.52009 8.05403 6.35009C7.92503 6.30809 7.88203 6.35009 7.83903 6.47709C7.62303 7.36809 7.40703 8.21709 7.14803 9.10709C7.10503 9.19209 7.14803 9.23509 7.23403 9.27709C7.40703 9.32009 7.53703 9.36209 7.70903 9.40409C8.35603 9.48909 8.91703 9.61609 9.60703 9.61609Z" fill="white"/>
</g>
<defs>
<clipPath id="clip0_1_805">
<rect width="14" height="18" fill="white" transform="translate(0.785034 0.800049)"/>
</clipPath>
</defs>
</svg>
