<svg width="98" height="10" viewBox="0 0 98 10" fill="none" xmlns="http://www.w3.org/2000/svg">
<mask id="mask0_1_2141" style="mask-type:alpha" maskUnits="userSpaceOnUse" x="0" y="0" width="98" height="10">
<g clip-path="url(#clip0_1_2141)">
<g clip-path="url(#clip1_1_2141)">
<path d="M92.236 9.53119V2.56819H93.816V3.73019H93.874C94.001 3.32719 94.214 3.01919 94.514 2.80319C94.828 2.58319 95.204 2.47019 95.587 2.47919C95.685 2.47919 95.787 2.48319 95.892 2.49219C95.998 2.50019 96.087 2.50919 96.159 2.51719V4.00319C96.052 3.98019 95.944 3.96519 95.835 3.95919C95.688 3.94219 95.539 3.93419 95.391 3.93419C95.103 3.93419 94.843 3.99719 94.61 4.12419C94.382 4.24719 94.202 4.42419 94.07 4.65719C93.934 4.91019 93.866 5.19519 93.874 5.48219V9.53219L92.236 9.53119ZM87.786 9.67719C87.088 9.67719 86.485 9.52919 85.977 9.23319C85.469 8.93319 85.077 8.51119 84.803 7.97019C84.532 7.42819 84.397 6.79819 84.397 6.07819C84.397 5.36819 84.532 4.73819 84.803 4.19319C85.06 3.66719 85.46 3.22519 85.958 2.91719C86.453 2.60819 87.031 2.45419 87.691 2.45419C88.14 2.45419 88.559 2.53019 88.948 2.68219C89.341 2.83019 89.686 3.05519 89.982 3.35519C90.279 3.65119 90.509 4.02219 90.674 4.46519C90.844 4.90519 90.928 5.42019 90.928 6.00819V6.49819H85.127V5.37919H90.109L89.36 5.69619C89.368 5.34419 89.301 4.99319 89.164 4.66819C89.049 4.39119 88.855 4.15419 88.605 3.98819C88.36 3.82419 88.059 3.74119 87.704 3.74119C87.352 3.74119 87.05 3.82419 86.796 3.98919C86.542 4.15419 86.347 4.37919 86.212 4.66219C86.076 4.96319 86.009 5.29019 86.015 5.62019V6.37019C86.015 6.79719 86.087 7.16319 86.231 7.46719C86.379 7.76719 86.589 7.99819 86.859 8.15919C87.13 8.31619 87.448 8.39419 87.812 8.39419C88.062 8.39419 88.286 8.35819 88.484 8.28619C88.677 8.21719 88.853 8.10619 88.999 7.96219C89.142 7.82219 89.249 7.65619 89.316 7.46119L90.826 7.67119C90.728 8.06319 90.532 8.42319 90.256 8.71819C89.976 9.01819 89.625 9.25319 89.202 9.42219C88.782 9.59219 88.311 9.67619 87.786 9.67619V9.67719ZM73.143 9.53119V2.56819H74.691L74.735 4.19319H74.615C74.725 3.79119 74.885 3.46319 75.097 3.20919C75.298 2.96219 75.555 2.76619 75.847 2.63819C76.13 2.51119 76.428 2.44819 76.741 2.44819C77.253 2.44819 77.677 2.60419 78.011 2.91719C78.349 3.23019 78.574 3.67219 78.684 4.24419H78.487C78.566 3.88219 78.732 3.54519 78.969 3.26019C79.191 2.99819 79.472 2.79119 79.789 2.65719C80.115 2.51619 80.468 2.44519 80.823 2.44719C81.246 2.44719 81.627 2.54019 81.965 2.72719C82.308 2.90919 82.577 3.17919 82.772 3.53919C82.97 3.89919 83.07 4.34119 83.07 4.86619V9.53119H81.439V5.11319C81.439 4.67319 81.318 4.35219 81.077 4.14819C80.833 3.94019 80.521 3.83019 80.201 3.83819C79.934 3.83819 79.704 3.89519 79.509 4.00819C79.316 4.12119 79.16 4.28619 79.059 4.48519C78.949 4.70319 78.894 4.94519 78.899 5.18919V9.53119H77.313V5.03719C77.313 4.67319 77.198 4.38319 76.97 4.16719C76.746 3.94719 76.458 3.83719 76.106 3.83719C75.866 3.83719 75.643 3.89519 75.44 4.00919C75.237 4.12419 75.069 4.29319 74.958 4.49819C74.839 4.71319 74.78 4.98019 74.78 5.29819V9.53119H73.143ZM67.791 9.66519C67.224 9.66519 66.721 9.52119 66.281 9.23319C65.844 8.94119 65.5 8.52619 65.246 7.98919C64.996 7.45119 64.871 6.80919 64.871 6.05919C64.871 5.30219 64.998 4.65419 65.252 4.11719C65.51 3.57919 65.859 3.16919 66.299 2.88519C66.744 2.60119 67.263 2.45319 67.791 2.46019C68.168 2.46019 68.487 2.52119 68.75 2.64419C69.016 2.76319 69.236 2.91419 69.41 3.10119C69.583 3.28319 69.72 3.46919 69.822 3.66019H69.88V2.56819H71.498V9.53119H69.88V8.44619H69.822C69.711 8.65819 69.57 8.85219 69.403 9.02319C69.226 9.21019 69.003 9.36419 68.737 9.48719C68.438 9.61319 68.115 9.67319 67.791 9.66519ZM68.223 8.31319C68.578 8.31319 68.883 8.21919 69.137 8.03319C69.401 7.82919 69.601 7.55419 69.715 7.24019C69.85 6.89719 69.918 6.50119 69.918 6.05319C69.918 5.60019 69.85 5.20619 69.714 4.87319C69.603 4.56119 69.402 4.28919 69.137 4.09119C68.887 3.90519 68.583 3.81219 68.223 3.81219C67.863 3.81219 67.558 3.90519 67.309 4.09219C67.059 4.27819 66.869 4.53819 66.737 4.87219C66.607 5.20619 66.541 5.60019 66.541 6.05219C66.541 6.50219 66.606 6.89519 66.737 7.23319C66.869 7.57219 67.059 7.83619 67.309 8.02719C67.563 8.21719 67.867 8.31319 68.223 8.31319ZM60.409 9.53119V2.56819H61.989V3.73019H62.046C62.173 3.32719 62.387 3.01919 62.688 2.80319C62.988 2.58719 63.346 2.47919 63.76 2.47919C63.858 2.47919 63.96 2.48319 64.065 2.49219C64.171 2.50019 64.26 2.50919 64.332 2.51719V4.00319C64.225 3.98019 64.117 3.96519 64.008 3.95919C63.861 3.94219 63.712 3.93419 63.564 3.93419C63.276 3.93419 63.016 3.99719 62.783 4.12419C62.554 4.24719 62.375 4.42419 62.243 4.65719C62.107 4.91019 62.039 5.19519 62.046 5.48219V9.53219L60.409 9.53119ZM53.147 9.53119V0.073186H59.304V1.50819H54.836V4.26319H58.911V5.67819H54.836V9.53119H53.147ZM43.765 5.49419V9.53119H42.128V2.56819H43.695L43.715 4.30119H43.524C43.723 3.69619 44.017 3.23919 44.406 2.93019C44.796 2.61719 45.28 2.46019 45.86 2.46019C46.342 2.46019 46.763 2.56419 47.123 2.77119C47.487 2.97819 47.768 3.28119 47.967 3.67919C48.17 4.07219 48.272 4.55519 48.272 5.12619V9.53119H46.641V5.38019C46.641 4.89719 46.518 4.52519 46.273 4.26319C46.031 3.99619 45.695 3.86319 45.263 3.86319C44.975 3.86319 44.717 3.92619 44.489 4.05319C44.262 4.17919 44.076 4.36919 43.956 4.59919C43.829 4.84019 43.765 5.13919 43.765 5.49419ZM38.853 9.53119V2.56819H40.49V9.53119H38.853ZM39.671 1.56519C39.419 1.57119 39.175 1.47819 38.991 1.30519C38.81 1.13919 38.708 0.903186 38.712 0.657186C38.708 0.413186 38.81 0.180186 38.992 0.017186C39.174 -0.158814 39.418 -0.254814 39.671 -0.249814C39.938 -0.249814 40.164 -0.161814 40.351 0.016186C40.541 0.190186 40.636 0.403186 40.636 0.657186C40.636 0.911186 40.541 1.12719 40.35 1.30519C40.167 1.47819 39.923 1.57119 39.671 1.56519ZM31.241 9.67719C30.543 9.67719 29.94 9.52919 29.432 9.23319C28.926 8.93519 28.518 8.49619 28.258 7.97019C27.988 7.42819 27.852 6.79819 27.852 6.07819C27.852 5.36819 27.987 4.73819 28.258 4.19319C28.515 3.66719 28.915 3.22519 29.413 2.91719C29.908 2.60819 30.486 2.45419 31.146 2.45419C31.595 2.45419 32.014 2.53019 32.403 2.68219C32.793 2.82919 33.146 3.05819 33.438 3.35519C33.734 3.65119 33.964 4.02219 34.129 4.46519C34.299 4.90519 34.383 5.42019 34.383 6.00819V6.49819H28.583V5.37919H33.566L32.816 5.69619C32.816 5.30319 32.751 4.96019 32.62 4.66819C32.505 4.39119 32.311 4.15419 32.061 3.98819C31.816 3.82419 31.515 3.74119 31.16 3.74119C30.84 3.73319 30.524 3.81919 30.252 3.98919C29.998 4.15419 29.803 4.37919 29.668 4.66219C29.532 4.96319 29.465 5.29019 29.471 5.62019V6.37019C29.471 6.79719 29.543 7.16319 29.687 7.46719C29.835 7.76719 30.045 7.99819 30.316 8.15919C30.586 8.31619 30.904 8.39419 31.268 8.39419C31.518 8.39419 31.742 8.35819 31.941 8.28619C32.134 8.21719 32.309 8.10619 32.455 7.96219C32.599 7.82219 32.705 7.65619 32.772 7.46119L34.282 7.67119C34.184 8.06319 33.988 8.42319 33.712 8.71819C33.432 9.01819 33.081 9.25319 32.658 9.42219C32.207 9.59719 31.726 9.68419 31.242 9.67619L31.241 9.67719ZM22.812 9.66519C22.277 9.67419 21.751 9.52419 21.301 9.23319C20.861 8.94119 20.516 8.52619 20.266 7.98919C20.016 7.45119 19.892 6.80919 19.892 6.05919C19.892 5.30219 20.019 4.65419 20.272 4.11719C20.527 3.57919 20.874 3.16919 21.314 2.88519C21.754 2.60219 22.251 2.46019 22.805 2.46019C23.182 2.46019 23.501 2.52119 23.764 2.64419C24.03 2.76319 24.248 2.91419 24.418 3.10119C24.591 3.28319 24.728 3.47119 24.83 3.66619H24.881V0.073186H26.519V9.53119H24.913V8.43919H24.843C24.733 8.65419 24.591 8.85119 24.423 9.02319C24.234 9.21819 24.01 9.37619 23.763 9.48719C23.501 9.60519 23.184 9.66519 22.812 9.66519ZM23.237 8.31319C23.592 8.31319 23.897 8.21919 24.151 8.03319C24.415 7.82919 24.615 7.55419 24.729 7.24019C24.864 6.89719 24.932 6.50119 24.932 6.05319C24.932 5.60019 24.864 5.20619 24.729 4.87319C24.618 4.56119 24.417 4.28919 24.151 4.09119C23.885 3.90119 23.564 3.80319 23.237 3.81219C22.91 3.80319 22.589 3.90219 22.323 4.09219C22.073 4.27819 21.883 4.54019 21.752 4.87819C21.618 5.25519 21.554 5.65319 21.562 6.05319C21.562 6.50119 21.627 6.89519 21.758 7.23319C21.889 7.57219 22.08 7.83619 22.329 8.02719C22.579 8.21719 22.881 8.31319 23.237 8.31319ZM14.852 9.66519C14.317 9.67419 13.791 9.52419 13.341 9.23319C12.905 8.94119 12.561 8.52619 12.306 7.98919C12.056 7.45119 11.932 6.80919 11.932 6.05919C11.932 5.30219 12.059 4.65419 12.312 4.11719C12.571 3.57919 12.92 3.16919 13.36 2.88519C13.8 2.60219 14.297 2.46019 14.852 2.46019C15.228 2.46019 15.548 2.52119 15.81 2.64419C16.077 2.76319 16.297 2.91419 16.47 3.10119C16.644 3.28319 16.781 3.46919 16.883 3.66019H16.94V2.56819H18.559V9.53119H16.94V8.44619H16.883C16.772 8.65819 16.631 8.85219 16.464 9.02319C16.286 9.21019 16.064 9.36419 15.798 9.48719C15.499 9.61319 15.176 9.67319 14.852 9.66519ZM15.283 8.31319C15.639 8.31319 15.943 8.21919 16.197 8.03319C16.451 7.84319 16.644 7.57819 16.775 7.24019C16.91 6.89719 16.978 6.50119 16.978 6.05319C16.978 5.60019 16.91 5.20619 16.775 4.87319C16.664 4.56119 16.463 4.28919 16.197 4.09119C15.947 3.90519 15.643 3.81219 15.283 3.81219C14.923 3.81219 14.619 3.90519 14.369 4.09219C14.108 4.29319 13.91 4.56319 13.798 4.87219C13.667 5.20619 13.601 5.60019 13.601 6.05219C13.601 6.50219 13.667 6.89519 13.798 7.23319C13.929 7.57219 14.12 7.83619 14.369 8.02719C14.623 8.21719 14.928 8.31319 15.283 8.31319ZM0.5 9.53119V0.073186H3.007L4.822 4.98619C4.882 5.16819 4.952 5.39619 5.032 5.67219C5.112 5.94719 5.195 6.24319 5.279 6.56119C5.364 6.87419 5.442 7.17819 5.514 7.47519C5.59 7.76719 5.654 8.02319 5.704 8.24319H5.343C5.545 7.38319 5.767 6.52819 6.009 5.67819C6.089 5.39819 6.162 5.16819 6.225 4.98619L8.009 0.073186H10.523V9.53119H8.847V4.73919C8.85 4.19319 8.858 3.64719 8.872 3.10119L8.898 2.13019C8.906 1.80419 8.912 1.49319 8.917 1.19719H9.063C8.973 1.52319 8.879 1.85719 8.777 2.20019L8.479 3.19619C8.386 3.51419 8.295 3.80619 8.206 4.07219C8.136 4.29619 8.061 4.51819 7.983 4.73919L6.219 9.53119H4.803L3.013 4.73919L2.791 4.07919C2.698 3.79019 2.607 3.50019 2.518 3.20919L2.213 2.21919C2.113 1.87919 2.014 1.53819 1.915 1.19719H2.093C2.097 1.48019 2.103 1.78519 2.112 2.11119C2.12 2.43219 2.127 2.75619 2.131 3.08219C2.139 3.40419 2.146 3.70819 2.15 3.99619C2.158 4.28419 2.163 4.53119 2.163 4.73919V9.53119H0.5Z" fill="black"/>
</g>
</g>
</mask>
<g mask="url(#mask0_1_2141)">
<rect x="0.5" width="97" height="10" fill="black"/>
</g>
<defs>
<clipPath id="clip0_1_2141">
<rect width="97" height="10" fill="white" transform="translate(0.5)"/>
</clipPath>
<clipPath id="clip1_1_2141">
<rect width="97" height="10" fill="white" transform="translate(0.5)"/>
</clipPath>
</defs>
</svg>
