<svg width="17" height="15" viewBox="0 0 17 15" fill="none" xmlns="http://www.w3.org/2000/svg">
<g clip-path="url(#clip0_1_1244)">
<path d="M14.491 1.74707H16.804L11.991 6.36007C10.248 8.03007 7.42299 8.03007 5.67899 6.36007L0.863991 1.74707H3.17899L6.83499 5.25207C7.36799 5.76007 8.08599 6.04507 8.83399 6.04507C9.58199 6.04507 10.299 5.76007 10.832 5.25207L14.491 1.74707Z" fill="#23292F"/>
<path d="M3.14899 14.5761H0.834991L5.67899 9.93414C7.42199 8.26414 10.247 8.26414 11.991 9.93414L16.835 14.5761H14.523L10.835 11.0431C10.302 10.5341 9.58399 10.2501 8.83599 10.2501C8.08799 10.2501 7.37099 10.5341 6.83799 11.0431L3.14899 14.5761Z" fill="#23292F"/>
</g>
<defs>
<clipPath id="clip0_1_1244">
<rect width="16" height="14" fill="white" transform="translate(0.834991 0.800049)"/>
</clipPath>
</defs>
</svg>
