<svg width="15" height="19" viewBox="0 0 15 19" fill="none" xmlns="http://www.w3.org/2000/svg">
<g clip-path="url(#clip0_1_1268)">
<path d="M3.83299 3.46609C4.30799 3.59309 4.78199 3.67809 5.25699 3.80509C5.73099 3.93209 6.20599 4.01709 6.67999 4.14409C6.80999 4.18709 6.85299 4.14409 6.89599 4.01709C7.06899 3.29609 7.24099 2.61709 7.41399 1.89609C7.45699 1.76909 7.49999 1.72609 7.62999 1.76909C8.06099 1.89609 8.44899 1.98109 8.88099 2.06609C9.00999 2.10809 9.00999 2.15109 8.96699 2.23509C8.79499 2.91409 8.62199 3.63509 8.44899 4.31409C8.44899 4.35609 8.44899 4.39909 8.40599 4.48409C8.75099 4.56909 9.13999 4.65309 9.48499 4.73809C9.52799 4.73809 9.57099 4.65309 9.61399 4.61109C9.74399 4.06009 9.87299 3.55009 10.046 2.99909C10.089 2.82909 10.132 2.66009 10.175 2.49009C10.175 2.40509 10.218 2.36309 10.305 2.40509C10.736 2.53209 11.167 2.61709 11.642 2.74509C11.685 2.74509 11.685 2.78709 11.728 2.78709C11.599 3.33809 11.47 3.84709 11.34 4.35609C11.297 4.56909 11.254 4.78109 11.167 4.99309C11.124 5.12009 11.167 5.16209 11.297 5.20509C11.771 5.41709 12.246 5.62909 12.721 5.84109C13.152 6.09609 13.54 6.43509 13.842 6.85909C14.231 7.49509 14.274 8.17409 14.101 8.85309C13.972 9.32009 13.799 9.74409 13.454 10.0831C13.195 10.3381 12.85 10.5071 12.505 10.6341C12.462 10.6341 12.419 10.6771 12.332 10.6771C12.505 10.8041 12.677 10.8891 12.85 11.0161C13.368 11.3981 13.713 11.8651 13.886 12.4581C13.972 12.9251 13.929 13.4341 13.799 13.9011C13.627 14.4951 13.411 15.0041 13.023 15.4701C12.548 16.0221 11.944 16.3191 11.254 16.4031C10.348 16.5311 9.48499 16.4461 8.62199 16.3191C8.49299 16.2761 8.40599 16.3191 8.36299 16.4461C8.18999 17.1251 8.01799 17.8461 7.84499 18.5241C7.80199 18.6941 7.80199 18.7371 7.58699 18.6521C7.19799 18.5671 6.76699 18.4401 6.37799 18.3551C6.24899 18.3121 6.24899 18.2701 6.29199 18.1851C6.46499 17.4641 6.63699 16.7431 6.85299 16.0641C6.85299 15.9791 6.89599 15.9371 6.80999 15.8941C6.46499 15.8101 6.11999 15.7251 5.73099 15.6401C5.64499 16.0221 5.51599 16.4031 5.42899 16.7851C5.34299 17.1671 5.21399 17.5491 5.12699 17.9311C5.08399 18.0151 5.08399 18.0581 4.95499 18.0151C4.52299 17.8881 4.09199 17.8031 3.65999 17.7191C3.53099 17.6761 3.53099 17.6341 3.57399 17.5491C3.74699 16.8281 3.91899 16.1071 4.13499 15.4281C4.13499 15.3851 4.17799 15.3431 4.17799 15.2581C3.18599 15.0041 2.19299 14.7491 1.15799 14.4951C1.24399 14.3251 1.28699 14.1981 1.37399 14.0281C1.54599 13.6461 1.71899 13.2641 1.84799 12.9251C1.89099 12.7981 1.93499 12.7981 2.06399 12.7981C2.36599 12.8831 2.71099 12.9681 3.01299 13.0101C3.35799 13.0951 3.61699 12.9251 3.65999 12.6281C4.22099 10.4651 4.78199 8.30109 5.29999 6.09609C5.38599 5.75609 5.16999 5.37509 4.78199 5.24709C4.39399 5.12009 4.00599 5.03509 3.65999 4.95009C3.57399 4.95009 3.53099 4.90809 3.57399 4.82309C3.70399 4.35609 3.83299 3.84709 3.96199 3.38109C3.78999 3.50809 3.78999 3.50809 3.83299 3.46609ZM6.03299 13.9431C6.07599 13.9431 6.11999 13.9861 6.11999 13.9861C6.80999 14.1551 7.54299 14.3671 8.27699 14.4101C8.79499 14.4521 9.26899 14.4521 9.74399 14.2831C10.563 14.0281 10.909 12.9681 10.434 12.2891C10.218 11.9501 9.87299 11.7371 9.52799 11.5251C8.75099 11.1011 7.84499 10.9311 6.98299 10.7621C6.85299 10.7191 6.85299 10.7621 6.80999 10.8891C6.72399 11.3131 6.59399 11.6951 6.50799 12.1191C6.33499 12.7131 6.20599 13.3071 6.03299 13.9431ZM9.65699 9.61609C9.74399 9.61609 9.95899 9.57409 10.132 9.53209C10.952 9.36209 11.383 8.42909 10.952 7.70809C10.736 7.32609 10.348 7.07109 9.95899 6.90209C9.35499 6.64709 8.75099 6.52009 8.10399 6.35009C7.97499 6.30809 7.93199 6.35009 7.88899 6.47709C7.67299 7.36809 7.45699 8.21709 7.19799 9.10709C7.15499 9.19209 7.19799 9.23509 7.28399 9.27709C7.45699 9.32009 7.58699 9.36209 7.75899 9.40409C8.40599 9.48909 8.96699 9.61609 9.65699 9.61609Z" fill="white"/>
</g>
<defs>
<clipPath id="clip0_1_1268">
<rect width="14" height="18" fill="white" transform="translate(0.834991 0.800049)"/>
</clipPath>
</defs>
</svg>
