<svg width="26" height="24" viewBox="0 0 26 24" fill="none" xmlns="http://www.w3.org/2000/svg">
<path d="M21.5098 13.1826C22.7136 13.1826 23.3069 14.6466 22.4427 15.4847L14.4801 23.2069C13.9557 23.7155 13.2539 23.9999 12.5234 23.9999H3.30669C2.10289 23.9999 1.50959 22.536 2.37375 21.6979L10.3364 13.9756C10.8608 13.467 11.5626 13.1826 12.2931 13.1826H21.5098Z" fill="#00FFB2" fill-opacity="0.8"/>
<path d="M21.7715 6.47949C22.9753 6.47949 23.5686 7.94347 22.7044 8.78154L14.8593 16.3898C14.2596 16.9715 13.4569 17.2968 12.6214 17.2968H3.56841C2.36461 17.2968 1.77131 15.8328 2.63547 14.9948L10.5981 7.27249C11.1225 6.76391 11.8243 6.47949 12.5548 6.47949H21.7715Z" fill="#00FFB2" fill-opacity="0.8"/>
<path d="M21.5098 4.02872e-07C22.7136 4.55492e-07 23.3069 1.46398 22.4427 2.30205L14.4801 10.0243C13.9557 10.5329 13.2539 10.8173 12.5234 10.8173H3.30669C2.10289 10.8173 1.50959 9.35334 2.37375 8.51527L10.3364 0.793002C10.8608 0.284423 11.5626 -3.1932e-08 12.2931 0L21.5098 4.02872e-07Z" fill="#00FFB2" fill-opacity="0.8"/>
</svg>
