<svg width="17" height="15" viewBox="0 0 17 15" fill="none" xmlns="http://www.w3.org/2000/svg">
<g clip-path="url(#clip0_1_781)">
<path d="M14.441 1.74707H16.754L11.941 6.36007C10.198 8.03007 7.37303 8.03007 5.62903 6.36007L0.814034 1.74707H3.12903L6.78503 5.25207C7.31803 5.76007 8.03603 6.04507 8.78403 6.04507C9.53203 6.04507 10.249 5.76007 10.782 5.25207L14.441 1.74707Z" fill="#23292F"/>
<path d="M3.09903 14.5761H0.785034L5.62903 9.93414C7.37203 8.26414 10.197 8.26414 11.941 9.93414L16.785 14.5761H14.473L10.785 11.0431C10.252 10.5341 9.53403 10.2501 8.78603 10.2501C8.03803 10.2501 7.32103 10.5341 6.78803 11.0431L3.09903 14.5761Z" fill="#23292F"/>
</g>
<defs>
<clipPath id="clip0_1_781">
<rect width="16" height="14" fill="white" transform="translate(0.785034 0.800049)"/>
</clipPath>
</defs>
</svg>
