<svg width="119" height="41" viewBox="0 0 119 41" fill="none" xmlns="http://www.w3.org/2000/svg">
<path d="M22.01 21.9829C23.214 21.9829 23.807 23.4469 22.943 24.2849L14.98 32.0069C14.4556 32.5156 13.7536 32.8 13.023 32.7999H3.80701C2.60301 32.7999 2.01001 31.3359 2.87401 30.4979L10.836 22.7759C11.3604 22.2672 12.0624 21.9828 12.793 21.9829H22.01Z" fill="#00FFB2" fill-opacity="0.8"/>
<path d="M22.271 15.2798C23.475 15.2798 24.069 16.7428 23.204 17.5818L15.36 25.1898C14.76 25.7708 13.958 26.0968 13.122 26.0968H4.06803C2.86503 26.0968 2.27103 24.6328 3.13503 23.7948L11.098 16.0718C11.6225 15.5631 12.3244 15.2787 13.055 15.2788L22.271 15.2798Z" fill="#00FFB2" fill-opacity="0.8"/>
<path d="M22.01 8.7998C23.214 8.7998 23.807 10.2638 22.943 11.1018L14.98 18.8238C14.4556 19.3325 13.7536 19.6169 13.023 19.6168H3.80701C2.60301 19.6168 2.01001 18.1528 2.87401 17.3148L10.836 9.5928C11.3604 9.08411 12.0624 8.79967 12.793 8.7998H22.01Z" fill="#00FFB2" fill-opacity="0.8"/>
<path d="M42.746 29.088C41.082 29.088 39.65 28.728 38.45 28.008C37.25 27.272 36.322 26.256 35.666 24.96C35.01 23.648 34.682 22.128 34.682 20.4C34.682 18.688 35.01 17.176 35.666 15.864C36.322 14.552 37.25 13.536 38.45 12.816C39.65 12.08 41.082 11.712 42.746 11.712C44.714 11.712 46.314 12.184 47.546 13.128C48.778 14.072 49.562 15.4 49.898 17.112H47.258C47.018 16.12 46.522 15.328 45.77 14.736C45.034 14.144 44.026 13.848 42.746 13.848C41.61 13.848 40.618 14.112 39.77 14.64C38.922 15.168 38.266 15.92 37.802 16.896C37.354 17.872 37.13 19.04 37.13 20.4C37.13 21.76 37.354 22.936 37.802 23.928C38.266 24.904 38.922 25.656 39.77 26.184C40.618 26.696 41.61 26.952 42.746 26.952C44.026 26.952 45.034 26.672 45.77 26.112C46.506 25.536 47.002 24.76 47.258 23.784H49.898C49.562 25.448 48.778 26.752 47.546 27.696C46.314 28.624 44.714 29.088 42.746 29.088ZM52.624 28.8V16.896H54.784L54.976 19.176C55.2368 18.6628 55.5862 18.1997 56.008 17.808C56.424 17.424 56.912 17.128 57.472 16.92C58.048 16.712 58.696 16.608 59.416 16.608V19.128H58.744C58.232 19.128 57.744 19.192 57.28 19.32C56.8413 19.4432 56.4328 19.6556 56.08 19.944C55.744 20.232 55.48 20.632 55.288 21.144C55.112 21.64 55.024 22.264 55.024 23.016V28.8H52.624ZM62.968 34.08L65.944 27.456H65.248L60.472 16.896H63.064L66.88 25.512L70.696 16.896H73.216L65.512 34.08H62.968ZM75.335 34.08V16.896H77.495L77.735 18.768C77.991 18.4 78.311 18.048 78.695 17.712C79.079 17.376 79.535 17.112 80.063 16.92C80.607 16.712 81.239 16.608 81.959 16.608C83.127 16.608 84.143 16.88 85.007 17.424C85.8854 17.9663 86.599 18.738 87.071 19.656C87.567 20.6 87.815 21.672 87.815 22.872C87.815 24.072 87.567 25.144 87.071 26.088C86.5937 26.996 85.8808 27.7587 85.007 28.296C84.127 28.824 83.103 29.088 81.935 29.088C80.991 29.088 80.159 28.904 79.439 28.536C78.739 28.1707 78.1504 27.6235 77.735 26.952V34.08H75.335ZM81.551 27C82.303 27 82.967 26.824 83.543 26.472C84.1148 26.1246 84.5798 25.6264 84.887 25.032C85.223 24.408 85.391 23.68 85.391 22.848C85.391 22.032 85.223 21.312 84.887 20.688C84.5851 20.0837 84.1194 19.5764 83.543 19.224C82.967 18.872 82.303 18.696 81.551 18.696C80.815 18.696 80.151 18.872 79.559 19.224C78.9827 19.5764 78.5169 20.0837 78.215 20.688C77.895 21.312 77.735 22.032 77.735 22.848C77.735 23.664 77.895 24.384 78.215 25.008C78.535 25.632 78.983 26.12 79.559 26.472C80.1622 26.827 80.8512 27.0097 81.551 27ZM95.068 28.8C94.3 28.8 93.636 28.68 93.076 28.44C92.5181 28.2021 92.0601 27.778 91.78 27.24C91.476 26.68 91.324 25.92 91.324 24.96V18.912H89.284V16.896H91.324L91.636 13.92H93.724V16.896H97.132V18.912H93.724V24.984C93.724 25.672 93.868 26.144 94.156 26.4C94.444 26.64 94.94 26.76 95.644 26.76H96.988V28.8H95.068ZM99.902 28.8V16.896H102.302V28.8H99.902ZM101.102 14.544C100.638 14.544 100.254 14.4 99.95 14.112C99.662 13.824 99.518 13.456 99.518 13.008C99.518 12.576 99.662 12.224 99.95 11.952C100.254 11.664 100.638 11.52 101.102 11.52C101.55 11.52 101.926 11.664 102.23 11.952C102.534 12.224 102.686 12.576 102.686 13.008C102.686 13.456 102.534 13.824 102.23 14.112C101.926 14.4 101.55 14.544 101.102 14.544ZM104.51 28.8L108.734 22.848L104.51 16.896H107.126L110.342 21.576L113.558 16.896H116.15L111.926 22.848L116.15 28.8H113.558L110.342 24.12L107.126 28.8H104.51Z" fill="white"/>
</svg>
