<?xml version="1.0" encoding="UTF-8"?>
<svg id="Layer_1" data-name="Layer 1" xmlns="http://www.w3.org/2000/svg" version="1.1" viewBox="0 0 204 70">
  <rect x="5.93" width="192.141" height="70" fill="#ed1c24" stroke-width="0"/>
  <path d="M85.637,17.122v37.989h-7.369V17.122h7.369ZM109.384,16.175h-.196c-5.128.045-10.001,2.045-13.731,5.625-3.73,3.587-5.903,8.362-6.121,13.453-.233,5.482,1.745,10.685,5.565,14.648,3.827,3.97,8.963,6.151,14.475,6.151s11.475-2.278,15.212-5.963v-16.874h-15.934v7.031h8.76v6.181l-.098.06c-2.203,1.444-5.076,2.376-7.956,2.376-3.549,0-6.858-1.414-9.309-3.985-2.444-2.564-3.692-5.925-3.512-9.46.338-6.399,5.647-11.693,12.099-12.054,3.587-.203,7.001,1.256,9.723,3.85.098.09.203.211.331.353l5.113-5.076c-.113-.12-.226-.241-.331-.353-3.632-3.767-8.595-5.971-14.107-5.971h0l.015.008Z" fill="#fff" stroke-width="0"/>
</svg>