<?xml version="1.0" encoding="UTF-8" standalone="no"?><svg width="140" height="140" viewBox="0 0 140 140" fill="none" xmlns="http://www.w3.org/2000/svg">
<circle cx="70" cy="70" r="70" fill="#F4C531"/>
<path d="M96.2016 99.9779C87.9489 99.9779 79.6962 99.9598 71.4435 99.9996C70.152 100.007 69.648 99.9381 69.9812 98.5588C72.0725 89.8342 74.0472 81.0843 76.0093 72.338C76.2176 71.404 76.6384 71.1252 77.7423 71.1288C90.0943 71.165 102.45 71.165 114.802 71.1288C115.898 71.1288 116.327 71.3967 116.54 72.3343C118.514 81.1241 120.51 89.9138 122.597 98.6855C122.893 99.92 122.434 100.003 121.272 99.9996C112.915 99.9707 104.558 99.9851 96.2016 99.9851V99.9779Z" fill="white"/>
<path d="M70.2608 68.8491C62.0081 68.8491 53.7554 68.831 45.5027 68.8708C44.2112 68.8781 43.7072 68.8093 44.0404 67.43C46.1317 58.7054 48.1064 49.9555 50.0685 41.2092C50.2768 40.2752 50.6976 39.9964 51.8016 40C64.1535 40.0362 76.5096 40.0362 88.8616 40C89.9572 40 90.3863 40.2679 90.5988 41.2055C92.5734 49.9953 94.5689 58.7851 96.6561 67.5567C96.9518 68.7912 96.4936 68.8745 95.3313 68.8708C86.9744 68.8419 78.6176 68.8563 70.2608 68.8563V68.8491Z" fill="white"/>
<path d="M44.3202 99.9779C36.0675 99.9779 27.8148 99.9598 19.5621 99.9996C18.2707 100.007 17.7666 99.9381 18.0999 98.5588C20.1912 89.8342 22.1658 81.0843 24.128 72.338C24.3363 71.404 24.757 71.1252 25.861 71.1288C38.213 71.165 50.5691 71.165 62.9211 71.1288C64.0167 71.1288 64.4458 71.3967 64.6582 72.3343C66.6329 81.1241 68.6284 89.9138 70.7155 98.6855C71.0113 99.92 70.553 100.003 69.3907 99.9996C61.0339 99.9707 52.677 99.9851 44.3202 99.9851V99.9779Z" fill="white"/>
</svg>
