<?xml version="1.0" encoding="UTF-8" standalone="no"?><svg width="140" height="140" viewBox="0 0 140 140" fill="none" xmlns="http://www.w3.org/2000/svg">
<circle cx="70" cy="70" r="70" fill="#6481E9"/>
<mask id="mask0_324_15708" style="mask-type:alpha" maskUnits="userSpaceOnUse" x="12" y="12" width="115" height="115">
<rect x="12" y="12" width="115" height="115" fill="#D9D9D9"/>
</mask>
<g mask="url(#mask0_324_15708)">
<path d="M31.1666 79.0833C31.1666 70.6979 33.1632 63.2309 37.1562 56.6823C41.1493 50.1337 45.5416 44.6233 50.3333 40.151C55.125 35.6788 59.5173 32.2648 63.5104 29.9089L69.5 26.375V42.1875C69.5 45.1424 70.4982 47.4783 72.4948 49.1953C74.4913 50.9123 76.7274 51.7708 79.2031 51.7708C80.5607 51.7708 81.8585 51.4913 83.0963 50.9323C84.3342 50.3733 85.4722 49.4549 86.5104 48.1771L88.6666 45.5417C94.4166 48.8958 99.0486 53.5477 102.562 59.4974C106.076 65.447 107.833 71.9757 107.833 79.0833C107.833 86.1111 106.116 92.52 102.682 98.3099C99.2482 104.1 94.7361 108.672 89.1458 112.026C90.5034 110.109 91.5616 108.013 92.3203 105.737C93.079 103.461 93.4583 101.045 93.4583 98.4896C93.4583 95.2951 92.8593 92.2804 91.6614 89.4453C90.4635 86.6102 88.7465 84.0746 86.5104 81.8385L69.5 65.1875L52.6093 81.8385C50.2934 84.1545 48.5364 86.7101 47.3385 89.5052C46.1406 92.3003 45.5416 95.2951 45.5416 98.4896C45.5416 101.045 45.921 103.461 46.6796 105.737C47.4383 108.013 48.4965 110.109 49.8541 112.026C44.2638 108.672 39.7517 104.1 36.3177 98.3099C32.8836 92.52 31.1666 86.1111 31.1666 79.0833ZM69.5 78.6042L79.6823 88.5469C81.0399 89.9045 82.0781 91.4219 82.7968 93.099C83.5156 94.776 83.875 96.5729 83.875 98.4896C83.875 102.403 82.4774 105.737 79.6823 108.492C76.8871 111.247 73.493 112.625 69.5 112.625C65.5069 112.625 62.1128 111.247 59.3177 108.492C56.5225 105.737 55.125 102.403 55.125 98.4896C55.125 96.6528 55.4843 94.8759 56.2031 93.1588C56.9218 91.4418 57.96 89.9045 59.3177 88.5469L69.5 78.6042Z" fill="white"/>
</g>
</svg>
