<?xml version="1.0" encoding="UTF-8" standalone="no"?><svg width="140" height="140" viewBox="0 0 140 140" fill="none" xmlns="http://www.w3.org/2000/svg">
<circle cx="70" cy="70" r="70" fill="#3D1B1B"/>
<mask id="mask0_324_15723" style="mask-type:alpha" maskUnits="userSpaceOnUse" x="14" y="14" width="112" height="112">
<rect x="14" y="14" width="111.767" height="111.767" fill="#D9D9D9"/>
</mask>
<g mask="url(#mask0_324_15723)">
<path d="M71.164 102.482C72.0954 102.404 72.891 102.036 73.5507 101.376C74.2104 100.716 74.5403 99.9206 74.5403 98.9892C74.5403 97.9026 74.191 97.0294 73.4925 96.3697C72.7939 95.71 71.9014 95.4189 70.8147 95.4965C67.6325 95.7294 64.2562 94.8562 60.6859 92.877C57.1156 90.8978 54.8647 87.3081 53.9333 82.1078C53.7781 81.254 53.3706 80.5555 52.7109 80.0122C52.0511 79.4689 51.2944 79.1972 50.4406 79.1972C49.354 79.1972 48.4614 79.6047 47.7629 80.4197C47.0643 81.2346 46.8315 82.1854 47.0643 83.272C48.3838 90.3351 51.4884 95.3801 56.3782 98.4071C61.268 101.434 66.1966 102.792 71.164 102.482ZM69.8834 116.453C59.25 116.453 50.3824 112.805 43.2806 105.509C36.1787 98.2131 32.6278 89.132 32.6278 78.2658C32.6278 70.5043 35.713 62.0636 41.8835 52.9437C48.0539 43.8239 57.3872 33.9473 69.8834 23.3139C82.3795 33.9473 91.7128 43.8239 97.8832 52.9437C104.054 62.0636 107.139 70.5043 107.139 78.2658C107.139 89.132 103.588 98.2131 96.4861 105.509C89.3843 112.805 80.5167 116.453 69.8834 116.453Z" fill="white"/>
</g>
</svg>
