<svg width="197" height="26" viewBox="0 0 197 26" fill="none" xmlns="http://www.w3.org/2000/svg">
<path d="M0 0.988281H17.4227V5.78411H12.5229H10.7683H6.60729V10.602H17.4187V15.4037H6.61667V20.1956H24.0231V25.0114H0V0.988281Z" fill="#088A7E"/>
<path d="M17.4157 0.988281H24.0237V10.6997V20.1956H6.61211V15.4017H17.4157V10.602H6.60742V5.78401H17.4157V0.988281Z" fill="#4FD1C5"/>
<path d="M47.3209 10.2813V7.54031H33.1367V20.9577H47.3209V18.2167H36.5869V15.4949H47.3209V13.0031H36.5869V10.2813H47.3209Z" fill="#001A38"/>
<path d="M64.2395 20.9577H68.0539L61.1152 7.54031H56.4574L49.5379 20.9577H53.3331L54.7707 18.1017H62.802L64.2395 20.9577ZM56.0549 15.5333L58.7959 10.0896L61.5177 15.5333H56.0549Z" fill="#001A38"/>
<path d="M85.7079 12.4664C85.7079 9.47625 83.6186 7.54031 80.5709 7.54031H70.0286V20.9577H73.4788V17.3734H79.0375L81.2034 20.9577H85.267L82.7944 16.9708C84.5961 16.2616 85.7079 14.6515 85.7079 12.4664ZM73.4788 10.4346H79.6125C80.6476 10.4346 82.2577 10.4346 82.2577 12.4664C82.2577 14.479 80.6476 14.479 79.6125 14.479H73.4788V10.4346Z" fill="#001A38"/>
<path d="M101.827 7.54031V17.6225L92.6649 7.54031H87.9879V20.9577H91.4381V10.8947L100.581 20.9577H105.277V7.54031H101.827Z" fill="#001A38"/>
<path d="M122.153 10.4346V7.54031H107.969V20.9577H111.419V16.76H121.003V13.8465H111.419V10.4346H122.153Z" fill="#001A38"/>
<path d="M132.261 21.1494C138.145 21.1494 140.695 18.6768 140.695 14.2299C140.695 9.8021 138.145 7.34863 132.261 7.34863C126.357 7.34863 123.827 9.78294 123.827 14.2299C123.827 18.6959 126.357 21.1494 132.261 21.1494ZM132.261 18.2551C128.677 18.2551 127.277 16.99 127.277 14.2299C127.277 11.4889 128.657 10.243 132.261 10.243C135.864 10.243 137.245 11.508 137.245 14.2299C137.245 16.9708 135.845 18.2551 132.261 18.2551Z" fill="#001A38"/>
<path d="M158.78 12.4664C158.78 9.47625 156.691 7.54031 153.643 7.54031H143.101V20.9577H146.551V17.3734H152.11L154.276 20.9577H158.34L155.867 16.9708C157.669 16.2616 158.78 14.6515 158.78 12.4664ZM146.551 10.4346H152.685C153.72 10.4346 155.33 10.4346 155.33 12.4664C155.33 14.479 153.72 14.479 152.685 14.479H146.551V10.4346Z" fill="#001A38"/>
<path d="M175.245 10.2813V7.54031H161.06V20.9577H175.245V18.2167H164.511V15.4949H175.245V13.0031H164.511V10.2813H175.245Z" fill="#001A38"/>
<path d="M177.218 20.9577H181.972L187.109 16.3575L192.227 20.9577H196.999L189.447 14.249L196.999 7.54031H192.227L187.109 12.1406L181.972 7.54031H177.218L184.77 14.249L177.218 20.9577Z" fill="#001A38"/>
</svg>
