<svg width="1600" height="732" viewBox="0 0 1600 732" fill="none" xmlns="http://www.w3.org/2000/svg">
<mask id="mask0_160_14396" style="mask-type:alpha" maskUnits="userSpaceOnUse" x="-261" y="18" width="2266" height="1034">
<mask id="mask1_160_14396" style="mask-type:luminance" maskUnits="userSpaceOnUse" x="-192" y="18" width="2190" height="621">
<path d="M-191.784 429.056L-128.875 430.765L220.985 18.0517C506.94 66.005 792.917 113.825 1078.92 161.511L797.331 635.831L1512.63 398.589L1997.86 242.348L1997.62 244.294L1997.5 244.195L1513.14 400.154L793.676 638.765L1076.28 162.75L221.636 19.8307L-128.125 432.432C-149.42 431.871 -170.711 431.302 -191.997 430.725L-191.784 429.056Z" fill="white"/>
</mask>
<g mask="url(#mask1_160_14396)">
<path d="M1997.86 242.348L-133.186 -29.7988L-202.323 511.583L1928.73 783.73L1997.86 242.348Z" fill="url(#paint0_linear_160_14396)"/>
</g>
<mask id="mask2_160_14396" style="mask-type:luminance" maskUnits="userSpaceOnUse" x="-196" y="40" width="2195" height="609">
<path d="M-195.669 459.476L-103.528 460.063L237.691 40.1844C524.516 82.5054 811.428 124.369 1098.43 165.776L826.754 645.839L1536.97 393.789L1998.88 234.392L1998.65 236.219L1537.51 395.348L823.155 648.867L1095.81 167.06L238.38 41.9372L-102.743 461.72L-195.887 461.184L-195.669 459.476Z" fill="white"/>
</mask>
<g mask="url(#mask2_160_14396)">
<path d="M1998.88 234.392L-132.169 -37.7554L-203.118 517.806L1927.93 789.953L1998.88 234.392Z" fill="url(#paint1_linear_160_14396)"/>
</g>
<mask id="mask3_160_14396" style="mask-type:luminance" maskUnits="userSpaceOnUse" x="-200" y="62" width="2200" height="597">
<path d="M-199.696 491.015L-77.9335 489.261L254.485 62.3728C542.15 98.5955 829.869 134.493 1117.64 170.065L856.01 655.666L1560.83 388.918L1999.8 227.155L1999.57 229.003L1561.41 390.466L852.467 658.772L1115.05 171.415L255.224 64.1227L-77.1185 490.9C-118.047 491.534 -158.981 492.163 -199.923 492.787L-199.696 491.015Z" fill="white"/>
</mask>
<g mask="url(#mask3_160_14396)">
<path d="M1999.81 227.151L-131.245 -44.9956L-203.892 523.869L1927.16 796.016L1999.81 227.151Z" fill="url(#paint2_linear_160_14396)"/>
</g>
<mask id="mask4_160_14396" style="mask-type:luminance" maskUnits="userSpaceOnUse" x="-205" y="84" width="2206" height="585">
<path d="M-203.87 523.695L-52.1087 518.351L271.367 84.6577C559.748 114.752 848.15 144.664 1136.57 174.395L885.087 665.323L1584.21 383.983L2000.64 220.623L2000.4 222.484L1584.82 385.511L881.613 668.491L1134.01 175.773L272.127 86.3825L-51.2632 519.969C-102.199 521.753 -153.138 523.542 -204.079 525.336L-203.87 523.695Z" fill="white"/>
</mask>
<g mask="url(#mask4_160_14396)">
<path d="M2000.64 220.623L-130.411 -51.5239L-204.646 529.769L1926.4 801.916L2000.64 220.623Z" fill="url(#paint3_linear_160_14396)"/>
</g>
<mask id="mask5_160_14396" style="mask-type:luminance" maskUnits="userSpaceOnUse" x="-209" y="106" width="2211" height="573">
<path d="M-208.191 557.532L-26.0619 547.327L288.334 106.995C577.283 131.045 866.245 154.959 1155.22 178.738L913.987 674.791L1607.11 378.992L2001.38 214.793L2001.14 216.677L1607.76 380.507L910.578 678.035L1152.69 180.182L289.139 108.716L-25.1589 548.931C-86.2515 552.383 -147.337 555.833 -208.414 559.28L-208.191 557.532Z" fill="white"/>
</mask>
<g mask="url(#mask5_160_14396)">
<path d="M2001.38 214.793L-129.667 -57.3545L-208.414 559.277L1922.64 831.424L2001.38 214.793Z" fill="url(#paint4_linear_160_14396)"/>
</g>
<mask id="mask6_160_14396" style="mask-type:luminance" maskUnits="userSpaceOnUse" x="-213" y="129" width="2216" height="559">
<path d="M-212.664 592.557L0.216486 576.188L305.396 129.417C594.757 147.785 884.154 165.69 1173.59 183.132L942.712 684.088L1629.52 373.953L2002.04 209.659L2001.8 211.571L1630.22 375.471L939.362 687.417L1171.08 184.632L306.224 131.123L1.12869 577.768C-70.2063 583.382 -141.55 588.932 -212.902 594.42L-212.664 592.557Z" fill="white"/>
</mask>
<g mask="url(#mask6_160_14396)">
<path d="M2002.04 209.659L-129.011 -62.4883L-212.9 594.411L1918.15 866.558L2002.04 209.659Z" fill="url(#paint5_linear_160_14396)"/>
</g>
<mask id="mask7_160_14396" style="mask-type:luminance" maskUnits="userSpaceOnUse" x="-218" y="151" width="2221" height="546">
<path d="M-217.292 628.797L26.7121 604.922L322.544 151.917C612.217 164.257 901.923 176.146 1191.66 187.585L971.245 693.235L1651.48 368.886L2002.6 205.232L2002.36 207.166L1652.19 370.396L967.973 696.611L1189.19 189.126L323.413 153.6L27.6601 606.488C-54.0607 614.58 -135.792 622.648 -217.534 630.693L-217.292 628.797Z" fill="white"/>
</mask>
<g mask="url(#mask7_160_14396)">
<path d="M2002.61 205.219L-128.444 -66.9277L-217.534 630.693L1913.52 902.84L2002.61 205.219Z" fill="url(#paint6_linear_160_14396)"/>
</g>
<mask id="mask8_160_14396" style="mask-type:luminance" maskUnits="userSpaceOnUse" x="-223" y="174" width="2227" height="532">
<path d="M-222.079 666.278L53.4334 633.532L339.79 174.471C629.67 180.515 919.562 186.384 1209.46 192.08L999.598 702.184L1672.95 363.788L2003.08 201.474L2002.83 203.435L1673.69 365.263L996.392 705.645L1207.02 193.68L340.688 176.139L54.4089 635.077C-37.8223 646.056 -130.056 657.016 -222.293 667.959L-222.079 666.278Z" fill="white"/>
</mask>
<g mask="url(#mask8_160_14396)">
<path d="M2003.08 201.474L-127.966 -70.6729L-222.293 667.959L1908.76 940.106L2003.08 201.474Z" fill="url(#paint7_linear_160_14396)"/>
</g>
<mask id="mask9_160_14396" style="mask-type:luminance" maskUnits="userSpaceOnUse" x="-228" y="196" width="2232" height="519">
<path d="M-227.029 705.042L80.3669 662.013L357.126 197.1C647.071 197.115 937.025 196.959 1226.99 196.63L1027.76 710.994L1693.93 358.679L2003.47 198.418L2003.22 200.403L1694.7 360.136L1024.62 714.515L1224.57 198.277L358.058 198.747L81.3829 663.532C-21.5046 677.894 -124.385 692.332 -227.259 706.844L-227.029 705.042Z" fill="white"/>
</mask>
<g mask="url(#mask9_160_14396)">
<path d="M2003.47 198.418L-127.575 -73.7295L-227.259 706.844L1903.79 978.991L2003.47 198.418Z" fill="url(#paint8_linear_160_14396)"/>
</g>
<mask id="mask10_160_14396" style="mask-type:luminance" maskUnits="userSpaceOnUse" x="-233" y="196" width="2237" height="552">
<path d="M-232.147 745.12L107.522 690.354L374.562 219.79C664.444 214.031 954.328 207.851 1244.21 201.249L1055.72 719.64L1714.44 353.562L2003.78 196.051L2003.52 198.067L1715.23 355.003L1052.67 723.239L1241.84 202.948L375.53 221.42L108.562 691.854C-5.07843 710.246 -118.725 728.638 -232.378 747.028L-232.147 745.12Z" fill="white"/>
</mask>
<g mask="url(#mask10_160_14396)">
<path d="M2003.78 196.051L-127.273 -76.0957L-232.39 747.026L1898.66 1019.17L2003.78 196.051Z" fill="url(#paint9_linear_160_14396)"/>
</g>
<mask id="mask11_160_14396" style="mask-type:luminance" maskUnits="userSpaceOnUse" x="-238" y="194" width="2242" height="595">
<path d="M-237.438 786.549L134.885 718.551L392.09 242.542C681.784 230.395 971.478 218.194 1261.17 205.94L1083.49 728.141L1734.47 348.452L2003.99 194.38L2003.73 196.429L1735.28 349.88L1080.51 731.786L1258.84 207.691L393.094 244.152L135.959 720.047C11.4296 742.901 -113.116 765.693 -237.677 788.421L-237.438 786.549Z" fill="white"/>
</mask>
<g mask="url(#mask11_160_14396)">
<path d="M2003.99 194.38L-127.06 -77.7671L-237.677 788.421L1893.37 1060.57L2003.99 194.38Z" fill="url(#paint10_linear_160_14396)"/>
</g>
<mask id="mask12_160_14396" style="mask-type:luminance" maskUnits="userSpaceOnUse" x="-244" y="193" width="2249" height="639">
<path d="M-242.907 829.38L162.459 746.612L409.719 265.365C699.092 247.081 988.469 228.863 1277.85 210.71L1111.06 736.486C1408.74 554.465 1706.41 373.542 2004.08 193.716L2003.85 195.488L1754.85 344.772L1108.15 740.19L1275.55 212.508L410.758 266.949L163.564 748.068C28.0457 776.003 -107.531 803.765 -243.166 831.355L-242.907 829.38Z" fill="white"/>
</mask>
<g mask="url(#mask12_160_14396)">
<path d="M2004.08 193.716L-126.975 -78.4307L-243.159 831.353L1887.89 1103.5L2004.08 193.716Z" fill="url(#paint11_linear_160_14396)"/>
</g>
<mask id="mask13_160_14396" style="mask-type:luminance" maskUnits="userSpaceOnUse" x="-249" y="193" width="2254" height="683">
<path d="M-248.562 873.655L190.239 774.519L427.435 288.237C716.395 264.351 1005.34 240.125 1294.26 215.559L1138.43 744.688L1773.05 338.284L2004.15 193.126L2003.88 195.257L1773.94 339.688L1135.6 748.457L1291.99 217.405L428.516 289.805L191.374 775.955C44.679 809.221 -102.043 842.388 -248.792 875.457L-248.562 873.655Z" fill="white"/>
</mask>
<g mask="url(#mask13_160_14396)">
<path d="M2004.15 193.126L-126.899 -79.0215L-248.793 875.47L1882.26 1147.62L2004.15 193.126Z" fill="url(#paint12_linear_160_14396)"/>
</g>
<mask id="mask14_160_14396" style="mask-type:luminance" maskUnits="userSpaceOnUse" x="-255" y="193" width="2260" height="729">
<path d="M-254.407 919.425L218.227 802.277L445.275 311.159C733.668 281.209 1022.04 250.989 1310.39 220.497L1165.58 752.751C1445.06 565.481 1724.55 379.229 2004.04 193.997L2003.82 195.708L1792.54 334.624L1162.83 756.574L1308.18 222.381L446.379 312.714L219.387 803.685C61.3728 842.876 -96.6422 882.111 -254.658 921.389L-254.407 919.425Z" fill="white"/>
</mask>
<g mask="url(#mask14_160_14396)">
<path d="M2004.04 193.997L-127.011 -78.1504L-254.657 921.383L1876.39 1193.53L2004.04 193.997Z" fill="url(#paint13_linear_160_14396)"/>
</g>
<mask id="mask15_160_14396" style="mask-type:luminance" maskUnits="userSpaceOnUse" x="-261" y="194" width="2265" height="775">
<path d="M-260.45 966.744L246.403 829.873L463.195 334.158C750.89 298.075 1038.57 261.865 1326.24 225.529L1192.53 760.673L1809.72 328.259L2003.95 194.7L2003.67 196.889L1810.67 329.605L1189.86 764.559L1324.05 227.475L464.341 335.675L247.595 831.272C78.1818 877.043 -91.2412 922.786 -260.674 968.501L-260.45 966.744Z" fill="white"/>
</mask>
<g mask="url(#mask15_160_14396)">
<path d="M2003.95 194.7L-127.101 -77.4473L-260.674 968.501L1870.38 1240.65L2003.95 194.7Z" fill="url(#paint14_linear_160_14396)"/>
</g>
<mask id="mask16_160_14396" style="mask-type:luminance" maskUnits="userSpaceOnUse" x="-188" y="197" width="2192" height="796">
<path d="M-187.347 992.465L274.782 857.309L481.237 357.192C768.151 315.439 1055.02 273.261 1341.84 230.659L1219.26 768.468C1480.68 577.109 1742.13 386.74 2003.61 197.361L2003.43 198.804L1828.32 324.668L1216.68 772.403L1339.69 232.653L482.405 358.691L276.008 858.666C122.93 903.464 -30.1536 948.238 -183.242 992.989L-187.347 992.465Z" fill="white"/>
</mask>
<g mask="url(#mask16_160_14396)">
<path d="M2003.61 197.361L-52.2783 -65.1875L-187.347 992.465L1868.54 1255.01L2003.61 197.361Z" fill="url(#paint15_linear_160_14396)"/>
</g>
<mask id="mask17_160_14396" style="mask-type:luminance" maskUnits="userSpaceOnUse" x="-82" y="199" width="2086" height="808">
<path d="M-81.7526 1005.95L303.355 884.578L499.377 380.282C785.351 332.478 1071.28 284.349 1357.16 235.896L1245.79 776.136L1844.49 318.45L2003.38 199.179L2003.09 201.456L1845.48 319.777L1243.28 780.124L1355.06 237.924L500.563 381.755L304.608 885.914C177.225 926.133 49.8289 966.323 -77.5812 1006.48L-81.7526 1005.95Z" fill="white"/>
</mask>
<g mask="url(#mask17_160_14396)">
<path d="M2003.38 199.176L53.084 -49.8877L-81.7525 1005.95L1868.54 1255.01L2003.38 199.176Z" fill="url(#paint16_linear_160_14396)"/>
</g>
<mask id="mask18_160_14396" style="mask-type:luminance" maskUnits="userSpaceOnUse" x="16" y="202" width="1987" height="817">
<path d="M16.3058 1018.47L332.12 911.68L517.618 403.428C802.489 349.383 1087.36 295.322 1372.22 241.244L1272.09 783.678L1861.15 313.657L2002.95 202.534L2002.65 204.86L1862.19 314.944L1269.67 787.721L1370.16 243.312L518.846 404.866L333.396 912.982C228.912 948.339 124.409 983.652 19.8877 1018.92L16.3058 1018.47Z" fill="white"/>
</mask>
<g mask="url(#mask18_160_14396)">
<path d="M2002.95 202.534L150.713 -34.0068L16.3058 1018.47L1868.54 1255.01L2002.95 202.534Z" fill="url(#paint17_linear_160_14396)"/>
</g>
<mask id="mask19_160_14396" style="mask-type:luminance" maskUnits="userSpaceOnUse" x="107" y="207" width="1896" height="824">
<path d="M107.802 1030.16L361.067 938.61L535.967 426.604C819.692 366.848 1103.38 306.883 1387.02 246.709L1298.18 791.108C1532.85 595.741 1767.56 401.213 2002.31 207.525L2002.12 209.047L1878.41 310.218L1295.85 795.194L1385 248.815L537.221 428.026L362.37 939.891C278.83 970.175 195.275 1000.43 111.705 1030.66L107.802 1030.16Z" fill="white"/>
</mask>
<g mask="url(#mask19_160_14396)">
<path d="M2002.31 207.525L241.573 -17.3315L107.802 1030.16L1868.54 1255.01L2002.31 207.525Z" fill="url(#paint18_linear_160_14396)"/>
</g>
<mask id="mask20_160_14396" style="mask-type:luminance" maskUnits="userSpaceOnUse" x="193" y="211" width="1809" height="831">
<path d="M193.527 1041.11L390.202 965.342L554.426 449.815C836.776 383.864 1119.15 318.013 1401.55 252.263L1324.05 798.433L1893.09 304.328L2001.79 211.581L2001.48 214.017L1894.15 305.568L1321.8 802.541L1399.58 254.431L555.707 451.222L391.528 966.613C326.656 991.581 261.796 1016.56 196.949 1041.54L193.527 1041.11Z" fill="white"/>
</mask>
<g mask="url(#mask20_160_14396)">
<path d="M2001.79 211.581L326.779 -2.32812L193.527 1041.11L1868.54 1255.01L2001.79 211.581Z" fill="url(#paint19_linear_160_14396)"/>
</g>
<mask id="mask21_160_14396" style="mask-type:luminance" maskUnits="userSpaceOnUse" x="274" y="217" width="1728" height="835">
<path d="M274.163 1051.4L419.51 991.924L572.989 473.085C854.019 401.767 1134.96 330.072 1415.82 257.999L1349.68 805.631L1908.32 299.815L2001.06 217.31L2000.74 219.801L1909.43 301.042L1347.52 809.808L1413.9 260.195L574.299 474.465L420.862 993.158C373.18 1012.76 325.488 1032.33 277.789 1051.87L274.163 1051.4Z" fill="white"/>
</mask>
<g mask="url(#mask21_160_14396)">
<path d="M2001.06 217.31L406.684 13.6992L274.164 1051.4L1868.54 1255.01L2001.06 217.31Z" fill="url(#paint20_linear_160_14396)"/>
</g>
</mask>
<g mask="url(#mask0_160_14396)">
<rect x="-108" width="1803" height="747" fill="#D9D9D9"/>
<rect x="-108" width="1803" height="747" fill="url(#paint21_radial_160_14396)"/>
</g>
<defs>
<linearGradient id="paint0_linear_160_14396" x1="-323.832" y1="769.441" x2="2102.04" y2="-9.94138" gradientUnits="userSpaceOnUse">
<stop stop-color="#0049E6"/>
<stop offset="0.42" stop-color="#39D4FF"/>
<stop offset="1" stop-color="#FF00E9"/>
</linearGradient>
<linearGradient id="paint1_linear_160_14396" x1="-324.077" y1="768.688" x2="2101.79" y2="-10.6942" gradientUnits="userSpaceOnUse">
<stop stop-color="#0049E6"/>
<stop offset="0.42" stop-color="#39D4FF"/>
<stop offset="1" stop-color="#FF00E9"/>
</linearGradient>
<linearGradient id="paint2_linear_160_14396" x1="-324.237" y1="768.179" x2="2101.64" y2="-11.2088" gradientUnits="userSpaceOnUse">
<stop stop-color="#0049E6"/>
<stop offset="0.42" stop-color="#39D4FF"/>
<stop offset="1" stop-color="#FF00E9"/>
</linearGradient>
<linearGradient id="paint3_linear_160_14396" x1="-324.326" y1="767.905" x2="2101.54" y2="-11.4809" gradientUnits="userSpaceOnUse">
<stop stop-color="#0049E6"/>
<stop offset="0.42" stop-color="#39D4FF"/>
<stop offset="1" stop-color="#FF00E9"/>
</linearGradient>
<linearGradient id="paint4_linear_160_14396" x1="-321.021" y1="778.199" x2="2104.85" y2="-1.18691" gradientUnits="userSpaceOnUse">
<stop stop-color="#0049E6"/>
<stop offset="0.42" stop-color="#39D4FF"/>
<stop offset="1" stop-color="#FF00E9"/>
</linearGradient>
<linearGradient id="paint5_linear_160_14396" x1="-316.831" y1="791.235" x2="2109.03" y2="11.8518" gradientUnits="userSpaceOnUse">
<stop stop-color="#0049E6"/>
<stop offset="0.42" stop-color="#39D4FF"/>
<stop offset="1" stop-color="#FF00E9"/>
</linearGradient>
<linearGradient id="paint6_linear_160_14396" x1="-312.385" y1="805.075" x2="2113.47" y2="25.6944" gradientUnits="userSpaceOnUse">
<stop stop-color="#0049E6"/>
<stop offset="0.42" stop-color="#39D4FF"/>
<stop offset="1" stop-color="#FF00E9"/>
</linearGradient>
<linearGradient id="paint7_linear_160_14396" x1="-307.703" y1="819.641" x2="2118.16" y2="40.2582" gradientUnits="userSpaceOnUse">
<stop stop-color="#0049E6"/>
<stop offset="0.42" stop-color="#39D4FF"/>
<stop offset="1" stop-color="#FF00E9"/>
</linearGradient>
<linearGradient id="paint8_linear_160_14396" x1="-302.701" y1="835.214" x2="2123.17" y2="55.8293" gradientUnits="userSpaceOnUse">
<stop stop-color="#0049E6"/>
<stop offset="0.42" stop-color="#39D4FF"/>
<stop offset="1" stop-color="#FF00E9"/>
</linearGradient>
<linearGradient id="paint9_linear_160_14396" x1="-297.42" y1="851.652" x2="2128.45" y2="72.2664" gradientUnits="userSpaceOnUse">
<stop stop-color="#0049E6"/>
<stop offset="0.42" stop-color="#39D4FF"/>
<stop offset="1" stop-color="#FF00E9"/>
</linearGradient>
<linearGradient id="paint10_linear_160_14396" x1="-291.876" y1="868.915" x2="2133.99" y2="89.5322" gradientUnits="userSpaceOnUse">
<stop stop-color="#0049E6"/>
<stop offset="0.42" stop-color="#39D4FF"/>
<stop offset="1" stop-color="#FF00E9"/>
</linearGradient>
<linearGradient id="paint11_linear_160_14396" x1="-285.973" y1="887.289" x2="2139.89" y2="107.904" gradientUnits="userSpaceOnUse">
<stop stop-color="#0049E6"/>
<stop offset="0.42" stop-color="#39D4FF"/>
<stop offset="1" stop-color="#FF00E9"/>
</linearGradient>
<linearGradient id="paint12_linear_160_14396" x1="-279.894" y1="906.202" x2="2145.97" y2="126.82" gradientUnits="userSpaceOnUse">
<stop stop-color="#0049E6"/>
<stop offset="0.42" stop-color="#39D4FF"/>
<stop offset="1" stop-color="#FF00E9"/>
</linearGradient>
<linearGradient id="paint13_linear_160_14396" x1="-273.365" y1="926.538" x2="2152.49" y2="147.157" gradientUnits="userSpaceOnUse">
<stop stop-color="#0049E6"/>
<stop offset="0.42" stop-color="#39D4FF"/>
<stop offset="1" stop-color="#FF00E9"/>
</linearGradient>
<linearGradient id="paint14_linear_160_14396" x1="-267.406" y1="947.552" x2="2158.46" y2="168.169" gradientUnits="userSpaceOnUse">
<stop stop-color="#0049E6"/>
<stop offset="0.42" stop-color="#39D4FF"/>
<stop offset="1" stop-color="#FF00E9"/>
</linearGradient>
<linearGradient id="paint15_linear_160_14396" x1="-259.391" y1="970.014" x2="2166.48" y2="190.629" gradientUnits="userSpaceOnUse">
<stop stop-color="#0049E6"/>
<stop offset="0.42" stop-color="#39D4FF"/>
<stop offset="1" stop-color="#FF00E9"/>
</linearGradient>
<linearGradient id="paint16_linear_160_14396" x1="-252.238" y1="992.292" x2="2173.63" y2="212.909" gradientUnits="userSpaceOnUse">
<stop stop-color="#0049E6"/>
<stop offset="0.42" stop-color="#39D4FF"/>
<stop offset="1" stop-color="#FF00E9"/>
</linearGradient>
<linearGradient id="paint17_linear_160_14396" x1="-245.355" y1="1013.71" x2="2180.5" y2="234.322" gradientUnits="userSpaceOnUse">
<stop stop-color="#0049E6"/>
<stop offset="0.42" stop-color="#39D4FF"/>
<stop offset="1" stop-color="#FF00E9"/>
</linearGradient>
<linearGradient id="paint18_linear_160_14396" x1="-238.68" y1="1034.49" x2="2187.19" y2="255.108" gradientUnits="userSpaceOnUse">
<stop stop-color="#0049E6"/>
<stop offset="0.42" stop-color="#39D4FF"/>
<stop offset="1" stop-color="#FF00E9"/>
</linearGradient>
<linearGradient id="paint19_linear_160_14396" x1="-232.508" y1="1053.7" x2="2193.35" y2="274.319" gradientUnits="userSpaceOnUse">
<stop stop-color="#0049E6"/>
<stop offset="0.42" stop-color="#39D4FF"/>
<stop offset="1" stop-color="#FF00E9"/>
</linearGradient>
<linearGradient id="paint20_linear_160_14396" x1="-226.436" y1="1072.6" x2="2199.43" y2="293.216" gradientUnits="userSpaceOnUse">
<stop stop-color="#0049E6"/>
<stop offset="0.42" stop-color="#39D4FF"/>
<stop offset="1" stop-color="#FF00E9"/>
</linearGradient>
<radialGradient id="paint21_radial_160_14396" cx="0" cy="0" r="1" gradientUnits="userSpaceOnUse" gradientTransform="translate(1620 577.666) rotate(-156.8) scale(1198.41 4362.25)">
<stop stop-color="#85A1E8"/>
<stop offset="1" stop-color="#ECF5FD"/>
</radialGradient>
</defs>
</svg>
