<svg width="256" height="256" viewBox="0 0 256 256" fill="none" xmlns="http://www.w3.org/2000/svg">
  <rect width="256" height="256" rx="16" fill="url(#gradient)"/>
  <defs>
    <linearGradient id="gradient" x1="0%" y1="0%" x2="100%" y2="100%">
      <stop offset="0%" style="stop-color:#3B82F6;stop-opacity:1" />
      <stop offset="100%" style="stop-color:#8B5CF6;stop-opacity:1" />
    </linearGradient>
  </defs>
  
  <!-- Building/Financial Icon -->
  <g transform="translate(64, 64)">
    <!-- Main building -->
    <rect x="32" y="32" width="64" height="96" fill="white" opacity="0.9" rx="4"/>
    
    <!-- Windows -->
    <rect x="40" y="48" width="8" height="8" fill="#3B82F6" opacity="0.7"/>
    <rect x="56" y="48" width="8" height="8" fill="#3B82F6" opacity="0.7"/>
    <rect x="72" y="48" width="8" height="8" fill="#3B82F6" opacity="0.7"/>
    
    <rect x="40" y="64" width="8" height="8" fill="#3B82F6" opacity="0.7"/>
    <rect x="56" y="64" width="8" height="8" fill="#3B82F6" opacity="0.7"/>
    <rect x="72" y="64" width="8" height="8" fill="#3B82F6" opacity="0.7"/>
    
    <rect x="40" y="80" width="8" height="8" fill="#3B82F6" opacity="0.7"/>
    <rect x="56" y="80" width="8" height="8" fill="#3B82F6" opacity="0.7"/>
    <rect x="72" y="80" width="8" height="8" fill="#3B82F6" opacity="0.7"/>
    
    <rect x="40" y="96" width="8" height="8" fill="#3B82F6" opacity="0.7"/>
    <rect x="56" y="96" width="8" height="8" fill="#3B82F6" opacity="0.7"/>
    <rect x="72" y="96" width="8" height="8" fill="#3B82F6" opacity="0.7"/>
    
    <!-- Side buildings -->
    <rect x="8" y="56" width="20" height="72" fill="white" opacity="0.7" rx="2"/>
    <rect x="100" y="48" width="20" height="80" fill="white" opacity="0.7" rx="2"/>
    
    <!-- Chart/Graph overlay -->
    <polyline points="16,100 32,88 48,92 64,76 80,80 96,68 112,72" 
              stroke="#10B981" stroke-width="3" fill="none" opacity="0.8"/>
    
    <!-- Dollar sign -->
    <text x="64" y="20" font-family="Arial, sans-serif" font-size="16" font-weight="bold" 
          fill="white" text-anchor="middle">$</text>
  </g>
</svg>