<?xml version="1.0" encoding="UTF-8" standalone="no"?><svg width="12" height="12" viewBox="0 0 12 12" fill="none" xmlns="http://www.w3.org/2000/svg">
<path d="M8.16699 3.33317C8.16699 4.53036 7.19752 5.49984 6.00033 5.49984C4.80313 5.49984 3.83366 4.53036 3.83366 3.33317C3.83366 2.13598 4.80313 1.1665 6.00033 1.1665C7.19752 1.1665 8.16699 2.13598 8.16699 3.33317ZM1.16699 9.99984C1.16699 9.74015 1.29311 9.47568 1.58913 9.20247C1.88854 8.92613 2.32719 8.67592 2.85209 8.46565C3.9027 8.04477 5.17283 7.83317 6.00033 7.83317C6.82782 7.83317 8.09795 8.04477 9.14856 8.46565C9.67346 8.67592 10.1121 8.92613 10.4115 9.20247C10.7075 9.47568 10.8337 9.74015 10.8337 9.99984V10.6665C10.8337 10.757 10.7575 10.8332 10.667 10.8332H1.33366C1.24313 10.8332 1.16699 10.757 1.16699 10.6665V9.99984Z" stroke="white"/>
</svg>
