<?xml version="1.0" encoding="UTF-8" standalone="no"?><svg width="15" height="15" viewBox="0 0 15 15" fill="none" xmlns="http://www.w3.org/2000/svg">
<path d="M10.8137 9.55964H10.1553L9.92201 9.33464C10.922 8.16797 11.4387 6.57631 11.1553 4.88464C10.7637 2.56798 8.83034 0.717977 6.49701 0.434644C2.97201 0.00131083 0.00533903 2.96798 0.438672 6.49298C0.722006 8.82631 2.57201 10.7596 4.88867 11.1513C6.58034 11.4346 8.17201 10.918 9.33867 9.91798L9.56367 10.1513V10.8096L13.1053 14.3513C13.447 14.693 14.0053 14.693 14.347 14.3513C14.6887 14.0096 14.6887 13.4513 14.347 13.1096L10.8137 9.55964ZM5.81367 9.55964C3.73867 9.55964 2.06367 7.88464 2.06367 5.80964C2.06367 3.73464 3.73867 2.05964 5.81367 2.05964C7.88867 2.05964 9.56367 3.73464 9.56367 5.80964C9.56367 7.88464 7.88867 9.55964 5.81367 9.55964Z" fill="#FEFEFE"/>
</svg>
