<?xml version="1.0" encoding="UTF-8" standalone="no"?><svg width="138" height="20" viewBox="0 0 138 20" fill="none" xmlns="http://www.w3.org/2000/svg">
<g clip-path="url(#clip0_83_1076)">
<path d="M91.4831 5.84621C91.4831 6.38467 91.328 6.84621 91.0179 7.30774C90.6303 7.76928 90.2426 8.00005 89.6999 8.23082C89.1572 8.38467 88.0718 8.53851 86.5988 8.53851L83.4977 8.46159V3.1539H86.8314C88.3044 3.1539 89.3123 3.30774 89.855 3.46159C90.3977 3.61544 90.8629 3.92313 91.173 4.38467C91.2505 4.84621 91.4831 5.30774 91.4831 5.84621ZM93.4213 2.61544C92.5685 1.76928 91.4055 1.1539 90.0876 0.846206C89.0797 0.692359 87.4516 0.538513 84.8932 0.538513H80.0089V19.6154H83.3426V11.2308H84.3505C87.064 11.2308 88.9246 11.077 90.01 10.9231C91.4831 10.6154 92.646 10.077 93.4988 9.1539C94.3516 8.30774 94.8168 7.1539 94.8168 5.84621C94.8168 4.61544 94.3516 3.46159 93.4213 2.61544Z" fill="#FEFEFE"/>
<path d="M97.4528 0.538513V1.00005V19.6154H100.786V0.538513H97.4528Z" fill="#FEFEFE"/>
<path d="M35.8179 0.538513V19.6154H49.3853V16.9231H39.0741V11.3077H49.4628V8.61544H39.0741V3.23082H49.4628V0.538513H35.8179Z" fill="#FEFEFE"/>
<path d="M123.89 0.538513V19.6154H137.38V16.9231H127.146V11.3077H137.457V8.61544H127.146V3.23082H137.457V0.538513H123.89Z" fill="#FEFEFE"/>
<path d="M107.376 8.53849V3.2308H110.71C112.183 3.2308 113.191 3.38464 113.734 3.53849C114.276 3.69234 114.741 4.00003 115.052 4.46157C115.439 4.9231 115.517 5.38464 115.517 5.84618C115.517 6.38464 115.362 6.84618 115.052 7.30772C114.664 7.76926 114.276 8.00003 113.734 8.2308C113.191 8.38464 112.105 8.53849 110.632 8.53849H107.376ZM115.052 10.6154C115.052 10.6154 116.99 9.76926 117.61 9.07695C118.463 8.2308 118.928 7.07695 118.928 5.76926C118.928 4.46157 118.463 3.30772 117.61 2.46157C116.757 1.61541 115.594 1.00003 114.199 0.692336C113.191 0.53849 111.563 0.384644 109.004 0.384644H104.12V19.5385H107.454V11.0769H111.33L117.61 19.5385H121.719L115.052 10.6154Z" fill="#FEFEFE"/>
<path d="M4.72912 11.7693H17.0561L18.4516 10.0001L16.9786 8.1539H4.72912V4.07698H13.8774L11.0864 0.538513H0.387547V19.6924H4.72912V11.7693Z" fill="#FEFEFE"/>
<path d="M18.2191 19.6924L25.5067 10.0001L18.1415 0.538513H13.2573L20.5449 10.0001L13.2573 19.6924H18.2191Z" fill="#00D7C2"/>
<path d="M27.2123 10.5385L24.8089 13.8462L29.1505 19.6924H34.1123L27.2123 10.5385Z" fill="#FEFEFE"/>
<path d="M27.1347 9.30774L33.8796 0.538513H28.9954L24.6538 6.1539L27.1347 9.30774Z" fill="#FEFEFE"/>
<path d="M74.2718 0.538513H72.7988L64.5808 15.2308L56.3628 0.538513H54.8898L51.5561 19.6154H54.8122L56.828 7.61544L63.9606 19.6154H65.201L72.3336 7.61544L74.3493 19.6154H77.6055L74.2718 0.538513Z" fill="#FEFEFE"/>
</g>
<defs>
<clipPath id="clip0_83_1076">
<rect width="138" height="20" fill="white"/>
</clipPath>
</defs>
</svg>
