<svg width="226" height="20" viewBox="0 0 226 20" fill="none" xmlns="http://www.w3.org/2000/svg">
<path d="M20.3562 4.27378V0.517099H0.916016V18.9065H20.3562V15.1498H5.64471V11.4194H20.3562V8.0042H5.64471V4.27378H20.3562Z" fill="#2D3748"/>
<path d="M43.5442 18.9065H48.7721L39.2621 0.517099H32.8784L23.3948 18.9065H28.5963L30.5666 14.9922H41.574L43.5442 18.9065ZM32.3267 11.4719L36.0834 4.01108L39.8138 11.4719H32.3267Z" fill="#2D3748"/>
<path d="M72.9678 7.26862C72.9678 3.17042 70.1044 0.517099 65.9273 0.517099H51.4786V18.9065H56.2072V13.9939H63.8257L66.7943 18.9065H72.3636L68.9747 13.4422C71.4441 12.4702 72.9678 10.2635 72.9678 7.26862ZM56.2072 4.48395H64.6138C66.0324 4.48395 68.2391 4.48395 68.2391 7.26862C68.2391 10.027 66.0324 10.027 64.6138 10.027H56.2072V4.48395Z" fill="#2D3748"/>
<path d="M95.0601 0.517099V14.3354L82.5028 0.517099H76.0928V18.9065H80.8215V5.11444L93.3525 18.9065H99.7888V0.517099H95.0601Z" fill="#2D3748"/>
<path d="M122.918 4.48395V0.517099H103.478V18.9065H108.206V13.1532H121.342V9.1601H108.206V4.48395H122.918Z" fill="#2D3748"/>
<path d="M136.772 19.1692C144.837 19.1692 148.331 15.7803 148.331 9.68551C148.331 3.61702 144.837 0.254395 136.772 0.254395C128.68 0.254395 125.213 3.59075 125.213 9.68551C125.213 15.8065 128.68 19.1692 136.772 19.1692ZM136.772 15.2023C131.859 15.2023 129.941 13.4685 129.941 9.68551C129.941 5.92883 131.833 4.22124 136.772 4.22124C141.71 4.22124 143.602 5.9551 143.602 9.68551C143.602 13.4422 141.684 15.2023 136.772 15.2023Z" fill="#2D3748"/>
<path d="M173.118 7.26862C173.118 3.17042 170.255 0.517099 166.078 0.517099H151.629V18.9065H156.357V13.9939H163.976L166.944 18.9065H172.514L169.125 13.4422C171.594 12.4702 173.118 10.2635 173.118 7.26862ZM156.357 4.48395H164.764C166.183 4.48395 168.389 4.48395 168.389 7.26862C168.389 10.027 166.183 10.027 164.764 10.027H156.357V4.48395Z" fill="#2D3748"/>
<path d="M195.683 4.27378V0.517099H176.243V18.9065H195.683V15.1498H180.972V11.4194H195.683V8.0042H180.972V4.27378H195.683Z" fill="#2D3748"/>
<path d="M198.388 18.9065H204.903L211.944 12.6015L218.958 18.9065H225.499L215.149 9.71178L225.499 0.517099H218.958L211.944 6.82203L204.903 0.517099H198.388L208.739 9.71178L198.388 18.9065Z" fill="#2D3748"/>
</svg>
