<svg width="278" height="39" viewBox="0 0 278 39" fill="none" xmlns="http://www.w3.org/2000/svg">
<rect x="1.5" y="2" width="35" height="35" rx="17.5" stroke="#A4DEDA" stroke-width="3"/>
<path d="M17.8516 20.6579V22.5861H20.2087C21.3957 22.5861 21.3792 20.6579 20.1922 20.6579H17.8516ZM17.8516 16.4134V18.2441H19.7141C20.8847 18.2441 20.8847 16.4134 19.6977 16.4134H17.8516ZM22.6151 19.2644C23.5548 19.7343 24 20.5771 24 21.5816C23.9835 23.5578 22.7636 25.1621 20.4066 25.1621H15V13.8208H19.9285C21.9231 13.8208 23.5219 15.3438 23.5219 17.3043C23.5219 17.9849 23.1759 18.8111 22.6151 19.2644Z" fill="#A4DEDA"/>
<path d="M16.457 12.0781L18.9555 9.62235L21.4536 12.0781" fill="#A4DEDA"/>
<path d="M21.4536 26.9231L18.9551 29.3789L16.457 26.9231" fill="#A4DEDA"/>
<path d="M106.105 21.2969V24.1873H109.638C111.417 24.1873 111.393 21.2969 109.613 21.2969H106.105ZM106.105 14.9342V17.6785H108.897C110.651 17.6785 110.651 14.9342 108.872 14.9342H106.105ZM113.245 19.2079C114.654 19.9123 115.321 21.1757 115.321 22.6815C115.297 25.644 113.468 28.0488 109.935 28.0488H101.83V11.0478H109.218C112.208 11.0478 114.605 13.3308 114.605 16.2697C114.605 17.2899 114.086 18.5284 113.245 19.2079Z" fill="#A4DEDA"/>
<path d="M126.838 14.9343C125.8 14.91 124.713 14.9343 123.675 14.9343V19.1844H126.838C129.235 19.1844 129.358 14.9585 126.838 14.9343ZM133.88 27.4172V28.0488H128.938L125.973 23.0458H123.675V28.0488H119.252V11.0485H126.838C133.633 11.0728 134.868 19.111 130.495 22.0256L133.88 27.4172Z" fill="#A4DEDA"/>
<path d="M149.2 19.5719C149.2 13.4517 140.526 13.4517 140.526 19.5719C140.526 25.7406 149.2 25.7406 149.2 19.5719ZM135.98 19.5719C135.98 7.81699 153.721 7.81699 153.721 19.5719C153.721 31.351 135.98 31.351 135.98 19.5719Z" fill="#A4DEDA"/>
<path d="M157.578 28.0488V11.0485H162.075V17.4839H162.396C166.819 17.4839 166.597 14.2298 166.597 11.0485H171.143C171.143 14.5214 171.242 17.727 167.807 19.8887L172.502 27.3686V28.0488H167.585L163.78 21.4673C163.187 21.5643 162.643 21.5643 162.075 21.5643V28.0488H157.578Z" fill="#A4DEDA"/>
<path d="M186.339 14.9343H179.939V17.3384H185.82V21.2H179.939V24.1873H186.561V28.0488H175.541V11.0485H186.339V14.9343Z" fill="#A4DEDA"/>
<path d="M198.423 14.9343C197.385 14.91 196.298 14.9343 195.261 14.9343V19.1844H198.423C200.82 19.1844 200.943 14.9585 198.423 14.9343ZM205.465 27.4172V28.0488H200.523L197.559 23.0458H195.261V28.0488H190.838V11.0485H198.423C205.218 11.0728 206.453 19.111 202.08 22.0256L205.465 27.4172Z" fill="#A4DEDA"/>
<path d="M217.103 23.0455C217.103 21.8555 215.669 21.5882 213.94 21.4912C210.184 21.2239 207.713 19.9612 207.663 16.2694C207.515 8.93492 220.957 8.93492 220.858 16.2694H216.657C216.657 14.0106 212.013 14.2053 211.864 16.2215C211.765 17.5085 213.05 17.7758 214.607 17.9455C218.041 18.3099 221.402 18.8197 221.402 23.0698C221.402 30.2102 207.318 30.3315 207.417 22.8515H211.691C211.691 25.0133 217.103 25.0375 217.103 23.0455Z" fill="#A4DEDA"/>
<path d="M48 14.9343V11.0485H60.8487V14.9343H56.6233V28.0488H52.25V14.9343H48Z" fill="white"/>
<path d="M75.8365 19.5719C75.8365 13.4517 67.1632 13.4517 67.1632 19.5719C67.1632 25.7406 75.8365 25.7406 75.8365 19.5719ZM62.6172 19.5719C62.6172 7.81699 80.3579 7.81699 80.3579 19.5719C80.3579 31.351 62.6172 31.351 62.6172 19.5719Z" fill="white"/>
<path d="M91.7748 14.9343C90.7368 14.91 89.6248 14.9343 88.6121 14.9343V19.7918H91.7748C94.1961 19.7918 94.3448 14.9585 91.7748 14.9343ZM84.1895 28.0488V11.0485H91.7995C100.077 11.0728 100.077 23.7018 91.7995 23.7018H88.6121V28.0488H84.1895Z" fill="white"/>
<path d="M104.012 8.4375L107.757 4.7562L111.502 8.4375" fill="white"/>
<path d="M111.504 30.6878L107.758 34.3691L104.014 30.6878" fill="white"/>
<path d="M223.924 25.9857C223.924 24.6254 225.011 23.727 226.394 23.727C227.729 23.727 228.816 24.6254 228.816 25.9857C228.816 27.3218 227.729 28.1953 226.394 28.1953C225.011 28.1953 223.924 27.3218 223.924 25.9857Z" fill="#A4DEDA"/>
<path d="M238.151 14.1942C241.077 14.1942 244.243 15.7609 244.788 19.4685H241.238C240.733 18.0603 239.665 17.4266 238.151 17.4266C236.033 17.4266 234.641 18.9927 234.641 21.2927C234.641 23.3346 236.013 25.1195 238.151 25.1392C239.685 25.1392 240.915 24.3856 241.298 22.8982H244.849C244.324 26.8245 241.157 28.371 238.151 28.371C234.561 28.3913 230.93 26.012 230.91 21.2927C230.93 16.5735 234.561 14.1942 238.151 14.1942Z" fill="#A4DEDA"/>
<path d="M257.536 21.3128C257.536 16.3164 250.455 16.3164 250.455 21.3128C250.455 26.3492 257.536 26.3492 257.536 21.3128ZM246.744 21.3128C246.744 11.7164 261.227 11.7164 261.227 21.3128C261.227 30.9296 246.744 30.9296 246.744 21.3128Z" fill="#A4DEDA"/>
<path d="M276.416 14.3132H277.708V28.2324H274.016V22.046L271.01 25.1389H270.607L267.622 22.046V28.2324H263.93V14.3132H265.261L270.788 20.341L276.416 14.3132Z" fill="#A4DEDA"/>
</svg>
