<?xml version="1.0" encoding="utf-8"?>
<!-- Generator: Adobe Illustrator 23.0.4, SVG Export Plug-In . SVG Version: 6.00 Build 0)  -->
<svg version="1.1" id="Layer_1" xmlns="http://www.w3.org/2000/svg" xmlns:xlink="http://www.w3.org/1999/xlink" x="0px" y="0px"
	 viewBox="0 0 258.4 27.6" style="enable-background:new 0 0 258.4 27.6;" xml:space="preserve">
<style type="text/css">
	.st0{fill:#FFFFFF;}
	.st1{fill:#3A92C3;}
</style>
<title>forex</title>
<path class="st0" d="M45.1,8.3h-1.9V5.8h11.3c1.3,0,1.9,0.6,1.9,1.9v2.6h-2.6V9c0-0.3-0.2-0.6-0.5-0.6c0,0-0.1,0-0.1,0H48V15h7v2.5
	h-7v8.8h-2.9V8.3z"/>
<path class="st0" d="M65.8,11.3c4.2,0.1,7.6,3.6,7.5,7.9s-3.6,7.6-7.9,7.5c-4.2-0.1-7.5-3.5-7.5-7.7c0-4.2,3.4-7.7,7.7-7.7
	C65.7,11.3,65.8,11.3,65.8,11.3 M65.8,24.2c2.9,0.1,5.4-2.1,5.5-5c0.1-2.9-2.1-5.4-5-5.5s-5.4,2.1-5.5,5c0,0.1,0,0.2,0,0.2
	c-0.1,2.8,2.1,5.2,4.9,5.3C65.7,24.2,65.8,24.2,65.8,24.2"/>
<path class="st0" d="M77.2,14.7c0-0.3-0.2-0.6-0.5-0.6c0,0-0.1,0-0.1,0h-1.2v-2.4h2.7c1.3,0,1.9,0.5,1.9,1.7v0.9c0,0.3,0,0.7-0.1,1
	H80c0.5-2.2,2.4-3.7,4.6-3.8c0.3,0,0.5,0,0.8,0.1v2.8c-0.3-0.1-0.6-0.1-0.8-0.1c-2,0.1-3.7,1.5-4.1,3.5c-0.2,0.9-0.4,1.7-0.4,2.6v6
	h-2.8L77.2,14.7z"/>
<path class="st0" d="M93.8,11.3c4.1,0,6.3,3.1,6.3,6.9c0,0.4-0.1,1.2-0.1,1.2H89.4c0,2.7,2.2,4.9,4.9,4.9c0,0,0,0,0.1,0
	c1.6,0,3.1-0.7,4.3-1.7l1.2,2c-1.6,1.4-3.6,2.1-5.7,2.1c-4.1,0.2-7.6-3-7.8-7.1c0-0.2,0-0.4,0-0.5C86.4,14.3,89.6,11.3,93.8,11.3
	 M97.2,17.3c-0.1-2.4-1.6-3.7-3.5-3.7c-2.2-0.1-4.1,1.6-4.3,3.7H97.2z"/>
<path class="st0" d="M106.8,18.8l-2.8-4.2c-0.3-0.4-0.8-0.6-1.2-0.5H102v-2.4h1.8c1.4,0,1.8,0.3,2.5,1.5l1.8,2.8
	c0.2,0.4,0.5,0.9,0.5,0.9h0.1c0,0,0.3-0.5,0.5-0.9l1.8-2.8c0.4-1,1.5-1.6,2.5-1.5h1.8V14h-0.8c-0.5-0.1-1,0.1-1.2,0.5l-2.8,4.2
	l5,7.5h-3.2l-3.1-4.8c-0.2-0.4-0.4-0.8-0.4-0.8h-0.1c0,0-0.2,0.4-0.5,0.8l-3,4.8h-3.2L106.8,18.8z"/>
<path class="st0" d="M118.7,8.3h-1.9V5.8h8.8c3.5,0,6,1.9,6,5.2c0.1,1.8-0.9,3.6-2.5,4.4v0.1c2.1,0.7,3.5,2.8,3.4,5
	c0,3.9-3,5.8-6.6,5.8h-5.2c-1.3,0-1.9-0.5-1.9-1.9L118.7,8.3z M125.6,14.4c1.6,0.1,2.9-1.2,3-2.8c0-0.1,0-0.2,0-0.3
	c0.1-1.5-1-2.9-2.6-3c-0.1,0-0.3,0-0.4,0h-4v6.1L125.6,14.4z M122.3,23.8h3.6c1.8,0.1,3.3-1.2,3.5-3c0-0.2,0-0.3,0-0.5
	c0.1-1.8-1.2-3.4-3.1-3.5c-0.1,0-0.3,0-0.4,0h-4.3v6.4c0,0.3,0.2,0.6,0.5,0.6C122.2,23.8,122.2,23.8,122.3,23.8"/>
<path class="st0" d="M136.1,14.7c0-0.3-0.2-0.6-0.5-0.6c0,0-0.1,0-0.1,0h-1.2v-2.4h2.7c1.3,0,1.9,0.5,1.9,1.7v0.9c0,0.3,0,0.7-0.1,1
	h0.1c0.5-2.2,2.4-3.7,4.6-3.8c0.3,0,0.5,0,0.8,0.1v2.8c-0.3-0.1-0.6-0.1-0.8-0.1c-2,0.1-3.7,1.5-4.1,3.5c-0.2,0.9-0.4,1.7-0.4,2.6v6
	h-2.8V14.7z"/>
<path class="st0" d="M153.2,11.3c4.2,0.1,7.6,3.6,7.5,7.9s-3.6,7.6-7.9,7.5c-4.2-0.1-7.5-3.5-7.5-7.7c0-4.2,3.4-7.7,7.7-7.7
	C153.1,11.3,153.2,11.3,153.2,11.3 M153.2,24.2c2.9,0.1,5.4-2.1,5.5-5c0.1-2.9-2.1-5.4-5-5.5s-5.4,2.1-5.5,5c0,0.1,0,0.2,0,0.2
	c-0.1,2.8,2.1,5.2,4.9,5.3C153.1,24.2,153.2,24.2,153.2,24.2"/>
<path class="st0" d="M164.3,8.9c0-0.3-0.2-0.6-0.5-0.6c0,0-0.1,0-0.1,0h-1.2V5.8h2.8c1.3,0,1.9,0.4,1.9,1.7V17h1.3
	c0.6,0,1.2-0.2,1.5-0.6l3.4-4.8h3.2l-4,5.5c-0.3,0.4-0.7,0.8-1.1,1.1v0.1c0,0,0.5,0.2,1,1.1l2.2,4c0.2,0.5,0.5,0.6,1.2,0.6h0.9v2.4
	h-2c-1,0.2-2.1-0.4-2.4-1.4l-2.7-4.9c-0.3-0.4-0.9-0.7-1.5-0.6h-1.1v6.9h-2.8L164.3,8.9z"/>
<path class="st0" d="M185.3,11.3c4.1,0,6.3,3.1,6.3,6.9c0,0.4-0.1,1.2-0.1,1.2h-10.7c0,2.7,2.2,4.9,4.9,4.9c0,0,0,0,0.1,0
	c1.6,0,3.1-0.7,4.3-1.7l1.2,2c-1.6,1.4-3.6,2.1-5.7,2.1c-4.1,0.2-7.6-3-7.8-7.1c0-0.2,0-0.4,0-0.5C177.9,14.3,181.1,11.3,185.3,11.3
	 M188.7,17.3c-0.1-2.4-1.6-3.7-3.5-3.7c-2.2-0.1-4.1,1.6-4.3,3.7H188.7z"/>
<path class="st0" d="M195.4,14.7c0-0.3-0.2-0.6-0.5-0.6c0,0-0.1,0-0.1,0h-1.2v-2.4h2.7c1.3,0,1.9,0.5,1.9,1.7v0.9c0,0.3,0,0.7-0.1,1
	h0.1c0.5-2.2,2.4-3.7,4.6-3.8c0.3,0,0.5,0,0.8,0.1v2.8c-0.3-0.1-0.6-0.1-0.8-0.1c-2,0.1-3.7,1.5-4.1,3.5c-0.2,0.9-0.4,1.7-0.3,2.6v6
	h-2.8L195.4,14.7z"/>
<path class="st0" d="M206.3,22.2c1.1,1.3,2.7,2.1,4.4,2.2c1.4,0,2.5-0.6,2.5-1.9c0-2.6-8-2.4-8-7.1c0-2.8,2.5-4.1,5.5-4.1
	c1.8,0,4.8,0.6,4.8,2.8v1.4h-2.5v-0.7c0-0.9-1.3-1.2-2.2-1.2c-1.7,0-2.7,0.6-2.7,1.7c0,2.8,8,2.2,8,7.1c0,2.6-2.3,4.3-5.4,4.3
	c-2.2,0.1-4.4-0.9-5.9-2.6L206.3,22.2z"/>
<rect x="218.4" y="24.4" class="st0" width="1.8" height="1.9"/>
<path class="st0" d="M226.8,16.9c1.1,0,3.3,0.5,3.3,2v0.9h-1.6v-0.5c0-0.6-1-0.9-1.7-0.9c-1.8,0-3.2,1.5-3.2,3.3
	c0,1.8,1.5,3.2,3.3,3.2c1.1,0,2.1-0.5,2.8-1.3l0.8,1.2c-1,1-2.3,1.6-3.7,1.5c-2.6,0-4.8-2.1-4.8-4.8C221.9,19,224.1,16.9,226.8,16.9
	"/>
<path class="st0" d="M236.3,16.9c2.6,0.1,4.7,2.3,4.6,4.9s-2.3,4.7-4.9,4.6c-2.6-0.1-4.6-2.2-4.6-4.8c0-2.6,2.1-4.8,4.7-4.8
	C236.2,16.9,236.3,16.9,236.3,16.9 M236.3,24.9c1.8,0.1,3.3-1.3,3.4-3.1s-1.3-3.3-3.1-3.4c-1.8-0.1-3.3,1.3-3.4,3.1c0,0,0,0.1,0,0.1
	c-0.1,1.7,1.3,3.2,3,3.3C236.3,24.9,236.3,24.9,236.3,24.9"/>
<path class="st0" d="M243.4,19c0-0.2-0.1-0.4-0.3-0.4c0,0-0.1,0-0.1,0h-0.7v-1.5h1.7c0.8,0,1.2,0.3,1.2,1v0.3c0,0.3,0,0.5,0,0.5l0,0
	c0.6-1.2,1.8-2,3.1-2.1c1.3-0.2,2.5,0.8,2.7,2.1l0,0c0.6-1.2,1.9-2,3.2-2.1c2,0,3,1.2,3,3.5v3.9c0,0.2,0.1,0.4,0.3,0.4
	c0,0,0.1,0,0.1,0h0.7v1.5h-1.7c-0.8,0-1.2-0.3-1.2-1.1v-4.3c0-1.3-0.2-2.3-1.6-2.3c-1.3,0.1-2.3,1.1-2.6,2.3
	c-0.1,0.4-0.1,0.8-0.1,1.2v4.2h-1.8v-5.5c0-1.2-0.2-2.3-1.6-2.3c-1.3,0.1-2.4,1.1-2.6,2.4c-0.1,0.4-0.1,0.8-0.1,1.2v4.2h-1.8
	L243.4,19z"/>
<polygon class="st1" points="16.9,0 0,27.6 33.8,27.6 "/>
<path class="st0" d="M9,17.6v-0.9c0-0.1-0.1-0.2-0.2-0.2H6.8l-0.9,1.4h2.8C8.9,17.9,9,17.8,9,17.6C9,17.6,9,17.6,9,17.6z"/>
<path class="st0" d="M8.5,23.6c1.2,0,2.4-0.4,3.3-1.2c0.1,0,0.1-0.1,0.1-0.2c0-0.1,0-0.1-0.1-0.2l-0.9-1c-0.1-0.1-0.3-0.1-0.4,0
	c-0.6,0.5-1.3,0.8-2,0.8c-1.2,0-2.2-0.7-2.8-1.7H8c0.1,0,0.2-0.1,0.2-0.2v-0.9c0-0.1-0.1-0.3-0.2-0.3c0,0,0,0,0,0H5.5l-1.5,2.4
	C5,22.6,6.7,23.6,8.5,23.6z"/>
<path class="st0" d="M8.5,14.8c0.7,0,1.4,0.3,2,0.7c0.1,0,0.1,0.1,0.2,0.1c0.1,0,0.1,0,0.2-0.1l0.9-1.1c0-0.1,0.1-0.1,0.1-0.2
	c0-0.1,0-0.1-0.1-0.2c-0.8-0.6-1.7-1-2.8-1.1l-1.2,1.9C8,14.8,8.2,14.8,8.5,14.8z"/>
<path class="st0" d="M15.9,10.7L15.9,10.7H14c-0.1,0-0.2,0.1-0.2,0.2v0.9c0,0.1,0.1,0.2,0.2,0.2h1.9v0.7H14c-0.1,0-0.2,0.1-0.2,0.2
	v0.9c0,0.1,0.1,0.2,0.2,0.2h1.9v1.2c0,0.1,0.1,0.2,0.2,0.2h1.6c0.1,0,0.2-0.1,0.2-0.2v-1.2h1.9c0.1,0,0.2-0.1,0.2-0.2v-0.9
	c0-0.1-0.1-0.2-0.2-0.2H18v-0.7h1.9c0.1,0,0.2-0.1,0.2-0.2V11c0-0.1-0.1-0.2-0.2-0.2H18l0,0L21.1,7L20,5.2l0,0c-0.1,0-0.1,0-0.2,0.1
	l-2.9,3.5L14,5.3c0-0.1-0.1-0.1-0.2-0.1c0,0,0,0-0.1,0l-1.1,1.8L15.9,10.7z"/>
<path class="st0" d="M20.7,26.4c0-0.1-0.1-0.3-0.3-0.3c0,0,0,0,0,0h-3.8c0.4-0.7,0.6-1.4,0.6-2.2h1.7c0.1,0,0.3-0.1,0.3-0.3
	c0,0,0,0,0,0v-0.9c0-0.1-0.1-0.3-0.3-0.3c0,0,0,0,0,0h-1.8c-0.3-0.9-0.1-1.9,0.5-2.6c0.6-0.4,1.3-0.4,1.9,0c0.1,0.1,0.3,0,0.3-0.1
	l0.8-1.4c0-0.1,0-0.1,0-0.2c0-0.1-0.1-0.1-0.1-0.2c-1.3-0.8-3-0.8-4.2,0.1c-1.2,1.1-1.8,2.8-1.4,4.4h-1.3c-0.1,0-0.3,0.1-0.3,0.3
	c0,0,0,0,0,0v0.9c0,0.1,0.1,0.3,0.3,0.3c0,0,0,0,0,0h1.5c-0.1,0.9-0.8,1.7-1.6,2.1c-0.1,0-0.1,0.1-0.1,0.2v1.3h7.3L20.7,26.4z"/>
<path class="st0" d="M24.7,15.1c0.4-0.2,0.8-0.3,1.2-0.3l-1-1.7c-0.5,0.1-1.1,0.3-1.5,0.7c-0.7,0.6-1.1,1.5-1,2.4
	c0,1.7,1.5,2.3,2.5,2.6l1.4,0.4c0.7,0.2,1.3,0.4,1.3,1.1c0,0.3-0.2,0.6-0.4,0.8c-0.4,0.2-0.8,0.4-1.2,0.3c-0.7,0.1-1.3-0.3-1.6-0.9
	c0-0.1-0.2-0.2-0.3-0.2h-1.3c-0.1,0-0.2,0-0.2,0.1c-0.1,0.1-0.1,0.2-0.1,0.2c0.3,1.3,1.5,2.3,2.8,2.5v1.1c0,0.2,0.1,0.3,0.3,0.3h0.8
	c0.2,0,0.3-0.1,0.3-0.3v-1.1c0.7-0.1,1.3-0.3,1.9-0.7c0.5-0.4,0.9-1.1,1-1.8l-1.8-3c-0.2-0.1-0.4-0.2-0.7-0.2L25.6,17
	c-0.7-0.2-1.3-0.4-1.3-1.1C24.3,15.6,24.5,15.3,24.7,15.1z"/>
</svg>
