<?xml version="1.0" encoding="UTF-8"?>
<svg id="Layer_1" data-name="Layer 1" xmlns="http://www.w3.org/2000/svg" version="1.1" viewBox="0 0 204 70">
  <defs>
    <style>
      .cls-1, .cls-2 {
        fill-rule: evenodd;
      }

      .cls-1, .cls-2, .cls-3 {
        stroke-width: 0px;
      }

      .cls-1, .cls-3 {
        fill: #12225c;
      }

      .cls-2 {
        fill: #14964f;
      }
    </style>
  </defs>
  <path class="cls-3" d="M0,20.254h23.223v7.084h-15.163v4.936h13.706v6.719h-13.706v10.375H0v-29.114Z"/>
  <path class="cls-1" d="M63.06,20.254h13.896c4.478,0,7.617,1.188,9.602,3.154,1.708,1.645,2.585,3.93,2.585,6.764v.091c0,4.433-2.401,7.404-6.048,8.958l7.017,10.147h-9.418l-5.909-8.821h-3.601v8.821h-8.171v-29.114h.046ZM76.586,34.239c2.77,0,4.386-1.326,4.386-3.474v-.091c0-2.285-1.662-3.474-4.432-3.474h-5.355v6.993h5.401v.046Z"/>
  <path class="cls-3" d="M92.954,20.254h23.36v6.856h-15.391v4.433h13.934v6.353h-13.934v4.616h15.573v6.856h-23.542v-29.114Z"/>
  <path class="cls-3" d="M129.109,34.559l-9.562-14.305h9.244l5.146,8.181,5.191-8.181h9.016l-9.517,14.214,9.972,14.9h-9.244l-5.555-8.775-5.601,8.775h-9.062l9.972-14.808Z"/>
  <path class="cls-3" d="M156.477,35.564h0c0-3.336,2.55-6.124,6.193-6.124,2.368,0,3.962,1.051,4.964,2.605l-2.778,2.057c-.546-.777-1.184-1.234-2.14-1.234-1.321,0-2.277,1.143-2.277,2.559v.046c0,1.508.956,2.651,2.322,2.651.956,0,1.594-.457,2.231-1.188l2.732,1.965c-1.093,1.6-2.595,2.651-5.145,2.651-3.552.046-6.102-2.697-6.102-5.987"/>
  <path class="cls-1" d="M170.162,35.564h0c0-3.336,2.724-6.124,6.509-6.124,3.739,0,6.463,2.742,6.463,6.033v.046c0,3.291-2.724,6.079-6.509,6.079-3.739,0-6.463-2.742-6.463-6.033M179.118,35.564h0c0-1.463-1.062-2.651-2.493-2.651-1.477,0-2.447,1.188-2.447,2.56v.046c0,1.417,1.062,2.605,2.493,2.605,1.524,0,2.447-1.188,2.447-2.559"/>
  <path class="cls-3" d="M185.33,29.668h4.053v1.6c.729-.96,1.821-1.828,3.461-1.828,1.548,0,2.732.686,3.324,1.874,1.002-1.143,2.185-1.874,3.871-1.874,2.458,0,3.961,1.554,3.961,4.251v7.633h-4.053v-6.353c0-1.28-.637-1.92-1.595-1.92s-1.684.685-1.684,1.92v6.307h-4.007v-6.307c0-1.28-.637-1.92-1.594-1.92s-1.639.685-1.639,1.92v6.307h-4.053v-11.609h-.046Z"/>
  <path class="cls-2" d="M55.997,34.742c0-.293-.006-.582-.017-.869h3.479l.923-2.651h-4.686c-1.285-7.252-6.667-11.655-14.795-11.655-9.141,0-15.05,6.033-15.05,15.356,0,9.415,5.724,15.22,15.05,15.174,7.6,0,12.994-4.142,14.598-10.923h3.176l.97-2.651h-3.723c.049-.58.076-1.173.076-1.782ZM41.086,45.894c-4.709,0-6.555-4.936-6.555-11.061s1.477-11.015,6.232-11.06c3.74,0,5.673,3.088,6.311,7.45h-4.049l-.923,2.651h5.2c.01.316.017.636.017.96,0,.576-.013,1.14-.04,1.691h-4.992l-.969,2.651h5.694c-.64,3.973-2.362,6.719-5.925,6.719h0Z"/>
  <path class="cls-3" d="M150.831,39.129c0-.594.228-1.051.638-1.508.41-.411.911-.64,1.503-.64s1.093.229,1.503.64c.41.411.638.914.638,1.508s-.228,1.097-.638,1.508c-.41.412-.911.594-1.503.594s-1.093-.183-1.503-.594c-.455-.366-.638-.868-.638-1.508"/>
</svg>