<svg width="64" height="64" viewBox="0 0 64 64" fill="none" xmlns="http://www.w3.org/2000/svg">
<mask id="mask0_3289_6912" style="mask-type:alpha" maskUnits="userSpaceOnUse" x="0" y="0" width="64" height="64">
<rect width="64" height="64" fill="#020617"/>
</mask>
<g mask="url(#mask0_3289_6912)">
<rect x="-21.1321" y="120" width="176" height="106.264" transform="rotate(-90 -21.1321 120)" fill="url(#paint0_linear_3289_6912)"/>
</g>
<path fill-rule="evenodd" clip-rule="evenodd" d="M45.8564 15.2305C46.1296 15.2305 46.3697 15.4116 46.4448 15.6742L47.1082 17.9962C47.3986 19.0125 48.193 19.807 49.2093 20.0974L51.5313 20.7608C51.794 20.8358 51.9751 21.0759 51.9751 21.3491C51.9751 21.6223 51.794 21.8624 51.5313 21.9374L49.2093 22.6008C48.193 22.8912 47.3986 23.6857 47.1082 24.702L46.4448 27.024C46.3697 27.2866 46.1296 27.4677 45.8564 27.4677C45.5832 27.4677 45.3432 27.2866 45.2681 27.024L44.6047 24.702C44.3143 23.6857 43.5199 22.8912 42.5035 22.6008L40.1816 21.9374C39.9189 21.8624 39.7378 21.6223 39.7378 21.3491C39.7378 21.0759 39.9189 20.8358 40.1816 20.7608L42.5035 20.0974C43.5199 19.807 44.3143 19.0125 44.6047 17.9962L45.2681 15.6742C45.3432 15.4116 45.5832 15.2305 45.8564 15.2305Z" fill="white"/>
<path fill-rule="evenodd" clip-rule="evenodd" d="M53.1985 12C53.4793 12 53.724 12.1911 53.7921 12.4635L54.0033 13.3082C54.1951 14.0755 54.7942 14.6746 55.5615 14.8664L56.4062 15.0776C56.6786 15.1457 56.8697 15.3904 56.8697 15.6712C56.8697 15.9519 56.6786 16.1967 56.4062 16.2648L55.5615 16.476C54.7942 16.6678 54.1951 17.2669 54.0033 18.0342L53.7921 18.8789C53.724 19.1513 53.4793 19.3424 53.1985 19.3424C52.9178 19.3424 52.673 19.1513 52.6049 18.8789L52.3937 18.0342C52.2019 17.2669 51.6028 16.6678 50.8356 16.476L49.9908 16.2648C49.7184 16.1967 49.5273 15.9519 49.5273 15.6712C49.5273 15.3904 49.7184 15.1457 49.9908 15.0776L50.8356 14.8664C51.6028 14.6746 52.2019 14.0755 52.3937 13.3082L52.6049 12.4635C52.673 12.1911 52.9178 12 53.1985 12Z" fill="white"/>
<path fill-rule="evenodd" clip-rule="evenodd" d="M51.9753 24.4824C52.2387 24.4824 52.4725 24.6509 52.5558 24.9008L52.8774 25.8657C52.9992 26.2311 53.286 26.5178 53.6514 26.6396L54.6163 26.9613C54.8661 27.0446 55.0347 27.2784 55.0347 27.5417C55.0347 27.8051 54.8661 28.0389 54.6163 28.1222L53.6514 28.4438C53.286 28.5656 52.9992 28.8524 52.8774 29.2178L52.5558 30.1827C52.4725 30.4325 52.2387 30.6011 51.9753 30.6011C51.712 30.6011 51.4782 30.4325 51.3949 30.1827L51.0732 29.2178C50.9514 28.8524 50.6647 28.5656 50.2993 28.4438L49.3344 28.1222C49.0845 28.0389 48.916 27.8051 48.916 27.5417C48.916 27.2784 49.0845 27.0446 49.3344 26.9613L50.2993 26.6396C50.6647 26.5178 50.9514 26.2311 51.0732 25.8657L51.3949 24.9008C51.4782 24.6509 51.712 24.4824 51.9753 24.4824Z" fill="white"/>
<path d="M30.4692 44.9998V42.2184H32.8833V29.466H30.4692V26.6846H38.7872V29.466H36.3469V42.2184H38.7872V44.9998H30.4692Z" fill="white"/>
<path d="M24.9361 44.9998L23.4667 40.3292H16.9593L15.5161 44.9998H12L18.1401 26.6846H22.4434L28.531 44.9998H24.9361ZM20.2655 29.8333H20.1343L17.799 37.3641H22.6271L20.2655 29.8333Z" fill="white"/>
<defs>
<linearGradient id="paint0_linear_3289_6912" x1="-21.1321" y1="226.264" x2="75.0699" y2="69.3809" gradientUnits="userSpaceOnUse">
<stop stop-color="#0928FF"/>
<stop offset="1" stop-color="#FDAD00"/>
</linearGradient>
</defs>
</svg>
