<?xml version="1.0" encoding="UTF-8"?>
<svg width="24px" height="24px" viewBox="0 0 24 24" version="1.1" xmlns="http://www.w3.org/2000/svg" xmlns:xlink="http://www.w3.org/1999/xlink">
    <title>0.icon/24/Claims/huifu</title>
    <g id="控件" stroke="none" stroke-width="1" fill="none" fill-rule="evenodd">
        <g id="0.icon/24/Claims/huifu" fill="#4373F1">
            <path d="M12,0 C18.627417,-1.21743675e-15 24,5.372583 24,12 C24,18.627417 18.627417,24 12,24 C5.372583,24 8.11624501e-16,18.627417 0,12 C-8.11624501e-16,5.372583 5.372583,1.21743675e-15 12,0 Z M16.9932588,15.0000227 L6.49325885,15.0708065 L6.50674115,17.070761 L17.0067412,16.9999773 L16.9932588,15.0000227 Z M14.7071068,6.29289322 C14.3165825,5.90236893 13.6834175,5.90236893 13.2928932,6.29289322 L6.79289322,12.7928932 C6.40236893,13.1834175 6.40236893,13.8165825 6.79289322,14.2071068 C7.18341751,14.5976311 7.81658249,14.5976311 8.20710678,14.2071068 L14.7071068,7.70710678 C15.0976311,7.31658249 15.0976311,6.68341751 14.7071068,6.29289322 Z" id="形状结合"></path>
        </g>
    </g>
</svg>