<?xml version="1.0" encoding="UTF-8"?>
<svg width="24px" height="24px" viewBox="0 0 24 24" version="1.1" xmlns="http://www.w3.org/2000/svg" xmlns:xlink="http://www.w3.org/1999/xlink">
    <title>0.icon/24/Claims/chulizhong</title>
    <g id="控件" stroke="none" stroke-width="1" fill="none" fill-rule="evenodd">
        <g id="编组-5" fill="#F18143">
            <path d="M12,0 C18.627417,-1.21743675e-15 24,5.372583 24,12 C24,18.627417 18.627417,24 12,24 C5.372583,24 8.11624501e-16,18.627417 0,12 C-8.11624501e-16,5.372583 5.372583,1.21743675e-15 12,0 Z M7.75,10.5 L5.75,10.5 C5.47385763,10.5 5.25,10.7238576 5.25,11 L5.25,13 C5.25,13.2761424 5.47385763,13.5 5.75,13.5 L7.75,13.5 C8.02614237,13.5 8.25,13.2761424 8.25,13 L8.25,11 C8.25,10.7238576 8.02614237,10.5 7.75,10.5 Z M13,10.5 L11,10.5 C10.7238576,10.5 10.5,10.7238576 10.5,11 L10.5,13 C10.5,13.2761424 10.7238576,13.5 11,13.5 L13,13.5 C13.2761424,13.5 13.5,13.2761424 13.5,13 L13.5,11 C13.5,10.7238576 13.2761424,10.5 13,10.5 Z M18.25,10.5 L16.25,10.5 C15.9738576,10.5 15.75,10.7238576 15.75,11 L15.75,13 C15.75,13.2761424 15.9738576,13.5 16.25,13.5 L18.25,13.5 C18.5261424,13.5 18.75,13.2761424 18.75,13 L18.75,11 C18.75,10.7238576 18.5261424,10.5 18.25,10.5 Z" id="形状结合"></path>
        </g>
    </g>
</svg>