<?xml version="1.0" encoding="UTF-8"?>
<svg width="24px" height="24px" viewBox="0 0 24 24" version="1.1" xmlns="http://www.w3.org/2000/svg" xmlns:xlink="http://www.w3.org/1999/xlink">
    <title>0.icon/24/lauguag/def</title>
    <g id="控件" stroke="none" stroke-width="1" fill="none" fill-rule="evenodd">
        <g id="0.icon/24/lauguag/def">
            <rect id="矩形" x="0" y="0" width="24" height="24"></rect>
            <g id="编组-7" transform="translate(3.754889, 3.781659)">
                <rect id="矩形" fill="#FFFFFF" x="1.07826173" y="7.95243435" width="15" height="1.5"></rect>
                <path d="M8.25,0 C12.8063492,0 16.5,3.69365081 16.5,8.25 C16.5,12.8063492 12.8063492,16.5 8.25,16.5 C3.69365081,16.5 0,12.8063492 0,8.25 C0,3.69365081 3.69365081,0 8.25,0 Z M8.24511056,1.21834116 C4.37911731,1.21834116 1.24511056,4.35234791 1.24511056,8.21834116 C1.24511056,12.0843344 4.37911731,15.2183412 8.24511056,15.2183412 C12.1111038,15.2183412 15.2451106,12.0843344 15.2451106,8.21834116 C15.2451106,4.35234791 12.1111038,1.21834116 8.24511056,1.21834116 Z" id="椭圆形" fill="#FFFFFF" fill-rule="nonzero"></path>
                <path d="M11.0399984,0.608820076 C7.53149503,5.33497255 7.48506549,10.4609787 10.9007098,15.9868384" id="路径-9" stroke="#FFFFFF" stroke-width="1.5" transform="translate(9.706665, 8.297829) scale(-1, 1) translate(-9.706665, -8.297829) "></path>
                <path d="M8.25,0.608820076 C4.74149664,5.33497255 4.69506711,10.4609787 8.11071141,15.9868384" id="路径-9" stroke="#FFFFFF" stroke-width="1.5"></path>
            </g>
        </g>
    </g>
</svg>