<svg width="64" height="64" viewBox="0 0 64 64" xmlns="http://www.w3.org/2000/svg">
  <defs>
    <linearGradient id="grad1" x1="0%" y1="0%" x2="100%" y2="100%">
      <stop offset="0%" style="stop-color:#3B82F6;stop-opacity:1" />
      <stop offset="100%" style="stop-color:#1E40AF;stop-opacity:1" />
    </linearGradient>
  </defs>
  
  <!-- Background -->
  <rect width="64" height="64" rx="8" fill="url(#grad1)"/>
  
  <!-- Building icon -->
  <rect x="16" y="24" width="12" height="24" fill="white" opacity="0.9"/>
  <rect x="36" y="16" width="12" height="32" fill="white" opacity="0.9"/>
  
  <!-- Windows -->
  <rect x="18" y="26" width="2" height="2" fill="#1E40AF"/>
  <rect x="22" y="26" width="2" height="2" fill="#1E40AF"/>
  <rect x="18" y="30" width="2" height="2" fill="#1E40AF"/>
  <rect x="22" y="30" width="2" height="2" fill="#1E40AF"/>
  
  <rect x="38" y="18" width="2" height="2" fill="#1E40AF"/>
  <rect x="42" y="18" width="2" height="2" fill="#1E40AF"/>
  <rect x="38" y="22" width="2" height="2" fill="#1E40AF"/>
  <rect x="42" y="22" width="2" height="2" fill="#1E40AF"/>
  
  <!-- Chart line -->
  <polyline points="8,40 16,36 24,38 32,34 40,36 48,32 56,34" 
            stroke="white" stroke-width="2" fill="none" opacity="0.8"/>
  
  <!-- Dollar sign -->
  <text x="32" y="56" font-family="Arial, sans-serif" font-size="10" font-weight="bold" 
        text-anchor="middle" fill="white" opacity="0.9">$</text>
</svg>