<svg width="256" height="256" viewBox="0 0 256 256" xmlns="http://www.w3.org/2000/svg">
  <defs>
    <linearGradient id="grad1" x1="0%" y1="0%" x2="100%" y2="100%">
      <stop offset="0%" style="stop-color:#3B82F6;stop-opacity:1" />
      <stop offset="100%" style="stop-color:#1E40AF;stop-opacity:1" />
    </linearGradient>
  </defs>
  
  <!-- Background -->
  <rect width="256" height="256" rx="32" fill="url(#grad1)"/>
  
  <!-- Building icon -->
  <rect x="64" y="96" width="48" height="96" fill="white" opacity="0.9"/>
  <rect x="144" y="64" width="48" height="128" fill="white" opacity="0.9"/>
  
  <!-- Windows -->
  <rect x="72" y="104" width="8" height="8" fill="#1E40AF"/>
  <rect x="88" y="104" width="8" height="8" fill="#1E40AF"/>
  <rect x="72" y="120" width="8" height="8" fill="#1E40AF"/>
  <rect x="88" y="120" width="8" height="8" fill="#1E40AF"/>
  <rect x="72" y="136" width="8" height="8" fill="#1E40AF"/>
  <rect x="88" y="136" width="8" height="8" fill="#1E40AF"/>
  <rect x="72" y="152" width="8" height="8" fill="#1E40AF"/>
  <rect x="88" y="152" width="8" height="8" fill="#1E40AF"/>
  
  <rect x="152" y="72" width="8" height="8" fill="#1E40AF"/>
  <rect x="168" y="72" width="8" height="8" fill="#1E40AF"/>
  <rect x="152" y="88" width="8" height="8" fill="#1E40AF"/>
  <rect x="168" y="88" width="8" height="8" fill="#1E40AF"/>
  <rect x="152" y="104" width="8" height="8" fill="#1E40AF"/>
  <rect x="168" y="104" width="8" height="8" fill="#1E40AF"/>
  <rect x="152" y="120" width="8" height="8" fill="#1E40AF"/>
  <rect x="168" y="120" width="8" height="8" fill="#1E40AF"/>
  <rect x="152" y="136" width="8" height="8" fill="#1E40AF"/>
  <rect x="168" y="136" width="8" height="8" fill="#1E40AF"/>
  
  <!-- Chart line -->
  <polyline points="32,160 64,144 96,152 128,136 160,144 192,128 224,136" 
            stroke="white" stroke-width="6" fill="none" opacity="0.8"/>
  
  <!-- Dollar sign -->
  <text x="128" y="224" font-family="Arial, sans-serif" font-size="40" font-weight="bold" 
        text-anchor="middle" fill="white" opacity="0.9">$</text>
</svg>