<?xml version="1.0" encoding="utf-8"?>
<!-- Generator: Adobe Illustrator 27.0.0, SVG Export Plug-In . SVG Version: 6.00 Build 0)  -->
<svg version="1.1" xmlns="http://www.w3.org/2000/svg" xmlns:xlink="http://www.w3.org/1999/xlink" x="0px" y="0px"
	 viewBox="0 0 1080 1080" style="enable-background:new 0 0 1080 1080;" xml:space="preserve">
<style type="text/css">
	.st0{fill:url(#SVGID_1_);}
	.st1{fill:url(#SVGID_00000105385506281222367120000014510263926232916874_);}
	.st2{fill:url(#SVGID_00000121989332211485974760000011816190130623289769_);}
	.st3{fill:url(#SVGID_00000013878488436843176970000015785790894410789299_);}
	.st4{fill:url(#SVGID_00000034091646534716998570000000498352420758908854_);}
	.st5{fill:url(#SVGID_00000118380632451548986680000016697009262794743436_);}
	.st6{fill:#486939;}
	.st7{fill:#DEE4D2;}
	.st8{fill:#FFFFFF;}
</style>
<g id="Layer_1">
</g>
<g id="Layer_2">
	<linearGradient id="SVGID_1_" gradientUnits="userSpaceOnUse" x1="540.34784" y1="1054.78259" x2="540.34784" y2="26.43478">
		<stop  offset="0" style="stop-color:#8A8C8F"/>
		<stop  offset="1" style="stop-color:#F2F2F3"/>
	</linearGradient>
	<polygon class="st0" points="540,1054.78259 937.3913,923.82611 1015.65216,191.30435 959.30432,168.86957 953.04346,111.47826 
		540.5,26.43478 125.04348,110.95652 118.26087,166.78261 65.04348,191.82608 142.78261,922.78259 	"/>
	
		<linearGradient id="SVGID_00000021105078660940878090000012142020974076700597_" gradientUnits="userSpaceOnUse" x1="319.91306" y1="1049.04346" x2="319.91306" y2="33.21739">
		<stop  offset="0" style="stop-color:#CACACB"/>
		<stop  offset="0.22626" style="stop-color:#FCFCFC"/>
		<stop  offset="1" style="stop-color:#58595B"/>
	</linearGradient>
	<polygon style="fill:url(#SVGID_00000021105078660940878090000012142020974076700597_);" points="544,1049.04346 
		167.82608,906.6087 95.82609,193.91304 145.91304,173.04347 155.30435,116.17391 544,33.21739 	"/>
	
		<linearGradient id="SVGID_00000158722396207682121420000000542081893164506016_" gradientUnits="userSpaceOnUse" x1="763.91302" y1="1049.04346" x2="763.91302" y2="33.21739">
		<stop  offset="0" style="stop-color:#E0E0E1"/>
		<stop  offset="1" style="stop-color:#A8A9AA"/>
	</linearGradient>
	<polygon style="fill:url(#SVGID_00000158722396207682121420000000542081893164506016_);" points="544,1049.04346 
		912.86957,906.6087 983.82611,195.47826 931.13043,170.95653 930.38013,115.67973 544,33.21739 	"/>
	
		<linearGradient id="SVGID_00000107564802205589555820000003206546715437169082_" gradientUnits="userSpaceOnUse" x1="507.21738" y1="980.16998" x2="507.21738" y2="90.6087">
		<stop  offset="0" style="stop-color:#436034"/>
		<stop  offset="1" style="stop-color:#436235"/>
	</linearGradient>
	<polygon style="fill:url(#SVGID_00000107564802205589555820000003206546715437169082_);" points="544,980.16998 
		214.78261,856.52173 152.17392,226.78261 192.86957,208 198.60869,162.60869 529.3913,90.6087 862.26086,162.08696 
		860.17389,236.17392 	"/>
	
		<linearGradient id="SVGID_00000083800894704485505500000002315305967590634916_" gradientUnits="userSpaceOnUse" x1="731.565" y1="980.16998" x2="731.565" y2="96.34998">
		<stop  offset="0" style="stop-color:#436235"/>
		<stop  offset="0.24962" style="stop-color:#486738"/>
		<stop  offset="0.55096" style="stop-color:#577641"/>
		<stop  offset="0.87785" style="stop-color:#6F8E50"/>
		<stop  offset="0.95531" style="stop-color:#769554"/>
	</linearGradient>
	<polygon style="fill:url(#SVGID_00000083800894704485505500000002315305967590634916_);" points="919.13,234.60999 
		858.09003,862.26001 544,980.16998 544,96.34998 872.70001,167.83002 877.90997,212.70001 	"/>
	
		<linearGradient id="SVGID_00000058551405952205432850000006060569971384317589_" gradientUnits="userSpaceOnUse" x1="353.04501" y1="980.16998" x2="353.04501" y2="96.34998">
		<stop  offset="0.08939" style="stop-color:#436235"/>
		<stop  offset="1" style="stop-color:#769554"/>
	</linearGradient>
	<polygon style="fill:url(#SVGID_00000058551405952205432850000006060569971384317589_);" points="544,96.34998 544,980.16998 
		226.31,860.90997 162.09003,234.09003 205.37,215.20001 210.82001,168.79999 	"/>
	<g>
		<g>
			<polygon class="st6" points="267.63995,672.22406 329.72687,672.22406 329.72687,527.9632 414.24866,527.9632 
				414.24866,467.70233 329.72687,467.70233 329.72687,386.83276 426.77039,386.83276 426.77039,327.35449 267.63995,327.35449 			
				"/>
			<path class="st6" d="M623.20514,436.65869c0-59.64667-25.35321-107.99988-84.99988-107.99988H449.466v343.56525h63.13043
				V544.65881h25.60883c59.64667,0,84.99988-48.35321,84.99988-107.99988V436.65869z M561.90082,436.39795
				c0,26.07745-6.13995,47.21741-32.21741,47.21741h-17.6087v-96.78259h17.6087c26.07745,0,32.21741,21.13989,32.21741,47.21735
				V436.39795z"/>
			<path class="st6" d="M738.50952,327.35449h-66.78265L602.8573,672.22406l63.56079,0.89374l11.63147-69.50244h54.14886
				l11.26758,68.6087h64.43481L738.50952,327.35449z M688.09076,543.61536l17.28833-103.30438l16.96558,103.30438H688.09076z"/>
		</g>
	</g>
	<polygon class="st6" points="355.3913,211.91302 320.17389,206.95654 304.78259,176.17389 289.3913,206.95654 254.17389,211.91302 
		279.47827,235.91302 274,272.17389 304.78259,255.21741 335.56525,272.17389 330.08698,235.91302 	"/>
	<polygon class="st7" points="358.52173,217.65216 323.30432,212.69568 307.91302,181.91302 292.52173,212.69568 
		257.30432,217.65216 282.6087,241.65216 277.13043,277.91302 307.91302,260.95654 338.69568,277.91302 333.21741,241.65216 	"/>
	<polygon class="st6" points="470.95651,211.91302 435.73911,206.95654 420.34781,176.17389 404.95651,206.95654 
		369.73911,211.91302 395.04349,235.91302 389.56522,272.17389 420.34781,255.21741 451.13046,272.17389 445.65219,235.91302 	"/>
	<polygon class="st7" points="474.08694,217.65216 438.86954,212.69568 423.47824,181.91302 408.08694,212.69568 
		372.86954,217.65216 398.17392,241.65216 392.69565,277.91302 423.47824,260.95654 454.26089,277.91302 448.78262,241.65216 	"/>
	<polygon class="st6" points="587.30432,211.91302 552.08691,206.95654 536.69562,176.17389 521.30432,206.95654 
		486.08694,211.91302 511.39133,235.91302 505.91306,272.17389 536.69562,255.21741 567.47827,272.17389 562,235.91302 	"/>
	<polygon class="st7" points="590.43475,217.65216 555.21735,212.69568 539.82605,181.91302 524.43475,212.69568 
		489.21738,217.65216 514.52173,241.65216 509.04349,277.91302 539.82605,260.95654 570.6087,277.91302 565.13043,241.65216 	"/>
	<polygon class="st6" points="703.13043,211.91302 667.91302,206.95654 652.52173,176.17389 637.13043,206.95654 
		601.91302,211.91302 627.21741,235.91302 621.73914,272.17389 652.52173,255.21741 683.30438,272.17389 677.82611,235.91302 	"/>
	<polygon class="st7" points="706.26086,217.65216 671.04346,212.69568 655.65216,181.91302 640.26086,212.69568 
		605.04346,217.65216 630.34784,241.65216 624.86957,277.91302 655.65216,260.95654 686.43481,277.91302 680.95654,241.65216 	"/>
	<polygon class="st6" points="818.69562,211.91302 783.47821,206.95654 768.08691,176.17389 752.69562,206.95654 
		717.47821,211.91302 742.78259,235.91302 737.30432,272.17389 768.08691,255.21741 798.86957,272.17389 793.3913,235.91302 	"/>
	<polygon class="st7" points="821.82605,217.65216 786.60864,212.69568 771.21735,181.91302 755.82605,212.69568 
		720.60864,217.65216 745.91302,241.65216 740.43475,277.91302 771.21735,260.95654 802,277.91302 796.52173,241.65216 	"/>
	<g>
		<path class="st7" d="M294.19434,764.70117c4.41016,0,8.46875,0.6748,12.18066,2.01953
			c3.70898,1.3457,7.06934,3.25879,10.0791,5.7373c-0.14062,0.14258-0.49023,0.56641-1.0498,1.26855
			c-0.56055,0.7041-1.17285,1.47461-1.83691,2.31445c-0.66602,0.84082-1.29688,1.61133-1.89062,2.31055
			c-0.5957,0.7002-0.92871,1.08594-0.99707,1.15527c-5.04004-3.99023-10.81543-5.98535-17.3252-5.98535
			c-4.13086,0-7.24512,0.92676-9.34473,2.77734c-2.10059,1.85254-3.15039,4.1416-3.15039,6.86621
			c0,1.53906,0.36719,2.84766,1.10254,3.93066s1.71484,2.02637,2.94043,2.83008c1.22363,0.80371,2.60645,1.50293,4.14746,2.09668
			c1.53906,0.59375,3.11328,1.13574,4.72461,1.625c2.52051,0.83984,5.25,1.73047,8.19043,2.67383
			c2.93945,0.94336,5.66992,2.20117,8.18945,3.77344c2.52051,1.57129,4.60254,3.58105,6.24805,6.02637
			c1.64355,2.44531,2.4668,5.59082,2.4668,9.43359c0,6.15039-2.20508,10.95605-6.61426,14.41406
			c-4.41016,3.45801-10.74609,5.1875-19.00488,5.1875c-4.83008,0-9.3291-0.83301-13.49316-2.49707
			c-4.16504-1.66309-7.71777-3.91113-10.65723-6.74316l6.19531-7.03418c2.65918,2.30957,5.56445,4.13086,8.71484,5.45996
			c3.14941,1.33008,6.4043,1.99512,9.76465,1.99512c4.62012,0,8.27734-0.82031,10.97266-2.46289
			c2.69434-1.64258,4.04199-4.35156,4.04199-8.125c0-1.74512-0.38477-3.22949-1.1543-4.4541
			c-0.77148-1.22168-1.85547-2.30469-3.25488-3.25c-1.40137-0.94336-3.09766-1.76367-5.09277-2.46191
			c-1.99512-0.69922-4.21777-1.43262-6.66797-2.20215c-3.35938-1.04883-6.38867-2.09668-9.08203-3.14551
			c-2.69531-1.0459-4.9707-2.30469-6.8252-3.77344c-1.85547-1.4668-3.27246-3.23145-4.25195-5.29199
			c-0.98145-2.06055-1.4707-4.5957-1.4707-7.60156c0-2.86426,0.59375-5.46582,1.78516-7.80762
			c1.18945-2.34082,2.83496-4.33301,4.93555-5.97461c2.09961-1.64258,4.54883-2.90137,7.34961-3.77344
			C287.8584,765.13965,290.90332,764.70117,294.19434,764.70117z"/>
		<path class="st7" d="M329.89453,765.75098h9.86914v68.35547h-9.86914V765.75098z"/>
		<path class="st7" d="M398.35449,834.10645c-0.77148-1.11914-1.80371-2.65918-3.09766-4.62012
			c-1.2959-1.95898-2.73047-4.14746-4.30566-6.5625c-1.57422-2.41504-3.25488-4.96973-5.04004-7.66504
			c-1.78418-2.69336-3.53516-5.35449-5.25-7.97949c-1.71582-2.625-3.34277-5.12695-4.88184-7.50781
			c-1.54102-2.37891-2.87109-4.44434-3.99023-6.19531l-7.13965-11.23438h-0.31543v51.76465h-9.66016v-68.35547h9.4502
			c1.39941,2.1709,3.0791,4.74316,5.04004,7.71777c1.95898,2.97656,3.97168,6.03809,6.03711,9.1875
			c2.06445,3.15039,4.0957,6.19531,6.09082,9.13477c1.99414,2.94043,3.69141,5.49609,5.0918,7.66504l10.91992,17.3252h0.31543
			v-51.03027h9.55469v68.35547H398.35449z"/>
		<path class="st7" d="M418.30176,799.77148c0-5.38965,0.69922-10.25391,2.10059-14.59473
			c1.39941-4.33984,3.39453-8.0332,5.98438-11.07812c2.58887-3.04492,5.68652-5.38867,9.29297-7.03516
			c3.60449-1.64355,7.57617-2.4668,11.91699-2.4668c4.89941,0,9.15234,0.83984,12.75781,2.51953
			c3.60449,1.68066,6.73633,4.13086,9.39746,7.35059l-6.8252,6.50977c-2.30957-2.58887-4.70801-4.46289-7.19238-5.61719
			c-2.48535-1.15527-5.2334-1.7334-8.24219-1.7334c-3.08105,0-5.79297,0.65039-8.1377,1.94824
			c-2.3457,1.29785-4.34082,3.10352-5.98438,5.41699c-1.64648,2.31445-2.8877,5.08594-3.72754,8.31152
			c-0.84082,3.22656-1.26074,6.73438-1.26074,10.52148c0,3.71777,0.40234,7.19043,1.20801,10.41602
			c0.80371,3.22559,2.0293,6.03125,3.6748,8.41602c1.64355,2.38574,3.6748,4.26074,6.08984,5.62988
			c2.41504,1.36816,5.19727,2.05078,8.34766,2.05078c5.87988,0,11.09375-2.58984,15.64453-7.77051l6.8252,6.08984
			c-2.66113,3.26465-5.79297,5.83301-9.39746,7.69922c-3.60547,1.86621-8.03223,2.80078-13.28223,2.80078
			c-4.34082,0-8.29492-0.80566-11.86523-2.41504c-3.56934-1.60938-6.65137-3.9375-9.24023-6.98242
			c-2.58984-3.04492-4.58496-6.75391-5.98438-11.12988C419.00098,810.25488,418.30176,805.30176,418.30176,799.77148z"/>
		<path class="st7" d="M479.62109,765.75098h45.15039v8.82031h-35.28027v18.79492h24.99023v8.82031h-24.99023v23.09961h36.54004
			v8.82031h-46.41016V765.75098z"/>
	</g>
	<g>
		<g>
			<path class="st7" d="M605.58105,833.90723h-54.72949v-11.3418l26.94824-27.78125
				c2.39355-2.39258,4.37012-4.78613,5.82715-7.17871c1.35254-2.28906,2.08105-4.2666,2.08105-6.03516
				c0-2.28906-0.83203-4.05762-2.60156-5.41113c-1.76855-1.24805-4.26562-1.87207-7.3877-1.87207
				c-3.12109,0-6.4502,0.83203-9.98828,2.39258s-6.97168,3.84961-10.30078,6.65918l-6.45117-12.27734
				c9.57227-7.17969,19.24902-10.71777,29.13379-10.71777c4.89062,0,9.15625,0.72852,12.90234,2.28906
				c3.74609,1.56152,6.65918,3.74609,8.74023,6.55566s3.12109,6.13867,3.12109,9.88477c0,3.6416-1.24805,7.49121-3.6416,11.44531
				c-2.39258,3.9541-5.82715,8.21973-10.30078,12.79785l-16.75195,16.85645h33.39941V833.90723z"/>
			<path class="st7" d="M677.57715,797.49023c0,11.86133-2.70508,21.01758-8.21973,27.36426
				c-5.51465,6.45117-13.31836,9.67676-23.51465,9.67676c-10.30176,0-18.10547-3.22559-23.62012-9.67676
				c-5.51465-6.34668-8.32324-15.50293-8.32324-27.36426c0-11.96582,2.80859-21.12207,8.32324-27.46973
				c5.51465-6.34668,13.31836-9.57227,23.62012-9.57227c10.19629,0,18,3.22559,23.51465,9.57227
				C674.87207,776.36816,677.57715,785.52441,677.57715,797.49023z M630.75488,797.49023c0,8.42773,1.24902,14.6709,3.6416,18.52051
				c2.39355,3.9541,6.24316,5.93066,11.44629,5.93066c5.09766,0,8.84375-1.97656,11.2373-5.93066
				c2.39258-3.84961,3.6416-10.09277,3.6416-18.52051c0-8.53223-1.24902-14.77539-3.6416-18.625
				c-2.39355-3.85059-6.13965-5.82715-11.2373-5.82715c-5.20312,0-9.05273,1.97656-11.44629,5.82715
				C632.00391,782.71484,630.75488,788.95801,630.75488,797.49023z"/>
			<path class="st7" d="M750.92578,797.49023c0,11.86133-2.70508,21.01758-8.21973,27.36426
				c-5.51465,6.45117-13.31836,9.67676-23.51465,9.67676c-10.30176,0-18.10547-3.22559-23.62012-9.67676
				c-5.51465-6.34668-8.32324-15.50293-8.32324-27.36426c0-11.96582,2.80859-21.12207,8.32324-27.46973
				c5.51465-6.34668,13.31836-9.57227,23.62012-9.57227c10.19629,0,18,3.22559,23.51465,9.57227
				C748.2207,776.36816,750.92578,785.52441,750.92578,797.49023z M704.10352,797.49023c0,8.42773,1.24902,14.6709,3.6416,18.52051
				c2.39355,3.9541,6.24316,5.93066,11.44629,5.93066c5.09766,0,8.84375-1.97656,11.2373-5.93066
				c2.39258-3.84961,3.6416-10.09277,3.6416-18.52051c0-8.53223-1.24902-14.77539-3.6416-18.625
				c-2.39355-3.85059-6.13965-5.82715-11.2373-5.82715c-5.20312,0-9.05273,1.97656-11.44629,5.82715
				C705.35254,782.71484,704.10352,788.95801,704.10352,797.49023z"/>
			<path class="st7" d="M813.24414,798.21777c2.28906,3.33008,3.43359,7.17969,3.43359,11.44629
				c0,4.99414-1.14453,9.36426-3.53711,13.10938c-2.39355,3.85059-5.82715,6.76367-10.19727,8.74023
				c-4.47363,2.08105-9.57227,3.12207-15.39941,3.12207c-4.68164,0-9.57227-0.83301-14.6709-2.49707
				c-5.09863-1.56055-9.67676-3.74609-13.52637-6.34766l6.34668-12.27734c3.01758,2.49707,6.34766,4.47363,9.78125,5.82617
				c3.43359,1.35352,6.86719,2.08105,10.30078,2.08105c4.05762,0,7.2832-0.93652,9.67676-2.91309
				c2.39258-1.87305,3.53809-4.47363,3.53809-7.69922s-1.14551-5.61914-3.43457-7.3877
				c-2.39258-1.66504-5.82617-2.49707-10.4043-2.49707c-2.60156,0-5.93066,0-10.09277,0.10352
				c-4.2666,0.10449-7.3877,0.3125-9.57324,0.52051v-40.47559h47.86328v13.73438h-32.67188v12.79883h8.11621
				c5.51465,0,10.40527,0.93652,14.6709,2.80859C807.72949,792.28711,810.95508,794.88867,813.24414,798.21777z"/>
		</g>
	</g>
	<g>
		<polygon class="st8" points="273.21741,678.08698 335.30432,678.08698 335.30432,533.82611 419.82611,533.82611 
			419.82611,473.56525 335.30432,473.56525 335.30432,392.69568 432.34784,392.69568 432.34784,333.21741 273.21741,333.21741 		"/>
		<path class="st8" d="M628.78259,442.52161c0-59.64667-25.35321-107.99988-84.99988-107.99988h-88.73926v343.56525h63.13043
			V550.52173h25.60883c59.64667,0,84.99988-48.35321,84.99988-107.99988V442.52161z M567.47827,442.26086
			c0,26.07745-6.13995,47.21741-32.21741,47.21741h-17.6087v-96.78259h17.6087c26.07745,0,32.21741,21.13989,32.21741,47.21735
			V442.26086z"/>
		<path class="st8" d="M744.08698,333.21741h-66.78265l-68.86957,344.86957l63.56079,0.89374l11.63147-69.50244h54.14886
			l11.26758,68.6087h64.43481L744.08698,333.21741z M693.66821,549.47827l17.28833-103.30438l16.96558,103.30438H693.66821z"/>
	</g>
</g>
</svg>
