<svg xmlns="http://www.w3.org/2000/svg" width="14" height="14" viewBox="0 0 14 14" fill="none">
  <path d="M6.66667 0C2.99055 0 0 2.99055 0 6.66667C0 10.3428 2.99055 13.3333 6.66667 13.3333C10.3428 13.3333 13.3333 10.3428 13.3333 6.66667C13.3333 2.99055 10.3428 0 6.66667 0ZM8.14333 10.1578C7.77613 10.3022 6.50333 10.91 5.77 10.2639C5.55113 10.0717 5.4422 9.8278 5.4422 9.53167C5.4422 8.9772 5.62447 8.49387 5.9528 7.33333C6.01053 7.11387 6.08113 6.82947 6.08113 6.60387C6.08113 6.21447 5.93333 6.11113 5.5328 6.11113C5.3372 6.11113 5.12055 6.18053 4.92445 6.25387L5.03278 5.81C5.47 5.6322 6.01887 5.41553 6.48887 5.41553C7.19387 5.41553 7.7128 5.7672 7.7128 6.43613C7.7128 6.62887 7.67947 6.96667 7.60947 7.2L7.20387 8.63447C7.12 8.92447 6.96833 9.56387 7.20333 9.75333C7.43447 9.94053 7.98167 9.84113 8.25167 9.71387L8.14333 10.1578ZM7.47333 4.44445C7.01333 4.44445 6.64 4.07111 6.64 3.61111C6.64 3.15111 7.01333 2.77778 7.47333 2.77778C7.93333 2.77778 8.30667 3.15111 8.30667 3.61111C8.30667 4.07111 7.93333 4.44445 7.47333 4.44445Z" fill="#A7B0C3"/>
</svg>
