<?xml version='1.0'?>
<!--
Bitly Generated QR Code
v4
33x33
-->
<svg width='656' height='656'
xmlns='http://www.w3.org/2000/svg'
xmlns:xlink='http://www.w3.org/1999/xlink'>
	<g id='background' style='fill:#ffffff' >
<rect x="0" y="0" width="656" height="656" />
</g>
<g id='pips' style='fill:#000000' >
<path d="M248,64.8L248,64.8A7.2,7.2,0,0,1,255.2,72L255.2,72A7.2,7.2,0,0,1,248,79.2L248,79.2A7.2,7.2,0,0,1,240.8,72L240.8,72A7.2,7.2,0,0,1,248,64.8M280,64.8L280,64.8A7.2,7.2,0,0,1,287.2,72L287.2,72A7.2,7.2,0,0,1,280,79.2L280,79.2A7.2,7.2,0,0,1,272.8,72L272.8,72A7.2,7.2,0,0,1,280,64.8M328,64.8L328,64.8A7.2,7.2,0,0,1,335.2,72L335.2,72A7.2,7.2,0,0,1,328,79.2L328,79.2A7.2,7.2,0,0,1,320.8,72L320.8,72A7.2,7.2,0,0,1,328,64.8M376,64.8L384,64.8L392,64.8A7.2,7.2,0,0,1,399.2,72L399.2,72A7.2,7.2,0,0,1,392,79.2L384,79.2L376,79.2A7.2,7.2,0,0,1,368.8,72L368.8,72A7.2,7.2,0,0,1,376,64.8M424,64.8L424,64.8A7.2,7.2,0,0,1,431.2,72L431.2,72A7.2,7.2,0,0,1,424,79.2L424,79.2A7.2,7.2,0,0,1,416.8,72L416.8,72A7.2,7.2,0,0,1,424,64.8M456,64.8L456,64.8A7.2,7.2,0,0,1,463.2,72L463.2,72A7.2,7.2,0,0,1,456,79.2L456,79.2A7.2,7.2,0,0,1,448.8,72L448.8,72A7.2,7.2,0,0,1,456,64.8ZM216,80.8L224,80.8L240,80.8L248,80.8A7.2,7.2,0,0,1,255.2,88L255.2,88A7.2,7.2,0,0,1,248,95.2L240,95.2L224,95.2L216,95.2A7.2,7.2,0,0,1,208.8,88L208.8,88A7.2,7.2,0,0,1,216,80.8M296,80.8L304,80.8L320,80.8L336,80.8L352,80.8L360,80.8A7.2,7.2,0,0,1,367.2,88L367.2,88A7.2,7.2,0,0,1,360,95.2L352,95.2L336,95.2L320,95.2L304,95.2L296,95.2A7.2,7.2,0,0,1,288.8,88L288.8,88A7.2,7.2,0,0,1,296,80.8M392,80.8L400,80.8L416,80.8L424,80.8A7.2,7.2,0,0,1,431.2,88L431.2,88A7.2,7.2,0,0,1,424,95.2L416,95.2L400,95.2L392,95.2A7.2,7.2,0,0,1,384.8,88L384.8,88A7.2,7.2,0,0,1,392,80.8M456,80.8L456,80.8A7.2,7.2,0,0,1,463.2,88L463.2,88A7.2,7.2,0,0,1,456,95.2L456,95.2A7.2,7.2,0,0,1,448.8,88L448.8,88A7.2,7.2,0,0,1,456,80.8ZM200,96.8L208,96.8L224,96.8L240,96.8L256,96.8L272,96.8L280,96.8A7.2,7.2,0,0,1,287.2,104L287.2,104A7.2,7.2,0,0,1,280,111.2L272,111.2L256,111.2L240,111.2L224,111.2L208,111.2L200,111.2A7.2,7.2,0,0,1,192.8,104L192.8,104A7.2,7.2,0,0,1,200,96.8M312,96.8L312,96.8A7.2,7.2,0,0,1,319.2,104L319.2,104A7.2,7.2,0,0,1,312,111.2L312,111.2A7.2,7.2,0,0,1,304.8,104L304.8,104A7.2,7.2,0,0,1,312,96.8M344,96.8L352,96.8L368,96.8L376,96.8A7.2,7.2,0,0,1,383.2,104L383.2,104A7.2,7.2,0,0,1,376,111.2L368,111.2L352,111.2L344,111.2A7.2,7.2,0,0,1,336.8,104L336.8,104A7.2,7.2,0,0,1,344,96.8M408,96.8L408,96.8A7.2,7.2,0,0,1,415.2,104L415.2,104A7.2,7.2,0,0,1,408,111.2L408,111.2A7.2,7.2,0,0,1,400.8,104L400.8,104A7.2,7.2,0,0,1,408,96.8M440,96.8L448,96.8L456,96.8A7.2,7.2,0,0,1,463.2,104L463.2,104A7.2,7.2,0,0,1,456,111.2L448,111.2L440,111.2A7.2,7.2,0,0,1,432.8,104L432.8,104A7.2,7.2,0,0,1,440,96.8ZM200,112.8L200,112.8A7.2,7.2,0,0,1,207.2,120L207.2,120A7.2,7.2,0,0,1,200,127.2L200,127.2A7.2,7.2,0,0,1,192.8,120L192.8,120A7.2,7.2,0,0,1,200,112.8M264,112.8L264,112.8A7.2,7.2,0,0,1,271.2,120L271.2,120A7.2,7.2,0,0,1,264,127.2L264,127.2A7.2,7.2,0,0,1,256.8,120L256.8,120A7.2,7.2,0,0,1,264,112.8M296,112.8L304,112.8L320,112.8L336,112.8L352,112.8L360,112.8A7.2,7.2,0,0,1,367.2,120L367.2,120A7.2,7.2,0,0,1,360,127.2L352,127.2L336,127.2L320,127.2L304,127.2L296,127.2A7.2,7.2,0,0,1,288.8,120L288.8,120A7.2,7.2,0,0,1,296,112.8M408,112.8L416,112.8L432,112.8L448,112.8L456,112.8A7.2,7.2,0,0,1,463.2,120L463.2,120A7.2,7.2,0,0,1,456,127.2L448,127.2L432,127.2L416,127.2L408,127.2A7.2,7.2,0,0,1,400.8,120L400.8,120A7.2,7.2,0,0,1,408,112.8ZM232,128.8L232,128.8A7.2,7.2,0,0,1,239.2,136L239.2,136A7.2,7.2,0,0,1,232,143.2L232,143.2A7.2,7.2,0,0,1,224.8,136L224.8,136A7.2,7.2,0,0,1,232,128.8M296,128.8L304,128.8L312,128.8A7.2,7.2,0,0,1,319.2,136L319.2,136A7.2,7.2,0,0,1,312,143.2L304,143.2L296,143.2A7.2,7.2,0,0,1,288.8,136L288.8,136A7.2,7.2,0,0,1,296,128.8M344,128.8L352,128.8L360,128.8A7.2,7.2,0,0,1,367.2,136L367.2,136A7.2,7.2,0,0,1,360,143.2L352,143.2L344,143.2A7.2,7.2,0,0,1,336.8,136L336.8,136A7.2,7.2,0,0,1,344,128.8M392,128.8L400,128.8L416,128.8L432,128.8L440,128.8A7.2,7.2,0,0,1,447.2,136L447.2,136A7.2,7.2,0,0,1,440,143.2L432,143.2L416,143.2L400,143.2L392,143.2A7.2,7.2,0,0,1,384.8,136L384.8,136A7.2,7.2,0,0,1,392,128.8ZM216,144.8L216,144.8A7.2,7.2,0,0,1,223.2,152L223.2,152A7.2,7.2,0,0,1,216,159.2L216,159.2A7.2,7.2,0,0,1,208.8,152L208.8,152A7.2,7.2,0,0,1,216,144.8M264,144.8L264,144.8A7.2,7.2,0,0,1,271.2,152L271.2,152A7.2,7.2,0,0,1,264,159.2L264,159.2A7.2,7.2,0,0,1,256.8,152L256.8,152A7.2,7.2,0,0,1,264,144.8M312,144.8L320,144.8L336,144.8L352,144.8L368,144.8L376,144.8A7.2,7.2,0,0,1,383.2,152L383.2,152A7.2,7.2,0,0,1,376,159.2L368,159.2L352,159.2L336,159.2L320,159.2L312,159.2A7.2,7.2,0,0,1,304.8,152L304.8,152A7.2,7.2,0,0,1,312,144.8M408,144.8L416,144.8L424,144.8A7.2,7.2,0,0,1,431.2,152L431.2,152A7.2,7.2,0,0,1,424,159.2L416,159.2L408,159.2A7.2,7.2,0,0,1,400.8,152L400.8,152A7.2,7.2,0,0,1,408,144.8M456,144.8L456,144.8A7.2,7.2,0,0,1,463.2,152L463.2,152A7.2,7.2,0,0,1,456,159.2L456,159.2A7.2,7.2,0,0,1,448.8,152L448.8,152A7.2,7.2,0,0,1,456,144.8ZM200,160.8L200,160.8A7.2,7.2,0,0,1,207.2,168L207.2,168A7.2,7.2,0,0,1,200,175.2L200,175.2A7.2,7.2,0,0,1,192.8,168L192.8,168A7.2,7.2,0,0,1,200,160.8M232,160.8L232,160.8A7.2,7.2,0,0,1,239.2,168L239.2,168A7.2,7.2,0,0,1,232,175.2L232,175.2A7.2,7.2,0,0,1,224.8,168L224.8,168A7.2,7.2,0,0,1,232,160.8M264,160.8L264,160.8A7.2,7.2,0,0,1,271.2,168L271.2,168A7.2,7.2,0,0,1,264,175.2L264,175.2A7.2,7.2,0,0,1,256.8,168L256.8,168A7.2,7.2,0,0,1,264,160.8M296,160.8L296,160.8A7.2,7.2,0,0,1,303.2,168L303.2,168A7.2,7.2,0,0,1,296,175.2L296,175.2A7.2,7.2,0,0,1,288.8,168L288.8,168A7.2,7.2,0,0,1,296,160.8M328,160.8L328,160.8A7.2,7.2,0,0,1,335.2,168L335.2,168A7.2,7.2,0,0,1,328,175.2L328,175.2A7.2,7.2,0,0,1,320.8,168L320.8,168A7.2,7.2,0,0,1,328,160.8M360,160.8L360,160.8A7.2,7.2,0,0,1,367.2,168L367.2,168A7.2,7.2,0,0,1,360,175.2L360,175.2A7.2,7.2,0,0,1,352.8,168L352.8,168A7.2,7.2,0,0,1,360,160.8M392,160.8L392,160.8A7.2,7.2,0,0,1,399.2,168L399.2,168A7.2,7.2,0,0,1,392,175.2L392,175.2A7.2,7.2,0,0,1,384.8,168L384.8,168A7.2,7.2,0,0,1,392,160.8M424,160.8L424,160.8A7.2,7.2,0,0,1,431.2,168L431.2,168A7.2,7.2,0,0,1,424,175.2L424,175.2A7.2,7.2,0,0,1,416.8,168L416.8,168A7.2,7.2,0,0,1,424,160.8M456,160.8L456,160.8A7.2,7.2,0,0,1,463.2,168L463.2,168A7.2,7.2,0,0,1,456,175.2L456,175.2A7.2,7.2,0,0,1,448.8,168L448.8,168A7.2,7.2,0,0,1,456,160.8ZM248,176.8L248,176.8A7.2,7.2,0,0,1,255.2,184L255.2,184A7.2,7.2,0,0,1,248,191.2L248,191.2A7.2,7.2,0,0,1,240.8,184L240.8,184A7.2,7.2,0,0,1,248,176.8M312,176.8L312,176.8A7.2,7.2,0,0,1,319.2,184L319.2,184A7.2,7.2,0,0,1,312,191.2L312,191.2A7.2,7.2,0,0,1,304.8,184L304.8,184A7.2,7.2,0,0,1,312,176.8M344,176.8L352,176.8L360,176.8A7.2,7.2,0,0,1,367.2,184L367.2,184A7.2,7.2,0,0,1,360,191.2L352,191.2L344,191.2A7.2,7.2,0,0,1,336.8,184L336.8,184A7.2,7.2,0,0,1,344,176.8M392,176.8L392,176.8A7.2,7.2,0,0,1,399.2,184L399.2,184A7.2,7.2,0,0,1,392,191.2L392,191.2A7.2,7.2,0,0,1,384.8,184L384.8,184A7.2,7.2,0,0,1,392,176.8M440,176.8L440,176.8A7.2,7.2,0,0,1,447.2,184L447.2,184A7.2,7.2,0,0,1,440,191.2L440,191.2A7.2,7.2,0,0,1,432.8,184L432.8,184A7.2,7.2,0,0,1,440,176.8ZM120,192.8L128,192.8L136,192.8A7.2,7.2,0,0,1,143.2,200L143.2,200A7.2,7.2,0,0,1,136,207.2L128,207.2L120,207.2A7.2,7.2,0,0,1,112.8,200L112.8,200A7.2,7.2,0,0,1,120,192.8M168,192.8L176,192.8L184,192.8A7.2,7.2,0,0,1,191.2,200L191.2,200A7.2,7.2,0,0,1,184,207.2L176,207.2L168,207.2A7.2,7.2,0,0,1,160.8,200L160.8,200A7.2,7.2,0,0,1,168,192.8M216,192.8L216,192.8A7.2,7.2,0,0,1,223.2,200L223.2,200A7.2,7.2,0,0,1,216,207.2L216,207.2A7.2,7.2,0,0,1,208.8,200L208.8,200A7.2,7.2,0,0,1,216,192.8M280,192.8L280,192.8A7.2,7.2,0,0,1,287.2,200L287.2,200A7.2,7.2,0,0,1,280,207.2L280,207.2A7.2,7.2,0,0,1,272.8,200L272.8,200A7.2,7.2,0,0,1,280,192.8M312,192.8L312,192.8A7.2,7.2,0,0,1,319.2,200L319.2,200A7.2,7.2,0,0,1,312,207.2L312,207.2A7.2,7.2,0,0,1,304.8,200L304.8,200A7.2,7.2,0,0,1,312,192.8M360,192.8L368,192.8L384,192.8L392,192.8A7.2,7.2,0,0,1,399.2,200L399.2,200A7.2,7.2,0,0,1,392,207.2L384,207.2L368,207.2L360,207.2A7.2,7.2,0,0,1,352.8,200L352.8,200A7.2,7.2,0,0,1,360,192.8M424,192.8L432,192.8L440,192.8A7.2,7.2,0,0,1,447.2,200L447.2,200A7.2,7.2,0,0,1,440,207.2L432,207.2L424,207.2A7.2,7.2,0,0,1,416.8,200L416.8,200A7.2,7.2,0,0,1,424,192.8M536,192.8L544,192.8L552,192.8A7.2,7.2,0,0,1,559.2,200L559.2,200A7.2,7.2,0,0,1,552,207.2L544,207.2L536,207.2A7.2,7.2,0,0,1,528.8,200L528.8,200A7.2,7.2,0,0,1,536,192.8ZM88,208.8L88,208.8A7.2,7.2,0,0,1,95.2,216L95.2,216A7.2,7.2,0,0,1,88,223.2L88,223.2A7.2,7.2,0,0,1,80.8,216L80.8,216A7.2,7.2,0,0,1,88,208.8M120,208.8L120,208.8A7.2,7.2,0,0,1,127.2,216L127.2,216A7.2,7.2,0,0,1,120,223.2L120,223.2A7.2,7.2,0,0,1,112.8,216L112.8,216A7.2,7.2,0,0,1,120,208.8M152,208.8L152,208.8A7.2,7.2,0,0,1,159.2,216L159.2,216A7.2,7.2,0,0,1,152,223.2L152,223.2A7.2,7.2,0,0,1,144.8,216L144.8,216A7.2,7.2,0,0,1,152,208.8M200,208.8L208,208.8L216,208.8A7.2,7.2,0,0,1,223.2,216L223.2,216A7.2,7.2,0,0,1,216,223.2L208,223.2L200,223.2A7.2,7.2,0,0,1,192.8,216L192.8,216A7.2,7.2,0,0,1,200,208.8M280,208.8L280,208.8A7.2,7.2,0,0,1,287.2,216L287.2,216A7.2,7.2,0,0,1,280,223.2L280,223.2A7.2,7.2,0,0,1,272.8,216L272.8,216A7.2,7.2,0,0,1,280,208.8M328,208.8L336,208.8L344,208.8A7.2,7.2,0,0,1,351.2,216L351.2,216A7.2,7.2,0,0,1,344,223.2L336,223.2L328,223.2A7.2,7.2,0,0,1,320.8,216L320.8,216A7.2,7.2,0,0,1,328,208.8M376,208.8L384,208.8L392,208.8A7.2,7.2,0,0,1,399.2,216L399.2,216A7.2,7.2,0,0,1,392,223.2L384,223.2L376,223.2A7.2,7.2,0,0,1,368.8,216L368.8,216A7.2,7.2,0,0,1,376,208.8M440,208.8L440,208.8A7.2,7.2,0,0,1,447.2,216L447.2,216A7.2,7.2,0,0,1,440,223.2L440,223.2A7.2,7.2,0,0,1,432.8,216L432.8,216A7.2,7.2,0,0,1,440,208.8M472,208.8L472,208.8A7.2,7.2,0,0,1,479.2,216L479.2,216A7.2,7.2,0,0,1,472,223.2L472,223.2A7.2,7.2,0,0,1,464.8,216L464.8,216A7.2,7.2,0,0,1,472,208.8M504,208.8L512,208.8L520,208.8A7.2,7.2,0,0,1,527.2,216L527.2,216A7.2,7.2,0,0,1,520,223.2L512,223.2L504,223.2A7.2,7.2,0,0,1,496.8,216L496.8,216A7.2,7.2,0,0,1,504,208.8M552,208.8L552,208.8A7.2,7.2,0,0,1,559.2,216L559.2,216A7.2,7.2,0,0,1,552,223.2L552,223.2A7.2,7.2,0,0,1,544.8,216L544.8,216A7.2,7.2,0,0,1,552,208.8ZM120,224.8L120,224.8A7.2,7.2,0,0,1,127.2,232L127.2,232A7.2,7.2,0,0,1,120,239.2L120,239.2A7.2,7.2,0,0,1,112.8,232L112.8,232A7.2,7.2,0,0,1,120,224.8M152,224.8L160,224.8L168,224.8A7.2,7.2,0,0,1,175.2,232L175.2,232A7.2,7.2,0,0,1,168,239.2L160,239.2L152,239.2A7.2,7.2,0,0,1,144.8,232L144.8,232A7.2,7.2,0,0,1,152,224.8M200,224.8L200,224.8A7.2,7.2,0,0,1,207.2,232L207.2,232A7.2,7.2,0,0,1,200,239.2L200,239.2A7.2,7.2,0,0,1,192.8,232L192.8,232A7.2,7.2,0,0,1,200,224.8M232,224.8L232,224.8A7.2,7.2,0,0,1,239.2,232L239.2,232A7.2,7.2,0,0,1,232,239.2L232,239.2A7.2,7.2,0,0,1,224.8,232L224.8,232A7.2,7.2,0,0,1,232,224.8M280,224.8L280,224.8A7.2,7.2,0,0,1,287.2,232L287.2,232A7.2,7.2,0,0,1,280,239.2L280,239.2A7.2,7.2,0,0,1,272.8,232L272.8,232A7.2,7.2,0,0,1,280,224.8M312,224.8L312,224.8A7.2,7.2,0,0,1,319.2,232L319.2,232A7.2,7.2,0,0,1,312,239.2L312,239.2A7.2,7.2,0,0,1,304.8,232L304.8,232A7.2,7.2,0,0,1,312,224.8M360,224.8L368,224.8L376,224.8A7.2,7.2,0,0,1,383.2,232L383.2,232A7.2,7.2,0,0,1,376,239.2L368,239.2L360,239.2A7.2,7.2,0,0,1,352.8,232L352.8,232A7.2,7.2,0,0,1,360,224.8M408,224.8L408,224.8A7.2,7.2,0,0,1,415.2,232L415.2,232A7.2,7.2,0,0,1,408,239.2L408,239.2A7.2,7.2,0,0,1,400.8,232L400.8,232A7.2,7.2,0,0,1,408,224.8M440,224.8L440,224.8A7.2,7.2,0,0,1,447.2,232L447.2,232A7.2,7.2,0,0,1,440,239.2L440,239.2A7.2,7.2,0,0,1,432.8,232L432.8,232A7.2,7.2,0,0,1,440,224.8M472,224.8L472,224.8A7.2,7.2,0,0,1,479.2,232L479.2,232A7.2,7.2,0,0,1,472,239.2L472,239.2A7.2,7.2,0,0,1,464.8,232L464.8,232A7.2,7.2,0,0,1,472,224.8M504,224.8L504,224.8A7.2,7.2,0,0,1,511.2,232L511.2,232A7.2,7.2,0,0,1,504,239.2L504,239.2A7.2,7.2,0,0,1,496.8,232L496.8,232A7.2,7.2,0,0,1,504,224.8M536,224.8L536,224.8A7.2,7.2,0,0,1,543.2,232L543.2,232A7.2,7.2,0,0,1,536,239.2L536,239.2A7.2,7.2,0,0,1,528.8,232L528.8,232A7.2,7.2,0,0,1,536,224.8M568,224.8L576,224.8L584,224.8A7.2,7.2,0,0,1,591.2,232L591.2,232A7.2,7.2,0,0,1,584,239.2L576,239.2L568,239.2A7.2,7.2,0,0,1,560.8,232L560.8,232A7.2,7.2,0,0,1,568,224.8ZM104,240.8L112,240.8L128,240.8L144,240.8L152,240.8A7.2,7.2,0,0,1,159.2,248L159.2,248A7.2,7.2,0,0,1,152,255.2L144,255.2L128,255.2L112,255.2L104,255.2A7.2,7.2,0,0,1,96.8,248L96.8,248A7.2,7.2,0,0,1,104,240.8M216,240.8L224,240.8L240,240.8L248,240.8A7.2,7.2,0,0,1,255.2,248L255.2,248A7.2,7.2,0,0,1,248,255.2L240,255.2L224,255.2L216,255.2A7.2,7.2,0,0,1,208.8,248L208.8,248A7.2,7.2,0,0,1,216,240.8M344,240.8L344,240.8A7.2,7.2,0,0,1,351.2,248L351.2,248A7.2,7.2,0,0,1,344,255.2L344,255.2A7.2,7.2,0,0,1,336.8,248L336.8,248A7.2,7.2,0,0,1,344,240.8M376,240.8L384,240.8L392,240.8A7.2,7.2,0,0,1,399.2,248L399.2,248A7.2,7.2,0,0,1,392,255.2L384,255.2L376,255.2A7.2,7.2,0,0,1,368.8,248L368.8,248A7.2,7.2,0,0,1,376,240.8M488,240.8L496,240.8L512,240.8L520,240.8A7.2,7.2,0,0,1,527.2,248L527.2,248A7.2,7.2,0,0,1,520,255.2L512,255.2L496,255.2L488,255.2A7.2,7.2,0,0,1,480.8,248L480.8,248A7.2,7.2,0,0,1,488,240.8M552,240.8L552,240.8A7.2,7.2,0,0,1,559.2,248L559.2,248A7.2,7.2,0,0,1,552,255.2L552,255.2A7.2,7.2,0,0,1,544.8,248L544.8,248A7.2,7.2,0,0,1,552,240.8M584,240.8L584,240.8A7.2,7.2,0,0,1,591.2,248L591.2,248A7.2,7.2,0,0,1,584,255.2L584,255.2A7.2,7.2,0,0,1,576.8,248L576.8,248A7.2,7.2,0,0,1,584,240.8ZM72,256.8L80,256.8L88,256.8A7.2,7.2,0,0,1,95.2,264L95.2,264A7.2,7.2,0,0,1,88,271.2L80,271.2L72,271.2A7.2,7.2,0,0,1,64.8,264L64.8,264A7.2,7.2,0,0,1,72,256.8M120,256.8L120,256.8A7.2,7.2,0,0,1,127.2,264L127.2,264A7.2,7.2,0,0,1,120,271.2L120,271.2A7.2,7.2,0,0,1,112.8,264L112.8,264A7.2,7.2,0,0,1,120,256.8M168,256.8L168,256.8A7.2,7.2,0,0,1,175.2,264L175.2,264A7.2,7.2,0,0,1,168,271.2L168,271.2A7.2,7.2,0,0,1,160.8,264L160.8,264A7.2,7.2,0,0,1,168,256.8M200,256.8L208,256.8L216,256.8A7.2,7.2,0,0,1,223.2,264L223.2,264A7.2,7.2,0,0,1,216,271.2L208,271.2L200,271.2A7.2,7.2,0,0,1,192.8,264L192.8,264A7.2,7.2,0,0,1,200,256.8M248,256.8L256,256.8L272,256.8L288,256.8L304,256.8L312,256.8A7.2,7.2,0,0,1,319.2,264L319.2,264A7.2,7.2,0,0,1,312,271.2L304,271.2L288,271.2L272,271.2L256,271.2L248,271.2A7.2,7.2,0,0,1,240.8,264L240.8,264A7.2,7.2,0,0,1,248,256.8M360,256.8L368,256.8L376,256.8A7.2,7.2,0,0,1,383.2,264L383.2,264A7.2,7.2,0,0,1,376,271.2L368,271.2L360,271.2A7.2,7.2,0,0,1,352.8,264L352.8,264A7.2,7.2,0,0,1,360,256.8M408,256.8L416,256.8L424,256.8A7.2,7.2,0,0,1,431.2,264L431.2,264A7.2,7.2,0,0,1,424,271.2L416,271.2L408,271.2A7.2,7.2,0,0,1,400.8,264L400.8,264A7.2,7.2,0,0,1,408,256.8M456,256.8L456,256.8A7.2,7.2,0,0,1,463.2,264L463.2,264A7.2,7.2,0,0,1,456,271.2L456,271.2A7.2,7.2,0,0,1,448.8,264L448.8,264A7.2,7.2,0,0,1,456,256.8M488,256.8L488,256.8A7.2,7.2,0,0,1,495.2,264L495.2,264A7.2,7.2,0,0,1,488,271.2L488,271.2A7.2,7.2,0,0,1,480.8,264L480.8,264A7.2,7.2,0,0,1,488,256.8M520,256.8L528,256.8L536,256.8A7.2,7.2,0,0,1,543.2,264L543.2,264A7.2,7.2,0,0,1,536,271.2L528,271.2L520,271.2A7.2,7.2,0,0,1,512.8,264L512.8,264A7.2,7.2,0,0,1,520,256.8M568,256.8L576,256.8L584,256.8A7.2,7.2,0,0,1,591.2,264L591.2,264A7.2,7.2,0,0,1,584,271.2L576,271.2L568,271.2A7.2,7.2,0,0,1,560.8,264L560.8,264A7.2,7.2,0,0,1,568,256.8ZM120,272.8L128,272.8L144,272.8L152,272.8A7.2,7.2,0,0,1,159.2,280L159.2,280A7.2,7.2,0,0,1,152,287.2L144,287.2L128,287.2L120,287.2A7.2,7.2,0,0,1,112.8,280L112.8,280A7.2,7.2,0,0,1,120,272.8M216,272.8L224,272.8L240,272.8L248,272.8A7.2,7.2,0,0,1,255.2,280L255.2,280A7.2,7.2,0,0,1,248,287.2L240,287.2L224,287.2L216,287.2A7.2,7.2,0,0,1,208.8,280L208.8,280A7.2,7.2,0,0,1,216,272.8M280,272.8L288,272.8L304,272.8L312,272.8A7.2,7.2,0,0,1,319.2,280L319.2,280A7.2,7.2,0,0,1,312,287.2L304,287.2L288,287.2L280,287.2A7.2,7.2,0,0,1,272.8,280L272.8,280A7.2,7.2,0,0,1,280,272.8M376,272.8L376,272.8A7.2,7.2,0,0,1,383.2,280L383.2,280A7.2,7.2,0,0,1,376,287.2L376,287.2A7.2,7.2,0,0,1,368.8,280L368.8,280A7.2,7.2,0,0,1,376,272.8M408,272.8L416,272.8L432,272.8L448,272.8L464,272.8L472,272.8A7.2,7.2,0,0,1,479.2,280L479.2,280A7.2,7.2,0,0,1,472,287.2L464,287.2L448,287.2L432,287.2L416,287.2L408,287.2A7.2,7.2,0,0,1,400.8,280L400.8,280A7.2,7.2,0,0,1,408,272.8M552,272.8L560,272.8L568,272.8A7.2,7.2,0,0,1,575.2,280L575.2,280A7.2,7.2,0,0,1,568,287.2L560,287.2L552,287.2A7.2,7.2,0,0,1,544.8,280L544.8,280A7.2,7.2,0,0,1,552,272.8ZM72,288.8L72,288.8A7.2,7.2,0,0,1,79.2,296L79.2,296A7.2,7.2,0,0,1,72,303.2L72,303.2A7.2,7.2,0,0,1,64.8,296L64.8,296A7.2,7.2,0,0,1,72,288.8M120,288.8L120,288.8A7.2,7.2,0,0,1,127.2,296L127.2,296A7.2,7.2,0,0,1,120,303.2L120,303.2A7.2,7.2,0,0,1,112.8,296L112.8,296A7.2,7.2,0,0,1,120,288.8M152,288.8L160,288.8L176,288.8L184,288.8A7.2,7.2,0,0,1,191.2,296L191.2,296A7.2,7.2,0,0,1,184,303.2L176,303.2L160,303.2L152,303.2A7.2,7.2,0,0,1,144.8,296L144.8,296A7.2,7.2,0,0,1,152,288.8M232,288.8L232,288.8A7.2,7.2,0,0,1,239.2,296L239.2,296A7.2,7.2,0,0,1,232,303.2L232,303.2A7.2,7.2,0,0,1,224.8,296L224.8,296A7.2,7.2,0,0,1,232,288.8M264,288.8L272,288.8L288,288.8L296,288.8A7.2,7.2,0,0,1,303.2,296L303.2,296A7.2,7.2,0,0,1,296,303.2L288,303.2L272,303.2L264,303.2A7.2,7.2,0,0,1,256.8,296L256.8,296A7.2,7.2,0,0,1,264,288.8M360,288.8L360,288.8A7.2,7.2,0,0,1,367.2,296L367.2,296A7.2,7.2,0,0,1,360,303.2L360,303.2A7.2,7.2,0,0,1,352.8,296L352.8,296A7.2,7.2,0,0,1,360,288.8M392,288.8L392,288.8A7.2,7.2,0,0,1,399.2,296L399.2,296A7.2,7.2,0,0,1,392,303.2L392,303.2A7.2,7.2,0,0,1,384.8,296L384.8,296A7.2,7.2,0,0,1,392,288.8M472,288.8L472,288.8A7.2,7.2,0,0,1,479.2,296L479.2,296A7.2,7.2,0,0,1,472,303.2L472,303.2A7.2,7.2,0,0,1,464.8,296L464.8,296A7.2,7.2,0,0,1,472,288.8M520,288.8L520,288.8A7.2,7.2,0,0,1,527.2,296L527.2,296A7.2,7.2,0,0,1,520,303.2L520,303.2A7.2,7.2,0,0,1,512.8,296L512.8,296A7.2,7.2,0,0,1,520,288.8ZM88,304.8L96,304.8L104,304.8A7.2,7.2,0,0,1,111.2,312L111.2,312A7.2,7.2,0,0,1,104,319.2L96,319.2L88,319.2A7.2,7.2,0,0,1,80.8,312L80.8,312A7.2,7.2,0,0,1,88,304.8M184,304.8L192,304.8L208,304.8L216,304.8A7.2,7.2,0,0,1,223.2,312L223.2,312A7.2,7.2,0,0,1,216,319.2L208,319.2L192,319.2L184,319.2A7.2,7.2,0,0,1,176.8,312L176.8,312A7.2,7.2,0,0,1,184,304.8M312,304.8L320,304.8L336,304.8L352,304.8L368,304.8L376,304.8A7.2,7.2,0,0,1,383.2,312L383.2,312A7.2,7.2,0,0,1,376,319.2L368,319.2L352,319.2L336,319.2L320,319.2L312,319.2A7.2,7.2,0,0,1,304.8,312L304.8,312A7.2,7.2,0,0,1,312,304.8M456,304.8L456,304.8A7.2,7.2,0,0,1,463.2,312L463.2,312A7.2,7.2,0,0,1,456,319.2L456,319.2A7.2,7.2,0,0,1,448.8,312L448.8,312A7.2,7.2,0,0,1,456,304.8M488,304.8L488,304.8A7.2,7.2,0,0,1,495.2,312L495.2,312A7.2,7.2,0,0,1,488,319.2L488,319.2A7.2,7.2,0,0,1,480.8,312L480.8,312A7.2,7.2,0,0,1,488,304.8M520,304.8L520,304.8A7.2,7.2,0,0,1,527.2,312L527.2,312A7.2,7.2,0,0,1,520,319.2L520,319.2A7.2,7.2,0,0,1,512.8,312L512.8,312A7.2,7.2,0,0,1,520,304.8M552,304.8L560,304.8L568,304.8A7.2,7.2,0,0,1,575.2,312L575.2,312A7.2,7.2,0,0,1,568,319.2L560,319.2L552,319.2A7.2,7.2,0,0,1,544.8,312L544.8,312A7.2,7.2,0,0,1,552,304.8ZM72,320.8L80,320.8L88,320.8A7.2,7.2,0,0,1,95.2,328L95.2,328A7.2,7.2,0,0,1,88,335.2L80,335.2L72,335.2A7.2,7.2,0,0,1,64.8,328L64.8,328A7.2,7.2,0,0,1,72,320.8M136,320.8L144,320.8L160,320.8L176,320.8L192,320.8L208,320.8L224,320.8L232,320.8A7.2,7.2,0,0,1,239.2,328L239.2,328A7.2,7.2,0,0,1,232,335.2L224,335.2L208,335.2L192,335.2L176,335.2L160,335.2L144,335.2L136,335.2A7.2,7.2,0,0,1,128.8,328L128.8,328A7.2,7.2,0,0,1,136,320.8M264,320.8L264,320.8A7.2,7.2,0,0,1,271.2,328L271.2,328A7.2,7.2,0,0,1,264,335.2L264,335.2A7.2,7.2,0,0,1,256.8,328L256.8,328A7.2,7.2,0,0,1,264,320.8M312,320.8L312,320.8A7.2,7.2,0,0,1,319.2,328L319.2,328A7.2,7.2,0,0,1,312,335.2L312,335.2A7.2,7.2,0,0,1,304.8,328L304.8,328A7.2,7.2,0,0,1,312,320.8M472,320.8L480,320.8L488,320.8A7.2,7.2,0,0,1,495.2,328L495.2,328A7.2,7.2,0,0,1,488,335.2L480,335.2L472,335.2A7.2,7.2,0,0,1,464.8,328L464.8,328A7.2,7.2,0,0,1,472,320.8M520,320.8L528,320.8L544,320.8L552,320.8A7.2,7.2,0,0,1,559.2,328L559.2,328A7.2,7.2,0,0,1,552,335.2L544,335.2L528,335.2L520,335.2A7.2,7.2,0,0,1,512.8,328L512.8,328A7.2,7.2,0,0,1,520,320.8ZM88,336.8L96,336.8L104,336.8A7.2,7.2,0,0,1,111.2,344L111.2,344A7.2,7.2,0,0,1,104,351.2L96,351.2L88,351.2A7.2,7.2,0,0,1,80.8,344L80.8,344A7.2,7.2,0,0,1,88,336.8M136,336.8L144,336.8L152,336.8A7.2,7.2,0,0,1,159.2,344L159.2,344A7.2,7.2,0,0,1,152,351.2L144,351.2L136,351.2A7.2,7.2,0,0,1,128.8,344L128.8,344A7.2,7.2,0,0,1,136,336.8M184,336.8L192,336.8L208,336.8L224,336.8L232,336.8A7.2,7.2,0,0,1,239.2,344L239.2,344A7.2,7.2,0,0,1,232,351.2L224,351.2L208,351.2L192,351.2L184,351.2A7.2,7.2,0,0,1,176.8,344L176.8,344A7.2,7.2,0,0,1,184,336.8M264,336.8L272,336.8L288,336.8L296,336.8A7.2,7.2,0,0,1,303.2,344L303.2,344A7.2,7.2,0,0,1,296,351.2L288,351.2L272,351.2L264,351.2A7.2,7.2,0,0,1,256.8,344L256.8,344A7.2,7.2,0,0,1,264,336.8M328,336.8L328,336.8A7.2,7.2,0,0,1,335.2,344L335.2,344A7.2,7.2,0,0,1,328,351.2L328,351.2A7.2,7.2,0,0,1,320.8,344L320.8,344A7.2,7.2,0,0,1,328,336.8M360,336.8L360,336.8A7.2,7.2,0,0,1,367.2,344L367.2,344A7.2,7.2,0,0,1,360,351.2L360,351.2A7.2,7.2,0,0,1,352.8,344L352.8,344A7.2,7.2,0,0,1,360,336.8M392,336.8L392,336.8A7.2,7.2,0,0,1,399.2,344L399.2,344A7.2,7.2,0,0,1,392,351.2L392,351.2A7.2,7.2,0,0,1,384.8,344L384.8,344A7.2,7.2,0,0,1,392,336.8M424,336.8L424,336.8A7.2,7.2,0,0,1,431.2,344L431.2,344A7.2,7.2,0,0,1,424,351.2L424,351.2A7.2,7.2,0,0,1,416.8,344L416.8,344A7.2,7.2,0,0,1,424,336.8M456,336.8L456,336.8A7.2,7.2,0,0,1,463.2,344L463.2,344A7.2,7.2,0,0,1,456,351.2L456,351.2A7.2,7.2,0,0,1,448.8,344L448.8,344A7.2,7.2,0,0,1,456,336.8M504,336.8L512,336.8L528,336.8L536,336.8A7.2,7.2,0,0,1,543.2,344L543.2,344A7.2,7.2,0,0,1,536,351.2L528,351.2L512,351.2L504,351.2A7.2,7.2,0,0,1,496.8,344L496.8,344A7.2,7.2,0,0,1,504,336.8M568,336.8L576,336.8L584,336.8A7.2,7.2,0,0,1,591.2,344L591.2,344A7.2,7.2,0,0,1,584,351.2L576,351.2L568,351.2A7.2,7.2,0,0,1,560.8,344L560.8,344A7.2,7.2,0,0,1,568,336.8ZM88,352.8L96,352.8L104,352.8A7.2,7.2,0,0,1,111.2,360L111.2,360A7.2,7.2,0,0,1,104,367.2L96,367.2L88,367.2A7.2,7.2,0,0,1,80.8,360L80.8,360A7.2,7.2,0,0,1,88,352.8M136,352.8L136,352.8A7.2,7.2,0,0,1,143.2,360L143.2,360A7.2,7.2,0,0,1,136,367.2L136,367.2A7.2,7.2,0,0,1,128.8,360L128.8,360A7.2,7.2,0,0,1,136,352.8M168,352.8L168,352.8A7.2,7.2,0,0,1,175.2,360L175.2,360A7.2,7.2,0,0,1,168,367.2L168,367.2A7.2,7.2,0,0,1,160.8,360L160.8,360A7.2,7.2,0,0,1,168,352.8M216,352.8L224,352.8L232,352.8A7.2,7.2,0,0,1,239.2,360L239.2,360A7.2,7.2,0,0,1,232,367.2L224,367.2L216,367.2A7.2,7.2,0,0,1,208.8,360L208.8,360A7.2,7.2,0,0,1,216,352.8M280,352.8L280,352.8A7.2,7.2,0,0,1,287.2,360L287.2,360A7.2,7.2,0,0,1,280,367.2L280,367.2A7.2,7.2,0,0,1,272.8,360L272.8,360A7.2,7.2,0,0,1,280,352.8M312,352.8L312,352.8A7.2,7.2,0,0,1,319.2,360L319.2,360A7.2,7.2,0,0,1,312,367.2L312,367.2A7.2,7.2,0,0,1,304.8,360L304.8,360A7.2,7.2,0,0,1,312,352.8M344,352.8L344,352.8A7.2,7.2,0,0,1,351.2,360L351.2,360A7.2,7.2,0,0,1,344,367.2L344,367.2A7.2,7.2,0,0,1,336.8,360L336.8,360A7.2,7.2,0,0,1,344,352.8M408,352.8L408,352.8A7.2,7.2,0,0,1,415.2,360L415.2,360A7.2,7.2,0,0,1,408,367.2L408,367.2A7.2,7.2,0,0,1,400.8,360L400.8,360A7.2,7.2,0,0,1,408,352.8M440,352.8L440,352.8A7.2,7.2,0,0,1,447.2,360L447.2,360A7.2,7.2,0,0,1,440,367.2L440,367.2A7.2,7.2,0,0,1,432.8,360L432.8,360A7.2,7.2,0,0,1,440,352.8M504,352.8L512,352.8L528,352.8L544,352.8L552,352.8A7.2,7.2,0,0,1,559.2,360L559.2,360A7.2,7.2,0,0,1,552,367.2L544,367.2L528,367.2L512,367.2L504,367.2A7.2,7.2,0,0,1,496.8,360L496.8,360A7.2,7.2,0,0,1,504,352.8M584,352.8L584,352.8A7.2,7.2,0,0,1,591.2,360L591.2,360A7.2,7.2,0,0,1,584,367.2L584,367.2A7.2,7.2,0,0,1,576.8,360L576.8,360A7.2,7.2,0,0,1,584,352.8ZM72,368.8L72,368.8A7.2,7.2,0,0,1,79.2,376L79.2,376A7.2,7.2,0,0,1,72,383.2L72,383.2A7.2,7.2,0,0,1,64.8,376L64.8,376A7.2,7.2,0,0,1,72,368.8M136,368.8L136,368.8A7.2,7.2,0,0,1,143.2,376L143.2,376A7.2,7.2,0,0,1,136,383.2L136,383.2A7.2,7.2,0,0,1,128.8,376L128.8,376A7.2,7.2,0,0,1,136,368.8M216,368.8L216,368.8A7.2,7.2,0,0,1,223.2,376L223.2,376A7.2,7.2,0,0,1,216,383.2L216,383.2A7.2,7.2,0,0,1,208.8,376L208.8,376A7.2,7.2,0,0,1,216,368.8M264,368.8L264,368.8A7.2,7.2,0,0,1,271.2,376L271.2,376A7.2,7.2,0,0,1,264,383.2L264,383.2A7.2,7.2,0,0,1,256.8,376L256.8,376A7.2,7.2,0,0,1,264,368.8M296,368.8L296,368.8A7.2,7.2,0,0,1,303.2,376L303.2,376A7.2,7.2,0,0,1,296,383.2L296,383.2A7.2,7.2,0,0,1,288.8,376L288.8,376A7.2,7.2,0,0,1,296,368.8M328,368.8L336,368.8L352,368.8L368,368.8L384,368.8L392,368.8A7.2,7.2,0,0,1,399.2,376L399.2,376A7.2,7.2,0,0,1,392,383.2L384,383.2L368,383.2L352,383.2L336,383.2L328,383.2A7.2,7.2,0,0,1,320.8,376L320.8,376A7.2,7.2,0,0,1,328,368.8M440,368.8L448,368.8L464,368.8L472,368.8A7.2,7.2,0,0,1,479.2,376L479.2,376A7.2,7.2,0,0,1,472,383.2L464,383.2L448,383.2L440,383.2A7.2,7.2,0,0,1,432.8,376L432.8,376A7.2,7.2,0,0,1,440,368.8M520,368.8L528,368.8L544,368.8L552,368.8A7.2,7.2,0,0,1,559.2,376L559.2,376A7.2,7.2,0,0,1,552,383.2L544,383.2L528,383.2L520,383.2A7.2,7.2,0,0,1,512.8,376L512.8,376A7.2,7.2,0,0,1,520,368.8M584,368.8L584,368.8A7.2,7.2,0,0,1,591.2,376L591.2,376A7.2,7.2,0,0,1,584,383.2L584,383.2A7.2,7.2,0,0,1,576.8,376L576.8,376A7.2,7.2,0,0,1,584,368.8ZM72,384.8L72,384.8A7.2,7.2,0,0,1,79.2,392L79.2,392A7.2,7.2,0,0,1,72,399.2L72,399.2A7.2,7.2,0,0,1,64.8,392L64.8,392A7.2,7.2,0,0,1,72,384.8M120,384.8L128,384.8L144,384.8L160,384.8L176,384.8L192,384.8L208,384.8L216,384.8A7.2,7.2,0,0,1,223.2,392L223.2,392A7.2,7.2,0,0,1,216,399.2L208,399.2L192,399.2L176,399.2L160,399.2L144,399.2L128,399.2L120,399.2A7.2,7.2,0,0,1,112.8,392L112.8,392A7.2,7.2,0,0,1,120,384.8M264,384.8L264,384.8A7.2,7.2,0,0,1,271.2,392L271.2,392A7.2,7.2,0,0,1,264,399.2L264,399.2A7.2,7.2,0,0,1,256.8,392L256.8,392A7.2,7.2,0,0,1,264,384.8M296,384.8L304,384.8L320,384.8L336,384.8L344,384.8A7.2,7.2,0,0,1,351.2,392L351.2,392A7.2,7.2,0,0,1,344,399.2L336,399.2L320,399.2L304,399.2L296,399.2A7.2,7.2,0,0,1,288.8,392L288.8,392A7.2,7.2,0,0,1,296,384.8M392,384.8L392,384.8A7.2,7.2,0,0,1,399.2,392L399.2,392A7.2,7.2,0,0,1,392,399.2L392,399.2A7.2,7.2,0,0,1,384.8,392L384.8,392A7.2,7.2,0,0,1,392,384.8M424,384.8L424,384.8A7.2,7.2,0,0,1,431.2,392L431.2,392A7.2,7.2,0,0,1,424,399.2L424,399.2A7.2,7.2,0,0,1,416.8,392L416.8,392A7.2,7.2,0,0,1,424,384.8M488,384.8L496,384.8L504,384.8A7.2,7.2,0,0,1,511.2,392L511.2,392A7.2,7.2,0,0,1,504,399.2L496,399.2L488,399.2A7.2,7.2,0,0,1,480.8,392L480.8,392A7.2,7.2,0,0,1,488,384.8M536,384.8L536,384.8A7.2,7.2,0,0,1,543.2,392L543.2,392A7.2,7.2,0,0,1,536,399.2L536,399.2A7.2,7.2,0,0,1,528.8,392L528.8,392A7.2,7.2,0,0,1,536,384.8M568,384.8L568,384.8A7.2,7.2,0,0,1,575.2,392L575.2,392A7.2,7.2,0,0,1,568,399.2L568,399.2A7.2,7.2,0,0,1,560.8,392L560.8,392A7.2,7.2,0,0,1,568,384.8ZM72,400.8L80,400.8L88,400.8A7.2,7.2,0,0,1,95.2,408L95.2,408A7.2,7.2,0,0,1,88,415.2L80,415.2L72,415.2A7.2,7.2,0,0,1,64.8,408L64.8,408A7.2,7.2,0,0,1,72,400.8M120,400.8L120,400.8A7.2,7.2,0,0,1,127.2,408L127.2,408A7.2,7.2,0,0,1,120,415.2L120,415.2A7.2,7.2,0,0,1,112.8,408L112.8,408A7.2,7.2,0,0,1,120,400.8M184,400.8L184,400.8A7.2,7.2,0,0,1,191.2,408L191.2,408A7.2,7.2,0,0,1,184,415.2L184,415.2A7.2,7.2,0,0,1,176.8,408L176.8,408A7.2,7.2,0,0,1,184,400.8M248,400.8L256,400.8L272,400.8L280,400.8A7.2,7.2,0,0,1,287.2,408L287.2,408A7.2,7.2,0,0,1,280,415.2L272,415.2L256,415.2L248,415.2A7.2,7.2,0,0,1,240.8,408L240.8,408A7.2,7.2,0,0,1,248,400.8M312,400.8L320,400.8L328,400.8A7.2,7.2,0,0,1,335.2,408L335.2,408A7.2,7.2,0,0,1,328,415.2L320,415.2L312,415.2A7.2,7.2,0,0,1,304.8,408L304.8,408A7.2,7.2,0,0,1,312,400.8M376,400.8L376,400.8A7.2,7.2,0,0,1,383.2,408L383.2,408A7.2,7.2,0,0,1,376,415.2L376,415.2A7.2,7.2,0,0,1,368.8,408L368.8,408A7.2,7.2,0,0,1,376,400.8M408,400.8L408,400.8A7.2,7.2,0,0,1,415.2,408L415.2,408A7.2,7.2,0,0,1,408,415.2L408,415.2A7.2,7.2,0,0,1,400.8,408L400.8,408A7.2,7.2,0,0,1,408,400.8M456,400.8L456,400.8A7.2,7.2,0,0,1,463.2,408L463.2,408A7.2,7.2,0,0,1,456,415.2L456,415.2A7.2,7.2,0,0,1,448.8,408L448.8,408A7.2,7.2,0,0,1,456,400.8M488,400.8L488,400.8A7.2,7.2,0,0,1,495.2,408L495.2,408A7.2,7.2,0,0,1,488,415.2L488,415.2A7.2,7.2,0,0,1,480.8,408L480.8,408A7.2,7.2,0,0,1,488,400.8M520,400.8L520,400.8A7.2,7.2,0,0,1,527.2,408L527.2,408A7.2,7.2,0,0,1,520,415.2L520,415.2A7.2,7.2,0,0,1,512.8,408L512.8,408A7.2,7.2,0,0,1,520,400.8M568,400.8L576,400.8L584,400.8A7.2,7.2,0,0,1,591.2,408L591.2,408A7.2,7.2,0,0,1,584,415.2L576,415.2L568,415.2A7.2,7.2,0,0,1,560.8,408L560.8,408A7.2,7.2,0,0,1,568,400.8ZM72,416.8L72,416.8A7.2,7.2,0,0,1,79.2,424L79.2,424A7.2,7.2,0,0,1,72,431.2L72,431.2A7.2,7.2,0,0,1,64.8,424L64.8,424A7.2,7.2,0,0,1,72,416.8M120,416.8L120,416.8A7.2,7.2,0,0,1,127.2,424L127.2,424A7.2,7.2,0,0,1,120,431.2L120,431.2A7.2,7.2,0,0,1,112.8,424L112.8,424A7.2,7.2,0,0,1,120,416.8M152,416.8L160,416.8L176,416.8L192,416.8L208,416.8L216,416.8A7.2,7.2,0,0,1,223.2,424L223.2,424A7.2,7.2,0,0,1,216,431.2L208,431.2L192,431.2L176,431.2L160,431.2L152,431.2A7.2,7.2,0,0,1,144.8,424L144.8,424A7.2,7.2,0,0,1,152,416.8M264,416.8L264,416.8A7.2,7.2,0,0,1,271.2,424L271.2,424A7.2,7.2,0,0,1,264,431.2L264,431.2A7.2,7.2,0,0,1,256.8,424L256.8,424A7.2,7.2,0,0,1,264,416.8M296,416.8L296,416.8A7.2,7.2,0,0,1,303.2,424L303.2,424A7.2,7.2,0,0,1,296,431.2L296,431.2A7.2,7.2,0,0,1,288.8,424L288.8,424A7.2,7.2,0,0,1,296,416.8M344,416.8L352,416.8L360,416.8A7.2,7.2,0,0,1,367.2,424L367.2,424A7.2,7.2,0,0,1,360,431.2L352,431.2L344,431.2A7.2,7.2,0,0,1,336.8,424L336.8,424A7.2,7.2,0,0,1,344,416.8M392,416.8L400,416.8L416,416.8L432,416.8L440,416.8A7.2,7.2,0,0,1,447.2,424L447.2,424A7.2,7.2,0,0,1,440,431.2L432,431.2L416,431.2L400,431.2L392,431.2A7.2,7.2,0,0,1,384.8,424L384.8,424A7.2,7.2,0,0,1,392,416.8M488,416.8L496,416.8L504,416.8A7.2,7.2,0,0,1,511.2,424L511.2,424A7.2,7.2,0,0,1,504,431.2L496,431.2L488,431.2A7.2,7.2,0,0,1,480.8,424L480.8,424A7.2,7.2,0,0,1,488,416.8M552,416.8L560,416.8L576,416.8L584,416.8A7.2,7.2,0,0,1,591.2,424L591.2,424A7.2,7.2,0,0,1,584,431.2L576,431.2L560,431.2L552,431.2A7.2,7.2,0,0,1,544.8,424L544.8,424A7.2,7.2,0,0,1,552,416.8ZM72,432.8L72,432.8A7.2,7.2,0,0,1,79.2,440L79.2,440A7.2,7.2,0,0,1,72,447.2L72,447.2A7.2,7.2,0,0,1,64.8,440L64.8,440A7.2,7.2,0,0,1,72,432.8M136,432.8L136,432.8A7.2,7.2,0,0,1,143.2,440L143.2,440A7.2,7.2,0,0,1,136,447.2L136,447.2A7.2,7.2,0,0,1,128.8,440L128.8,440A7.2,7.2,0,0,1,136,432.8M184,432.8L192,432.8L200,432.8A7.2,7.2,0,0,1,207.2,440L207.2,440A7.2,7.2,0,0,1,200,447.2L192,447.2L184,447.2A7.2,7.2,0,0,1,176.8,440L176.8,440A7.2,7.2,0,0,1,184,432.8M232,432.8L240,432.8L248,432.8A7.2,7.2,0,0,1,255.2,440L255.2,440A7.2,7.2,0,0,1,248,447.2L240,447.2L232,447.2A7.2,7.2,0,0,1,224.8,440L224.8,440A7.2,7.2,0,0,1,232,432.8M296,432.8L304,432.8L320,432.8L336,432.8L344,432.8A7.2,7.2,0,0,1,351.2,440L351.2,440A7.2,7.2,0,0,1,344,447.2L336,447.2L320,447.2L304,447.2L296,447.2A7.2,7.2,0,0,1,288.8,440L288.8,440A7.2,7.2,0,0,1,296,432.8M376,432.8L384,432.8L392,432.8A7.2,7.2,0,0,1,399.2,440L399.2,440A7.2,7.2,0,0,1,392,447.2L384,447.2L376,447.2A7.2,7.2,0,0,1,368.8,440L368.8,440A7.2,7.2,0,0,1,376,432.8M440,432.8L448,432.8L456,432.8A7.2,7.2,0,0,1,463.2,440L463.2,440A7.2,7.2,0,0,1,456,447.2L448,447.2L440,447.2A7.2,7.2,0,0,1,432.8,440L432.8,440A7.2,7.2,0,0,1,440,432.8M504,432.8L512,432.8L520,432.8A7.2,7.2,0,0,1,527.2,440L527.2,440A7.2,7.2,0,0,1,520,447.2L512,447.2L504,447.2A7.2,7.2,0,0,1,496.8,440L496.8,440A7.2,7.2,0,0,1,504,432.8M552,432.8L552,432.8A7.2,7.2,0,0,1,559.2,440L559.2,440A7.2,7.2,0,0,1,552,447.2L552,447.2A7.2,7.2,0,0,1,544.8,440L544.8,440A7.2,7.2,0,0,1,552,432.8ZM72,448.8L80,448.8L88,448.8A7.2,7.2,0,0,1,95.2,456L95.2,456A7.2,7.2,0,0,1,88,463.2L80,463.2L72,463.2A7.2,7.2,0,0,1,64.8,456L64.8,456A7.2,7.2,0,0,1,72,448.8M152,448.8L160,448.8L176,448.8L192,448.8L200,448.8A7.2,7.2,0,0,1,207.2,456L207.2,456A7.2,7.2,0,0,1,200,463.2L192,463.2L176,463.2L160,463.2L152,463.2A7.2,7.2,0,0,1,144.8,456L144.8,456A7.2,7.2,0,0,1,152,448.8M232,448.8L232,448.8A7.2,7.2,0,0,1,239.2,456L239.2,456A7.2,7.2,0,0,1,232,463.2L232,463.2A7.2,7.2,0,0,1,224.8,456L224.8,456A7.2,7.2,0,0,1,232,448.8M296,448.8L296,448.8A7.2,7.2,0,0,1,303.2,456L303.2,456A7.2,7.2,0,0,1,296,463.2L296,463.2A7.2,7.2,0,0,1,288.8,456L288.8,456A7.2,7.2,0,0,1,296,448.8M328,448.8L336,448.8L344,448.8A7.2,7.2,0,0,1,351.2,456L351.2,456A7.2,7.2,0,0,1,344,463.2L336,463.2L328,463.2A7.2,7.2,0,0,1,320.8,456L320.8,456A7.2,7.2,0,0,1,328,448.8M440,448.8L448,448.8L464,448.8L480,448.8L496,448.8L512,448.8L520,448.8A7.2,7.2,0,0,1,527.2,456L527.2,456A7.2,7.2,0,0,1,520,463.2L512,463.2L496,463.2L480,463.2L464,463.2L448,463.2L440,463.2A7.2,7.2,0,0,1,432.8,456L432.8,456A7.2,7.2,0,0,1,440,448.8M568,448.8L568,448.8A7.2,7.2,0,0,1,575.2,456L575.2,456A7.2,7.2,0,0,1,568,463.2L568,463.2A7.2,7.2,0,0,1,560.8,456L560.8,456A7.2,7.2,0,0,1,568,448.8ZM200,464.8L208,464.8L216,464.8A7.2,7.2,0,0,1,223.2,472L223.2,472A7.2,7.2,0,0,1,216,479.2L208,479.2L200,479.2A7.2,7.2,0,0,1,192.8,472L192.8,472A7.2,7.2,0,0,1,200,464.8M248,464.8L248,464.8A7.2,7.2,0,0,1,255.2,472L255.2,472A7.2,7.2,0,0,1,248,479.2L248,479.2A7.2,7.2,0,0,1,240.8,472L240.8,472A7.2,7.2,0,0,1,248,464.8M280,464.8L280,464.8A7.2,7.2,0,0,1,287.2,472L287.2,472A7.2,7.2,0,0,1,280,479.2L280,479.2A7.2,7.2,0,0,1,272.8,472L272.8,472A7.2,7.2,0,0,1,280,464.8M312,464.8L312,464.8A7.2,7.2,0,0,1,319.2,472L319.2,472A7.2,7.2,0,0,1,312,479.2L312,479.2A7.2,7.2,0,0,1,304.8,472L304.8,472A7.2,7.2,0,0,1,312,464.8M376,464.8L376,464.8A7.2,7.2,0,0,1,383.2,472L383.2,472A7.2,7.2,0,0,1,376,479.2L376,479.2A7.2,7.2,0,0,1,368.8,472L368.8,472A7.2,7.2,0,0,1,376,464.8M408,464.8L416,464.8L432,464.8L448,464.8L456,464.8A7.2,7.2,0,0,1,463.2,472L463.2,472A7.2,7.2,0,0,1,456,479.2L448,479.2L432,479.2L416,479.2L408,479.2A7.2,7.2,0,0,1,400.8,472L400.8,472A7.2,7.2,0,0,1,408,464.8M520,464.8L520,464.8A7.2,7.2,0,0,1,527.2,472L527.2,472A7.2,7.2,0,0,1,520,479.2L520,479.2A7.2,7.2,0,0,1,512.8,472L512.8,472A7.2,7.2,0,0,1,520,464.8M568,464.8L568,464.8A7.2,7.2,0,0,1,575.2,472L575.2,472A7.2,7.2,0,0,1,568,479.2L568,479.2A7.2,7.2,0,0,1,560.8,472L560.8,472A7.2,7.2,0,0,1,568,464.8ZM200,480.8L208,480.8L216,480.8A7.2,7.2,0,0,1,223.2,488L223.2,488A7.2,7.2,0,0,1,216,495.2L208,495.2L200,495.2A7.2,7.2,0,0,1,192.8,488L192.8,488A7.2,7.2,0,0,1,200,480.8M280,480.8L288,480.8L296,480.8A7.2,7.2,0,0,1,303.2,488L303.2,488A7.2,7.2,0,0,1,296,495.2L288,495.2L280,495.2A7.2,7.2,0,0,1,272.8,488L272.8,488A7.2,7.2,0,0,1,280,480.8M328,480.8L336,480.8L352,480.8L368,480.8L376,480.8A7.2,7.2,0,0,1,383.2,488L383.2,488A7.2,7.2,0,0,1,376,495.2L368,495.2L352,495.2L336,495.2L328,495.2A7.2,7.2,0,0,1,320.8,488L320.8,488A7.2,7.2,0,0,1,328,480.8M440,480.8L448,480.8L456,480.8A7.2,7.2,0,0,1,463.2,488L463.2,488A7.2,7.2,0,0,1,456,495.2L448,495.2L440,495.2A7.2,7.2,0,0,1,432.8,488L432.8,488A7.2,7.2,0,0,1,440,480.8M488,480.8L488,480.8A7.2,7.2,0,0,1,495.2,488L495.2,488A7.2,7.2,0,0,1,488,495.2L488,495.2A7.2,7.2,0,0,1,480.8,488L480.8,488A7.2,7.2,0,0,1,488,480.8M520,480.8L528,480.8L536,480.8A7.2,7.2,0,0,1,543.2,488L543.2,488A7.2,7.2,0,0,1,536,495.2L528,495.2L520,495.2A7.2,7.2,0,0,1,512.8,488L512.8,488A7.2,7.2,0,0,1,520,480.8ZM216,496.8L216,496.8A7.2,7.2,0,0,1,223.2,504L223.2,504A7.2,7.2,0,0,1,216,511.2L216,511.2A7.2,7.2,0,0,1,208.8,504L208.8,504A7.2,7.2,0,0,1,216,496.8M248,496.8L256,496.8L264,496.8A7.2,7.2,0,0,1,271.2,504L271.2,504A7.2,7.2,0,0,1,264,511.2L256,511.2L248,511.2A7.2,7.2,0,0,1,240.8,504L240.8,504A7.2,7.2,0,0,1,248,496.8M296,496.8L296,496.8A7.2,7.2,0,0,1,303.2,504L303.2,504A7.2,7.2,0,0,1,296,511.2L296,511.2A7.2,7.2,0,0,1,288.8,504L288.8,504A7.2,7.2,0,0,1,296,496.8M328,496.8L328,496.8A7.2,7.2,0,0,1,335.2,504L335.2,504A7.2,7.2,0,0,1,328,511.2L328,511.2A7.2,7.2,0,0,1,320.8,504L320.8,504A7.2,7.2,0,0,1,328,496.8M392,496.8L400,496.8L416,496.8L424,496.8A7.2,7.2,0,0,1,431.2,504L431.2,504A7.2,7.2,0,0,1,424,511.2L416,511.2L400,511.2L392,511.2A7.2,7.2,0,0,1,384.8,504L384.8,504A7.2,7.2,0,0,1,392,496.8M456,496.8L456,496.8A7.2,7.2,0,0,1,463.2,504L463.2,504A7.2,7.2,0,0,1,456,511.2L456,511.2A7.2,7.2,0,0,1,448.8,504L448.8,504A7.2,7.2,0,0,1,456,496.8M520,496.8L528,496.8L544,496.8L560,496.8L568,496.8A7.2,7.2,0,0,1,575.2,504L575.2,504A7.2,7.2,0,0,1,568,511.2L560,511.2L544,511.2L528,511.2L520,511.2A7.2,7.2,0,0,1,512.8,504L512.8,504A7.2,7.2,0,0,1,520,496.8ZM200,512.8L200,512.8A7.2,7.2,0,0,1,207.2,520L207.2,520A7.2,7.2,0,0,1,200,527.2L200,527.2A7.2,7.2,0,0,1,192.8,520L192.8,520A7.2,7.2,0,0,1,200,512.8M248,512.8L256,512.8L272,512.8L288,512.8L296,512.8A7.2,7.2,0,0,1,303.2,520L303.2,520A7.2,7.2,0,0,1,296,527.2L288,527.2L272,527.2L256,527.2L248,527.2A7.2,7.2,0,0,1,240.8,520L240.8,520A7.2,7.2,0,0,1,248,512.8M328,512.8L336,512.8L352,512.8L368,512.8L384,512.8L400,512.8L416,512.8L432,512.8L448,512.8L464,512.8L480,512.8L496,512.8L512,512.8L528,512.8L544,512.8L560,512.8L568,512.8A7.2,7.2,0,0,1,575.2,520L575.2,520A7.2,7.2,0,0,1,568,527.2L560,527.2L544,527.2L528,527.2L512,527.2L496,527.2L480,527.2L464,527.2L448,527.2L432,527.2L416,527.2L400,527.2L384,527.2L368,527.2L352,527.2L336,527.2L328,527.2A7.2,7.2,0,0,1,320.8,520L320.8,520A7.2,7.2,0,0,1,328,512.8ZM200,528.8L208,528.8L216,528.8A7.2,7.2,0,0,1,223.2,536L223.2,536A7.2,7.2,0,0,1,216,543.2L208,543.2L200,543.2A7.2,7.2,0,0,1,192.8,536L192.8,536A7.2,7.2,0,0,1,200,528.8M248,528.8L248,528.8A7.2,7.2,0,0,1,255.2,536L255.2,536A7.2,7.2,0,0,1,248,543.2L248,543.2A7.2,7.2,0,0,1,240.8,536L240.8,536A7.2,7.2,0,0,1,248,528.8M296,528.8L296,528.8A7.2,7.2,0,0,1,303.2,536L303.2,536A7.2,7.2,0,0,1,296,543.2L296,543.2A7.2,7.2,0,0,1,288.8,536L288.8,536A7.2,7.2,0,0,1,296,528.8M328,528.8L336,528.8L344,528.8A7.2,7.2,0,0,1,351.2,536L351.2,536A7.2,7.2,0,0,1,344,543.2L336,543.2L328,543.2A7.2,7.2,0,0,1,320.8,536L320.8,536A7.2,7.2,0,0,1,328,528.8M376,528.8L384,528.8L400,528.8L416,528.8L432,528.8L448,528.8L464,528.8L472,528.8A7.2,7.2,0,0,1,479.2,536L479.2,536A7.2,7.2,0,0,1,472,543.2L464,543.2L448,543.2L432,543.2L416,543.2L400,543.2L384,543.2L376,543.2A7.2,7.2,0,0,1,368.8,536L368.8,536A7.2,7.2,0,0,1,376,528.8M504,528.8L504,528.8A7.2,7.2,0,0,1,511.2,536L511.2,536A7.2,7.2,0,0,1,504,543.2L504,543.2A7.2,7.2,0,0,1,496.8,536L496.8,536A7.2,7.2,0,0,1,504,528.8M568,528.8L568,528.8A7.2,7.2,0,0,1,575.2,536L575.2,536A7.2,7.2,0,0,1,568,543.2L568,543.2A7.2,7.2,0,0,1,560.8,536L560.8,536A7.2,7.2,0,0,1,568,528.8ZM232,544.8L232,544.8A7.2,7.2,0,0,1,239.2,552L239.2,552A7.2,7.2,0,0,1,232,559.2L232,559.2A7.2,7.2,0,0,1,224.8,552L224.8,552A7.2,7.2,0,0,1,232,544.8M296,544.8L296,544.8A7.2,7.2,0,0,1,303.2,552L303.2,552A7.2,7.2,0,0,1,296,559.2L296,559.2A7.2,7.2,0,0,1,288.8,552L288.8,552A7.2,7.2,0,0,1,296,544.8M344,544.8L344,544.8A7.2,7.2,0,0,1,351.2,552L351.2,552A7.2,7.2,0,0,1,344,559.2L344,559.2A7.2,7.2,0,0,1,336.8,552L336.8,552A7.2,7.2,0,0,1,344,544.8M392,544.8L392,544.8A7.2,7.2,0,0,1,399.2,552L399.2,552A7.2,7.2,0,0,1,392,559.2L392,559.2A7.2,7.2,0,0,1,384.8,552L384.8,552A7.2,7.2,0,0,1,392,544.8ZM216,560.8L216,560.8A7.2,7.2,0,0,1,223.2,568L223.2,568A7.2,7.2,0,0,1,216,575.2L216,575.2A7.2,7.2,0,0,1,208.8,568L208.8,568A7.2,7.2,0,0,1,216,560.8M280,560.8L288,560.8L296,560.8A7.2,7.2,0,0,1,303.2,568L303.2,568A7.2,7.2,0,0,1,296,575.2L288,575.2L280,575.2A7.2,7.2,0,0,1,272.8,568L272.8,568A7.2,7.2,0,0,1,280,560.8M328,560.8L336,560.8L352,560.8L360,560.8A7.2,7.2,0,0,1,367.2,568L367.2,568A7.2,7.2,0,0,1,360,575.2L352,575.2L336,575.2L328,575.2A7.2,7.2,0,0,1,320.8,568L320.8,568A7.2,7.2,0,0,1,328,560.8M392,560.8L392,560.8A7.2,7.2,0,0,1,399.2,568L399.2,568A7.2,7.2,0,0,1,392,575.2L392,575.2A7.2,7.2,0,0,1,384.8,568L384.8,568A7.2,7.2,0,0,1,392,560.8M424,560.8L432,560.8L440,560.8A7.2,7.2,0,0,1,447.2,568L447.2,568A7.2,7.2,0,0,1,440,575.2L432,575.2L424,575.2A7.2,7.2,0,0,1,416.8,568L416.8,568A7.2,7.2,0,0,1,424,560.8ZM216,576.8L224,576.8L240,576.8L256,576.8L272,576.8L288,576.8L304,576.8L312,576.8A7.2,7.2,0,0,1,319.2,584L319.2,584A7.2,7.2,0,0,1,312,591.2L304,591.2L288,591.2L272,591.2L256,591.2L240,591.2L224,591.2L216,591.2A7.2,7.2,0,0,1,208.8,584L208.8,584A7.2,7.2,0,0,1,216,576.8M376,576.8L384,576.8L392,576.8A7.2,7.2,0,0,1,399.2,584L399.2,584A7.2,7.2,0,0,1,392,591.2L384,591.2L376,591.2A7.2,7.2,0,0,1,368.8,584L368.8,584A7.2,7.2,0,0,1,376,576.8M440,576.8L448,576.8L464,576.8L472,576.8A7.2,7.2,0,0,1,479.2,584L479.2,584A7.2,7.2,0,0,1,472,591.2L464,591.2L448,591.2L440,591.2A7.2,7.2,0,0,1,432.8,584L432.8,584A7.2,7.2,0,0,1,440,576.8Z" />
<path d="M4.7253,9.0689C6.179,9.0436 6.4149,7.6154 6.4149,6.769C6.4149,5.5163 5.775,5.0788 5,5C4.0425,5.4242 3.3403,6.146 3.2555,7.2606C3.2416,7.4443 3.237,7.6894 3.2516,7.9757C3.2906,8.7383 3.8493,9.0843 4.7253,9.0689 M 12.2447 10.8068 C 11.2047 10.8068 10.1118 10.1673 10.06 8.9707 C 8.8774 10.2223 7.0538 10.8186 4.7253 10.8186 C 2.3769 10.8186 1.396 9.2175 1.396 7.9703 C 1.4554 3.8126 1.3605 2.255 1.341 1.9353 C 1.3393 1.907 1.3381 1.8884 1.3377 1.8785 L 1.3373 1.8677 C 1.3313 1.7096 1.3224 1.4733 1.172 1.4572 C 1.0786 1.4472 1.0183 1.4757 0.911 1.6094 C 0.75 1.8233 0.425 1.908 0.2273 1.7937 C -0.0116 1.6555 -0.0562 1.3505 0.0647 1.0697 C 0.4002 0.3212 0.9379 -0.01 1.6625 0.0003 C 2.9146 0.0182 3.2738 0.8359 3.2738 1.8575 C 3.2738 1.8575 3.246 3.3292 3.246 4.1579 C 3.689 3.7969 4.3397 3.4098 5.4266 3.4098 C 7.6899 3.4098 9.1267 6.2118 7.6503 8.8925 C 9.5428 8.0197 9.9378 6.5164 10.0112 5.0238 L 10.0043 4.5203 C 10.0043 3.9552 10.3688 3.4767 10.9361 3.4767 C 11.5034 3.4767 11.8802 3.9877 11.86 4.5271 C 11.7919 6.3438 11.7644 7.5395 11.7644 8.1722 C 11.7644 8.5384 11.9642 9.0996 12.5555 9.0996 C 13.7134 9.0996 14.094 8.1922 14.1838 6.0595 C 14.1885 5.2642 14.1927 4.5997 14.1927 4.5997 C 13.6679 4.5997 13.4094 4.324 13.4094 3.9795 C 13.4094 3.635 13.683 3.3163 14.1321 3.3163 C 14.1321 3.3163 14.133 2.1182 14.133 1.622 C 14.133 1.0569 14.5715 0.5883 15.1388 0.5883 C 15.7062 0.5883 16.1567 1.0569 16.1567 1.622 C 16.1567 1.8095 16.1495 2.028 16.1416 2.2695 C 16.1315 2.5784 16.1201 2.9246 16.121 3.2909 L 16.2032 3.2905 H 16.2032 C 16.357 3.29 16.7051 3.2888 17.1681 3.2834 C 17.7198 3.2769 17.9445 3.5851 17.9445 3.9709 C 17.9445 4.3567 17.6475 4.626 17.2602 4.6276 C 16.9012 4.6291 16.1083 4.6247 16.1083 4.6247 C 16.0723 5.7674 16.0382 7.1451 16.0382 8.2475 C 16.0382 8.6451 16.3126 9.0995 16.9767 9.0995 C 18.3163 9.0995 18.8167 7.9092 18.9173 5.6498 C 18.9095 4.0766 18.8907 3.1653 18.8765 2.4785 V 2.4785 C 18.8666 1.9969 18.859 1.6258 18.859 1.2143 C 18.859 0.6493 19.3295 0.1442 19.8967 0.1442 C 20.4641 0.1442 20.8826 0.5977 20.8826 1.1627 C 20.8826 1.598 20.8651 2.1069 20.8413 2.8009 V 2.8009 V 2.801 C 20.801 3.9747 20.7425 5.6778 20.7195 8.4504 C 20.7165 8.8195 20.8967 9.0795 21.3748 9.0795 C 22.6524 9.0795 23.0066 7.6955 23.119 5.7625 C 23.1197 5.6695 23.1205 5.5785 23.1214 5.4891 L 23.1214 5.4887 C 23.1231 5.3054 23.1247 5.1289 23.1247 4.9561 C 23.1247 4.391 23.5011 3.9337 24.0686 3.9337 C 24.6359 3.9337 24.9694 4.4022 24.9694 4.9673 C 24.9694 5.3698 24.9562 5.7464 24.9427 6.1348 C 24.9307 6.4777 24.9184 6.8299 24.9146 7.2176 C 24.9047 8.2151 25.2455 9.0938 26.0756 9.0914 C 26.8726 9.0891 27.7479 8.7536 27.7691 7.045 C 27.7751 6.5701 27.7683 6.2053 27.7615 5.8371 V 5.837 V 5.8369 V 5.8368 C 27.7564 5.5642 27.7513 5.2897 27.7513 4.9673 C 27.7513 4.4022 28.1451 3.9337 28.7125 3.9337 C 29.2795 3.9337 29.6737 4.4022 29.6737 4.9673 C 29.6737 5.3051 29.6614 5.6415 29.6477 6.0145 V 6.0145 V 6.0146 V 6.0146 C 29.6307 6.4783 29.6117 6.9984 29.6117 7.6477 C 29.6117 7.6477 29.5769 10.0141 29.66 10.5378 C 29.9203 10.4512 30.2958 10.1968 30.6935 9.5802 C 30.9337 9.208 31.3928 9.1282 31.6758 9.293 C 32.0653 9.52 32.0514 9.9635 31.9058 10.2875 C 31.5298 11.1239 31.0409 11.6358 29.8047 12.0595 C 29.8086 13.4782 29.7098 15.5713 27.0868 15.9496 C 24.8405 16.2735 23.8244 14.9708 23.8211 13.8623 C 23.8157 12.112 25.5649 11.6022 28.0897 10.9665 L 28.0087 10.099 C 28.0087 10.099 27.4464 10.8364 26.0215 10.8008 C 24.9223 10.7733 24.1663 10.2543 23.7077 9.5213 C 23.1787 10.3901 22.3495 10.8105 21.1004 10.8105 C 20.2775 10.8105 19.4934 10.3758 19.1051 9.7457 C 18.5325 10.4308 17.7339 10.8015 16.6607 10.8015 C 15.7256 10.8015 15.0346 10.4786 14.6209 9.9746 C 14.087 10.5712 13.318 10.8068 12.2447 10.8068 Z M 28.2548 12.363 C 26.9786 12.6385 25.3798 13.0407 25.3983 13.8266 C 25.4158 14.5636 26.1767 14.6977 26.8111 14.5666 C 28.1286 14.2943 28.2816 13.5015 28.2548 12.363 Z M 11.9704 1.6249 C 11.9704 1.0544 11.5073 0.5932 10.9347 0.5932 C 10.3619 0.5932 9.8989 1.0544 9.8989 1.6249 C 9.8989 2.1953 10.3619 2.6566 10.9347 2.6566 C 11.5073 2.6566 11.9704 2.1953 11.9704 1.6249 Z" fill='#000000' transform='translate(520.000000, 556.000000) scale(2.250000, 2.250000)' />
</g>
<g id='corners-outer-1' style='fill:#000000' >
<path d="M64,64L80,64L96,64L112,64L128,64L144,64L160,64L176,64L176,80L176,96L176,112L176,128L176,144L176,160L176,176L160,176L144,176L128,176L112,176L96,176L80,176L64,176L64,160L64,144L64,128L64,112L64,96L64,80L64,64M80,80L80,96L80,112L80,128L80,144L80,160L96,160L112,160L128,160L144,160L160,160L160,144L160,128L160,112L160,96L160,80L144,80L128,80L112,80L96,80L80,80Z" />
</g>
<g id='corners-inner-1' style='fill:#000000' >
<path d="M96,96L112,96L128,96L144,96L144,112L144,128L144,144L128,144L112,144L96,144L96,128L96,112L96,96Z" />
</g>
<g id='corners-outer-2' style='fill:#000000' >
<path d="M480,64L496,64L512,64L528,64L544,64L560,64L576,64L592,64L592,80L592,96L592,112L592,128L592,144L592,160L592,176L576,176L560,176L544,176L528,176L512,176L496,176L480,176L480,160L480,144L480,128L480,112L480,96L480,80L480,64M496,80L496,96L496,112L496,128L496,144L496,160L512,160L528,160L544,160L560,160L576,160L576,144L576,128L576,112L576,96L576,80L560,80L544,80L528,80L512,80L496,80Z" />
</g>
<g id='corners-inner-2' style='fill:#000000' >
<path d="M512,96L528,96L544,96L560,96L560,112L560,128L560,144L544,144L528,144L512,144L512,128L512,112L512,96Z" />
</g>
<g id='corners-outer-3' style='fill:#000000' >
<path d="M64,480L80,480L96,480L112,480L128,480L144,480L160,480L176,480L176,496L176,512L176,528L176,544L176,560L176,576L176,592L160,592L144,592L128,592L112,592L96,592L80,592L64,592L64,576L64,560L64,544L64,528L64,512L64,496L64,480M80,496L80,512L80,528L80,544L80,560L80,576L96,576L112,576L128,576L144,576L160,576L160,560L160,544L160,528L160,512L160,496L144,496L128,496L112,496L96,496L80,496Z" />
</g>
<g id='corners-inner-3' style='fill:#000000' >
<path d="M96,512L112,512L128,512L144,512L144,528L144,544L144,560L128,560L112,560L96,560L96,544L96,528L96,512Z" />
</g>
</svg>
