<svg width="116.000000" height="116.000000" viewBox="0 0 116 116" fill="none" xmlns="http://www.w3.org/2000/svg" xmlns:xlink="http://www.w3.org/1999/xlink">
	<defs>
		<clipPath id="clip447_26672">
			<rect id="Frame 2072750470" width="116.000000" height="116.000000" transform="translate(-0.666992 0.000000)" fill="white" fill-opacity="0"/>
		</clipPath>
		<linearGradient id="paint_linear_447_26675_0" x1="76.272903" y1="44.459473" x2="76.272903" y2="68.001282" gradientUnits="userSpaceOnUse">
			<stop stop-color="#066165"/>
			<stop offset="1.000000" stop-color="#001A38"/>
		</linearGradient>
		<linearGradient id="paint_linear_447_26679_0" x1="33.369453" y1="64.721680" x2="33.369453" y2="104.138191" gradientUnits="userSpaceOnUse">
			<stop stop-color="#066266"/>
			<stop offset="1.000000" stop-color="#001A38"/>
		</linearGradient>
		<linearGradient id="paint_linear_447_26687_0" x1="25.518991" y1="42.671875" x2="25.518991" y2="76.056290" gradientUnits="userSpaceOnUse">
			<stop stop-color="#066266"/>
			<stop offset="1.000000" stop-color="#001A38"/>
		</linearGradient>
		<linearGradient id="paint_linear_447_26695_0" x1="44.338818" y1="35.739258" x2="44.338818" y2="69.123672" gradientUnits="userSpaceOnUse">
			<stop stop-color="#066668"/>
			<stop offset="1.000000" stop-color="#022540"/>
		</linearGradient>
		<linearGradient id="paint_linear_447_26698_0" x1="80.764488" y1="19.594727" x2="80.764488" y2="39.533821" gradientUnits="userSpaceOnUse">
			<stop stop-color="#066366"/>
			<stop offset="1.000000" stop-color="#001A38"/>
		</linearGradient>
	</defs>
	<g clip-path="url(#clip447_26672)">
		<path id="Vector 30" d="M90.21 67.21L95.45 64.27C96.09 63.91 96.09 62.98 95.45 62.62L65.1 45.27C64.21 44.77 63.12 44.77 62.24 45.29L57.05 48.34C56.41 48.71 56.42 49.63 57.06 49.99L87.41 67.2C88.28 67.7 89.34 67.7 90.21 67.21Z" fill="url(#paint_linear_447_26675_0)" fill-opacity="1.000000" fill-rule="nonzero"/>
		<path id="Vector 23" d="M56.81 104.34L107.91 " stroke="#FFFFFF" stroke-opacity="1.000000" stroke-width="1.000000" stroke-linejoin="round"/>
		<path id="Vector 28" d="M109.89 76.07L56.5 106.99L56.5 103.99L107.91 75.08L109.89 76.07Z" fill="#FFFFFF" fill-opacity="1.000000" fill-rule="nonzero"/>
		<path id="Vector 28" d="M109.89 76.07L107.91 75.08L56.5 103.99L56.5 106.99L109.89 76.07Z" stroke="#FFFFFF" stroke-opacity="1.000000" stroke-width="1.000000" stroke-linejoin="round"/>
		<path id="Vector 24" d="M7.96 66.55C7.96 65.25 9.37 64.43 10.5 65.08L56.5 91.49L56.5 106.99L10.81 80.61C9.04 79.59 7.96 77.71 7.96 75.68L7.96 66.55Z" stroke="#FFFFFF" stroke-opacity="1.000000" stroke-width="1.000000" stroke-linejoin="round"/>
		<path id="Vector 27" d="M10.33 75.35L10.33 68C10.33 66.54 11.91 65.63 13.18 66.35L56.4 91.22L56.4 104.13L12.23 78.64C11.06 77.96 10.33 76.7 10.33 75.35Z" fill="url(#paint_linear_447_26679_0)" fill-opacity="1.000000" fill-rule="evenodd"/>
		<path id="Vector 25" d="M107.91 62.35L56.5 91.49L56.5 103.99L107.91 75.08L107.91 62.35Z" fill="#001A38" fill-opacity="1.000000" fill-rule="nonzero"/>
		<path id="Vector 25" d="M107.91 62.35L107.91 75.08L56.5 103.99L56.5 91.49L107.91 62.35Z" stroke="#FFFFFF" stroke-opacity="1.000000" stroke-width="1.000000" stroke-linejoin="round"/>
		<path id="Vector 26" d="M56.15 91.17C56.3 91.26 56.49 91.26 56.64 91.17L108.83 61.35C109.16 61.16 109.16 60.68 108.83 60.48L63.29 34.47C63.14 34.38 62.95 34.38 62.8 34.47L9.86 64.72L56.15 91.17Z" stroke="#FFFFFF" stroke-opacity="1.000000" stroke-width="1.000000" stroke-linejoin="round"/>
		<path id="Vector 29" d="M90 64.88C89.13 65.37 88.07 65.36 87.2 64.87L56.85 47.66C56.21 47.3 56.2 46.38 56.83 46.01L62.03 42.96C62.91 42.44 64 42.44 64.89 42.94L95.24 60.29C95.88 60.65 95.88 61.58 95.24 61.94L90 64.88Z" stroke="#FFFFFF" stroke-opacity="1.000000" stroke-width="1.000000" stroke-linejoin="round"/>
		<path id="Vector 23" d="M45.43 76.25L88.72 " stroke="#FFFFFF" stroke-opacity="1.000000" stroke-width="1.000000" stroke-linejoin="round"/>
		<path id="Vector 28" d="M90.39 52.31L45.5 78.49L45.43 76.06L88.72 51.47L90.39 52.31Z" fill="#FFFFFF" fill-opacity="1.000000" fill-rule="nonzero"/>
		<path id="Vector 28" d="M90.39 52.31L88.72 51.47L45.43 76.06L45.5 78.49L90.39 52.31Z" stroke="#FFFFFF" stroke-opacity="1.000000" stroke-width="1.000000" stroke-linejoin="round"/>
		<path id="Vector 24" d="M4 44.48L4 51.94C4 53.67 4.92 55.27 6.42 56.13L45.5 78.49L45.5 64.99L6.39 43.08C5.32 42.48 4 43.25 4 44.48Z" fill="#001A38" fill-opacity="1.000000" fill-rule="nonzero"/>
		<path id="Vector 24" d="M4 44.48C4 43.25 5.32 42.48 6.39 43.08L45.5 64.99L45.5 78.49L6.42 56.13C4.92 55.27 4 53.67 4 51.94L4 44.48Z" stroke="#FFFFFF" stroke-opacity="1.000000" stroke-width="1.000000" stroke-linejoin="round"/>
		<path id="Vector 27" d="M6.01 45.44L6.01 51.67C6.01 52.82 6.62 53.88 7.62 54.46L45.02 76.05L45.02 64.96L8.41 44.04C7.34 43.43 6.01 44.2 6.01 45.44Z" fill="url(#paint_linear_447_26687_0)" fill-opacity="1.000000" fill-rule="nonzero"/>
		<path id="Vector 25" d="M45.5 64.99L45.5 75.99L88.72 51.47L88.72 40.69L45.5 64.99Z" fill="#001A38" fill-opacity="1.000000" fill-rule="nonzero"/>
		<path id="Vector 25" d="M45.5 64.99L88.72 40.69L88.72 51.47L45.5 75.99L45.5 64.99Z" stroke="#FFFFFF" stroke-opacity="1.000000" stroke-width="1.000000" stroke-linejoin="round"/>
		<path id="Vector 26" d="M44.53 64.91L5.48 42.68L50.16 17.21C50.46 17.03 50.84 17.03 51.15 17.21L88.55 38.58C89.22 38.97 89.22 39.94 88.55 40.32L45.52 64.91C45.21 65.09 44.83 65.09 44.53 64.91Z" fill="#FFFFFF" fill-opacity="1.000000" fill-rule="nonzero"/>
		<path id="Vector 26" d="M44.53 64.91C44.83 65.09 45.21 65.09 45.52 64.91L88.55 40.32C89.22 39.94 89.22 38.97 88.55 38.58L51.15 17.21C50.84 17.03 50.46 17.03 50.16 17.21L5.48 42.68L44.53 64.91Z" stroke="#FFFFFF" stroke-opacity="1.000000" stroke-width="1.000000" stroke-linejoin="round"/>
		<path id="Vector 29" d="M73.54 42.84C72.81 43.25 71.91 43.25 71.17 42.83L45.47 28.25C44.93 27.95 44.92 27.17 45.46 26.86L49.86 24.27C50.6 23.83 51.53 23.83 52.28 24.26L77.98 38.95C78.53 39.26 78.52 40.04 77.98 40.35L73.54 42.84Z" stroke="#FFFFFF" stroke-opacity="1.000000" stroke-width="1.000000" stroke-linejoin="round"/>
		<path id="Vector 23" d="M64.25 69.32L107.54 " stroke="#FFFFFF" stroke-opacity="1.000000" stroke-width="1.000000" stroke-linejoin="round"/>
		<path id="Vector 28" d="M108.41 45.84L64.25 71.33L64.25 69.42C64.25 69.24 64.35 69.08 64.5 68.99L107.3 44.67C107.45 44.59 107.63 44.58 107.77 44.66L108.38 44.96C108.74 45.14 108.75 45.64 108.41 45.84Z" fill="#FFFFFF" fill-opacity="1.000000" fill-rule="nonzero"/>
		<path id="Vector 28" d="M108.41 45.84C108.75 45.64 108.74 45.14 108.38 44.96L107.77 44.66C107.63 44.58 107.45 44.59 107.3 44.67L64.5 68.99C64.35 69.08 64.25 69.24 64.25 69.42L64.25 71.33L108.41 45.84Z" stroke="#FFFFFF" stroke-opacity="1.000000" stroke-width="1.000000" stroke-linejoin="round"/>
		<path id="Vector 24" d="M22.81 37.58L22.81 45.01C22.81 46.74 23.74 48.33 25.23 49.2L64 71.49L64 58.49L25.23 36.19C24.15 35.57 22.81 36.35 22.81 37.58Z" fill="#001A38" fill-opacity="1.000000" fill-rule="nonzero"/>
		<path id="Vector 24" d="M22.81 37.58C22.81 36.35 24.15 35.57 25.23 36.19L64 58.49L64 71.49L25.23 49.2C23.74 48.33 22.81 46.74 22.81 45.01L22.81 37.58Z" stroke="#FFFFFF" stroke-opacity="1.000000" stroke-width="1.000000" stroke-linejoin="round"/>
		<path id="Vector 27" d="M24.83 38.52L24.83 44.74C24.83 45.89 25.44 46.95 26.43 47.52L63.5 68.99L63.5 57.99L27.24 37.12C26.16 36.51 24.83 37.28 24.83 38.52Z" fill="url(#paint_linear_447_26695_0)" fill-opacity="1.000000" fill-rule="nonzero"/>
		<path id="Vector 25" d="M64 58L64 69.5L107.54 44.54L107.54 33.76L64 58Z" fill="#001A38" fill-opacity="1.000000" fill-rule="nonzero"/>
		<path id="Vector 25" d="M64 58L107.54 33.76L107.54 44.54L64 69.5L64 58Z" stroke="#FFFFFF" stroke-opacity="1.000000" stroke-width="1.000000" stroke-linejoin="round"/>
		<path id="Vector 26" d="M63.59 58.12L25.06 36.18C24.73 35.99 24.73 35.5 25.06 35.31L69.22 10.14C69.38 10.05 69.57 10.05 69.72 10.14L108.13 32.08C108.47 32.28 108.47 32.76 108.13 32.95L64.09 58.12C63.94 58.21 63.75 58.21 63.59 58.12Z" fill="#001A38" fill-opacity="1.000000" fill-rule="nonzero"/>
		<path id="Vector 26" d="M63.59 58.12C63.75 58.21 63.94 58.21 64.09 58.12L108.13 32.95C108.47 32.76 108.47 32.28 108.13 32.08L69.72 10.14C69.57 10.05 69.38 10.05 69.22 10.14L25.06 35.31C24.73 35.5 24.73 35.99 25.06 36.18L63.59 58.12Z" stroke="#FFFFFF" stroke-opacity="1.000000" stroke-width="1.000000" stroke-linejoin="round"/>
		<path id="Vector 30" d="M97 36.37L92.57 38.86C91.83 39.28 90.93 39.27 90.2 38.86L64.49 24.28C63.95 23.97 63.94 23.2 64.48 22.88L68.88 20.3C69.63 19.86 70.55 19.85 71.3 20.28L97.01 34.97C97.55 35.28 97.55 36.07 97 36.37Z" fill="url(#paint_linear_447_26698_0)" fill-opacity="1.000000" fill-rule="evenodd"/>
		<path id="Vector 29" d="M92.36 35.9C91.63 36.32 90.73 36.32 89.99 35.9L64.29 21.32C63.75 21.01 63.74 20.24 64.27 19.93L68.68 17.34C69.42 16.9 70.35 16.9 71.1 17.33L96.8 32.02C97.35 32.33 97.34 33.11 96.8 33.42L92.36 35.9Z" stroke="#FFFFFF" stroke-opacity="1.000000" stroke-width="1.000000" stroke-linejoin="round"/>
		<path id="Vector 31" d="M45.09 50.79L36.09 45.79L31.98 47.44C31.7 47.55 31.73 47.94 32.02 48.01L37.49 49.27C37.55 49.28 37.61 49.32 37.65 49.37L40.29 52.45C40.47 52.65 40.75 52.72 40.99 52.61L45.09 50.79Z" fill="#FFFFFF" fill-opacity="1.000000" fill-rule="nonzero"/>
		<path id="Vector 32" d="M33 82.5L20 75L14.73 77.19C14.48 77.29 14.49 77.66 14.76 77.75L22.93 80.47C22.97 80.49 23.01 80.51 23.05 80.55L27.2 84.7C27.38 84.88 27.65 84.93 27.87 84.82L33 82.5Z" fill="#FFFFFF" fill-opacity="1.000000" fill-rule="nonzero"/>
	</g>
</svg>
