<svg width="116.000000" height="116.000000" viewBox="0 0 116 116" fill="none" xmlns="http://www.w3.org/2000/svg" xmlns:xlink="http://www.w3.org/1999/xlink">
	<defs>
		<clipPath id="clip447_26932">
			<rect id="Frame 2072750475" width="116.000000" height="116.000000" transform="translate(-0.333008 0.000000)" fill="white" fill-opacity="0"/>
		</clipPath>
		<linearGradient id="paint_linear_447_26936_0" x1="26.252899" y1="74.000000" x2="26.252899" y2="90.289032" gradientUnits="userSpaceOnUse">
			<stop stop-color="#06555E"/>
			<stop offset="1.000000" stop-color="#001A38"/>
		</linearGradient>
		<linearGradient id="paint_linear_447_26950_0" x1="36.545479" y1="51.457008" x2="113.177246" y2="40.318565" gradientUnits="userSpaceOnUse">
			<stop stop-color="#066869"/>
			<stop offset="1.000000" stop-color="#001A38"/>
		</linearGradient>
	</defs>
	<rect id="Frame 2072750475" width="116.000000" height="116.000000" transform="translate(-0.333008 0.000000)" fill="#FFFFFF" fill-opacity="0"/>
	<g clip-path="url(#clip447_26932)">
		<path id="Vector 46" d="M3.2 61.12L58.79 112.5C60.9 114.45 63.9 115.14 66.66 114.31L112.2 100.61C113.93 100.09 114.43 97.9 113.11 96.67L85.1 70.79L70.27 57.08C69.84 56.68 69.28 56.46 68.69 56.46L54.66 56.46C53.26 56.46 51.91 55.96 50.86 55.04L41.59 47.03C40.99 46.51 40.16 46.33 39.4 46.56L27.15 50.24L4.1 57.18C2.38 57.7 1.87 59.89 3.2 61.12Z" fill="#FFFFFF" fill-opacity="1.000000" fill-rule="nonzero"/>
		<path id="Vector 46" d="M3.2 61.12C1.87 59.89 2.38 57.7 4.1 57.18L27.15 50.24L39.4 46.56C40.16 46.33 40.99 46.51 41.59 47.03L50.86 55.04C51.91 55.96 53.26 56.46 54.66 56.46L68.69 56.46C69.28 56.46 69.84 56.68 70.27 57.08L85.1 70.79L113.11 96.67C114.43 97.9 113.93 100.09 112.2 100.61L66.66 114.31C63.9 115.14 60.9 114.45 58.79 112.5L3.2 61.12Z" stroke="#FFFFFF" stroke-opacity="1.000000" stroke-width="1.000000"/>
		<path id="Vector 33" d="M1.35 76.35L63.52 111.61C66.02 113.03 69.08 113.02 71.58 111.6L112.87 88C114.44 87.11 114.43 84.85 112.86 83.96L81.54 66.19L64.35 56.44C64.18 56.35 64 56.27 63.82 56.22L46.5 51.5L41.48 50.15C40.88 49.99 40.25 50.07 39.72 50.37L34.44 53.39L22.22 60.37L1.34 72.3C-0.23 73.2 -0.22 75.46 1.35 76.35Z" fill="#001A38" fill-opacity="1.000000" fill-rule="nonzero"/>
		<path id="Vector 33" d="M1.35 76.35C-0.22 75.46 -0.23 73.2 1.34 72.3L22.22 60.37L34.44 53.39L39.72 50.37C40.25 50.07 40.88 49.99 41.48 50.15L46.5 51.5L63.82 56.22C64 56.27 64.18 56.35 64.35 56.44L81.54 66.19L112.86 83.96C114.43 84.85 114.44 87.11 112.87 88L71.58 111.6C69.08 113.02 66.02 113.03 63.52 111.61L1.35 76.35Z" stroke="#FFFFFF" stroke-opacity="1.000000" stroke-width="1.000000"/>
		<path id="Vector 47" d="M38.64 86.62L33.5 89.36C32.43 89.94 31.14 89.91 30.09 89.29L13.72 79.67C12.95 79.21 12.96 78.1 13.74 77.65L18.41 74.98C19.48 74.37 20.8 74.37 21.87 74.98L38.67 84.58C39.47 85.04 39.45 86.19 38.64 86.62Z" fill="url(#paint_linear_447_26936_0)" fill-opacity="1.000000" fill-rule="evenodd"/>
		<path id="Vector 36" d="M94.96 80.28L94.96 87.26L108.92 79.12L108.92 72.14L94.96 80.28Z" fill="#FFFFFF" fill-opacity="1.000000" fill-rule="nonzero"/>
		<path id="Vector 36" d="M94.96 80.28L108.92 72.14L108.92 79.12L94.96 87.26L94.96 80.28Z" stroke="#FFFFFF" stroke-opacity="1.000000" stroke-width="1.000000" stroke-linejoin="round"/>
		<path id="Vector 37" d="M81 79.12L94.96 87.26L94.96 80.28L81 72.14L81 79.12Z" fill="#001A38" fill-opacity="1.000000" fill-rule="nonzero"/>
		<path id="Vector 37" d="M81 79.12L81 72.14L94.96 80.28L94.96 87.26L81 79.12Z" stroke="#FFFFFF" stroke-opacity="1.000000" stroke-width="1.000000" stroke-linejoin="round"/>
		<path id="Vector 38" d="M94.96 80.28L108.92 72.14L94.96 64L81 72.14L94.96 80.28Z" fill="#001A38" fill-opacity="1.000000" fill-rule="nonzero"/>
		<path id="Vector 38" d="M94.96 80.28L81 72.14L94.96 64L108.92 72.14L94.96 80.28Z" stroke="#FFFFFF" stroke-opacity="1.000000" stroke-width="1.000000" stroke-linejoin="round"/>
		<path id="Vector 34" d="M33.26 86.21C32.19 86.78 30.89 86.75 29.85 86.14L13.48 76.51C12.71 76.06 12.72 74.94 13.5 74.5L18.17 71.83C19.24 71.22 20.56 71.22 21.63 71.83L38.43 81.43C39.22 81.88 39.21 83.04 38.4 83.47L33.26 86.21Z" stroke="#FFFFFF" stroke-opacity="1.000000" stroke-width="1.000000"/>
		<path id="Vector 80" d="M78.99 97.99L26 " stroke="#FFFFFF" stroke-opacity="1.000000" stroke-width="1.000000" stroke-linecap="round"/>
		<path id="Vector 81" d="M83.99 94.49L31.5 " stroke="#FFFFFF" stroke-opacity="1.000000" stroke-width="1.000000" stroke-linecap="round"/>
		<path id="Vector 90" d="M26 68.5L37 " stroke="#FFFFFF" stroke-opacity="1.000000" stroke-width="1.000000"/>
		<path id="Vector 91" d="M35.36 73.75L46.63 " stroke="#FFFFFF" stroke-opacity="1.000000" stroke-width="1.000000"/>
		<path id="Vector 94" d="M45.34 79.21L56.65 " stroke="#FFFFFF" stroke-opacity="1.000000" stroke-width="1.000000"/>
		<path id="Vector 93" d="M79 98L90 " stroke="#FFFFFF" stroke-opacity="1.000000" stroke-width="1.000000"/>
		<path id="Vector 82" d="M90 91.5L37 " stroke="#FFFFFF" stroke-opacity="1.000000" stroke-width="1.000000" stroke-linecap="round"/>
		<path id="Union" d="M108.362 36.2388L108.362 33.959L94.6875 19.8428L74.249 14.1084L48.0757 16.314L32.9302 29.6948L32.9302 33.4609C32.2378 34.373 31.6523 35.3062 31.1729 36.2534L29.5483 34.6924L29.5483 43.2212L29.5654 43.2368C29.7598 49.0059 33.6572 54.7378 41.2598 59.127C56.8794 68.145 82.3149 68.1333 97.959 59.1016C106.106 54.3975 110.016 48.1602 109.686 41.9888L109.686 34.3984L108.362 36.2388ZM46.9697 29.6626C40.8672 33.186 37.7368 37.7847 37.5796 42.4087L40.7515 45.4565L46.9346 49.8921L62.7798 55.1313L81.895 55.1313L86.6733 53.1436L101.148 42.7593L101.148 39.3159C100.009 35.7686 97.0688 32.3789 92.3286 29.6421C79.8335 22.4282 59.4844 22.4375 46.9697 29.6626ZM100.275 47.4854L101.054 46.4014C101.39 45.439 101.593 44.4644 101.662 43.4873L90.312 51.6299L100.275 47.4854Z" clip-rule="evenodd" fill="url(#paint_linear_447_26950_0)" fill-opacity="1.000000" fill-rule="evenodd"/>
		<path id="Vector" d="M41.3 18.38C25.66 27.41 25.64 42.09 41.26 51.11C56.88 60.13 82.31 60.12 97.96 51.08C113.6 42.05 113.62 27.37 98 18.35C82.38 9.33 56.94 9.34 41.3 18.38ZM92.29 47.81C79.77 55.04 59.43 55.05 46.93 47.83C34.43 40.62 34.45 28.87 46.97 21.65C59.48 14.42 79.83 14.41 92.32 21.63C104.82 28.84 104.8 40.59 92.29 47.81Z" fill="#FFFFFF" fill-opacity="1.000000" fill-rule="nonzero"/>
		<ellipse id="Ellipse 180" cx="69.270020" cy="41.735352" rx="2.880761" ry="2.160570" fill="#FFFFFF" fill-opacity="1.000000"/>
		<ellipse id="Ellipse 181" cx="69.270020" cy="41.735352" rx="2.880761" ry="2.160570" fill="#FFFFFF" fill-opacity="1.000000"/>
		<path id="Vector 77" d="M68.72 42.14L91.81 34.61M86.88 33.77L91.81 34.61L89.69 " stroke="#FFFFFF" stroke-opacity="1.000000" stroke-width="1.000000"/>
		<path id="Vector 78" d="M69.24 42.14L50.47 33.16M55.27 33.15L50.47 33.16L52.46 " stroke="#FFFFFF" stroke-opacity="1.000000" stroke-width="1.000000"/>
	</g>
</svg>
