<svg width="116.000000" height="116.000000" viewBox="0 0 116 116" fill="none" xmlns="http://www.w3.org/2000/svg" xmlns:xlink="http://www.w3.org/1999/xlink">
	<defs>
		<clipPath id="clip447_26973">
			<rect id="Frame 2072750475" width="116.000000" height="116.000000" fill="white" fill-opacity="0"/>
		</clipPath>
		<linearGradient id="paint_linear_447_26975_0" x1="26.123760" y1="-12.633497" x2="26.123760" y2="31.000002" gradientUnits="userSpaceOnUse">
			<stop stop-color="#088A7E"/>
			<stop offset="1.000000" stop-color="#001A38"/>
		</linearGradient>
		<linearGradient id="paint_linear_447_26979_0" x1="81.016350" y1="37.000000" x2="81.016350" y2="92.999664" gradientUnits="userSpaceOnUse">
			<stop stop-color="#001A38"/>
			<stop offset="1.000000" stop-color="#066869"/>
		</linearGradient>
		<linearGradient id="paint_linear_447_26982_0" x1="73.726425" y1="10.777580" x2="92.811348" y2="46.582851" gradientUnits="userSpaceOnUse">
			<stop stop-color="#022640"/>
			<stop offset="0.981997" stop-color="#066064"/>
		</linearGradient>
		<linearGradient id="paint_linear_447_26988_0" x1="48.379391" y1="56.131836" x2="48.379391" y2="88.668076" gradientUnits="userSpaceOnUse">
			<stop stop-color="#001A38"/>
			<stop offset="1.000000" stop-color="#066869"/>
		</linearGradient>
		<linearGradient id="paint_linear_447_26991_0" x1="44.449612" y1="39.779167" x2="55.413937" y2="61.160275" gradientUnits="userSpaceOnUse">
			<stop stop-color="#022640"/>
			<stop offset="0.981997" stop-color="#066064"/>
		</linearGradient>
		<linearGradient id="paint_linear_447_26996_0" x1="27.000000" y1="81.000000" x2="27.000000" y2="113.000000" gradientUnits="userSpaceOnUse">
			<stop stop-color="#001A38"/>
			<stop offset="1.000000" stop-color="#066567"/>
		</linearGradient>
	</defs>
	<rect id="Frame 2072750475" width="116.000000" height="116.000000" fill="#FFFFFF" fill-opacity="0"/>
	<g clip-path="url(#clip447_26973)">
		<path id="Vector" d="M47.59 2.26C47.83 1.8 47.38 1.29 46.89 1.45L5.69 15.35C5.16 15.53 5.17 16.28 5.7 16.45L14.86 19.26C15.07 19.33 15.22 19.5 15.26 19.71L16.89 29.09C16.98 29.65 17.76 29.74 17.98 29.22L21.18 21.78C21.29 21.5 21.6 21.36 21.89 21.46L34.83 25.83C35.1 25.92 35.39 25.8 35.52 25.55L47.59 2.26Z" fill="url(#paint_linear_447_26975_0)" fill-opacity="1.000000" fill-rule="nonzero"/>
		<path id="Vector" d="M5.69 15.35C5.16 15.53 5.17 16.28 5.7 16.45L14.86 19.26C15.07 19.33 15.22 19.5 15.26 19.71L16.89 29.09C16.98 29.65 17.76 29.74 17.98 29.22L21.18 21.78C21.29 21.5 21.6 21.36 21.89 21.46L34.83 25.83C35.1 25.92 35.39 25.8 35.52 25.55L47.59 2.26C47.83 1.8 47.38 1.29 46.89 1.45L5.69 15.35Z" stroke="#FFFFFF" stroke-opacity="1.000000" stroke-width="1.000000" stroke-linejoin="round"/>
		<path id="Vector" d="M48.24 1L15.56 19.17C15.35 19.29 15.23 19.53 15.27 19.77L16.89 29.09C16.98 29.65 17.76 29.74 17.98 29.22L21.33 21.43C21.36 21.34 21.43 21.26 21.51 21.2L48.24 1Z" stroke="#FFFFFF" stroke-opacity="1.000000" stroke-width="1.000000" stroke-linejoin="round"/>
		<path id="person" d="M87.96 40.63C84.48 38.62 81.5 35.47 79.02 31.18C76.55 26.89 75.31 22.73 75.31 18.72C75.31 14.7 76.55 11.97 79.02 10.54C81.5 9.11 84.48 9.4 87.96 11.41C91.44 13.42 94.42 16.57 96.9 20.86C99.38 25.15 100.62 29.31 100.62 33.33C100.62 37.35 99.38 40.07 96.9 41.5C94.42 42.93 91.44 42.64 87.96 40.63ZM62.65 55.25L62.65 45.02C62.65 42.95 63.11 41.31 64.04 40.11C64.96 38.91 66.19 38.29 67.71 38.26C70.98 38.26 74.31 38.76 77.68 39.77C81.05 40.77 84.48 42.28 87.96 44.29C91.44 46.3 94.87 48.75 98.24 51.64C101.62 54.53 104.94 57.86 108.21 61.64C109.74 63.43 110.96 65.47 111.89 67.73C112.81 70 113.27 72.17 113.27 74.24L113.27 84.47L86.13 65L62.65 55.25ZM68.98 51.59L106.94 73.51L106.94 70.59C106.94 69.92 106.8 69.23 106.51 68.51C106.22 67.79 105.84 67.15 105.36 66.57C102.51 63.28 99.64 60.39 96.74 57.89C93.84 55.4 90.91 53.3 87.96 51.59C85.01 49.89 82.08 48.61 79.18 47.76C76.28 46.9 73.41 46.48 70.56 46.48C70.09 46.51 69.71 46.71 69.41 47.09C69.12 47.48 68.98 48 68.98 48.67L68.98 51.59ZM87.96 33.33C89.7 34.33 91.19 34.48 92.43 33.76C93.67 33.05 94.29 31.68 94.29 29.67C94.29 27.66 93.67 25.59 92.43 23.44C91.19 21.3 89.7 19.72 87.96 18.72C86.22 17.71 84.73 17.57 83.49 18.28C82.25 19 81.63 20.36 81.63 22.37C81.63 24.38 82.25 26.46 83.49 28.6C84.73 30.75 86.22 32.32 87.96 33.33Z" fill="#001A38" fill-opacity="1.000000" fill-rule="nonzero"/>
		<path id="Union" d="M63.5186 54.4443C62.936 54.2021 62.416 53.3794 62.416 52.7002L62.416 50.8989L61.2979 50.3193L49 46.9653L63.5479 39.2061Q63.6675 39.022 63.7998 38.8491Q64.4756 37.9692 65.3677 37.5073Q66.3032 37.0234 67.4775 37C70.7466 37 74.0684 37.5024 77.4429 38.5068Q82.5044 40.0137 87.7241 43.0273Q92.9443 46.041 98.0059 50.3789Q103.067 54.7168 107.971 60.3789C109.5 62.1748 110.726 64.207 111.648 66.4746C112.571 68.7427 113.033 70.9116 113.033 72.9814L113.033 81.9478C113.033 82.1592 112.982 82.3262 112.896 82.4434C112.86 82.5454 112.792 82.6362 112.697 82.6987L97 92.9995L92.043 73.2378L79.3872 61.0347L63.5186 54.4443Z" clip-rule="evenodd" fill="url(#paint_linear_447_26979_0)" fill-opacity="1.000000" fill-rule="evenodd"/>
		<path id="Union" d="M81.0361 34.2646Q79.9829 32.8384 79.0293 31.186Q77.957 29.3291 77.1943 27.5063L73.2788 24.1934L62.5 19.9995L77.8398 11.4189Q78.3774 10.9233 79.0293 10.5469Q79.7354 10.1392 80.4961 9.91748Q83.7383 8.97363 87.9663 11.4146Q93.186 14.4282 96.9033 20.8667C99.3813 25.1587 100.621 29.314 100.621 33.332C100.621 37.313 99.4043 40.0239 96.9722 41.4653C96.9561 41.5054 96.9282 41.54 96.8887 41.562L81 50.4995L81.1045 46.5532L81.6636 39.2861L81.0361 34.2646Z" clip-rule="evenodd" fill="url(#paint_linear_447_26982_0)" fill-opacity="1.000000" fill-rule="evenodd"/>
		<path id="person" d="M72.31 49.58C68.83 47.57 65.85 44.42 63.37 40.12C60.89 35.83 59.66 31.68 59.66 27.66C59.66 23.64 60.89 20.92 63.37 19.49C65.85 18.06 68.83 18.34 72.31 20.35C75.79 22.36 78.77 25.51 81.25 29.81C83.72 34.1 84.96 38.25 84.96 42.27C84.96 46.29 83.72 49.01 81.25 50.44C78.77 51.88 75.79 51.59 72.31 49.58ZM47 64.19L47 53.96C47 51.89 47.46 50.25 48.39 49.05C49.31 47.85 50.53 47.23 52.06 47.2C55.33 47.2 58.65 47.71 62.03 48.71C65.4 49.71 68.83 51.22 72.31 53.23C75.79 55.24 79.22 57.69 82.59 60.58C85.97 63.47 89.29 66.81 92.56 70.58C94.08 72.38 95.31 74.41 96.23 76.68C97.16 78.95 97.62 81.11 97.62 83.18L97.62 92.29C97.62 92.91 97.18 93.16 96.65 92.85L47 64.19ZM53.33 60.54L91.29 82.45L91.29 79.53C91.29 78.86 91.15 78.17 90.86 77.45C90.57 76.74 90.18 76.09 89.71 75.51C86.86 72.23 83.99 69.33 81.09 66.84C78.19 64.34 75.26 62.24 72.31 60.54C69.36 58.83 66.43 57.55 63.53 56.7C60.63 55.85 57.76 55.42 54.91 55.42C54.44 55.45 54.05 55.66 53.76 56.04C53.47 56.42 53.33 56.94 53.33 57.61L53.33 60.54ZM72.31 42.27C74.05 43.28 75.54 43.42 76.78 42.71C78.02 41.99 78.64 40.63 78.64 38.62C78.64 36.61 78.02 34.53 76.78 32.39C75.54 30.24 74.05 28.66 72.31 27.66C70.57 26.65 69.08 26.51 67.84 27.23C66.6 27.94 65.98 29.3 65.98 31.31C65.98 33.32 66.6 35.4 67.84 37.55C69.08 39.69 70.57 41.27 72.31 42.27Z" fill="#FFFFFF" fill-opacity="1.000000" fill-rule="nonzero"/>
		<path id="person" d="M52.37 57.54C50.3 56.34 48.52 54.47 47.05 51.91C45.57 49.36 44.84 46.89 44.84 44.5C44.84 42.11 45.57 40.48 47.05 39.63C48.52 38.78 50.3 38.95 52.37 40.15C54.44 41.35 56.21 43.22 57.68 45.77C59.16 48.33 59.89 50.8 59.89 53.19C59.89 55.58 59.16 57.2 57.68 58.05C56.21 58.91 54.44 58.73 52.37 57.54ZM37.31 66.23L37.31 60.15C37.31 58.91 37.58 57.94 38.13 57.23C38.68 56.51 39.41 56.14 40.32 56.12C42.26 56.12 44.24 56.42 46.25 57.02C48.26 57.62 50.3 58.52 52.37 59.71C54.44 60.91 56.48 62.36 58.48 64.09C60.49 65.81 62.47 67.79 64.41 70.04C65.32 71.1 66.05 72.31 66.6 73.66C67.15 75.01 67.42 76.3 67.42 77.53L67.42 83.62L51.28 72.03L37.31 66.23ZM41.07 64.06L63.66 77.1L63.66 75.36C63.66 74.96 63.57 74.55 63.4 74.12C63.23 73.7 63 73.31 62.72 72.97C61.02 71.01 59.31 69.29 57.59 67.81C55.86 66.32 54.12 65.07 52.37 64.06C50.61 63.04 48.87 62.28 47.14 61.78C45.42 61.27 43.71 61.02 42.01 61.02C41.73 61.03 41.5 61.16 41.33 61.38C41.16 61.61 41.07 61.92 41.07 62.32L41.07 64.06ZM52.37 53.19C53.4 53.79 54.29 53.87 55.02 53.45C55.76 53.02 56.13 52.21 56.13 51.02C56.13 49.82 55.76 48.59 55.02 47.31C54.29 46.03 53.4 45.09 52.37 44.5C51.33 43.9 50.44 43.81 49.71 44.24C48.97 44.66 48.6 45.48 48.6 46.67C48.6 47.87 48.97 49.1 49.71 50.38C50.44 51.66 51.33 52.59 52.37 53.19Z" fill="#001A38" fill-opacity="1.000000" fill-rule="nonzero"/>
		<path id="Union" d="M37.9683 66.5107C37.6216 66.3672 37.312 65.8774 37.312 65.4736L37.312 64.4004L36.6475 64.0557L29.3301 62.0601L37.9863 57.4434Q38.0571 57.3345 38.1357 57.2319C38.6846 56.5166 39.4141 56.1499 40.3237 56.1318C42.269 56.1318 44.2451 56.4307 46.2529 57.0283Q49.2646 57.9248 52.3706 59.7183Q55.4761 61.5112 58.4878 64.0923C60.4956 65.813 62.4722 67.7964 64.417 70.042C65.3267 71.1108 66.0562 72.3198 66.605 73.6689C67.1543 75.0186 67.4287 76.3091 67.4287 77.5405L67.4287 82.8755C67.4287 83.0791 67.3501 83.2144 67.2271 83.2646L67.2461 83.3467L57.9336 88.668L54.9399 77.6924L47.4121 70.4331L37.9683 66.5107Z" clip-rule="evenodd" fill="url(#paint_linear_447_26988_0)" fill-opacity="1.000000" fill-rule="evenodd"/>
		<path id="Union" d="M48.2471 53.751Q47.6211 52.9023 47.0537 51.9194Q46.416 50.8154 45.9624 49.7314L43.6318 47.7593L38 44.999L46.2827 40.2183Q46.2876 40.2134 46.293 40.208Q46.6333 39.8823 47.0537 39.6396Q47.4741 39.397 47.9263 39.2651L47.9263 39.2651Q49.8555 38.7031 52.3711 40.1558Q55.4771 41.9487 57.6885 45.7798Q59.9004 49.6104 59.9004 53.1968Q59.9004 55.9575 58.5894 57.3496L58.5986 57.4048L58.4502 57.4902L58.4492 57.4912Q58.1089 57.8169 57.6885 58.0596C57.4038 58.2241 57.1084 58.3501 56.8013 58.4385L48 63.499L48.2881 61.0635L48.6211 56.7397L48.2471 53.751Z" clip-rule="evenodd" fill="url(#paint_linear_447_26991_0)" fill-opacity="1.000000" fill-rule="evenodd"/>
		<path id="person" d="M43.05 62.86C40.98 61.66 39.21 59.79 37.74 57.24C36.26 54.68 35.52 52.21 35.52 49.82C35.52 47.43 36.26 45.81 37.74 44.96C39.21 44.1 40.98 44.28 43.05 45.47C45.12 46.67 46.9 48.54 48.37 51.1C49.85 53.65 50.58 56.12 50.58 58.51C50.58 60.9 49.85 62.52 48.37 63.37C46.9 64.23 45.12 64.05 43.05 62.86ZM28 71.55L28 65.47C28 64.24 28.27 63.26 28.82 62.55C29.37 61.83 30.1 61.46 31.01 61.45C32.95 61.45 34.93 61.75 36.94 62.34C38.94 62.94 40.98 63.84 43.05 65.03C45.12 66.23 47.16 67.69 49.17 69.41C51.18 71.13 53.15 73.11 55.1 75.36C56.01 76.43 56.74 77.63 57.29 78.98C57.84 80.33 58.11 81.62 58.11 82.85L58.11 88.28C58.11 88.64 57.85 88.79 57.54 88.61L28 71.55ZM31.76 69.38L54.35 82.42L54.35 80.68C54.35 80.28 54.26 79.87 54.09 79.45C53.92 79.02 53.69 78.63 53.41 78.29C51.71 76.33 50 74.61 48.28 73.13C46.55 71.64 44.81 70.39 43.05 69.38C41.3 68.37 39.56 67.6 37.83 67.1C36.1 66.59 34.39 66.34 32.7 66.34C32.42 66.35 32.19 66.48 32.02 66.7C31.85 66.93 31.76 67.24 31.76 67.64L31.76 69.38ZM43.05 58.51C44.09 59.11 44.98 59.2 45.71 58.77C46.45 58.34 46.82 57.53 46.82 56.34C46.82 55.14 46.45 53.91 45.71 52.63C44.98 51.35 44.09 50.42 43.05 49.82C42.02 49.22 41.13 49.13 40.39 49.56C39.66 49.99 39.29 50.8 39.29 51.99C39.29 53.19 39.66 54.42 40.39 55.7C41.13 56.98 42.02 57.91 43.05 58.51Z" fill="#FFFFFF" fill-opacity="1.000000" fill-rule="nonzero"/>
		<path id="Vector" d="M82.73 102.69C84.77 100.67 84.77 97.38 82.73 95.36L82.73 95.36C80.72 93.35 77.46 93.35 75.44 95.36L75.44 95.36C73.41 97.38 73.41 100.67 75.44 102.69L75.44 102.69C77.46 104.7 80.72 104.7 82.73 102.69L82.73 102.69Z" fill="#FFFFFF" fill-opacity="1.000000" fill-rule="nonzero"/>
		<path id="Vector" d="M82.73 102.69C84.77 100.67 84.77 97.38 82.73 95.36C80.72 93.35 77.46 93.35 75.44 95.36C73.41 97.38 73.41 100.67 75.44 102.69C77.46 104.7 80.72 104.7 82.73 102.69Z" stroke="#FFFFFF" stroke-opacity="1.000000" stroke-width="4.000916" stroke-linejoin="round"/>
		<path id="Vector" d="M35 105C39.41 100.58 39.41 93.41 35 89L35 89C30.58 84.58 23.42 84.58 19 88.99L19 88.99C14.58 93.41 14.58 100.58 19 105L19 105C23.42 109.41 30.58 109.41 35 105L35 105Z" fill="url(#paint_linear_447_26996_0)" fill-opacity="1.000000" fill-rule="nonzero"/>
		<path id="Vector" d="M35 105C39.41 100.58 39.41 93.41 35 89C30.58 84.58 23.42 84.58 19 88.99C14.58 93.41 14.58 100.58 19 105C23.42 109.41 30.58 109.41 35 105Z" stroke="#FFFFFF" stroke-opacity="1.000000" stroke-width="0.000000" stroke-linejoin="round"/>
		<path id="Vector" d="M17.34 52.8C18 52.28 18.12 51.31 17.59 50.65L17.59 50.65C17.06 49.99 16.11 49.88 15.44 50.4L15.44 50.4C14.78 50.92 14.66 51.89 15.19 52.55L15.19 52.55C15.72 53.21 16.67 53.32 17.34 52.8L17.34 52.8Z" fill="#FFFFFF" fill-opacity="1.000000" fill-rule="nonzero"/>
		<path id="Vector" d="M17.34 52.8C18 52.28 18.12 51.31 17.59 50.65C17.06 49.99 16.11 49.88 15.44 50.4C14.78 50.92 14.66 51.89 15.19 52.55C15.72 53.21 16.67 53.32 17.34 52.8Z" stroke="#FFFFFF" stroke-opacity="1.000000" stroke-width="1.000000" stroke-linejoin="round"/>
		<path id="Vector" d="M41.25 103.25C42.21 102.28 42.21 100.71 41.25 99.75L41.25 99.75C40.28 98.78 38.71 98.78 37.75 99.75L37.75 99.75C36.78 100.71 36.78 102.28 37.75 103.25L37.75 103.25C38.71 104.21 40.28 104.21 41.25 103.25L41.25 103.25Z" fill="#FFFFFF" fill-opacity="1.000000" fill-rule="nonzero"/>
		<path id="Vector" d="M41.25 103.25C42.21 102.28 42.21 100.71 41.25 99.75C40.28 98.78 38.71 98.78 37.75 99.75C36.78 100.71 36.78 102.28 37.75 103.25C38.71 104.21 40.28 104.21 41.25 103.25Z" stroke="#FFFFFF" stroke-opacity="1.000000" stroke-width="1.000000" stroke-linejoin="round"/>
		<rect id="Rectangle 10" x="10.654297" y="34.000000" width="8.370166" height="8.370166" transform="rotate(51.6792 10.654297 34.000000)" fill="#FFFFFF" fill-opacity="1.000000"/>
	</g>
</svg>
