<svg width="116.000000" height="116.000000" viewBox="0 0 116 116" fill="none" xmlns="http://www.w3.org/2000/svg" xmlns:xlink="http://www.w3.org/1999/xlink">
	<defs>
		<clipPath id="clip447_26824">
			<rect id="Frame 2072750471" width="116.000000" height="116.000000" fill="white" fill-opacity="0"/>
		</clipPath>
		<linearGradient id="paint_linear_447_26840_0" x1="52.836220" y1="80.751945" x2="85.679611" y2="99.714088" gradientUnits="userSpaceOnUse">
			<stop stop-color="#066668"/>
			<stop offset="1.000000" stop-color="#001A38"/>
		</linearGradient>
		<linearGradient id="paint_linear_447_26841_0" x1="41.843956" y1="74.405746" x2="96.637741" y2="106.040955" gradientUnits="userSpaceOnUse">
			<stop stop-color="#075F64"/>
			<stop offset="1.000000" stop-color="#001A38"/>
		</linearGradient>
		<linearGradient id="paint_linear_447_26865_0" x1="86.388657" y1="19.999512" x2="86.388657" y2="42.511909" gradientUnits="userSpaceOnUse">
			<stop stop-color="#076668"/>
			<stop offset="1.000000" stop-color="#001A38"/>
		</linearGradient>
		<linearGradient id="paint_linear_447_26872_0" x1="11.999998" y1="44.000000" x2="11.999998" y2="63.999996" gradientUnits="userSpaceOnUse">
			<stop stop-color="#001A38"/>
			<stop offset="1.000000" stop-color="#076567"/>
		</linearGradient>
	</defs>
	<rect id="Frame 2072750471" width="116.000000" height="116.000000" fill="#FFFFFF" fill-opacity="0"/>
	<g clip-path="url(#clip447_26824)">
		<path id="Vector 63" d="M49.95 89.33L49.95 97.01L59.76 100.71L67.87 96.3L75.98 94.31L82.95 94.31L82.95 89.33L75.98 87.05L66.31 91.03L57.77 93.59L54.79 90.04L49.95 89.33Z" fill="#001A38" fill-opacity="1.000000" fill-rule="evenodd"/>
		<path id="Vector 61" d="M107.97 89.89L107.97 98.43L94.75 112.08L74.98 117.63L49.67 115.49L35.02 102.55L30.47 98.43L30.47 90.18L44.97 104.12L62.61 109.95L81.1 109.95L98.87 102.55L107.97 89.89Z" fill="#001A38" fill-opacity="1.000000" fill-rule="evenodd"/>
		<path id="Vector 62" d="M106.69 98L106.69 89.47L93.47 75.81L73.7 70.27L48.39 72.4L33.74 85.34L33.74 91.6L43.69 83.78L61.33 77.95L79.82 77.95L97.59 85.34L106.69 98Z" fill="#001A38" fill-opacity="1.000000" fill-rule="evenodd"/>
		<path id="Vector" d="M41.84 82.15C26.71 90.89 26.69 105.09 41.8 113.81C56.9 122.53 81.5 122.52 96.63 113.79C111.76 105.05 111.78 90.85 96.68 82.13C81.57 73.41 56.97 73.42 41.84 82.15ZM91.15 110.62C79.05 117.61 59.37 117.62 47.28 110.64C35.2 103.67 35.22 92.3 47.32 85.32C59.42 78.33 79.1 78.32 91.19 85.3C103.27 92.27 103.26 103.64 91.15 110.62Z" fill="#001A38" fill-opacity="1.000000" fill-rule="nonzero"/>
		<path id="Vector" d="M66.5 96.39C61.01 99.55 59.29 98.56 58.27 97.97C56.94 97.21 57.45 95.28 61.02 93.22C64.27 91.35 66.57 92.04 67.65 92.61L70.34 91L73.09 89.42C70.28 87.79 64.5 86.57 58.61 88.67L55.58 86.91L50.09 90.08L53.03 91.78C48.53 95.42 49.25 99.1 52.78 101.14C55.85 102.91 62.43 105.06 71.98 99.55C77.46 96.38 79.32 97.45 80.2 97.96C81.34 98.62 81.24 100.53 77.46 102.71C72.4 105.63 69.65 104.51 69.23 104.3L63.74 107.47C66.26 108.92 72.55 110.46 79.97 107.33L82.93 109.04L88.42 105.87L85.45 104.16C89.95 100.51 89.22 96.83 85.69 94.79C82.62 93.02 76.05 90.87 66.5 96.39Z" fill="#001A38" fill-opacity="1.000000" fill-rule="nonzero"/>
		<path id="Vector 65" d="M73.08 81.66L73.08 86.13L67.6 89.91L63.81 89.35L61.7 85.99L63.81 82.63L66.9 81.51L70.94 81.5L73.08 81.66Z" fill="#001A38" fill-opacity="1.000000" fill-rule="evenodd"/>
		<path id="Vector 64" d="M67.64 84.16L67.64 88.79L62.17 92.57L58.37 92.01L56.27 88.64L58.37 85.28L61.46 84.16L66.24 82.9L67.64 84.16Z" fill="#001A38" fill-opacity="1.000000" fill-rule="evenodd"/>
		<path id="Vector 66" d="M63.75 99.71L63.75 107.48L73.28 106.1L81.24 101.41L81.24 97.29L63.75 99.71Z" fill="#001A38" fill-opacity="1.000000" fill-rule="evenodd"/>
		<path id="Vector 68" d="M88.58 91.03L88.58 99.14L84.31 95.15L88.58 91.03Z" fill="#001A38" fill-opacity="1.000000" fill-rule="evenodd"/>
		<path id="Vector 67" d="M88.35 98.09L88.35 105.4L82.95 107.39L82.95 101.27L88.35 98.09Z" fill="#001A38" fill-opacity="1.000000" fill-rule="evenodd"/>
		<path id="Vector 69" d="M50.09 82.36L50.09 88.19L54.79 83.78L50.09 82.36Z" fill="#001A38" fill-opacity="1.000000" fill-rule="evenodd"/>
		<path id="Vector" d="M66.5 88.64C61.01 91.81 59.29 90.81 58.27 90.22C56.94 89.46 57.45 87.53 61.02 85.47C64.27 83.6 66.57 84.29 67.65 84.87L70.34 83.25L73.09 81.67C70.28 80.05 64.5 78.82 58.61 80.92L55.58 79.16L50.09 82.33L53.03 84.03C48.53 87.67 49.25 91.35 52.78 93.39C55.85 95.16 62.43 97.31 71.98 91.8C77.46 88.63 79.32 89.7 80.2 90.21C81.34 90.87 81.24 92.78 77.46 94.96C72.4 97.88 69.65 96.76 69.23 96.55L63.74 99.72C66.26 101.17 72.55 102.71 79.97 99.58L82.93 101.29L88.42 98.12L85.45 96.41C89.95 92.76 89.22 89.08 85.69 87.05C82.62 85.27 76.05 83.12 66.5 88.64Z" fill="url(#paint_linear_447_26840_0)" fill-opacity="1.000000" fill-rule="nonzero"/>
		<path id="Vector" d="M41.84 74.4C26.71 83.14 26.69 97.34 41.8 106.06C56.9 114.78 81.5 114.77 96.63 106.04C111.76 97.3 111.78 83.1 96.68 74.38C81.57 65.65 56.97 65.67 41.84 74.4ZM91.15 102.87C79.05 109.86 59.37 109.87 47.28 102.89C35.2 95.91 35.21 84.55 47.32 77.56C59.42 70.58 79.1 70.57 91.19 77.54C103.27 84.52 103.26 95.88 91.15 102.87Z" fill="url(#paint_linear_447_26841_0)" fill-opacity="1.000000" fill-rule="nonzero"/>
		<path id="Vector 63" d="M54.99 80.5L54.99 88.12L64.72 91.78L72.76 87.41L80.8 85.44L87.71 85.44L87.71 80.5L80.8 78.25L71.21 82.19L62.75 84.73L59.79 81.21L54.99 80.5Z" fill="#001A38" fill-opacity="1.000000" fill-rule="evenodd"/>
		<path id="Vector 61" d="M112.52 81.07L112.52 89.53L99.41 103.06L79.81 108.56L54.71 106.45L40.19 93.62L35.67 89.53L35.67 81.35L50.06 95.17L67.54 100.95L85.87 100.95L103.5 93.62L112.52 81.07Z" fill="#001A38" fill-opacity="1.000000" fill-rule="evenodd"/>
		<path id="Vector 62" d="M111.25 89.1L111.25 80.64L98.14 67.11L78.54 61.61L53.44 63.72L38.92 76.55L38.92 82.76L48.79 75L66.27 69.22L84.6 69.22L102.23 76.55L111.25 89.1Z" fill="#001A38" fill-opacity="1.000000" fill-rule="evenodd"/>
		<path id="Vector" d="M46.95 73.39C31.95 82.05 31.93 96.13 46.91 104.78C61.88 113.43 86.28 113.42 101.28 104.76C116.28 96.09 116.3 82.01 101.32 73.36C86.34 64.72 61.95 64.73 46.95 73.39ZM95.84 101.62C83.84 108.55 64.33 108.56 52.35 101.64C40.36 94.72 40.38 83.45 52.38 76.52C64.38 69.6 83.9 69.59 95.88 76.5C107.86 83.42 107.85 94.69 95.84 101.62Z" fill="#001A38" fill-opacity="1.000000" fill-rule="nonzero"/>
		<path id="Vector" d="M71.4 87.5C65.96 90.64 64.26 89.66 63.24 89.08C61.92 88.32 62.43 86.41 65.96 84.37C69.19 82.5 71.47 83.19 72.54 83.76L75.21 82.16L77.93 80.59C75.14 78.98 69.41 77.77 63.58 79.85L60.57 78.11L55.13 81.25L58.04 82.93C53.58 86.55 54.3 90.2 57.8 92.22C60.84 93.97 67.36 96.11 76.83 90.64C82.27 87.5 84.11 88.56 84.99 89.07C86.12 89.72 86.02 91.61 82.26 93.78C77.25 96.67 74.52 95.56 74.11 95.35L68.66 98.49C71.16 99.93 77.4 101.46 84.76 98.36L87.69 100.05L93.13 96.91L90.19 95.21C94.65 91.59 93.93 87.94 90.43 85.92C87.39 84.17 80.87 82.04 71.4 87.5Z" fill="#001A38" fill-opacity="1.000000" fill-rule="nonzero"/>
		<path id="Vector 65" d="M77.92 72.91L77.92 77.33L72.49 81.09L68.73 80.53L66.64 77.2L68.73 73.86L71.79 72.75L75.8 72.75L77.92 72.91Z" fill="#001A38" fill-opacity="1.000000" fill-rule="evenodd"/>
		<path id="Vector 64" d="M72.53 75.38L72.53 79.97L67.1 83.72L63.34 83.16L61.25 79.83L63.34 76.49L66.41 75.38L71.14 74.13L72.53 75.38Z" fill="#001A38" fill-opacity="1.000000" fill-rule="evenodd"/>
		<path id="Vector 66" d="M68.67 90.8L68.67 98.51L78.12 97.14L86.01 92.49L86.01 88.4L68.67 90.8Z" fill="#001A38" fill-opacity="1.000000" fill-rule="evenodd"/>
		<path id="Vector 68" d="M93.29 82.19L93.29 90.23L89.06 86.28L93.29 82.19Z" fill="#001A38" fill-opacity="1.000000" fill-rule="evenodd"/>
		<path id="Vector 67" d="M93.06 89.19L93.06 96.43L87.71 98.41L87.71 92.34L93.06 89.19Z" fill="#001A38" fill-opacity="1.000000" fill-rule="evenodd"/>
		<path id="Vector 69" d="M55.13 73.59L55.13 79.37L59.79 75L55.13 73.59Z" fill="#001A38" fill-opacity="1.000000" fill-rule="evenodd"/>
		<path id="Vector" d="M71.4 79.82C65.96 82.96 64.26 81.98 63.24 81.39C61.92 80.63 62.43 78.72 65.96 76.68C69.19 74.82 71.47 75.51 72.54 76.08L75.21 74.48L77.93 72.91C75.14 71.3 69.41 70.08 63.58 72.16L60.57 70.43L55.13 73.57L58.04 75.25C53.58 78.86 54.3 82.51 57.8 84.53C60.84 86.29 67.36 88.42 76.83 82.96C82.27 79.81 84.11 80.87 84.99 81.38C86.12 82.03 86.02 83.92 82.26 86.09C77.25 88.98 74.52 87.87 74.11 87.67L68.66 90.81C71.16 92.25 77.4 93.77 84.76 90.67L87.69 92.37L93.13 89.23L90.19 87.52C94.65 83.91 93.93 80.26 90.43 78.24C87.39 76.48 80.87 74.35 71.4 79.82Z" fill="#FFFFFF" fill-opacity="1.000000" fill-rule="nonzero"/>
		<path id="Vector" d="M47.2 65.7C32.2 74.36 32.18 88.45 47.16 97.09C62.14 105.74 86.53 105.73 101.53 97.07C116.53 88.41 116.55 74.33 101.57 65.68C86.59 57.03 62.2 57.04 47.2 65.7ZM96.1 93.93C84.1 100.86 64.58 100.87 52.6 93.95C40.62 87.04 40.63 75.77 52.63 68.84C64.64 61.91 84.15 61.9 96.13 68.82C108.11 75.74 108.1 87 96.1 93.93Z" fill="#FFFFFF" fill-opacity="1.000000" fill-rule="nonzero"/>
		<path id="Vector 70" d="M67.37 12.25L50.77 2L30.27 13.71M27.99 12.37L30.27 13.71L37.5 18L37.5 59.5M16.56 5.67L15.42 5L12 3L12 11M25.7 11.03L24.56 10.36L23.42 9.69M21.13 8.35L19.99 7.68L18.85 " stroke="#FFFFFF" stroke-opacity="1.000000" stroke-width="1.000000" stroke-linejoin="round"/>
		<path id="Vector 58" d="M77.22 24.87L57.61 13.2L70.38 5.9L90 17.57L77.22 24.87Z" fill="#FFFFFF" fill-opacity="1.000000" fill-rule="nonzero"/>
		<path id="Vector 58" d="M77.22 24.87L90 17.57L70.38 5.9L57.61 13.2L77.22 24.87Z" stroke="#FFFFFF" stroke-opacity="1.000000" stroke-width="1.000000" stroke-linejoin="round"/>
		<path id="Vector 56" d="M90 32.79L90 17.57L77.22 24.88L77.22 40.09L90 32.79Z" stroke="#FFFFFF" stroke-opacity="1.000000" stroke-width="1.000000" stroke-linejoin="round"/>
		<path id="Vector 59" d="M92.27 35.49L80.89 41.99C80.49 42.22 80 41.93 80 41.47L80 27.88C80 27.52 80.19 27.19 80.5 27.01L91.87 20.51C92.27 20.28 92.77 20.57 92.77 21.03L92.77 34.63C92.77 34.98 92.58 35.32 92.27 35.49Z" fill="url(#paint_linear_447_26865_0)" fill-opacity="1.000000" fill-rule="nonzero"/>
		<path id="Vector 57" d="M77.22 24.88L77.22 40.09L57.61 28.41L57.61 13.2L77.22 24.88Z" fill="#001A38" fill-opacity="1.000000" fill-rule="nonzero"/>
		<path id="Vector 57" d="M77.22 24.88L57.61 13.2L57.61 28.41L77.22 40.09L77.22 24.88Z" stroke="#FFFFFF" stroke-opacity="1.000000" stroke-width="1.000000" stroke-linejoin="round"/>
		<path id="Vector 71" d="M52.87 39.35L37.43 49.36L22 39.35L37.43 27L52.87 39.35Z" stroke="#FFFFFF" stroke-opacity="1.000000" stroke-width="1.069258" stroke-linejoin="round"/>
		<path id="Vector 72" d="M52.87 39.35L37.43 59.68L22 " stroke="#FFFFFF" stroke-opacity="1.000000" stroke-width="1.069258" stroke-linejoin="round"/>
		<path id="Vector 73" d="M37.32 59.68L52.29 39.9L37.32 49.52L37.32 59.68Z" fill="#FFFFFF" fill-opacity="1.000000" fill-rule="evenodd"/>
		<circle id="Ellipse 174" cx="12.000000" cy="20.000000" r="9.999998" fill="#001A38" fill-opacity="1.000000"/>
		<circle id="Ellipse 174" cx="12.000000" cy="20.000000" r="9.499998" stroke="#FFFFFF" stroke-opacity="1.000000" stroke-width="1.000000"/>
		<circle id="Ellipse 179" cx="12.000000" cy="54.000000" r="9.999998" fill="url(#paint_linear_447_26872_0)" fill-opacity="1.000000"/>
		<circle id="Ellipse 179" cx="12.000000" cy="54.000000" r="9.499998" stroke="#001A38" stroke-opacity="1.000000" stroke-width="1.000000"/>
		<circle id="Ellipse 175" cx="18.000000" cy="60.000000" r="3.999998" fill="#FFFFFF" fill-opacity="1.000000"/>
		<circle id="Ellipse 176" cx="29.000000" cy="71.000000" r="2.000002" fill="#FFFFFF" fill-opacity="1.000000"/>
		<circle id="Ellipse 177" cx="19.500000" cy="80.500000" r="2.500002" fill="#FFFFFF" fill-opacity="1.000000"/>
		<circle id="Ellipse 178" cx="88.500000" cy="47.500000" r="4.500002" fill="#FFFFFF" fill-opacity="1.000000"/>
		<path id="Subtract" d="M2 20C2 25.5229 6.47705 30 12 30C13.0146 30 13.9937 29.8491 14.9165 29.5679C10.8164 28.3198 7.83301 24.5083 7.83301 20C7.83301 15.4917 10.8164 11.6802 14.9165 10.4321C13.9937 10.1509 13.0146 10 12 10C6.47705 10 2 14.4771 2 20Z" clip-rule="evenodd" fill="#FFFFFF" fill-opacity="1.000000" fill-rule="evenodd"/>
	</g>
</svg>
