<svg width="116.000000" height="116.000000" viewBox="0 0 116 116" fill="none" xmlns="http://www.w3.org/2000/svg" xmlns:xlink="http://www.w3.org/1999/xlink">
	<defs>
		<clipPath id="clip447_26760">
			<rect id="Frame 2072750471" width="116.000000" height="116.000000" fill="white" fill-opacity="0"/>
		</clipPath>
		<linearGradient id="paint_linear_447_26766_0" x1="15.269302" y1="41.000000" x2="15.269302" y2="84.627609" gradientUnits="userSpaceOnUse">
			<stop stop-color="#064E5A"/>
			<stop offset="1.000000" stop-color="#001A38"/>
		</linearGradient>
		<linearGradient id="paint_linear_447_26778_0" x1="72.341751" y1="54.701168" x2="103.495499" y2="74.500145" gradientUnits="userSpaceOnUse">
			<stop stop-color="#064C59"/>
			<stop offset="1.000000" stop-color="#001A38"/>
		</linearGradient>
		<linearGradient id="paint_linear_447_26801_0" x1="90.000000" y1="9.000000" x2="90.000000" y2="25.000000" gradientUnits="userSpaceOnUse">
			<stop stop-color="#064D5A"/>
			<stop offset="1.000000" stop-color="#001A38"/>
		</linearGradient>
	</defs>
	<rect id="Frame 2072750471" width="116.000000" height="116.000000" fill="#FFFFFF" fill-opacity="0"/>
	<g clip-path="url(#clip447_26760)">
		<path id="Vector 55" d="M35.53 80.35L66.07 62.89L35.53 45.44L5 62.89L35.53 80.35Z" stroke="#FFFFFF" stroke-opacity="1.000000" stroke-width="1.000000" stroke-linejoin="round"/>
		<path id="Vector 60" d="M35.53 54.17L35.53 80.35L5 62.9L5 36.72L35.53 54.17Z" fill="#001A38" fill-opacity="1.000000" fill-rule="nonzero"/>
		<path id="Vector 58" d="M35.53 54.17L5 36.72L35.53 19.27L66.07 36.72L35.53 54.17Z" fill="#001A38" fill-opacity="1.000000" fill-rule="nonzero"/>
		<path id="Vector 58" d="M35.53 54.17L66.07 36.72L35.53 19.27L5 36.72L35.53 54.17Z" stroke="#FFFFFF" stroke-opacity="1.000000" stroke-width="1.000000" stroke-linejoin="round"/>
		<path id="Vector 56" d="M66.07 62.89L35.53 80.35L35.53 54.17L66.07 36.72L66.07 62.89Z" fill="#001A38" fill-opacity="1.000000" fill-rule="nonzero"/>
		<path id="Vector 56" d="M66.07 62.89L66.07 36.72L35.53 54.17L35.53 80.35L66.07 62.89Z" stroke="#FFFFFF" stroke-opacity="1.000000" stroke-width="1.000000" stroke-linejoin="round"/>
		<path id="Vector 59" d="M30.53 59.03L30.53 82.9C30.53 83.67 29.7 84.15 29.04 83.77L1.51 68.04C0.57 67.5 0 66.51 0 65.43L0 42.72C0 41.95 0.82 41.47 1.49 41.85L30.03 58.16C30.34 58.34 30.53 58.67 30.53 59.03Z" fill="url(#paint_linear_447_26766_0)" fill-opacity="1.000000" fill-rule="nonzero"/>
		<path id="Vector 57" d="M35.53 54.17L5 36.72L5 62.9L35.53 80.35L35.53 54.17Z" stroke="#FFFFFF" stroke-opacity="1.000000" stroke-width="1.000000" stroke-linejoin="round"/>
		<path id="Vector 55" d="M54.08 33.99L68.23 25.91L54.08 17.83L39.94 25.91L54.08 33.99Z" stroke="#FFFFFF" stroke-opacity="1.000000" stroke-width="1.000000" stroke-linejoin="round"/>
		<path id="Vector 58" d="M54.08 17.16L39.94 9.08L54.08 1L68.23 9.08L54.08 17.16Z" fill="#001A38" fill-opacity="1.000000" fill-rule="nonzero"/>
		<path id="Vector 58" d="M54.08 17.16L68.23 9.08L54.08 1L39.94 9.08L54.08 17.16Z" stroke="#FFFFFF" stroke-opacity="1.000000" stroke-width="1.000000" stroke-linejoin="round"/>
		<path id="Vector 56" d="M68.23 25.91L54.08 33.99L54.08 17.16L68.23 9.08L68.23 25.91Z" fill="#FFFFFF" fill-opacity="1.000000" fill-rule="nonzero"/>
		<path id="Vector 56" d="M68.23 25.91L68.23 9.08L54.08 17.16L54.08 33.99L68.23 25.91Z" stroke="#FFFFFF" stroke-opacity="1.000000" stroke-width="1.000000" stroke-linejoin="round"/>
		<path id="Vector 57" d="M54.08 17.16L54.08 33.99L39.94 25.91L39.94 9.08L54.08 17.16Z" fill="#001A38" fill-opacity="1.000000" fill-rule="nonzero"/>
		<path id="Vector 57" d="M54.08 17.16L39.94 9.08L39.94 25.91L54.08 33.99L54.08 17.16Z" stroke="#FFFFFF" stroke-opacity="1.000000" stroke-width="1.000000" stroke-linejoin="round"/>
		<mask id="mask_447_26774" fill="white">
			<path id="Union" d="M103.492 85.1006C94.0645 90.543 79.5776 91.3086 68.7275 87.3965L54.0366 95.8784L57.9927 98.4302L49.4443 103.529L41.9292 102.872L41.959 102.851L41.9287 102.869L34.8745 101.758L33 97.9995L59.7974 82.2549C52.9746 75.9863 54.2861 67.5991 63.7319 62.1455C74.7017 55.8125 92.522 55.8125 103.492 62.1455C114.461 68.4785 114.461 78.7676 103.492 85.1006ZM95.8066 80.6636C98.7891 78.9419 100.449 76.7437 100.788 74.4907C101.16 72.0649 99.9844 69.7646 97.7358 67.9136C95.3198 65.9175 91.8584 64.5913 88.0747 64.0078C84.0015 63.375 79.8735 63.644 76.3252 64.6011C72.501 65.6279 69.6382 67.3657 67.9854 69.416C66.1992 71.6221 65.9409 74.0156 66.957 76.1992C68.0449 78.5522 70.5122 80.4814 73.7217 81.7773C77.1748 83.1758 81.2129 83.7383 85.1143 83.54C89.3164 83.3301 93.0361 82.2622 95.8066 80.6636Z" clip-rule="evenodd" fill="" fill-opacity="1.000000" fill-rule="evenodd"/>
		</mask>
		<path id="Union" d="M103.492 85.1006C94.0645 90.543 79.5776 91.3086 68.7275 87.3965L54.0366 95.8784L57.9927 98.4302L49.4443 103.529L41.9292 102.872L41.959 102.851L41.9287 102.869L34.8745 101.758L33 97.9995L59.7974 82.2549C52.9746 75.9863 54.2861 67.5991 63.7319 62.1455C74.7017 55.8125 92.522 55.8125 103.492 62.1455C114.461 68.4785 114.461 78.7676 103.492 85.1006ZM95.8066 80.6636C98.7891 78.9419 100.449 76.7437 100.788 74.4907C101.16 72.0649 99.9844 69.7646 97.7358 67.9136C95.3198 65.9175 91.8584 64.5913 88.0747 64.0078C84.0015 63.375 79.8735 63.644 76.3252 64.6011C72.501 65.6279 69.6382 67.3657 67.9854 69.416C66.1992 71.6221 65.9409 74.0156 66.957 76.1992C68.0449 78.5522 70.5122 80.4814 73.7217 81.7773C77.1748 83.1758 81.2129 83.7383 85.1143 83.54C89.3164 83.3301 93.0361 82.2622 95.8066 80.6636Z" clip-rule="evenodd" fill="#FFFFFF" fill-opacity="1.000000" fill-rule="evenodd" mask="url(#mask_447_26774)"/>
		<path id="Union" d="M103.924 85.3506Q96.7671 89.4829 86.7085 90.1079Q76.8003 90.7236 68.4033 87.6963L68.7275 87.3965L69.1606 87.6465L54.4692 96.1284L54.0366 95.8784L54.4927 95.6426L58.4487 98.1943Q58.4871 98.2191 58.5169 98.2475Q58.5466 98.276 58.5667 98.3071Q58.5867 98.3382 58.5963 98.371Q58.6059 98.4037 58.6048 98.4369Q58.6037 98.4701 58.5919 98.5026Q58.5801 98.5351 58.558 98.5658Q58.5359 98.5964 58.5043 98.6242Q58.4726 98.6519 58.4326 98.6758L49.8843 103.775Q49.7809 103.837 49.6401 103.864Q49.4994 103.892 49.3525 103.879L41.8374 103.221Q41.7778 103.216 41.721 103.204Q41.6643 103.192 41.6127 103.174Q41.5611 103.156 41.5165 103.133Q41.4719 103.11 41.4362 103.081Q41.4004 103.053 41.3748 103.022Q41.3492 102.99 41.3347 102.957Q41.3202 102.923 41.3175 102.888Q41.3147 102.853 41.3237 102.819Q41.3496 102.721 41.4595 102.645L41.4893 102.625L41.959 102.851L42.3921 103.101L42.3618 103.119Q42.3045 103.152 42.2343 103.175Q42.1641 103.198 42.0859 103.21Q42.0076 103.222 41.9266 103.222Q41.8457 103.222 41.7676 103.21L34.7134 102.099Q34.6373 102.087 34.569 102.064Q34.5007 102.042 34.4446 102.01Q34.3885 101.978 34.3482 101.939Q34.3079 101.9 34.2861 101.856L32.4116 98.0972Q32.3892 98.052 32.3879 98.0051Q32.3867 97.9582 32.4067 97.9127Q32.4267 97.8672 32.4666 97.8263Q32.5065 97.7854 32.5635 97.752L59.3608 82.0073L59.7974 82.2549L59.2788 82.4429Q53.999 77.5923 55.0547 71.8574Q56.1265 66.0366 63.2993 61.8955Q71.7056 57.042 83.6118 57.042Q95.5181 57.042 103.924 61.8955Q112.331 66.749 112.331 73.623Q112.331 80.4971 103.924 85.3506ZM103.059 84.8506Q111.106 80.2041 111.106 73.623Q111.106 67.042 103.059 62.3955Q95.0107 57.749 83.6118 57.749Q72.2129 57.749 64.165 62.3955Q57.2988 66.3599 56.2729 71.9321Q55.2617 77.4233 60.3159 82.0669Q60.3432 82.092 60.3629 82.1193Q60.3826 82.1466 60.3941 82.1755Q60.4056 82.2043 60.4087 82.2339Q60.4117 82.2635 60.4062 82.293Q60.4007 82.3224 60.3868 82.351Q60.3729 82.3795 60.3509 82.4063Q60.329 82.4331 60.2996 82.4574Q60.2703 82.4818 60.2344 82.5029L33.437 98.2476L33 97.9995L33.5889 97.9019L35.4629 101.66L34.8745 101.758L35.0356 101.417L42.0898 102.528L41.9287 102.869L41.4956 102.619L41.5259 102.601Q41.5661 102.578 41.613 102.559Q41.6599 102.541 41.712 102.528Q41.764 102.514 41.8194 102.507Q41.8748 102.499 41.9316 102.498Q41.9884 102.496 42.0447 102.501Q42.101 102.506 42.1548 102.516Q42.2087 102.526 42.2583 102.543Q42.3079 102.559 42.3516 102.58Q42.3979 102.602 42.4358 102.629Q42.4736 102.656 42.5016 102.687Q42.5296 102.718 42.5466 102.751Q42.5637 102.785 42.5691 102.82Q42.5745 102.854 42.5681 102.889Q42.5616 102.923 42.5436 102.957Q42.5256 102.99 42.4967 103.02Q42.4679 103.051 42.4292 103.078L42.3994 103.098L41.9292 102.872L42.021 102.522L49.5361 103.18L49.4443 103.529L49.0044 103.284L57.5522 98.1841L57.9927 98.4302L57.5361 98.666L53.5801 96.1143Q53.5413 96.0892 53.5114 96.0604Q53.4815 96.0316 53.4615 96Q53.4415 95.9685 53.4321 95.9353Q53.4227 95.9021 53.4244 95.8686Q53.426 95.835 53.4385 95.8022Q53.4511 95.7694 53.4741 95.7386Q53.4971 95.7077 53.5297 95.6799Q53.5624 95.6522 53.6035 95.6284L68.2944 87.1465Q68.3678 87.1041 68.4613 87.0781Q68.5548 87.052 68.658 87.0453Q68.7611 87.0385 68.8624 87.0517Q68.9637 87.0649 69.0518 87.0967Q77.0898 89.9946 86.5776 89.4048Q96.2065 88.8066 103.059 84.8506ZM95.3735 80.4136Q99.6543 77.9424 100.178 74.4604Q100.711 70.9795 97.2344 68.1162Q93.7676 65.252 87.9165 64.3491Q82.0718 63.4414 76.5845 64.9214Q71.0967 66.395 68.5405 69.5649Q65.9775 72.7305 67.5488 76.1074Q69.1094 79.4839 74.0728 81.4878Q79.0273 83.4946 85.0605 83.1875Q91.0874 82.8867 95.374 80.4136L95.3735 80.4136ZM96.2393 80.9136Q91.6372 83.5688 85.168 83.8921Q78.6899 84.2217 73.3711 82.0669Q68.0415 79.9155 66.3657 76.291Q64.6787 72.665 67.4302 69.2666Q70.1748 65.8628 76.0659 64.2808Q81.958 62.6914 88.2329 63.666Q94.5156 64.6353 98.2373 67.7104Q101.971 70.7847 101.398 74.5215Q100.836 78.2598 96.2397 80.9136L96.2393 80.9136Z" fill="#FFFFFF" fill-opacity="1.000000" fill-rule="nonzero"/>
		<path id="Subtract" d="M59.7119 62.8433L63.2012 57.6089L81.5078 54.9102L99.2568 54.7012L99.2568 59.5156C100.752 60.0942 102.171 60.7646 103.492 61.5273C107.818 64.0249 110.438 67.1377 111.352 70.3804L100.251 70.3804C99.7227 69.2661 98.8647 68.2241 97.7363 67.2949C95.3203 65.2988 91.8589 63.9731 88.0752 63.3892C84.002 62.7568 79.874 63.0259 76.3257 63.9824C72.5015 65.0098 69.6387 66.7476 67.9858 68.7974C67.5659 69.3164 67.23 69.8457 66.9761 70.3804L55.873 70.3804C56.6572 67.5977 58.6978 64.9111 61.9937 62.6265L59.7119 62.8433Z" clip-rule="evenodd" fill="url(#paint_linear_447_26778_0)" fill-opacity="1.000000" fill-rule="evenodd"/>
		<path id="Vector 52" d="M69.29 86.72L69.29 79.35L91.09 78.78L111.78 67L111.78 74L99.12 83.88L69.29 86.72Z" fill="#FFFFFF" fill-opacity="1.000000" fill-rule="nonzero"/>
		<path id="Vector 52" d="M69.29 86.72L99.12 83.88L111.78 74L111.78 67L91.09 78.78L69.29 79.35L69.29 86.72Z" stroke="#FFFFFF" stroke-opacity="1.000000" stroke-width="1.000000"/>
		<mask id="mask_447_26787" fill="white">
			<path id="Union" d="M103.492 77.6084C94.0649 83.0508 79.5781 83.8164 68.7285 79.9043L54.0371 88.3862L57.9932 90.938L49.4448 96.0376L41.9297 95.3799L41.9595 95.3594L41.9292 95.377L34.875 94.2661L33.0005 89.9995L59.729 74.6992C52.9839 68.438 54.3184 60.0889 63.7324 54.6533C74.7021 48.3203 92.5225 48.3203 103.492 54.6533C114.461 60.9863 114.461 71.2754 103.492 77.6084ZM95.8071 73.1714C98.7896 71.4497 100.45 69.2515 100.789 66.9985C101.16 64.5728 99.9849 62.2725 97.7363 60.4214C95.3203 58.4253 91.8589 57.0991 88.0752 56.5156C84.002 55.8828 79.874 56.1519 76.3257 57.1089C72.5015 58.1357 69.6387 59.8735 67.9858 61.9238C66.1997 64.1299 65.9414 66.5234 66.9575 68.707C68.0454 71.0601 70.5127 72.9893 73.7222 74.2852C77.1753 75.6836 81.2134 76.2461 85.1147 76.0479C89.3169 75.8379 93.0366 74.77 95.8071 73.1714Z" clip-rule="evenodd" fill="" fill-opacity="1.000000" fill-rule="evenodd"/>
		</mask>
		<path id="Union" d="M103.492 77.6084C94.0649 83.0508 79.5781 83.8164 68.7285 79.9043L54.0371 88.3862L57.9932 90.938L49.4448 96.0376L41.9297 95.3799L41.9595 95.3594L41.9292 95.377L34.875 94.2661L33.0005 89.9995L59.729 74.6992C52.9839 68.438 54.3184 60.0889 63.7324 54.6533C74.7021 48.3203 92.5225 48.3203 103.492 54.6533C114.461 60.9863 114.461 71.2754 103.492 77.6084ZM95.8071 73.1714C98.7896 71.4497 100.45 69.2515 100.789 66.9985C101.16 64.5728 99.9849 62.2725 97.7363 60.4214C95.3203 58.4253 91.8589 57.0991 88.0752 56.5156C84.002 55.8828 79.874 56.1519 76.3257 57.1089C72.5015 58.1357 69.6387 59.8735 67.9858 61.9238C66.1997 64.1299 65.9414 66.5234 66.9575 68.707C68.0454 71.0601 70.5127 72.9893 73.7222 74.2852C77.1753 75.6836 81.2134 76.2461 85.1147 76.0479C89.3169 75.8379 93.0366 74.77 95.8071 73.1714Z" clip-rule="evenodd" fill="#001A38" fill-opacity="1.000000" fill-rule="evenodd" mask="url(#mask_447_26787)"/>
		<path id="Union" d="M103.925 77.8584Q96.7676 81.9907 86.7095 82.6157Q76.8008 83.2314 68.4038 80.2041L68.7285 79.9043L69.1611 80.1543L54.4697 88.6362L54.0371 88.3862L54.4932 88.1504L58.4492 90.7021Q58.4876 90.7269 58.5174 90.7554Q58.5471 90.7839 58.5671 90.8151Q58.5872 90.8463 58.5968 90.8791Q58.6064 90.9118 58.6053 90.9451Q58.6042 90.9783 58.5924 91.0108Q58.5806 91.0434 58.5585 91.074Q58.5364 91.1047 58.5048 91.1325Q58.4731 91.1602 58.4331 91.1841L49.8848 96.2837Q49.7814 96.3453 49.6406 96.3727Q49.4999 96.4001 49.353 96.3872L41.8379 95.7295Q41.7783 95.7242 41.7215 95.7124Q41.6648 95.7005 41.6132 95.6825Q41.5615 95.6645 41.517 95.641Q41.4724 95.6175 41.4366 95.5895Q41.4009 95.5614 41.3753 95.5298Q41.3496 95.4983 41.3352 95.4645Q41.3207 95.4307 41.3179 95.3959Q41.3152 95.3611 41.3242 95.3267Q41.3501 95.229 41.46 95.1533L41.4897 95.1323L41.9595 95.3594L42.3926 95.6094L42.3623 95.627Q42.305 95.66 42.2348 95.6833Q42.1646 95.7066 42.0864 95.7186Q42.0081 95.7305 41.9271 95.7303Q41.8462 95.7301 41.7681 95.7178L34.7139 94.6074Q34.6354 94.595 34.5652 94.5712Q34.495 94.5473 34.438 94.5138Q34.381 94.4803 34.3411 94.4394Q34.3013 94.3985 34.2812 94.353L32.4072 90.0864Q32.3876 90.0417 32.3885 89.9955Q32.3894 89.9494 32.4107 89.9049Q32.432 89.8604 32.4723 89.8205Q32.5127 89.7806 32.5693 89.748L59.2979 74.4482L59.729 74.6992L59.209 74.8857Q53.9883 70.04 55.062 64.3281Q56.1523 58.5298 63.2998 54.4033Q71.7061 49.5498 83.6123 49.5498Q95.5186 49.5498 103.925 54.4033Q112.331 59.2568 112.331 66.1309Q112.331 73.0049 103.925 77.8584ZM103.059 77.3584Q111.106 72.7119 111.106 66.1309Q111.106 59.5498 103.059 54.9033Q95.0112 50.2568 83.6123 50.2568Q72.2134 50.2568 64.1655 54.9033Q57.3232 58.854 56.2798 64.4048Q55.252 69.8735 60.249 74.5127Q60.2763 74.538 60.2958 74.5656Q60.3154 74.5932 60.3266 74.6223Q60.3379 74.6513 60.3406 74.6811Q60.3432 74.7108 60.3372 74.7404Q60.3312 74.77 60.3167 74.7986Q60.3022 74.8272 60.2796 74.854Q60.257 74.8808 60.2269 74.905Q60.1968 74.9292 60.1602 74.9502L33.4316 90.2505L33.0005 89.9995L33.5942 89.9126L35.4688 94.1792L34.875 94.2661L35.0361 93.9248L42.0903 95.0356L41.9292 95.377L41.4961 95.127L41.5264 95.1094Q41.5666 95.0862 41.6135 95.0676Q41.6604 95.0491 41.7125 95.0359Q41.7645 95.0226 41.8199 95.0151Q41.8753 95.0076 41.9321 95.0062Q41.9889 95.0047 42.0452 95.0093Q42.1015 95.0138 42.1553 95.0243Q42.2092 95.0348 42.2588 95.0508Q42.3084 95.0669 42.3521 95.0879Q42.3984 95.1102 42.4362 95.1373Q42.4741 95.1644 42.5021 95.1952Q42.5301 95.2261 42.5471 95.2595Q42.5641 95.2929 42.5696 95.3276Q42.575 95.3623 42.5685 95.3969Q42.5621 95.4315 42.5441 95.4648Q42.5261 95.498 42.4972 95.5286Q42.4683 95.5592 42.4297 95.5859L42.3999 95.6064L41.9297 95.3799L42.0215 95.0303L49.5366 95.688L49.4448 96.0376L49.0049 95.7915L57.5527 90.6924L57.9932 90.938L57.5366 91.1738L53.5806 88.6221Q53.5418 88.5971 53.5119 88.5683Q53.4819 88.5395 53.4619 88.508Q53.4419 88.4765 53.4326 88.4433Q53.4232 88.4102 53.4248 88.3766Q53.4265 88.343 53.439 88.3102Q53.4515 88.2774 53.4746 88.2465Q53.4976 88.2157 53.5302 88.1878Q53.5629 88.16 53.604 88.1362L68.2954 79.6543Q68.3688 79.6119 68.4623 79.5859Q68.5558 79.5599 68.659 79.5531Q68.7621 79.5463 68.8634 79.5595Q68.9647 79.5727 69.0527 79.6045Q77.0903 82.5024 86.5781 81.9126Q96.207 81.3145 103.059 77.3584ZM95.374 72.9214Q99.6548 70.4502 100.179 66.9683Q100.712 63.4873 97.2349 60.624Q93.7681 57.7598 87.917 56.8569Q82.0723 55.9492 76.585 57.4292Q71.0972 58.9028 68.541 62.0728Q65.978 65.2383 67.5493 68.6152Q69.1099 71.9917 74.0732 73.9956Q79.0278 76.0024 85.061 75.6953Q91.0879 75.3945 95.3745 72.9214L95.374 72.9214ZM96.2397 73.4214Q91.6377 76.0767 85.1685 76.3999Q78.6904 76.7295 73.3716 74.5747Q68.042 72.4233 66.3662 68.7988Q64.6792 65.1729 67.4307 61.7744Q70.1753 58.3706 76.0664 56.7886Q81.9585 55.1992 88.2334 56.1738Q94.5161 57.1431 98.2378 60.2183Q101.971 63.2925 101.399 67.0293Q100.836 70.7676 96.2402 73.4214L96.2397 73.4214Z" fill="#FFFFFF" fill-opacity="1.000000" fill-rule="nonzero"/>
		<path id="Vector 49" d="M33 98L33 90.5L35 95L35 99L33 98Z" fill="#FFFFFF" fill-opacity="1.000000" fill-rule="nonzero"/>
		<path id="Vector 49" d="M33 98L35 99L35 95L33 90.5L33 98Z" stroke="#FFFFFF" stroke-opacity="1.000000" stroke-width="1.000000" stroke-linejoin="round"/>
		<path id="Vector 50" d="M48.95 102.46L48.95 96.74L35 95L35.71 99.21L48.95 102.46Z" fill="#FFFFFF" fill-opacity="1.000000" fill-rule="nonzero"/>
		<path id="Vector 50" d="M48.95 102.46L35.71 99.21L35 95L48.95 96.74L48.95 102.46Z" stroke="#FFFFFF" stroke-opacity="1.000000" stroke-width="1.000000" stroke-linejoin="round"/>
		<path id="Vector 51" d="M58 91L58 98.2L50 101.49L49.24 96.02L58 91Z" fill="#FFFFFF" fill-opacity="1.000000" fill-rule="nonzero"/>
		<path id="Vector 51" d="M58 91L49.24 96.02L50 101.49L58 98.2L58 91Z" stroke="#FFFFFF" stroke-opacity="1.000000" stroke-width="1.000000" stroke-linejoin="round"/>
		<path id="Vector 95" d="M55 65L55 74L57.5 74L55 65Z" fill="#FFFFFF" fill-opacity="1.000000" fill-rule="evenodd"/>
		<path id="Vector 55" d="M23.14 39.99L32.57 34.61L23.14 29.22L13.71 34.61L23.14 39.99Z" stroke="#FFFFFF" stroke-opacity="1.000000" stroke-width="1.000000" stroke-linejoin="round"/>
		<path id="Vector 58" d="M23.14 28.77L13.71 23.38L23.14 18L32.57 23.38L23.14 28.77Z" fill="#001A38" fill-opacity="1.000000" fill-rule="nonzero"/>
		<path id="Vector 58" d="M23.14 28.77L32.57 23.38L23.14 18L13.71 23.38L23.14 28.77Z" stroke="#FFFFFF" stroke-opacity="1.000000" stroke-width="1.000000" stroke-linejoin="round"/>
		<path id="Vector 56" d="M32.57 34.61L23.14 39.99L23.14 28.77L32.57 23.38L32.57 34.61Z" fill="#FFFFFF" fill-opacity="1.000000" fill-rule="nonzero"/>
		<path id="Vector 56" d="M32.57 34.61L32.57 23.38L23.14 28.77L23.14 39.99L32.57 34.61Z" stroke="#FFFFFF" stroke-opacity="1.000000" stroke-width="1.000000" stroke-linejoin="round"/>
		<path id="Vector 57" d="M23.14 28.77L23.14 39.99L13.71 34.61L13.71 23.38L23.14 28.77Z" fill="#001A38" fill-opacity="1.000000" fill-rule="nonzero"/>
		<path id="Vector 57" d="M23.14 28.77L13.71 23.38L13.71 34.61L23.14 39.99L23.14 28.77Z" stroke="#FFFFFF" stroke-opacity="1.000000" stroke-width="1.000000" stroke-linejoin="round"/>
		<circle id="Ellipse 169" cx="90.000000" cy="17.000000" r="8.000000" fill="url(#paint_linear_447_26801_0)" fill-opacity="1.000000"/>
		<circle id="Ellipse 170" cx="87.000000" cy="40.000000" r="2.000000" fill="#FFFFFF" fill-opacity="1.000000"/>
		<circle id="Ellipse 171" cx="92.500000" cy="13.500000" r="7.500000" fill="#FFFFFF" fill-opacity="1.000000"/>
		<circle id="Ellipse 173" cx="102.500000" cy="30.500000" r="4.500000" fill="#FFFFFF" fill-opacity="1.000000"/>
		<circle id="Ellipse 172" cx="75.000000" cy="5.000000" r="3.000000" fill="#FFFFFF" fill-opacity="1.000000"/>
	</g>
</svg>
