<svg width="116.000000" height="116.000000" viewBox="0 0 116 116" fill="none" xmlns="http://www.w3.org/2000/svg" xmlns:xlink="http://www.w3.org/1999/xlink">
	<defs>
		<clipPath id="clip447_26716">
			<rect id="Frame 2072750470" width="116.000000" height="116.000000" transform="translate(-0.333008 0.000000)" fill="white" fill-opacity="0"/>
		</clipPath>
		<linearGradient id="paint_linear_447_26720_0" x1="27.252899" y1="65.000000" x2="27.252899" y2="81.289032" gradientUnits="userSpaceOnUse">
			<stop stop-color="#06555E"/>
			<stop offset="1.000000" stop-color="#001A38"/>
		</linearGradient>
		<linearGradient id="paint_linear_447_26729_0" x1="55.214466" y1="76.844238" x2="55.214466" y2="104.480301" gradientUnits="userSpaceOnUse">
			<stop stop-color="#065E64"/>
			<stop offset="1.000000" stop-color="#001A38"/>
		</linearGradient>
		<linearGradient id="paint_linear_447_26737_0" x1="9.000023" y1="23.499048" x2="28.500437" y2="32.999599" gradientUnits="userSpaceOnUse">
			<stop stop-color="#06555E"/>
			<stop offset="1.000000" stop-color="#001A38"/>
		</linearGradient>
		<linearGradient id="paint_linear_447_26746_0" x1="84.981018" y1="11.000000" x2="84.981018" y2="70.715363" gradientUnits="userSpaceOnUse">
			<stop stop-color="#06555E"/>
			<stop offset="1.000000" stop-color="#001A38"/>
		</linearGradient>
	</defs>
	<rect id="Frame 2072750470" width="116.000000" height="116.000000" transform="translate(-0.333008 0.000000)" fill="#FFFFFF" fill-opacity="0"/>
	<g clip-path="url(#clip447_26716)">
		<path id="Vector 46" d="M4.2 52.12L59.79 103.5C61.9 105.45 64.9 106.14 67.66 105.31L113.2 91.61C114.93 91.09 115.43 88.9 114.11 87.67L86.1 61.79L71.27 48.08C70.84 47.68 70.28 47.46 69.69 47.46L55.66 47.46C54.26 47.46 52.91 46.96 51.86 46.04L42.59 38.03C41.99 37.51 41.16 37.33 40.4 37.56L28.15 41.24L5.1 48.18C3.38 48.7 2.87 50.89 4.2 52.12Z" fill="#FFFFFF" fill-opacity="1.000000" fill-rule="nonzero"/>
		<path id="Vector 46" d="M4.2 52.12C2.87 50.89 3.38 48.7 5.1 48.18L28.15 41.24L40.4 37.56C41.16 37.33 41.99 37.51 42.59 38.03L51.86 46.04C52.91 46.96 54.26 47.46 55.66 47.46L69.69 47.46C70.28 47.46 70.84 47.68 71.27 48.08L86.1 61.79L114.11 87.67C115.43 88.9 114.93 91.09 113.2 91.61L67.66 105.31C64.9 106.14 61.9 105.45 59.79 103.5L4.2 52.12Z" stroke="#FFFFFF" stroke-opacity="1.000000" stroke-width="1.000000"/>
		<path id="Vector 33" d="M2.35 67.35L64.52 102.61C67.02 104.03 70.08 104.02 72.58 102.6L113.87 79C115.44 78.11 115.43 75.85 113.86 74.96L82.54 57.19L65.35 47.44C65.18 47.35 65 47.27 64.82 47.22L47.5 42.5L42.48 41.15C41.88 40.99 41.25 41.07 40.72 41.37L35.44 44.39L23.22 51.37L2.34 63.3C0.77 64.2 0.78 66.46 2.35 67.35Z" fill="#001A38" fill-opacity="1.000000" fill-rule="nonzero"/>
		<path id="Vector 33" d="M2.35 67.35C0.78 66.46 0.77 64.2 2.34 63.3L23.22 51.37L35.44 44.39L40.72 41.37C41.25 41.07 41.88 40.99 42.48 41.15L47.5 42.5L64.82 47.22C65 47.27 65.18 47.35 65.35 47.44L82.54 57.19L113.86 74.96C115.43 75.85 115.44 78.11 113.87 79L72.58 102.6C70.08 104.02 67.02 104.03 64.52 102.61L2.35 67.35Z" stroke="#FFFFFF" stroke-opacity="1.000000" stroke-width="1.000000"/>
		<path id="Vector 47" d="M39.64 77.62L34.5 80.36C33.43 80.94 32.14 80.91 31.09 80.29L14.72 70.67C13.95 70.21 13.96 69.1 14.74 68.65L19.41 65.98C20.48 65.37 21.8 65.37 22.87 65.98L39.67 75.58C40.47 76.04 40.45 77.19 39.64 77.62Z" fill="url(#paint_linear_447_26720_0)" fill-opacity="1.000000" fill-rule="evenodd"/>
		<path id="Vector 36" d="M97.96 75.28L97.96 82.26L111.92 74.12L111.92 67.14L97.96 75.28Z" fill="#FFFFFF" fill-opacity="1.000000" fill-rule="nonzero"/>
		<path id="Vector 36" d="M97.96 75.28L111.92 67.14L111.92 74.12L97.96 82.26L97.96 75.28Z" stroke="#FFFFFF" stroke-opacity="1.000000" stroke-width="1.000000" stroke-linejoin="round"/>
		<path id="Vector 37" d="M84 74.12L97.96 82.26L97.96 75.28L84 67.14L84 74.12Z" fill="#001A38" fill-opacity="1.000000" fill-rule="nonzero"/>
		<path id="Vector 37" d="M84 74.12L84 67.14L97.96 75.28L97.96 82.26L84 74.12Z" stroke="#FFFFFF" stroke-opacity="1.000000" stroke-width="1.000000" stroke-linejoin="round"/>
		<path id="Vector 38" d="M97.96 75.28L111.92 67.14L97.96 59L84 67.14L97.96 75.28Z" fill="#001A38" fill-opacity="1.000000" fill-rule="nonzero"/>
		<path id="Vector 38" d="M97.96 75.28L84 67.14L97.96 59L111.92 67.14L97.96 75.28Z" stroke="#FFFFFF" stroke-opacity="1.000000" stroke-width="1.000000" stroke-linejoin="round"/>
		<path id="Vector 34" d="M34.26 77.21C33.19 77.78 31.89 77.75 30.85 77.14L14.48 67.51C13.71 67.06 13.72 65.94 14.5 65.5L19.17 62.83C20.24 62.22 21.56 62.22 22.63 62.83L39.43 72.43C40.22 72.88 40.21 74.04 39.4 74.47L34.26 77.21Z" stroke="#FFFFFF" stroke-opacity="1.000000" stroke-width="1.000000"/>
		<path id="Rectangle 5" d="M53.05 75.74L72.95 75.74L72.95 95.64L53.05 95.64L53.05 75.74Z" fill="#001A38" fill-opacity="1.000000" fill-rule="nonzero"/>
		<path id="Rectangle 5" d="M72.95 76.74L72.95 75.74L53.05 75.74L53.05 95.64L72.95 95.64L72.95 76.74ZM71.95 76.74L71.95 94.64L54.05 94.64L54.05 76.74L71.95 76.74Z" fill="#FFFFFF" fill-opacity="1.000000" fill-rule="evenodd"/>
		<mask id="mask_447_26729" fill="white">
			<path id="Union" d="M42 76.8442L56.3726 76.8442L56.3726 78.8311L56.5 77.5005L68.4214 83.1157L68.4214 101.884L68.4287 101.889C68.4263 101.89 68.4238 101.892 68.4214 101.893L68.4214 101.9L68.4097 101.9C65.7017 103.44 62 104.418 57.8833 104.477C54.0537 104.535 50.1807 103.787 47.1172 102.206C44.2715 100.74 42.3652 98.6733 42.0508 96.3213C42.0195 96.0942 42.0039 95.8667 42.0039 95.6392L42 95.6392L42 76.8442Z" clip-rule="evenodd" fill="" fill-opacity="1.000000" fill-rule="evenodd"/>
		</mask>
		<path id="Union" d="M42 76.8442L56.3726 76.8442L56.3726 78.8311L56.5 77.5005L68.4214 83.1157L68.4214 101.884L68.4287 101.889C68.4263 101.89 68.4238 101.892 68.4214 101.893L68.4214 101.9L68.4097 101.9C65.7017 103.44 62 104.418 57.8833 104.477C54.0537 104.535 50.1807 103.787 47.1172 102.206C44.2715 100.74 42.3652 98.6733 42.0508 96.3213C42.0195 96.0942 42.0039 95.8667 42.0039 95.6392L42 95.6392L42 76.8442Z" clip-rule="evenodd" fill="url(#paint_linear_447_26729_0)" fill-opacity="1.000000" fill-rule="evenodd" mask="url(#mask_447_26729)"/>
		<path id="Union" d="M55.5583 76.8442L42 76.8442L42 95.6392L42.0039 95.6392C42.0039 95.8667 42.0195 96.0942 42.0508 96.3213C42.3652 98.6733 44.2715 100.74 47.1172 102.206C50.1807 103.787 54.0537 104.535 57.8833 104.477C61.5193 104.425 64.8316 103.656 67.4214 102.416C67.7637 102.252 68.0935 102.08 68.4097 101.9L68.4214 101.9L68.4214 101.893L68.4287 101.889L68.4214 101.884L68.4214 83.1157L57.4612 77.9532L57.3726 77.9115L56.5 77.5005L56.3987 78.5583L56.3726 78.8311L56.3726 76.8442L55.5583 76.8442ZM55.3726 77.8442L43 77.8442L43 94.6392L43.002 94.6392L43.0039 95.6372Q43.0039 95.9121 43.0415 96.1885Q43.0721 96.4171 43.1244 96.6407Q43.7583 99.3511 47.5762 101.317Q51.9346 103.567 57.8687 103.478Q63.4183 103.398 67.4214 101.3L67.4214 83.7503L57.1586 78.9163L55.3726 78.8311L55.3726 77.8442Z" clip-rule="evenodd" fill="#FFFFFF" fill-opacity="1.000000" fill-rule="evenodd"/>
		<path id="Ellipse 166" d="M72.95 76.84C72.95 74.4 71.22 72.19 68.41 70.59C65.4 68.86 61.44 68 57.47 68C53.2 68 49.33 68.99 46.53 70.59C43.51 72.31 42 74.58 42 76.84C42 79.28 43.73 81.49 46.53 83.09C49.55 84.82 53.51 85.68 57.47 85.68C61.74 85.68 65.61 84.69 68.42 83.09L57.47 76.84L72.95 76.84Z" fill="#001A38" fill-opacity="1.000000" fill-rule="evenodd"/>
		<path id="Ellipse 166" d="M59.49 76.84L72.95 76.84C72.95 76.5 72.92 76.17 72.85 75.84C72.45 73.8 70.83 71.97 68.41 70.59C65.4 68.86 61.44 68 57.47 68C53.2 68 49.33 68.99 46.53 70.59C43.51 72.31 42 74.58 42 76.84C42 79.28 43.73 81.49 46.53 83.09C49.55 84.82 53.51 85.68 57.47 85.68C61.23 85.68 64.68 84.92 67.36 83.64C67.73 83.47 68.08 83.29 68.42 83.09L67.4 82.51L59.22 77.84L57.47 76.84L59.49 76.84ZM66.29 83.03L56.98 77.71L57.47 75.84L71.83 75.84Q71.6 74.9 70.93 73.99Q69.88 72.58 67.92 71.46L67.92 71.46Q65.82 70.26 63.07 69.62Q60.39 69 57.47 69Q54.45 69 51.69 69.66Q49.05 70.3 47.03 71.46Q44.99 72.62 43.95 74.09Q43.11 75.27 43.01 76.5Q43 76.67 43 76.84Q43 77.03 43.02 77.22Q43.13 78.49 44.02 79.69Q45.07 81.1 47.03 82.22Q49.12 83.42 51.87 84.06Q54.56 84.68 57.47 84.68Q60.5 84.68 63.26 84.02Q64.89 83.62 66.29 83.03Z" fill="#FFFFFF" fill-opacity="1.000000" fill-rule="evenodd"/>
		<path id="Vector 47" d="M20.2 18.28L20.2 25.49L15.48 25.49L15.48 18.93L20.2 18.28Z" fill="#FFFFFF" fill-opacity="1.000000" fill-rule="evenodd"/>
		<mask id="mask_447_26737" fill="white">
			<path id="Union" d="M26.5405 27.3613C26.4346 28.4961 25.7031 29.5366 24.5391 30.3726C23.1851 31.3481 21.3477 31.9775 19.375 32.2383C17.2529 32.521 15.1294 32.3608 13.3008 31.8638C11.3311 31.3311 9.84277 30.4507 8.95166 29.4116C8.38232 28.7505 8.07715 28.0542 8.01318 27.3613L8.00049 27.3613L8.00049 27.1309C8 27.0981 8 27.0654 8.00049 27.0327L8.00049 23.6167L10.2466 23.6167C10.6021 23.3813 10.9917 23.165 11.4102 22.9697L12.3345 23.6167L26.5552 23.6167L26.5552 27.3613L26.5405 27.3613Z" clip-rule="evenodd" fill="" fill-opacity="1.000000" fill-rule="evenodd"/>
		</mask>
		<path id="Union" d="M26.5405 27.3613C26.4346 28.4961 25.7031 29.5366 24.5391 30.3726C23.1851 31.3481 21.3477 31.9775 19.375 32.2383C17.2529 32.521 15.1294 32.3608 13.3008 31.8638C11.3311 31.3311 9.84277 30.4507 8.95166 29.4116C8.38232 28.7505 8.07715 28.0542 8.01318 27.3613L8.00049 27.3613L8.00049 27.1309C8 27.0981 8 27.0654 8.00049 27.0327L8.00049 23.6167L10.2466 23.6167C10.6021 23.3813 10.9917 23.165 11.4102 22.9697L12.3345 23.6167L26.5552 23.6167L26.5552 27.3613L26.5405 27.3613Z" clip-rule="evenodd" fill="url(#paint_linear_447_26737_0)" fill-opacity="1.000000" fill-rule="evenodd" mask="url(#mask_447_26737)"/>
		<path id="Union" d="M26.5405 27.3613C26.4346 28.4961 25.7031 29.5366 24.5391 30.3726C23.1851 31.3481 21.3477 31.9775 19.375 32.2383C17.2529 32.521 15.1294 32.3608 13.3008 31.8638C11.3311 31.3311 9.84277 30.4507 8.95166 29.4116C8.38232 28.7505 8.07715 28.0542 8.01318 27.3613L8.00049 27.3613L8.00049 27.1309Q8.00012 27.1063 8.00012 27.0818Q8.00012 27.0573 8.00049 27.0327L8.00049 23.6167L10.2466 23.6167C10.6021 23.3813 10.9917 23.165 11.4102 22.9697L12.3345 23.6167L26.5552 23.6167L26.5552 27.3613L26.5405 27.3613ZM25.5552 27.1584L25.5449 27.2686Q25.4902 27.8525 25.1074 28.4199Q24.6978 29.0273 23.9561 29.5601Q23.0718 30.1973 21.8535 30.6313Q20.647 31.0615 19.2441 31.2471Q18.7085 31.3184 18.1706 31.3508Q17.2353 31.4071 16.293 31.3457Q14.8638 31.2524 13.563 30.8989Q12.2339 30.5396 11.2178 29.959Q10.2793 29.4233 9.71094 28.7607Q9.0791 28.0273 9.00879 27.269L9.00049 27.1798L9.00049 27.1309Q8.99951 27.082 9.00049 27.0493L9.00049 24.6167L10.5479 24.6167L10.7993 24.4502Q11.0496 24.2843 11.327 24.132L12.0195 24.6167L25.5552 24.6167L25.5552 27.1584Z" clip-rule="evenodd" fill="#FFFFFF" fill-opacity="1.000000" fill-rule="evenodd"/>
		<path id="Ellipse 166" d="M20.21 18.27C17.93 17.83 15.55 17.93 13.51 18.45C11.3 19.01 9.67 20 8.77 21.17C7.81 22.44 7.77 23.8 8.49 25.01C9.27 26.31 10.85 27.33 12.81 27.94C14.93 28.61 17.3 28.75 19.47 28.44C21.81 28.12 23.73 27.31 24.97 26.25C26.32 25.1 26.78 23.77 26.44 22.5L17.27 23.3L20.21 18.27Z" fill="#001A38" fill-opacity="1.000000" fill-rule="evenodd"/>
		<path id="Ellipse 166" d="M17.89 22.24L19.68 19.19L20.21 18.27C19.86 18.2 19.51 18.15 19.15 18.1C17.2 17.87 15.24 18.01 13.51 18.45C11.3 19.01 9.67 20 8.77 21.17C7.81 22.44 7.77 23.8 8.49 25.01C9.27 26.31 10.85 27.33 12.81 27.94C14.93 28.61 17.3 28.75 19.47 28.44C21.81 28.12 23.73 27.31 24.97 26.25C26.32 25.1 26.78 23.77 26.44 22.5L18.49 23.19L17.27 23.3L17.89 22.24ZM25.53 23.59L15.43 24.46L18.6 19.05Q17.71 18.97 16.8 19Q15.21 19.05 13.75 19.42L13.75 19.42Q12.27 19.8 11.15 20.45Q10.13 21.04 9.57 21.78Q9.04 22.47 9 23.17Q8.99 23.24 8.99 23.31Q9 23.9 9.35 24.49Q9.81 25.26 10.77 25.9Q11.75 26.56 13.11 26.99Q14.56 27.44 16.19 27.56Q17.31 27.64 18.42 27.55Q18.88 27.52 19.33 27.45Q20.94 27.23 22.26 26.7Q23.5 26.19 24.33 25.49Q25.12 24.81 25.4 24.07Q25.49 23.83 25.53 23.59Z" fill="#FFFFFF" fill-opacity="1.000000" fill-rule="evenodd"/>
		<path id="Vector 43" d="M54.64 33.57L54.64 55.03L68.6 46.88L68.6 25.43L54.64 33.57Z" fill="#FFFFFF" fill-opacity="1.000000" fill-rule="nonzero"/>
		<path id="Vector 43" d="M54.64 33.57L68.6 25.43L68.6 46.88L54.64 55.03L54.64 33.57Z" stroke="#FFFFFF" stroke-opacity="1.000000" stroke-width="1.000000" stroke-linejoin="round"/>
		<path id="Vector 44" d="M40.68 46.88L54.64 55.03L54.64 33.57L40.68 25.43L40.68 46.88Z" fill="#001A38" fill-opacity="1.000000" fill-rule="nonzero"/>
		<path id="Vector 44" d="M40.68 46.88L40.68 25.43L54.64 33.57L54.64 55.03L40.68 46.88Z" stroke="#FFFFFF" stroke-opacity="1.000000" stroke-width="1.000000" stroke-linejoin="round"/>
		<path id="Vector 45" d="M54.64 33.58L68.6 25.43L54.64 17.29L40.68 25.43L54.64 33.58Z" fill="#001A38" fill-opacity="1.000000" fill-rule="nonzero"/>
		<path id="Vector 45" d="M54.64 33.58L40.68 25.43L54.64 17.29L68.6 25.43L54.64 33.58Z" stroke="#FFFFFF" stroke-opacity="1.000000" stroke-width="1.000000" stroke-linejoin="round"/>
		<path id="Vector 43" d="M78 20.29L78 65.25C78 66.03 78.83 66.51 79.5 66.12L91.46 59.14C91.77 58.96 91.96 58.63 91.96 58.28L91.96 12.74C91.96 11.96 91.12 11.48 90.45 11.87L78.99 18.56C78.37 18.92 78 19.58 78 20.29Z" fill="url(#paint_linear_447_26746_0)" fill-opacity="1.000000" fill-rule="nonzero"/>
		<path id="Vector 40" d="M75.58 17.41L89.54 9.27L89.54 60.84L75.58 68.99L75.58 17.41Z" stroke="#FFFFFF" stroke-opacity="1.000000" stroke-width="1.000000" stroke-linejoin="round"/>
		<path id="Vector 41" d="M61.62 60.84L75.58 68.99L75.58 17.41L61.62 9.27L61.62 60.84Z" fill="#001A38" fill-opacity="1.000000" fill-rule="nonzero"/>
		<path id="Vector 41" d="M61.62 60.84L61.62 9.27L75.58 17.41L75.58 68.99L61.62 60.84Z" stroke="#FFFFFF" stroke-opacity="1.000000" stroke-width="1.000000" stroke-linejoin="round"/>
		<path id="Vector 42" d="M75.58 17.41L61.62 9.27L75.58 1.13L89.54 9.27L75.58 17.41Z" stroke="#FFFFFF" stroke-opacity="1.000000" stroke-width="1.000000" stroke-linejoin="round"/>
		<path id="Rectangle 6" d="M76.16 51L78 51L78 56L76.16 56L76.16 51Z" fill="#001A38" fill-opacity="1.000000" fill-rule="nonzero"/>
	</g>
</svg>
