<svg width="128.000000" height="119.000000" viewBox="0 0 128 119" fill="none" xmlns="http://www.w3.org/2000/svg" xmlns:xlink="http://www.w3.org/1999/xlink">
	<defs>
		<linearGradient id="paint_linear_447_26632_0" x1="57.667969" y1="61.000000" x2="57.667969" y2="77.000000" gradientUnits="userSpaceOnUse">
			<stop stop-color="#066869"/>
			<stop offset="1.000000" stop-color="#001A38"/>
		</linearGradient>
		<linearGradient id="paint_linear_447_26633_0" x1="93.667969" y1="73.000008" x2="111.968269" y2="60.500008" gradientUnits="userSpaceOnUse">
			<stop stop-color="#066869"/>
			<stop offset="1.000000" stop-color="#001A38"/>
		</linearGradient>
		<linearGradient id="paint_linear_447_26638_0" x1="64.822418" y1="47.500191" x2="93.430527" y2="45.881081" gradientUnits="userSpaceOnUse">
			<stop stop-color="#066869"/>
			<stop offset="1.000000" stop-color="#011E3B"/>
		</linearGradient>
		<linearGradient id="paint_linear_447_26652_0" x1="71.299660" y1="32.925957" x2="85.873451" y2="32.925957" gradientUnits="userSpaceOnUse">
			<stop stop-color="#066869"/>
			<stop offset="1.000000" stop-color="#001A38"/>
		</linearGradient>
	</defs>
	<path id="Vector 15" d="M47.68 94.51C46.28 94.7 44.88 94.13 44 93.02L12.66 53.23C11.71 52.01 12.43 50.22 13.97 50.01L81.27 40.89C81.97 40.79 82.67 41.08 83.11 41.63L115.16 82.32C116.11 83.54 115.39 85.33 113.85 85.54L47.68 94.51Z" stroke="#FFFFFF" stroke-opacity="1.000000" stroke-width="1.000000"/>
	<path id="Vector 20" d="M115.8 79.1L51.6 97.46C50.24 97.85 48.77 97.49 47.74 96.52L11.02 61.63C9.9 60.57 10.36 58.69 11.85 58.26L77.14 39.58C77.83 39.39 78.56 39.57 79.07 40.06L116.62 75.72C117.75 76.79 117.29 78.67 115.8 79.1Z" fill="#FFFFFF" fill-opacity="1.000000" fill-rule="evenodd"/>
	<ellipse id="Ellipse 161" cx="82.068359" cy="94.000000" rx="2.000000" ry="1.000000" fill="#FFFFFF" fill-opacity="1.000000"/>
	<ellipse id="Ellipse 161" cx="82.068359" cy="94.000000" rx="1.500000" ry="0.500000" stroke="#FFFFFF" stroke-opacity="1.000000" stroke-width="1.000000"/>
	<ellipse id="Ellipse 162" cx="105.500000" cy="94.000000" rx="4.500000" ry="2.000000" fill="#FFFFFF" fill-opacity="1.000000"/>
	<ellipse id="Ellipse 162" cx="105.500000" cy="94.000000" rx="4.000000" ry="1.500000" stroke="#FFFFFF" stroke-opacity="1.000000" stroke-width="1.000000"/>
	<ellipse id="Ellipse 163" cx="20.568359" cy="91.000000" rx="4.500000" ry="2.000000" fill="#FFFFFF" fill-opacity="1.000000"/>
	<ellipse id="Ellipse 163" cx="20.568359" cy="91.000000" rx="4.000000" ry="1.500000" stroke="#FFFFFF" stroke-opacity="1.000000" stroke-width="1.000000"/>
	<ellipse id="Ellipse 165" cx="39.568359" cy="40.000000" rx="4.500000" ry="2.000000" fill="#FFFFFF" fill-opacity="1.000000"/>
	<ellipse id="Ellipse 165" cx="39.568359" cy="40.000000" rx="4.000000" ry="1.500000" stroke="#FFFFFF" stroke-opacity="1.000000" stroke-width="1.000000"/>
	<path id="Vector 16" d="M59.65 100.86L117.62 67.73C118.97 66.96 118.97 65.03 117.62 64.26L74.14 39.41C72.61 38.53 70.72 38.53 69.18 39.41L11.7 72.26C10.36 73.03 10.36 74.96 11.7 75.73L55.68 100.86C56.91 101.56 58.42 101.56 59.65 100.86Z" fill="#001A38" fill-opacity="1.000000" fill-rule="nonzero"/>
	<path id="Vector 16" d="M59.65 100.86C58.42 101.56 56.91 101.56 55.68 100.86L11.7 75.73C10.36 74.96 10.36 73.03 11.7 72.26L69.18 39.41C70.72 38.53 72.61 38.53 74.14 39.41L117.62 64.26C118.97 65.03 118.97 66.96 117.62 67.73L59.65 100.86Z" stroke="#FFFFFF" stroke-opacity="1.000000" stroke-width="1.000000"/>
	<path id="Vector 21" d="M45.18 64.13L49.67 61.56C50.29 61.21 51.04 61.21 51.66 61.56L70.14 72.13C70.82 72.51 70.82 73.48 70.14 73.86L65.66 76.43C65.04 76.78 64.29 76.78 63.67 76.43L45.18 65.86C44.51 65.48 44.51 64.51 45.18 64.13Z" fill="url(#paint_linear_447_26632_0)" fill-opacity="1.000000" fill-rule="evenodd"/>
	<path id="Vector 22" d="M105.79 63.43L96.8 68.73Q96.58 68.86 96.42 69.04Q96.32 69.15 96.25 69.29Q96.17 69.43 96.12 69.58Q96.06 69.79 96.06 70.01Q96.06 70.23 96.12 70.44Q96.16 70.59 96.24 70.73Q96.31 70.87 96.41 70.98Q96.56 71.17 96.78 71.3L96.86 71.35Q97.26 71.59 97.71 71.72Q98.15 71.85 98.62 71.85Q99.1 71.86 99.55 71.75Q99.99 71.63 100.41 71.39L113.25 64.06L113.74 64.93L100.9 72.26Q100.63 72.42 100.33 72.54Q100.07 72.64 99.79 72.71Q99.5 72.79 99.22 72.82Q98.92 72.86 98.61 72.85Q98.31 72.85 98.01 72.8Q97.72 72.76 97.44 72.68Q97.16 72.6 96.9 72.49Q96.61 72.37 96.34 72.2L96.26 72.16Q95.93 71.95 95.68 71.67Q95.49 71.46 95.36 71.21Q95.22 70.95 95.15 70.68Q95.06 70.35 95.06 70Q95.06 69.65 95.15 69.33Q95.23 69.06 95.37 68.8Q95.51 68.55 95.7 68.34Q95.95 68.06 96.29 67.87L105.28 62.56C105.52 62.42 105.82 62.5 105.96 62.74C106.11 62.98 106.03 63.28 105.79 63.43Z" fill="url(#paint_linear_447_26633_0)" fill-opacity="1.000000" fill-rule="evenodd"/>
	<path id="Vector 17" d="M49.67 58.56C50.29 58.21 51.04 58.21 51.66 58.56L70.14 69.13C70.82 69.51 70.82 70.48 70.14 70.86L65.66 73.43C65.04 73.78 64.29 73.78 63.67 73.43L45.18 62.86C44.51 62.48 44.51 61.51 45.18 61.13L49.67 58.56Z" stroke="#FFFFFF" stroke-opacity="1.000000" stroke-width="1.000000"/>
	<path id="Vector 18" d="M34.66 67L48.66 75M46.16 76.5L32.16 68.5M29.66 70L43.66 78M37.66 65.5L51.66 " stroke="#FFFFFF" stroke-opacity="1.000000" stroke-width="1.000000"/>
	<path id="Vector 19" d="M96.33 66.72L105.42 61.43C105.66 61.29 105.74 60.98 105.6 60.74C105.45 60.5 105.15 60.42 104.91 60.56L95.83 65.86Q95.49 66.06 95.24 66.34Q95.05 66.55 94.91 66.8Q94.76 67.05 94.69 67.33Q94.59 67.65 94.59 68Q94.59 68.36 94.68 68.68Q94.75 68.96 94.89 69.21Q95.03 69.47 95.22 69.68Q95.47 69.96 95.8 70.16L95.87 70.2Q96.15 70.37 96.44 70.49Q96.7 70.6 96.99 70.68Q97.27 70.76 97.55 70.8Q97.86 70.84 98.16 70.85Q98.47 70.85 98.77 70.81Q99.06 70.77 99.34 70.69Q99.63 70.62 99.89 70.51Q100.19 70.39 100.46 70.23L116.04 61.11Q116.38 60.91 116.63 60.64Q116.82 60.43 116.96 60.18Q117.1 59.92 117.18 59.65Q117.27 59.33 117.28 58.98Q117.28 58.63 117.2 58.3Q117.12 58.03 116.99 57.78Q116.85 57.52 116.67 57.31Q116.42 57.03 116.09 56.82L114.4 55.79Q114.13 55.62 113.85 55.5Q113.59 55.38 113.32 55.3Q113.04 55.22 112.76 55.17Q112.46 55.13 112.16 55.12Q111.86 55.11 111.56 55.14Q111.28 55.17 111 55.24Q110.72 55.31 110.45 55.41Q110.16 55.52 109.89 55.67L106.42 57.56L106.9 58.43L110.37 56.54Q110.78 56.32 111.22 56.21Q111.66 56.11 112.13 56.12Q112.6 56.13 113.04 56.26Q113.48 56.39 113.88 56.64L115.56 57.67Q115.78 57.81 115.94 57.99Q116.03 58.11 116.1 58.25Q116.18 58.39 116.22 58.54Q116.28 58.75 116.28 58.97Q116.28 59.19 116.21 59.39Q116.17 59.55 116.09 59.69Q116.01 59.82 115.91 59.93Q115.76 60.12 115.54 60.25L99.96 69.37Q99.54 69.61 99.1 69.73Q98.65 69.85 98.17 69.85Q97.69 69.84 97.24 69.72Q96.8 69.59 96.39 69.35L96.32 69.31Q96.1 69.17 95.94 68.99Q95.84 68.87 95.77 68.74Q95.69 68.59 95.65 68.44Q95.59 68.23 95.59 68.01Q95.59 67.79 95.65 67.58Q95.7 67.43 95.78 67.29Q95.85 67.15 95.95 67.04Q96.11 66.85 96.33 66.72Z" fill="#FFFFFF" fill-opacity="1.000000" fill-rule="evenodd"/>
	<mask id="mask_447_26638" fill="white">
		<path id="Union" d="M64.668 41.458L64.668 53.6719L64.6685 53.6719C64.6738 57.4175 70.748 60.4531 78.2407 60.4531C85.7363 60.4531 91.8125 57.4146 91.8125 53.667C91.8125 53.6465 91.8125 53.6265 91.812 53.606L91.812 41.4614C91.8091 44.1436 88.6943 46.4619 84.1753 47.5625C82.3828 47.126 80.3687 46.8809 78.2407 46.8809C76.1118 46.8809 74.0981 47.126 72.3052 47.5625C67.7837 46.4614 64.668 44.1416 64.668 41.458Z" clip-rule="evenodd" fill="" fill-opacity="1.000000" fill-rule="evenodd"/>
	</mask>
	<path id="Union" d="M64.668 41.458L64.668 53.6719L64.6685 53.6719C64.6738 57.4175 70.748 60.4531 78.2407 60.4531C85.7363 60.4531 91.8125 57.4146 91.8125 53.667C91.8125 53.6465 91.8125 53.6265 91.812 53.606L91.812 41.4614C91.8091 44.1436 88.6943 46.4619 84.1753 47.5625C82.3828 47.126 80.3687 46.8809 78.2407 46.8809C76.1118 46.8809 74.0981 47.126 72.3052 47.5625C67.7837 46.4614 64.668 44.1416 64.668 41.458Z" clip-rule="evenodd" fill="url(#paint_linear_447_26638_0)" fill-opacity="1.000000" fill-rule="evenodd" mask="url(#mask_447_26638)"/>
	<path id="Union" d="M65.168 41.458L65.168 53.6719L64.668 53.6719L64.668 53.1719L65.168 53.1719L65.1685 53.6714Q65.1704 54.8682 66.1191 55.9883Q67.084 57.127 68.8706 58.0195Q70.6914 58.9297 73.0635 59.4307Q75.5327 59.9531 78.2407 59.9531Q80.9492 59.9531 83.4199 59.4307Q85.7925 58.9287 87.6138 58.0181Q89.4004 57.125 90.3643 55.9854Q91.3125 54.8643 91.3125 53.667L91.312 53.6104L91.312 41.4614L92.312 41.4624Q92.311 42.5889 91.6831 43.647Q91.0947 44.6377 89.9956 45.4985Q88.937 46.3276 87.4785 46.9785Q86.0288 47.6255 84.2939 48.0483L84.1753 48.0771L84.0571 48.0483Q81.3169 47.3809 78.2407 47.3809Q75.1641 47.3809 72.4233 48.0483L72.3052 48.0771L72.1865 48.0483Q70.4507 47.6255 69.0005 46.978Q67.541 46.3267 66.4824 45.4976Q65.3833 44.6357 64.7954 43.644Q64.168 42.5854 64.168 41.458L65.168 41.458ZM64.168 41.458L64.668 41.458L65.168 41.458Q65.168 42.3115 65.6558 43.1343Q66.1475 43.9644 67.0991 44.71Q68.061 45.4639 69.4082 46.0649Q70.7754 46.6753 72.4233 47.0767L72.3052 47.5625L72.1865 47.0767Q75.0439 46.3809 78.2407 46.3809Q81.437 46.3809 84.2939 47.0767L84.1753 47.5625L84.0571 47.0767Q85.7041 46.6753 87.0708 46.0654Q88.4175 45.4644 89.3789 44.7114Q90.3306 43.9663 90.8232 43.1362Q91.311 42.314 91.312 41.4609L91.812 41.4614L92.312 41.4614L92.312 53.6016L92.3125 53.667Q92.3125 54.459 91.9995 55.2241Q91.7007 55.9536 91.1279 56.6313Q90.0312 57.9272 88.061 58.9126Q86.125 59.8804 83.627 60.4087Q81.0542 60.9531 78.2407 60.9531Q75.4282 60.9531 72.8564 60.4092Q70.3589 59.8813 68.4233 58.9141Q66.4536 57.9302 65.3564 56.6348Q64.7827 55.958 64.4834 55.2285Q64.1694 54.4644 64.1685 53.6729L64.6685 53.6719L64.6685 54.1719L64.168 54.1719L64.168 41.458Z" fill="#FFFFFF" fill-opacity="1.000000" fill-rule="nonzero"/>
	<ellipse id="Ellipse 159" cx="78.239746" cy="41.454102" rx="13.572016" ry="6.786008" fill="#001A38" fill-opacity="1.000000"/>
	<ellipse id="Ellipse 159" cx="78.239746" cy="41.454102" rx="13.572016" ry="6.786008" stroke="#FFFFFF" stroke-opacity="1.000000" stroke-width="1.000000" stroke-linejoin="round"/>
	<ellipse id="Ellipse 159" cx="78.240234" cy="29.568848" rx="6.786008" ry="3.393004" fill="#001A38" fill-opacity="1.000000"/>
	<ellipse id="Ellipse 159" cx="78.240234" cy="29.568848" rx="6.786008" ry="3.393004" stroke="#FFFFFF" stroke-opacity="1.000000" stroke-width="1.000000" stroke-linejoin="round"/>
	<path id="Rectangle 1" d="M66.02 1.25L68.73 0.73L76.38 33.88L75.35 33.88L66.02 1.25Z" fill="#FFFFFF" fill-opacity="1.000000" fill-rule="nonzero"/>
	<path id="Rectangle 2" d="M85.55 8.26L83.01 7.98L78.42 39.08L79.38 39L85.55 8.26Z" fill="#FFFFFF" fill-opacity="1.000000" fill-rule="nonzero"/>
	<ellipse id="Ellipse 161" rx="1.276418" ry="0.691644" transform="matrix(-0.99461 0.99461 -0.103691 -0.103691 84.2837 8.11816)" fill="#FFFFFF" fill-opacity="1.000000"/>
	<path id="Rectangle 2" d="M66.02 1.25L68.74 0.73L76.38 33.88L75.35 33.88L66.02 1.25Z" fill="#FFFFFF" fill-opacity="1.000000" fill-rule="nonzero"/>
	<ellipse id="Ellipse 161" rx="1.381692" ry="0.748688" transform="matrix(0.983093 0.983093 0.183107 -0.183107 67.3813 0.98877)" fill="#FFFFFF" fill-opacity="1.000000"/>
	<mask id="mask_447_26652" fill="white">
		<path id="Subtract" d="M71.4546 29.2461L71.4546 35.6479C71.4541 35.6582 71.4541 35.668 71.4541 35.6782C71.4541 35.6885 71.4541 35.6982 71.4546 35.7085L71.4546 36.0264L71.4893 36.0264C71.8379 37.7368 74.7275 39.0713 78.2402 39.0713C81.7529 39.0713 84.6421 37.7368 84.9907 36.0264L85.0264 36.0264L85.0264 29.2402C85.0249 31.3218 81.9873 33.0088 78.2402 33.0088C74.4971 33.0088 71.4614 31.3247 71.4546 29.2461Z" clip-rule="evenodd" fill="" fill-opacity="1.000000" fill-rule="evenodd"/>
	</mask>
	<path id="Subtract" d="M71.4546 29.2461L71.4546 35.6479C71.4541 35.6582 71.4541 35.668 71.4541 35.6782C71.4541 35.6885 71.4541 35.6982 71.4546 35.7085L71.4546 36.0264L71.4893 36.0264C71.8379 37.7368 74.7275 39.0713 78.2402 39.0713C81.7529 39.0713 84.6421 37.7368 84.9907 36.0264L85.0264 36.0264L85.0264 29.2402C85.0249 31.3218 81.9873 33.0088 78.2402 33.0088C74.4971 33.0088 71.4614 31.3247 71.4546 29.2461Z" clip-rule="evenodd" fill="url(#paint_linear_447_26652_0)" fill-opacity="1.000000" fill-rule="evenodd" mask="url(#mask_447_26652)"/>
	<path id="Subtract" d="M71.9546 29.2461L71.9546 35.6479L71.9541 35.6826L71.9546 35.7041L71.9546 36.0264L71.4546 36.0264L71.4546 35.5264L71.4893 35.5264Q71.5322 35.5264 71.5745 35.5337Q71.6168 35.541 71.6573 35.5554Q71.6977 35.5698 71.7351 35.5908Q71.7725 35.6119 71.8058 35.639Q71.839 35.6662 71.8672 35.6986Q71.8953 35.731 71.9175 35.7677Q71.9397 35.8044 71.9553 35.8443Q71.9709 35.8843 71.9795 35.9263Q72.0776 36.4082 72.5464 36.8657Q73.0474 37.3545 73.8848 37.7349Q74.7534 38.1294 75.8491 38.3452Q76.9946 38.5713 78.2402 38.5713Q79.4854 38.5713 80.6313 38.3452Q81.7271 38.1294 82.5952 37.7349Q83.4331 37.3545 83.9336 36.8657Q84.4028 36.4082 84.501 35.9263Q84.5095 35.8843 84.5251 35.8443Q84.5407 35.8044 84.5629 35.7677Q84.5851 35.731 84.6132 35.6986Q84.6413 35.6662 84.6746 35.639Q84.7078 35.6119 84.7451 35.5908Q84.7825 35.5698 84.8229 35.5554Q84.8633 35.541 84.9056 35.5337Q84.9478 35.5264 84.9907 35.5264L85.0264 35.5264L85.0264 36.0264L84.5264 36.0264L84.5264 29.2402L85.0264 29.2402L85.5264 29.2407Q85.5259 30.1758 84.8901 31.0103Q84.3115 31.7695 83.2808 32.3423Q82.2808 32.8975 80.9956 33.1992Q79.6787 33.5088 78.2402 33.5088Q76.8037 33.5088 75.4878 33.1997Q74.2036 32.8984 73.2036 32.3442Q72.1738 31.7729 71.5942 31.0146Q70.9575 30.1816 70.9546 29.248L71.4546 29.2461L71.9546 29.2461ZM70.9546 29.2461Q70.9546 29.1969 70.9642 29.1487Q70.9737 29.1005 70.9925 29.0551Q71.0112 29.0096 71.0385 28.9687Q71.0657 28.9278 71.1004 28.893Q71.135 28.8582 71.1758 28.8309Q71.2166 28.8035 71.2619 28.7846Q71.3073 28.7657 71.3554 28.756Q71.4035 28.7462 71.4526 28.7461Q71.5019 28.7459 71.5502 28.7553Q71.5985 28.7647 71.6441 28.7834Q71.6897 28.8021 71.7307 28.8293Q71.7718 28.8565 71.8068 28.8912Q71.8417 28.9258 71.8692 28.9667Q71.8967 29.0075 71.9158 29.0529Q71.9348 29.0984 71.9446 29.1466Q71.9544 29.1949 71.9546 29.2441Q71.9565 29.8418 72.3887 30.4072Q72.8413 30.9995 73.689 31.4697Q74.5669 31.9565 75.7158 32.2266Q76.9194 32.5088 78.2402 32.5088Q79.5625 32.5088 80.7666 32.2256Q81.9165 31.9556 82.7949 31.4678Q83.6426 30.9971 84.0947 30.4043Q84.5259 29.8379 84.5264 29.2397Q84.5264 29.1905 84.5361 29.1423Q84.5457 29.094 84.5646 29.0486Q84.5834 29.0031 84.6108 28.9622Q84.6382 28.9213 84.673 28.8865Q84.7078 28.8517 84.7487 28.8244Q84.7897 28.7971 84.8352 28.7782Q84.8806 28.7594 84.9289 28.7498Q84.9772 28.7402 85.0264 28.7402Q85.0756 28.7402 85.1239 28.7498Q85.1722 28.7594 85.2177 28.7783Q85.2632 28.7971 85.3041 28.8245Q85.3451 28.8519 85.3799 28.8867Q85.4147 28.9215 85.4421 28.9624Q85.4695 29.0034 85.4883 29.0489Q85.5071 29.0944 85.5167 29.1427Q85.5264 29.191 85.5264 29.2402L85.5264 36.0264Q85.5264 36.0756 85.5167 36.1239Q85.5071 36.1722 85.4883 36.2177Q85.4695 36.2632 85.4421 36.3041Q85.4147 36.3451 85.3799 36.3799Q85.3451 36.4147 85.3041 36.4421Q85.2632 36.4695 85.2177 36.4883Q85.1722 36.5071 85.1239 36.5168Q85.0756 36.5264 85.0264 36.5264L84.9907 36.5264L84.9907 36.0264L85.481 36.126Q85.3213 36.9092 84.6323 37.5815Q84.0059 38.1924 83.0088 38.6455Q82.0347 39.0879 80.8247 39.3267Q79.583 39.5713 78.2402 39.5713Q76.897 39.5713 75.6558 39.3267Q74.4458 39.0879 73.4712 38.6455Q72.4741 38.1924 71.8481 37.5815Q71.1592 36.9092 70.9995 36.126L71.4893 36.0264L71.4893 36.5264L71.4546 36.5264Q71.4053 36.5264 71.357 36.5168Q71.3087 36.5071 71.2632 36.4883Q71.2177 36.4695 71.1768 36.4421Q71.1358 36.4147 71.101 36.3799Q71.0662 36.3451 71.0388 36.3041Q71.0115 36.2632 70.9926 36.2177Q70.9738 36.1722 70.9642 36.1239Q70.9546 36.0756 70.9546 36.0264L70.9546 35.7129L70.9541 35.6738L70.9546 35.6479L70.9546 29.2461Z" fill="#FFFFFF" fill-opacity="1.000000" fill-rule="nonzero"/>
	<ellipse id="Ellipse 164" cx="63.167969" cy="89.000000" rx="4.500000" ry="2.000000" fill="#FFFFFF" fill-opacity="1.000000"/>
	<ellipse id="Ellipse 164" cx="63.167969" cy="89.000000" rx="4.000000" ry="1.500000" stroke="#FFFFFF" stroke-opacity="1.000000" stroke-width="1.000000"/>
</svg>
