<?xml version="1.0" encoding="UTF-8"?>
<svg width="39px" height="34px" viewBox="0 0 39 34" version="1.1" xmlns="http://www.w3.org/2000/svg" xmlns:xlink="http://www.w3.org/1999/xlink">
    <!-- Generator: Sketch 48.1 (47250) - http://www.bohemiancoding.com/sketch -->
    <title>Page 1</title>
    <desc>Created with Sketch.</desc>
    <defs></defs>
    <g id="Footer/Footer-Desktop" stroke="none" stroke-width="1" fill="none" fill-rule="evenodd" transform="translate(-150.000000, -513.000000)">
        <g id="Footer" fill="#FFFFFF">
            <g id="Page-1" transform="translate(150.000000, 513.000000)">
                <path d="M27.8928,33.2144 L3.0003,33.2144 C1.3503,33.2144 0.0003,31.8644 0.0003,30.2144 L0.0003,14.3564 C0.0003,12.7064 1.3503,11.3564 3.0003,11.3564 L27.8928,11.3564 C29.5428,11.3564 30.8928,12.7064 30.8928,14.3564 L30.8928,30.2144 C30.8928,31.8644 29.5428,33.2144 27.8928,33.2144" id="Fill-27" fill-opacity="0.6"></path>
                <path d="M35.3928,22.72265 L10.5003,22.72265 C8.8503,22.72265 7.5003,21.37265 7.5003,19.72265 L7.5003,3.86465 C7.5003,2.21465 8.8503,0.86465 10.5003,0.86465 L35.3928,0.86465 C37.0428,0.86465 38.3928,2.21465 38.3928,3.86465 L38.3928,19.72265 C38.3928,21.37265 37.0428,22.72265 35.3928,22.72265" id="Fill-29" fill-opacity="0.9"></path>
            </g>
        </g>
    </g>
</svg>